<svg width="1280" height="720" viewBox="0 0 1280 720" fill="none" xmlns="http://www.w3.org/2000/svg">
<g clip-path="url(#clip0_14_262)">
<mask id="mask0_14_262" style="mask-type:luminance" maskUnits="userSpaceOnUse" x="0" y="0" width="1280" height="721">
<path d="M0 720L1280 720L1280 0.00012207L6.29444e-05 1.01692e-05L0 720Z" fill="white"/>
</mask>
<g mask="url(#mask0_14_262)">
<path d="M0 720L1280 720L1280 0.00012207L6.29444e-05 1.01692e-05L0 720Z" fill="white"/>
<path d="M1110 527L1251 527L1251 312L1110 312L1110 527Z" fill="white" stroke="black" stroke-width="2" stroke-miterlimit="8"/>
<path d="M1152.45 435L1152.45 408.091L1168.58 408.091L1168.58 410.982L1155.71 410.982L1155.71 420.074L1167.37 420.074L1167.37 422.965L1155.71 422.965L1155.71 435L1152.45 435ZM1182.47 435.368C1180.49 435.368 1178.8 434.829 1177.41 433.752C1176.02 432.666 1174.95 431.093 1174.22 429.035C1173.48 426.968 1173.11 424.471 1173.11 421.546C1173.11 418.637 1173.48 416.154 1174.22 414.096C1174.96 412.028 1176.03 410.452 1177.42 409.366C1178.82 408.271 1180.5 407.723 1182.47 407.723C1184.43 407.723 1186.11 408.271 1187.5 409.366C1188.9 410.452 1189.97 412.028 1190.71 414.096C1191.45 416.154 1191.82 418.637 1191.82 421.546C1191.82 424.471 1191.45 426.968 1190.72 429.035C1189.98 431.093 1188.92 432.666 1187.53 433.752C1186.13 434.829 1184.45 435.368 1182.47 435.368ZM1182.47 432.477C1184.43 432.477 1185.95 431.531 1187.04 429.639C1188.13 427.747 1188.67 425.049 1188.67 421.546C1188.67 419.216 1188.42 417.232 1187.92 415.594C1187.43 413.955 1186.72 412.707 1185.79 411.849C1184.87 410.99 1183.76 410.561 1182.47 410.561C1180.52 410.561 1179 411.52 1177.91 413.439C1176.81 415.348 1176.27 418.051 1176.27 421.546C1176.27 423.876 1176.51 425.855 1177 427.484C1177.49 429.114 1178.2 430.353 1179.12 431.203C1180.05 432.053 1181.16 432.477 1182.47 432.477ZM1206.28 408.091L1206.28 435L1203.02 435L1203.02 411.507L1202.86 411.507L1196.29 415.869L1196.29 412.558L1203.02 408.091L1206.28 408.091Z" fill="black"/>
<path d="M969 526L1110 526L1110 354L969 354L969 526Z" fill="white" stroke="black" stroke-width="2" stroke-miterlimit="8"/>
<path d="M1007.35 456L1007.35 429.091L1023.49 429.091L1023.49 431.982L1010.61 431.982L1010.61 441.074L1022.28 441.074L1022.28 443.965L1010.61 443.965L1010.61 456L1007.35 456ZM1037.37 456.368C1035.39 456.368 1033.7 455.829 1032.31 454.752C1030.92 453.666 1029.85 452.093 1029.12 450.035C1028.38 447.968 1028.02 445.471 1028.02 442.546C1028.02 439.637 1028.38 437.154 1029.12 435.096C1029.86 433.028 1030.93 431.452 1032.32 430.366C1033.73 429.271 1035.41 428.723 1037.37 428.723C1039.33 428.723 1041.01 429.271 1042.4 430.366C1043.8 431.452 1044.87 433.028 1045.61 435.096C1046.35 437.154 1046.73 439.637 1046.73 442.546C1046.73 445.471 1046.36 447.968 1045.62 450.035C1044.89 452.093 1043.82 453.666 1042.43 454.752C1041.04 455.829 1039.35 456.368 1037.37 456.368ZM1037.37 453.477C1039.33 453.477 1040.86 452.531 1041.94 450.639C1043.03 448.747 1043.57 446.049 1043.57 442.546C1043.57 440.216 1043.32 438.232 1042.82 436.594C1042.33 434.955 1041.62 433.707 1040.69 432.849C1039.77 431.99 1038.67 431.561 1037.37 431.561C1035.43 431.561 1033.91 432.52 1032.81 434.439C1031.72 436.348 1031.17 439.051 1031.17 442.546C1031.17 444.876 1031.41 446.855 1031.9 448.484C1032.4 450.114 1033.1 451.353 1034.02 452.203C1034.95 453.053 1036.07 453.477 1037.37 453.477ZM1051.72 456L1051.72 453.635L1060.6 443.912C1061.64 442.773 1062.5 441.784 1063.18 440.943C1063.85 440.093 1064.35 439.296 1064.67 438.551C1065.01 437.798 1065.17 437.01 1065.17 436.186C1065.17 435.24 1064.95 434.421 1064.49 433.729C1064.04 433.037 1063.43 432.503 1062.65 432.126C1061.87 431.75 1060.99 431.561 1060.02 431.561C1058.99 431.561 1058.09 431.776 1057.32 432.205C1056.55 432.625 1055.96 433.217 1055.54 433.979C1055.13 434.741 1054.92 435.634 1054.92 436.659L1051.82 436.659C1051.82 435.083 1052.19 433.699 1052.91 432.507C1053.64 431.316 1054.63 430.387 1055.88 429.722C1057.14 429.056 1058.56 428.723 1060.13 428.723C1061.7 428.723 1063.1 429.056 1064.32 429.722C1065.54 430.387 1066.49 431.285 1067.18 432.415C1067.88 433.545 1068.22 434.802 1068.22 436.186C1068.22 437.176 1068.04 438.144 1067.68 439.09C1067.33 440.027 1066.72 441.074 1065.84 442.23C1064.98 443.378 1063.77 444.779 1062.23 446.435L1056.19 452.899L1056.19 453.11L1068.69 453.11L1068.69 456L1051.72 456Z" fill="black"/>
<path d="M829 526L970 526L970 354L829 354L829 526Z" fill="white" stroke="black" stroke-width="2" stroke-miterlimit="8"/>
<path d="M867.222 456L867.222 429.091L883.357 429.091L883.357 431.982L870.48 431.982L870.48 441.074L882.148 441.074L882.148 443.965L870.48 443.965L870.48 456L867.222 456ZM897.241 456.368C895.262 456.368 893.576 455.829 892.183 454.752C890.79 453.666 889.726 452.093 888.99 450.035C888.254 447.968 887.886 445.471 887.886 442.546C887.886 439.637 888.254 437.154 888.99 435.096C889.734 433.028 890.803 431.452 892.196 430.366C893.597 429.271 895.279 428.723 897.241 428.723C899.203 428.723 900.881 429.271 902.274 430.366C903.675 431.452 904.744 433.028 905.48 435.096C906.224 437.154 906.596 439.637 906.596 442.546C906.596 445.471 906.229 447.968 905.493 450.035C904.757 452.093 903.693 453.666 902.3 454.752C900.907 455.829 899.221 456.368 897.241 456.368ZM897.241 453.477C899.203 453.477 900.728 452.531 901.814 450.639C902.9 448.747 903.443 446.049 903.443 442.546C903.443 440.216 903.193 438.232 902.694 436.594C902.204 434.955 901.494 433.707 900.566 432.849C899.646 431.99 898.538 431.561 897.241 431.561C895.297 431.561 893.777 432.52 892.682 434.439C891.587 436.348 891.04 439.051 891.04 442.546C891.04 444.876 891.285 446.855 891.775 448.484C892.266 450.114 892.971 451.353 893.891 452.203C894.819 453.053 895.936 453.477 897.241 453.477ZM920.682 456.368C918.947 456.368 917.401 456.07 916.044 455.475C914.695 454.879 913.622 454.051 912.824 452.991C912.036 451.923 911.607 450.683 911.537 449.273L914.848 449.273C914.918 450.14 915.216 450.889 915.741 451.52C916.267 452.142 916.955 452.623 917.804 452.965C918.654 453.307 919.596 453.477 920.629 453.477C921.785 453.477 922.81 453.276 923.704 452.873C924.597 452.47 925.298 451.909 925.806 451.191C926.314 450.473 926.568 449.641 926.568 448.695C926.568 447.705 926.323 446.833 925.832 446.08C925.342 445.318 924.623 444.722 923.677 444.293C922.731 443.864 921.575 443.649 920.209 443.649L918.054 443.649L918.054 440.759L920.209 440.759C921.277 440.759 922.215 440.566 923.02 440.181C923.835 439.795 924.47 439.252 924.926 438.551C925.39 437.851 925.622 437.027 925.622 436.081C925.622 435.17 925.421 434.377 925.018 433.703C924.615 433.028 924.045 432.503 923.31 432.126C922.583 431.75 921.724 431.561 920.734 431.561C919.806 431.561 918.93 431.732 918.106 432.074C917.292 432.406 916.626 432.893 916.109 433.532C915.592 434.163 915.312 434.925 915.268 435.818L912.115 435.818C912.167 434.408 912.592 433.173 913.389 432.113C914.187 431.044 915.229 430.212 916.517 429.617C917.813 429.021 919.236 428.723 920.787 428.723C922.451 428.723 923.879 429.06 925.07 429.735C926.261 430.401 927.177 431.281 927.816 432.376C928.456 433.471 928.775 434.653 928.775 435.923C928.775 437.439 928.377 438.731 927.58 439.799C926.791 440.868 925.718 441.608 924.361 442.02L924.361 442.23C926.06 442.511 927.387 443.233 928.342 444.398C929.297 445.554 929.774 446.987 929.774 448.695C929.774 450.158 929.375 451.471 928.578 452.636C927.79 453.793 926.713 454.704 925.346 455.369C923.98 456.035 922.425 456.368 920.682 456.368Z" fill="black"/>
<path d="M689 424L829 424L829 354L689 354L689 424Z" fill="white" stroke="black" stroke-width="2" stroke-miterlimit="8"/>
<path d="M737.944 377.878L744.974 377.878L744.974 380.135L737.944 380.135L737.944 377.878ZM738.721 397.192L753.558 397.192L753.558 399.449L738.721 399.449L738.721 397.192ZM738.647 403.149L754.002 403.149L754.002 405.517L738.647 405.517L738.647 403.149ZM736.686 373.364L739.202 373.364L739.202 387.054L736.686 387.054L736.686 373.364ZM734.281 386.647C735.687 386.376 737.364 386.018 739.313 385.574C741.286 385.13 743.284 384.674 745.307 384.205L745.529 386.351C743.704 386.82 741.866 387.288 740.016 387.757C738.191 388.226 736.526 388.645 735.021 389.015L734.281 386.647ZM746.565 373.364L749.118 373.364L749.118 384.945C749.118 385.414 749.18 385.722 749.303 385.87C749.451 385.993 749.784 386.055 750.302 386.055C750.45 386.055 750.684 386.055 751.005 386.055C751.326 386.055 751.683 386.055 752.078 386.055C752.473 386.055 752.83 386.055 753.151 386.055C753.496 386.055 753.755 386.055 753.928 386.055C754.249 386.055 754.483 385.981 754.631 385.833C754.779 385.66 754.878 385.315 754.927 384.797C755.001 384.279 755.05 383.527 755.075 382.54C755.371 382.762 755.741 382.972 756.185 383.169C756.629 383.342 757.036 383.465 757.406 383.539C757.332 384.822 757.184 385.821 756.962 386.536C756.74 387.251 756.407 387.745 755.963 388.016C755.544 388.287 754.952 388.423 754.187 388.423C754.064 388.423 753.805 388.423 753.41 388.423C753.015 388.423 752.571 388.423 752.078 388.423C751.609 388.423 751.178 388.423 750.783 388.423C750.413 388.423 750.154 388.423 750.006 388.423C749.093 388.423 748.378 388.324 747.86 388.127C747.367 387.93 747.021 387.584 746.824 387.091C746.651 386.573 746.565 385.858 746.565 384.945L746.565 373.364ZM754.668 375.695L756.629 377.545C755.494 378.26 754.175 378.951 752.67 379.617C751.19 380.258 749.759 380.838 748.378 381.356C748.329 381.085 748.218 380.776 748.045 380.431C747.872 380.086 747.712 379.777 747.564 379.506C748.427 379.136 749.303 378.741 750.191 378.322C751.079 377.903 751.905 377.471 752.67 377.027C753.459 376.558 754.125 376.114 754.668 375.695ZM744.049 387.609L746.861 388.201C746.54 389.04 746.207 389.878 745.862 390.717C745.541 391.556 745.233 392.283 744.937 392.9L742.532 392.308C742.803 391.667 743.087 390.902 743.383 390.014C743.704 389.101 743.926 388.3 744.049 387.609ZM737.352 391.346L755.334 391.346L755.334 406.738L752.633 406.738L752.633 393.714L739.942 393.714L739.942 406.886L737.352 406.886L737.352 391.346ZM724.772 374.511L733.06 374.511L733.06 377.027L727.251 377.027L727.251 406.96L724.772 406.96L724.772 374.511ZM732.209 374.511L732.69 374.511L733.097 374.363L734.91 375.473C734.589 376.484 734.232 377.557 733.837 378.692C733.467 379.802 733.072 380.924 732.653 382.059C732.258 383.194 731.864 384.267 731.469 385.278C732.727 386.807 733.553 388.238 733.948 389.57C734.343 390.902 734.54 392.135 734.54 393.27C734.565 394.232 734.466 395.095 734.244 395.86C734.022 396.6 733.652 397.155 733.134 397.525C732.912 397.698 732.641 397.833 732.32 397.932C732.024 398.031 731.691 398.117 731.321 398.191C730.976 398.216 730.593 398.24 730.174 398.265C729.779 398.265 729.385 398.253 728.99 398.228C728.965 397.883 728.891 397.488 728.768 397.044C728.669 396.575 728.521 396.156 728.324 395.786C728.719 395.811 729.076 395.835 729.397 395.86C729.718 395.86 730.001 395.848 730.248 395.823C730.741 395.823 731.124 395.724 731.395 395.527C731.642 395.33 731.814 394.997 731.913 394.528C732.036 394.035 732.098 393.517 732.098 392.974C732.073 391.963 731.864 390.84 731.469 389.607C731.074 388.374 730.26 387.029 729.027 385.574C729.323 384.735 729.619 383.847 729.915 382.91C730.236 381.973 730.532 381.035 730.803 380.098C731.099 379.161 731.358 378.285 731.58 377.471C731.827 376.632 732.036 375.892 732.209 375.251L732.209 374.511ZM776.054 389.348L790.336 389.348L790.336 391.864L776.054 391.864L776.054 389.348ZM764.288 382.54L774.167 382.54L774.167 385.13L764.288 385.13L764.288 382.54ZM764.288 389.644L774.5 389.644L774.5 392.234L764.288 392.234L764.288 389.644ZM779.458 374.474L788.116 374.474L788.116 376.916L779.458 376.916L779.458 374.474ZM789.781 389.348L790.299 389.348L790.817 389.237L792.593 389.94C791.68 393.097 790.336 395.811 788.56 398.08C786.809 400.325 784.749 402.175 782.381 403.63C780.013 405.085 777.46 406.22 774.722 407.034C774.623 406.787 774.488 406.504 774.315 406.183C774.142 405.887 773.957 405.591 773.76 405.295C773.563 405.024 773.378 404.789 773.205 404.592C775.721 403.951 778.089 402.976 780.309 401.669C782.554 400.362 784.502 398.721 786.155 396.748C787.808 394.775 789.016 392.468 789.781 389.829L789.781 389.348ZM780.013 391.716C781.197 394.873 783.022 397.562 785.489 399.782C787.98 401.977 790.99 403.544 794.517 404.481C794.32 404.678 794.098 404.913 793.851 405.184C793.629 405.48 793.419 405.776 793.222 406.072C793.025 406.393 792.852 406.676 792.704 406.923C789.029 405.788 785.921 403.988 783.38 401.521C780.864 399.03 778.928 395.996 777.571 392.419L780.013 391.716ZM762.993 375.732L765.657 376.583L765.657 406.923L762.993 406.923L762.993 375.732ZM759.959 398.783C761.242 398.586 762.722 398.351 764.399 398.08C766.101 397.809 767.902 397.513 769.801 397.192C771.7 396.871 773.587 396.551 775.462 396.23L775.573 398.783C773.797 399.104 771.996 399.437 770.171 399.782C768.346 400.103 766.607 400.411 764.954 400.707C763.301 401.003 761.797 401.274 760.44 401.521L759.959 398.783ZM778.163 374.474L780.753 374.474L780.753 379.802C780.753 380.789 780.642 381.837 780.42 382.947C780.198 384.057 779.766 385.118 779.125 386.129C778.484 387.14 777.534 388.041 776.276 388.83C776.153 388.633 775.98 388.411 775.758 388.164C775.536 387.917 775.289 387.683 775.018 387.461C774.771 387.214 774.549 387.042 774.352 386.943C775.487 386.252 776.325 385.512 776.868 384.723C777.411 383.909 777.756 383.083 777.904 382.244C778.077 381.381 778.163 380.542 778.163 379.728L778.163 374.474ZM773.316 372.957L775.684 374.918C774.673 375.411 773.538 375.88 772.28 376.324C771.022 376.768 769.727 377.175 768.395 377.545C767.063 377.915 765.768 378.248 764.51 378.544C764.436 378.248 764.3 377.89 764.103 377.471C763.93 377.052 763.758 376.706 763.585 376.435C764.769 376.139 765.965 375.806 767.174 375.436C768.383 375.041 769.517 374.634 770.578 374.215C771.663 373.796 772.576 373.376 773.316 372.957ZM786.599 374.474L789.226 374.474L789.226 383.613C789.226 383.958 789.238 384.242 789.263 384.464C789.288 384.661 789.337 384.797 789.411 384.871C789.534 384.945 789.732 384.982 790.003 384.982C790.126 384.982 790.287 384.982 790.484 384.982C790.706 384.982 790.903 384.982 791.076 384.982C791.224 384.982 791.372 384.97 791.52 384.945C791.668 384.92 791.779 384.896 791.853 384.871C792.026 384.772 792.161 384.489 792.26 384.02C792.285 383.749 792.309 383.342 792.334 382.799C792.359 382.232 792.383 381.578 792.408 380.838C792.655 381.06 792.975 381.27 793.37 381.467C793.789 381.664 794.184 381.825 794.554 381.948C794.505 382.663 794.443 383.391 794.369 384.131C794.32 384.846 794.246 385.352 794.147 385.648C793.95 386.24 793.58 386.659 793.037 386.906C792.84 387.029 792.568 387.116 792.223 387.165C791.902 387.214 791.594 387.239 791.298 387.239C791.051 387.239 790.718 387.239 790.299 387.239C789.904 387.239 789.608 387.239 789.411 387.239C789.066 387.239 788.696 387.19 788.301 387.091C787.906 386.992 787.586 386.832 787.339 386.61C787.068 386.363 786.87 386.043 786.747 385.648C786.648 385.229 786.599 384.489 786.599 383.428L786.599 374.474Z" fill="black"/>
<path d="M473 424L689 424L689 354L473 354L473 424Z" fill="white" stroke="black" stroke-width="2" stroke-miterlimit="8"/>
<path d="M495.122 379.247C495.616 379.321 496.158 379.383 496.75 379.432C497.367 379.457 497.86 379.469 498.23 379.469L518.58 379.469C519.148 379.469 519.703 379.444 520.245 379.395C520.788 379.346 521.281 379.296 521.725 379.247L521.725 382.503C521.257 382.454 520.739 382.417 520.171 382.392C519.629 382.367 519.098 382.355 518.58 382.355L498.23 382.355C497.885 382.355 497.392 382.367 496.75 382.392C496.134 382.417 495.591 382.454 495.122 382.503L495.122 379.247ZM506.555 400.966L506.555 381.097L509.7 381.097L509.7 400.966L506.555 400.966ZM492.865 399.153C493.408 399.227 493.951 399.289 494.493 399.338C495.061 399.363 495.603 399.375 496.121 399.375L520.578 399.375C521.146 399.375 521.676 399.35 522.169 399.301C522.687 399.252 523.181 399.202 523.649 399.153L523.649 402.52C523.156 402.471 522.613 402.434 522.021 402.409C521.429 402.384 520.948 402.372 520.578 402.372L496.121 402.372C495.628 402.372 495.098 402.384 494.53 402.409C493.988 402.434 493.433 402.471 492.865 402.52L492.865 399.153ZM534.971 402.816C535.119 402.52 535.218 402.236 535.267 401.965C535.317 401.694 535.341 401.373 535.341 401.003C535.341 400.633 535.341 399.942 535.341 398.931C535.341 397.92 535.341 396.711 535.341 395.305C535.341 393.899 535.341 392.431 535.341 390.902C535.341 389.348 535.341 387.843 535.341 386.388C535.341 384.908 535.341 383.601 535.341 382.466C535.341 381.307 535.341 380.431 535.341 379.839C535.341 379.518 535.317 379.136 535.267 378.692C535.243 378.248 535.206 377.829 535.156 377.434C535.132 377.039 535.082 376.719 535.008 376.472L538.671 376.472C538.597 376.916 538.536 377.459 538.486 378.1C538.437 378.717 538.412 379.296 538.412 379.839C538.412 380.332 538.412 381.048 538.412 381.985C538.412 382.922 538.412 383.995 538.412 385.204C538.412 386.388 538.412 387.646 538.412 388.978C538.412 390.31 538.412 391.617 538.412 392.9C538.412 394.183 538.412 395.379 538.412 396.489C538.412 397.574 538.412 398.499 538.412 399.264C538.412 400.029 538.412 400.547 538.412 400.818C540.188 400.374 542.014 399.745 543.888 398.931C545.788 398.117 547.638 397.167 549.438 396.082C551.264 394.972 552.966 393.763 554.544 392.456C556.148 391.124 557.517 389.706 558.651 388.201L560.316 390.791C557.924 393.776 554.865 396.39 551.14 398.635C547.44 400.88 543.284 402.668 538.671 404C538.474 404.049 538.24 404.123 537.968 404.222C537.697 404.345 537.413 404.493 537.117 404.666L534.971 402.816ZM589.324 378.914C589.645 379.358 590.015 379.925 590.434 380.616C590.878 381.307 591.31 382.022 591.729 382.762C592.173 383.502 592.543 384.168 592.839 384.76L590.656 385.759C590.336 385.093 589.99 384.415 589.62 383.724C589.25 383.033 588.856 382.355 588.436 381.689C588.042 380.998 587.635 380.369 587.215 379.802L589.324 378.914ZM594.06 377.027C594.406 377.446 594.8 378.001 595.244 378.692C595.688 379.383 596.132 380.098 596.576 380.838C597.02 381.578 597.39 382.232 597.686 382.799L595.54 383.835C595.244 383.169 594.899 382.503 594.504 381.837C594.11 381.146 593.69 380.468 593.246 379.802C592.827 379.136 592.408 378.532 591.988 377.989L594.06 377.027ZM565.718 394.269C566.212 393.85 566.643 393.455 567.013 393.085C567.408 392.715 567.852 392.283 568.345 391.79C568.789 391.346 569.295 390.779 569.862 390.088C570.454 389.397 571.083 388.657 571.749 387.868C572.44 387.054 573.118 386.24 573.784 385.426C574.45 384.587 575.067 383.835 575.634 383.169C576.621 382.01 577.595 381.368 578.557 381.245C579.519 381.097 580.629 381.615 581.887 382.799C582.652 383.49 583.478 384.304 584.366 385.241C585.279 386.154 586.179 387.079 587.067 388.016C587.955 388.953 588.757 389.804 589.472 390.569C590.311 391.432 591.248 392.431 592.284 393.566C593.32 394.676 594.381 395.823 595.466 397.007C596.552 398.166 597.563 399.252 598.5 400.263L595.947 402.964C595.084 401.903 594.159 400.806 593.172 399.671C592.21 398.512 591.248 397.389 590.286 396.304C589.349 395.194 588.486 394.195 587.696 393.307C587.154 392.69 586.549 392.024 585.883 391.309C585.217 390.594 584.551 389.878 583.885 389.163C583.219 388.448 582.59 387.782 581.998 387.165C581.431 386.548 580.95 386.055 580.555 385.685C579.84 384.994 579.248 384.674 578.779 384.723C578.335 384.772 577.793 385.179 577.151 385.944C576.707 386.487 576.202 387.128 575.634 387.868C575.067 388.583 574.475 389.336 573.858 390.125C573.242 390.914 572.65 391.667 572.082 392.382C571.515 393.097 571.022 393.714 570.602 394.232C570.232 394.701 569.85 395.194 569.455 395.712C569.085 396.23 568.765 396.686 568.493 397.081L565.718 394.269ZM604.531 387.979C604.901 388.004 605.358 388.041 605.9 388.09C606.443 388.115 607.035 388.139 607.676 388.164C608.342 388.164 609.008 388.164 609.674 388.164C610.069 388.164 610.673 388.164 611.487 388.164C612.326 388.164 613.3 388.164 614.41 388.164C615.52 388.164 616.692 388.164 617.925 388.164C619.183 388.164 620.429 388.164 621.662 388.164C622.92 388.164 624.104 388.164 625.214 388.164C626.349 388.164 627.323 388.164 628.137 388.164C628.951 388.164 629.556 388.164 629.95 388.164C630.888 388.164 631.689 388.139 632.355 388.09C633.021 388.041 633.552 388.004 633.946 387.979L633.946 391.605C633.576 391.58 633.021 391.543 632.281 391.494C631.566 391.445 630.801 391.42 629.987 391.42C629.593 391.42 628.976 391.42 628.137 391.42C627.299 391.42 626.324 391.42 625.214 391.42C624.129 391.42 622.957 391.42 621.699 391.42C620.441 391.42 619.183 391.42 617.925 391.42C616.692 391.42 615.52 391.42 614.41 391.42C613.325 391.42 612.363 391.42 611.524 391.42C610.686 391.42 610.069 391.42 609.674 391.42C608.663 391.42 607.701 391.445 606.788 391.494C605.876 391.519 605.123 391.556 604.531 391.605L604.531 387.979ZM653.112 387.054C654.296 387.745 655.542 388.509 656.849 389.348C658.157 390.187 659.452 391.062 660.734 391.975C662.042 392.863 663.287 393.739 664.471 394.602C665.655 395.465 666.704 396.279 667.616 397.044L665.433 399.597C664.595 398.832 663.583 397.994 662.399 397.081C661.24 396.144 660.007 395.206 658.699 394.269C657.392 393.307 656.085 392.382 654.777 391.494C653.47 390.606 652.249 389.804 651.114 389.089L653.112 387.054ZM670.058 380.283C669.886 380.554 669.725 380.887 669.577 381.282C669.429 381.652 669.294 381.985 669.17 382.281C668.825 383.539 668.332 384.896 667.69 386.351C667.049 387.806 666.297 389.274 665.433 390.754C664.57 392.209 663.583 393.615 662.473 394.972C660.821 397.019 658.749 398.993 656.257 400.892C653.791 402.767 650.806 404.345 647.303 405.628L644.639 403.334C646.933 402.619 649.018 401.743 650.892 400.707C652.792 399.646 654.494 398.487 655.998 397.229C657.503 395.971 658.81 394.676 659.92 393.344C660.882 392.209 661.758 390.964 662.547 389.607C663.361 388.25 664.064 386.906 664.656 385.574C665.248 384.217 665.68 382.959 665.951 381.8L652.224 381.8L653.408 379.173L665.174 379.173C665.668 379.173 666.124 379.148 666.543 379.099C666.963 379.025 667.32 378.926 667.616 378.803L670.058 380.283ZM657.589 374.955C657.269 375.448 656.96 375.966 656.664 376.509C656.368 377.052 656.122 377.496 655.924 377.841C655.184 379.198 654.222 380.69 653.038 382.318C651.879 383.921 650.51 385.525 648.931 387.128C647.377 388.731 645.614 390.224 643.64 391.605L641.161 389.681C643.283 388.374 645.12 386.931 646.674 385.352C648.228 383.773 649.536 382.232 650.596 380.727C651.657 379.222 652.471 377.915 653.038 376.805C653.236 376.484 653.458 376.04 653.704 375.473C653.951 374.881 654.124 374.351 654.222 373.882L657.589 374.955Z" fill="black"/>
<path d="M473 527L548 527L548 424L473 424L473 527Z" fill="white" stroke="black" stroke-width="2" stroke-miterlimit="8"/>
<path d="M509.119 442.878L516.149 442.878L516.149 445.135L509.119 445.135L509.119 442.878ZM509.896 462.192L524.733 462.192L524.733 464.449L509.896 464.449L509.896 462.192ZM509.822 468.149L525.177 468.149L525.177 470.517L509.822 470.517L509.822 468.149ZM507.861 438.364L510.377 438.364L510.377 452.054L507.861 452.054L507.861 438.364ZM505.456 451.647C506.862 451.376 508.539 451.018 510.488 450.574C512.461 450.13 514.459 449.674 516.482 449.205L516.704 451.351C514.879 451.82 513.041 452.289 511.191 452.757C509.366 453.226 507.701 453.645 506.196 454.015L505.456 451.647ZM517.74 438.364L520.293 438.364L520.293 449.945C520.293 450.414 520.355 450.722 520.478 450.87C520.626 450.994 520.959 451.055 521.477 451.055C521.625 451.055 521.859 451.055 522.18 451.055C522.501 451.055 522.858 451.055 523.253 451.055C523.648 451.055 524.005 451.055 524.326 451.055C524.671 451.055 524.93 451.055 525.103 451.055C525.424 451.055 525.658 450.981 525.806 450.833C525.954 450.661 526.053 450.315 526.102 449.797C526.176 449.279 526.225 448.527 526.25 447.54C526.546 447.762 526.916 447.972 527.36 448.169C527.804 448.342 528.211 448.465 528.581 448.539C528.507 449.822 528.359 450.821 528.137 451.536C527.915 452.252 527.582 452.745 527.138 453.016C526.719 453.288 526.127 453.423 525.362 453.423C525.239 453.423 524.98 453.423 524.585 453.423C524.19 453.423 523.746 453.423 523.253 453.423C522.784 453.423 522.353 453.423 521.958 453.423C521.588 453.423 521.329 453.423 521.181 453.423C520.268 453.423 519.553 453.325 519.035 453.127C518.542 452.93 518.196 452.585 517.999 452.091C517.826 451.573 517.74 450.858 517.74 449.945L517.74 438.364ZM525.843 440.695L527.804 442.545C526.669 443.261 525.35 443.951 523.845 444.617C522.365 445.259 520.934 445.838 519.553 446.356C519.504 446.085 519.393 445.777 519.22 445.431C519.047 445.086 518.887 444.778 518.739 444.506C519.602 444.136 520.478 443.742 521.366 443.322C522.254 442.903 523.08 442.471 523.845 442.027C524.634 441.559 525.3 441.115 525.843 440.695ZM515.224 452.609L518.036 453.201C517.715 454.04 517.382 454.879 517.037 455.717C516.716 456.556 516.408 457.284 516.112 457.9L513.707 457.308C513.978 456.667 514.262 455.902 514.558 455.014C514.879 454.102 515.101 453.3 515.224 452.609ZM508.527 456.346L526.509 456.346L526.509 471.738L523.808 471.738L523.808 458.714L511.117 458.714L511.117 471.886L508.527 471.886L508.527 456.346ZM495.947 439.511L504.235 439.511L504.235 442.027L498.426 442.027L498.426 471.96L495.947 471.96L495.947 439.511ZM503.384 439.511L503.865 439.511L504.272 439.363L506.085 440.473C505.764 441.485 505.407 442.558 505.012 443.692C504.642 444.802 504.247 445.925 503.828 447.059C503.433 448.194 503.039 449.267 502.644 450.278C503.902 451.808 504.728 453.238 505.123 454.57C505.518 455.902 505.715 457.136 505.715 458.27C505.74 459.232 505.641 460.096 505.419 460.86C505.197 461.6 504.827 462.155 504.309 462.525C504.087 462.698 503.816 462.834 503.495 462.932C503.199 463.031 502.866 463.117 502.496 463.191C502.151 463.216 501.768 463.241 501.349 463.265C500.954 463.265 500.56 463.253 500.165 463.228C500.14 462.883 500.066 462.488 499.943 462.044C499.844 461.576 499.696 461.156 499.499 460.786C499.894 460.811 500.251 460.836 500.572 460.86C500.893 460.86 501.176 460.848 501.423 460.823C501.916 460.823 502.299 460.725 502.57 460.527C502.817 460.33 502.989 459.997 503.088 459.528C503.211 459.035 503.273 458.517 503.273 457.974C503.248 456.963 503.039 455.841 502.644 454.607C502.249 453.374 501.435 452.03 500.202 450.574C500.498 449.736 500.794 448.848 501.09 447.91C501.411 446.973 501.707 446.036 501.978 445.098C502.274 444.161 502.533 443.285 502.755 442.471C503.002 441.633 503.211 440.893 503.384 440.251L503.384 439.511Z" fill="black"/>
<path d="M510.229 499.348L524.511 499.348L524.511 501.864L510.229 501.864L510.229 499.348ZM498.463 492.54L508.342 492.54L508.342 495.13L498.463 495.13L498.463 492.54ZM498.463 499.644L508.675 499.644L508.675 502.234L498.463 502.234L498.463 499.644ZM513.633 484.474L522.291 484.474L522.291 486.916L513.633 486.916L513.633 484.474ZM523.956 499.348L524.474 499.348L524.992 499.237L526.768 499.94C525.855 503.098 524.511 505.811 522.735 508.08C520.984 510.325 518.924 512.175 516.556 513.63C514.188 515.086 511.635 516.22 508.897 517.034C508.798 516.788 508.663 516.504 508.49 516.183C508.317 515.887 508.132 515.591 507.935 515.295C507.738 515.024 507.553 514.79 507.38 514.592C509.896 513.951 512.264 512.977 514.484 511.669C516.729 510.362 518.677 508.722 520.33 506.748C521.983 504.775 523.191 502.469 523.956 499.829L523.956 499.348ZM514.188 501.716C515.372 504.874 517.197 507.562 519.664 509.782C522.155 511.978 525.165 513.544 528.692 514.481C528.495 514.679 528.273 514.913 528.026 515.184C527.804 515.48 527.594 515.776 527.397 516.072C527.2 516.393 527.027 516.677 526.879 516.923C523.204 515.789 520.096 513.988 517.555 511.521C515.039 509.03 513.103 505.996 511.746 502.419L514.188 501.716ZM497.168 485.732L499.832 486.583L499.832 516.923L497.168 516.923L497.168 485.732ZM494.134 508.783C495.417 508.586 496.897 508.352 498.574 508.08C500.276 507.809 502.077 507.513 503.976 507.192C505.875 506.872 507.762 506.551 509.637 506.23L509.748 508.783C507.972 509.104 506.171 509.437 504.346 509.782C502.521 510.103 500.782 510.411 499.129 510.707C497.476 511.003 495.972 511.275 494.615 511.521L494.134 508.783ZM512.338 484.474L514.928 484.474L514.928 489.802C514.928 490.789 514.817 491.837 514.595 492.947C514.373 494.057 513.941 495.118 513.3 496.129C512.659 497.141 511.709 498.041 510.451 498.83C510.328 498.633 510.155 498.411 509.933 498.164C509.711 497.918 509.464 497.683 509.193 497.461C508.946 497.215 508.724 497.042 508.527 496.943C509.662 496.253 510.5 495.513 511.043 494.723C511.586 493.909 511.931 493.083 512.079 492.244C512.252 491.381 512.338 490.542 512.338 489.728L512.338 484.474ZM507.491 482.957L509.859 484.918C508.848 485.412 507.713 485.88 506.455 486.324C505.197 486.768 503.902 487.175 502.57 487.545C501.238 487.915 499.943 488.248 498.685 488.544C498.611 488.248 498.475 487.891 498.278 487.471C498.105 487.052 497.933 486.707 497.76 486.435C498.944 486.139 500.14 485.806 501.349 485.436C502.558 485.042 503.692 484.635 504.753 484.215C505.838 483.796 506.751 483.377 507.491 482.957ZM520.774 484.474L523.401 484.474L523.401 493.613C523.401 493.959 523.413 494.242 523.438 494.464C523.463 494.662 523.512 494.797 523.586 494.871C523.709 494.945 523.907 494.982 524.178 494.982C524.301 494.982 524.462 494.982 524.659 494.982C524.881 494.982 525.078 494.982 525.251 494.982C525.399 494.982 525.547 494.97 525.695 494.945C525.843 494.921 525.954 494.896 526.028 494.871C526.201 494.773 526.336 494.489 526.435 494.02C526.46 493.749 526.484 493.342 526.509 492.799C526.534 492.232 526.558 491.578 526.583 490.838C526.83 491.06 527.15 491.27 527.545 491.467C527.964 491.665 528.359 491.825 528.729 491.948C528.68 492.664 528.618 493.391 528.544 494.131C528.495 494.847 528.421 495.352 528.322 495.648C528.125 496.24 527.755 496.66 527.212 496.906C527.015 497.03 526.743 497.116 526.398 497.165C526.077 497.215 525.769 497.239 525.473 497.239C525.226 497.239 524.893 497.239 524.474 497.239C524.079 497.239 523.783 497.239 523.586 497.239C523.241 497.239 522.871 497.19 522.476 497.091C522.081 496.993 521.761 496.832 521.514 496.61C521.243 496.364 521.045 496.043 520.922 495.648C520.823 495.229 520.774 494.489 520.774 493.428L520.774 484.474Z" fill="black"/>
<path d="M1110 312L970.13 312" stroke="black" stroke-width="2" stroke-miterlimit="8"/>
<path d="M969 270L473.017 228.427" stroke="black" stroke-width="2" stroke-miterlimit="8"/>
<path d="M473 230.032L473 301" stroke="black" stroke-width="2" stroke-miterlimit="8"/>
<path d="M970 312L970 270.452" stroke="black" stroke-width="2" stroke-miterlimit="8"/>
<path d="M725 249.879L725 303" stroke="black" stroke-width="2" stroke-miterlimit="8"/>
<path d="M881 303L473.464 303" stroke="black" stroke-width="2" stroke-miterlimit="8"/>
<path d="M829 527L548.742 527" stroke="black" stroke-width="2" stroke-miterlimit="8"/>
<path d="M169 527L310 527L310 355L169 355L169 527Z" fill="#FFE661" stroke="black" stroke-width="2" stroke-miterlimit="8"/>
<path d="M205.869 456L205.869 429.091L222.003 429.091L222.003 431.982L209.127 431.982L209.127 441.074L220.795 441.074L220.795 443.965L209.127 443.965L209.127 456L205.869 456ZM235.888 456.368C233.909 456.368 232.222 455.829 230.83 454.752C229.437 453.666 228.373 452.094 227.637 450.035C226.901 447.968 226.533 445.471 226.533 442.546C226.533 439.638 226.901 437.154 227.637 435.096C228.381 433.029 229.45 431.452 230.843 430.366C232.244 429.271 233.926 428.723 235.888 428.723C237.85 428.723 239.528 429.271 240.921 430.366C242.322 431.452 243.391 433.029 244.127 435.096C244.871 437.154 245.243 439.638 245.243 442.546C245.243 445.471 244.876 447.968 244.14 450.035C243.404 452.094 242.34 453.666 240.947 454.752C239.554 455.829 237.868 456.368 235.888 456.368ZM235.888 453.478C237.85 453.478 239.375 452.531 240.461 450.639C241.547 448.747 242.09 446.049 242.09 442.546C242.09 440.216 241.84 438.232 241.341 436.594C240.851 434.956 240.141 433.707 239.213 432.849C238.293 431.991 237.185 431.561 235.888 431.561C233.944 431.561 232.424 432.52 231.329 434.439C230.234 436.348 229.687 439.051 229.687 442.546C229.687 444.876 229.932 446.855 230.422 448.485C230.913 450.114 231.618 451.353 232.538 452.203C233.466 453.053 234.583 453.478 235.888 453.478ZM259.171 456.368C258.067 456.351 256.964 456.14 255.86 455.737C254.756 455.335 253.749 454.656 252.838 453.701C251.927 452.737 251.196 451.437 250.644 449.799C250.092 448.152 249.816 446.085 249.816 443.597C249.816 441.214 250.039 439.103 250.486 437.264C250.933 435.415 251.581 433.861 252.431 432.599C253.28 431.329 254.305 430.366 255.505 429.709C256.714 429.052 258.076 428.723 259.591 428.723C261.098 428.723 262.438 429.025 263.612 429.63C264.795 430.226 265.758 431.058 266.503 432.126C267.247 433.195 267.729 434.426 267.948 435.818L264.742 435.818C264.444 434.61 263.866 433.607 263.008 432.81C262.149 432.012 261.01 431.614 259.591 431.614C257.507 431.614 255.864 432.52 254.664 434.334C253.473 436.147 252.873 438.692 252.864 441.968L253.074 441.968C253.565 441.223 254.147 440.588 254.822 440.062C255.505 439.528 256.258 439.116 257.082 438.827C257.905 438.538 258.777 438.394 259.697 438.394C261.238 438.394 262.649 438.779 263.927 439.55C265.206 440.312 266.231 441.368 267.002 442.717C267.773 444.057 268.158 445.594 268.158 447.328C268.158 448.993 267.786 450.517 267.041 451.901C266.297 453.276 265.25 454.371 263.901 455.186C262.561 455.991 260.984 456.386 259.171 456.368ZM259.171 453.478C260.275 453.478 261.265 453.202 262.14 452.65C263.025 452.098 263.722 451.358 264.23 450.429C264.746 449.501 265.005 448.467 265.005 447.328C265.005 446.216 264.755 445.204 264.256 444.293C263.765 443.373 263.086 442.642 262.219 442.099C261.361 441.556 260.38 441.284 259.276 441.284C258.444 441.284 257.669 441.451 256.95 441.784C256.232 442.108 255.602 442.554 255.058 443.124C254.524 443.693 254.104 444.346 253.797 445.082C253.49 445.809 253.337 446.575 253.337 447.381C253.337 448.45 253.587 449.448 254.086 450.377C254.594 451.305 255.286 452.054 256.162 452.623C257.047 453.193 258.05 453.478 259.171 453.478Z" fill="black"/>
<path d="M510 527L229.74 527" stroke="black" stroke-width="2" stroke-miterlimit="8"/>
<path d="M581.25 281L581.25 254.091L597.384 254.091L597.384 256.982L584.508 256.982L584.508 266.074L596.176 266.074L596.176 268.965L584.508 268.965L584.508 281L581.25 281ZM611.269 281.368C609.29 281.368 607.603 280.829 606.211 279.752C604.818 278.666 603.754 277.093 603.018 275.035C602.282 272.968 601.914 270.471 601.914 267.546C601.914 264.637 602.282 262.154 603.018 260.096C603.762 258.028 604.831 256.452 606.224 255.365C607.625 254.271 609.307 253.723 611.269 253.723C613.231 253.723 614.909 254.271 616.302 255.365C617.703 256.452 618.772 258.028 619.508 260.096C620.252 262.154 620.624 264.637 620.624 267.546C620.624 270.471 620.257 272.968 619.521 275.035C618.785 277.093 617.721 278.666 616.328 279.752C614.935 280.829 613.249 281.368 611.269 281.368ZM611.269 278.477C613.231 278.477 614.756 277.531 615.842 275.639C616.928 273.747 617.471 271.049 617.471 267.546C617.471 265.215 617.221 263.231 616.722 261.593C616.232 259.955 615.522 258.707 614.594 257.849C613.674 256.99 612.566 256.561 611.269 256.561C609.325 256.561 607.805 257.52 606.71 259.439C605.615 261.348 605.068 264.05 605.068 267.546C605.068 269.876 605.313 271.855 605.803 273.484C606.294 275.114 606.999 276.353 607.919 277.203C608.847 278.053 609.964 278.477 611.269 278.477ZM624.987 275.482L624.987 272.801L636.812 254.091L638.757 254.091L638.757 258.243L637.443 258.243L628.508 272.381L628.508 272.591L644.433 272.591L644.433 275.482L624.987 275.482ZM637.653 281L637.653 274.667L637.653 273.419L637.653 254.091L640.754 254.091L640.754 281L637.653 281Z" fill="black"/>
<path d="M332 303L473 303L473 227L332 227L332 303Z" fill="white" stroke="black" stroke-width="2" stroke-miterlimit="8"/>
<path d="M370.239 281L370.239 254.091L386.373 254.091L386.373 256.982L373.497 256.982L373.497 266.074L385.165 266.074L385.165 268.965L373.497 268.965L373.497 281L370.239 281ZM400.258 281.368C398.279 281.368 396.592 280.829 395.2 279.752C393.807 278.666 392.743 277.094 392.007 275.035C391.271 272.968 390.903 270.471 390.903 267.546C390.903 264.638 391.271 262.154 392.007 260.096C392.751 258.029 393.82 256.452 395.213 255.366C396.614 254.271 398.296 253.723 400.258 253.723C402.22 253.723 403.898 254.271 405.291 255.366C406.692 256.452 407.761 258.029 408.497 260.096C409.241 262.154 409.613 264.638 409.613 267.546C409.613 270.471 409.246 272.968 408.51 275.035C407.774 277.094 406.71 278.666 405.317 279.752C403.924 280.829 402.238 281.368 400.258 281.368ZM400.258 278.478C402.22 278.478 403.745 277.532 404.831 275.64C405.917 273.747 406.46 271.05 406.46 267.546C406.46 265.216 406.21 263.232 405.711 261.594C405.221 259.956 404.511 258.707 403.583 257.849C402.663 256.991 401.555 256.561 400.258 256.561C398.314 256.561 396.794 257.521 395.699 259.439C394.604 261.348 394.057 264.051 394.057 267.546C394.057 269.876 394.302 271.855 394.792 273.485C395.283 275.114 395.988 276.353 396.908 277.203C397.836 278.053 398.953 278.478 400.258 278.478ZM423.015 281.368C421.474 281.368 420.085 281.062 418.85 280.448C417.615 279.835 416.625 278.994 415.881 277.926C415.136 276.857 414.729 275.64 414.659 274.273L417.812 274.273C417.935 275.491 418.487 276.498 419.468 277.295C420.458 278.083 421.64 278.478 423.015 278.478C424.119 278.478 425.1 278.219 425.959 277.702C426.826 277.186 427.505 276.476 427.995 275.574C428.494 274.663 428.744 273.634 428.744 272.486C428.744 271.312 428.486 270.266 427.969 269.346C427.461 268.417 426.76 267.686 425.867 267.152C424.973 266.617 423.953 266.346 422.805 266.337C421.982 266.328 421.137 266.455 420.269 266.718C419.402 266.972 418.688 267.3 418.128 267.703L415.079 267.336L416.709 254.091L430.689 254.091L430.689 256.982L419.442 256.982L418.496 264.918L418.653 264.918C419.205 264.48 419.897 264.116 420.729 263.827C421.561 263.538 422.429 263.394 423.331 263.394C424.978 263.394 426.445 263.788 427.732 264.576C429.029 265.356 430.045 266.425 430.781 267.782C431.525 269.14 431.898 270.69 431.898 272.434C431.898 274.15 431.512 275.683 430.741 277.032C429.979 278.372 428.928 279.432 427.588 280.212C426.248 280.983 424.724 281.368 423.015 281.368Z" fill="black"/>
<path d="M332 228L168.37 226.968" stroke="black" stroke-width="2" stroke-miterlimit="8"/>
<path d="M881 262.466L881 304.001" stroke="black" stroke-width="2" stroke-miterlimit="8"/>
<path d="M762.956 291.744C762.956 291.399 762.956 290.708 762.956 289.672C762.956 288.611 762.956 287.366 762.956 285.935C762.956 284.48 762.956 282.963 762.956 281.384C762.956 279.781 762.956 278.227 762.956 276.722C762.956 275.217 762.956 273.885 762.956 272.726C762.956 271.567 762.956 270.728 762.956 270.21C762.956 269.692 762.931 269.063 762.882 268.323C762.833 267.583 762.759 266.929 762.66 266.362L766.286 266.362C766.237 266.905 766.175 267.546 766.101 268.286C766.052 269.026 766.027 269.667 766.027 270.21C766.027 271.172 766.027 272.331 766.027 273.688C766.027 275.02 766.027 276.451 766.027 277.98C766.027 279.485 766.027 280.989 766.027 282.494C766.052 283.974 766.064 285.368 766.064 286.675C766.064 287.958 766.064 289.055 766.064 289.968C766.064 290.856 766.064 291.448 766.064 291.744C766.064 292.139 766.064 292.595 766.064 293.113C766.089 293.631 766.126 294.161 766.175 294.704C766.224 295.222 766.261 295.691 766.286 296.11L762.697 296.11C762.796 295.518 762.857 294.815 762.882 294.001C762.931 293.187 762.956 292.435 762.956 291.744ZM765.398 276.056C766.607 276.426 767.939 276.87 769.394 277.388C770.874 277.881 772.379 278.412 773.908 278.979C775.437 279.546 776.88 280.126 778.237 280.718C779.618 281.285 780.815 281.828 781.826 282.346L780.568 285.491C779.507 284.899 778.311 284.319 776.979 283.752C775.647 283.16 774.278 282.58 772.872 282.013C771.491 281.446 770.146 280.94 768.839 280.496C767.556 280.027 766.409 279.645 765.398 279.349L765.398 276.056ZM790.669 281.643C793.876 280.78 796.86 279.731 799.623 278.498C802.386 277.265 804.791 276.007 806.838 274.724C808.121 273.91 809.366 273.034 810.575 272.097C811.808 271.135 812.968 270.136 814.053 269.1C815.138 268.064 816.1 267.04 816.939 266.029L819.418 268.323C818.382 269.433 817.26 270.518 816.051 271.579C814.842 272.64 813.56 273.663 812.203 274.65C810.871 275.612 809.477 276.549 808.022 277.462C806.665 278.276 805.136 279.115 803.434 279.978C801.732 280.841 799.919 281.655 797.995 282.42C796.071 283.185 794.122 283.888 792.149 284.529L790.669 281.643ZM806.246 276.278L809.428 275.316L809.428 292.188C809.428 292.657 809.428 293.15 809.428 293.668C809.453 294.186 809.477 294.667 809.502 295.111C809.551 295.555 809.601 295.9 809.65 296.147L806.024 296.147C806.049 295.9 806.073 295.555 806.098 295.111C806.147 294.667 806.184 294.186 806.209 293.668C806.234 293.15 806.246 292.657 806.246 292.188L806.246 276.278ZM832.701 293.816C832.849 293.52 832.948 293.236 832.997 292.965C833.046 292.694 833.071 292.373 833.071 292.003C833.071 291.633 833.071 290.942 833.071 289.931C833.071 288.92 833.071 287.711 833.071 286.305C833.071 284.899 833.071 283.431 833.071 281.902C833.071 280.348 833.071 278.843 833.071 277.388C833.071 275.908 833.071 274.601 833.071 273.466C833.071 272.307 833.071 271.431 833.071 270.839C833.071 270.518 833.046 270.136 832.997 269.692C832.972 269.248 832.935 268.829 832.886 268.434C832.861 268.039 832.812 267.719 832.738 267.472L836.401 267.472C836.327 267.916 836.265 268.459 836.216 269.1C836.167 269.717 836.142 270.296 836.142 270.839C836.142 271.332 836.142 272.048 836.142 272.985C836.142 273.922 836.142 274.995 836.142 276.204C836.142 277.388 836.142 278.646 836.142 279.978C836.142 281.31 836.142 282.617 836.142 283.9C836.142 285.183 836.142 286.379 836.142 287.489C836.142 288.574 836.142 289.499 836.142 290.264C836.142 291.029 836.142 291.547 836.142 291.818C837.918 291.374 839.743 290.745 841.618 289.931C843.517 289.117 845.367 288.167 847.168 287.082C848.993 285.972 850.695 284.763 852.274 283.456C853.877 282.124 855.246 280.706 856.381 279.201L858.046 281.791C855.653 284.776 852.595 287.39 848.87 289.635C845.17 291.88 841.014 293.668 836.401 295C836.204 295.049 835.969 295.123 835.698 295.222C835.427 295.345 835.143 295.493 834.847 295.666L832.701 293.816Z" fill="black"/>
</g>
<line x1="169" y1="355" x2="169" y2="226" stroke="black" stroke-width="2"/>
<ellipse cx="253" cy="290" rx="61" ry="48" fill="#FFE661"/>
<path d="M206.994 302L206.994 277.273L221.821 277.273L221.821 279.929L209.989 279.929L209.989 288.284L220.71 288.284L220.71 290.94L209.989 290.94L209.989 302L206.994 302ZM234.58 302.338C232.761 302.338 231.211 301.843 229.932 300.853C228.652 299.855 227.674 298.41 226.998 296.519C226.322 294.619 225.984 292.325 225.984 289.636C225.984 286.964 226.322 284.682 226.998 282.791C227.682 280.891 228.664 279.442 229.944 278.444C231.232 277.438 232.777 276.935 234.58 276.935C236.383 276.935 237.925 277.438 239.204 278.444C240.492 279.442 241.474 280.891 242.15 282.791C242.835 284.682 243.177 286.964 243.177 289.636C243.177 292.325 242.839 294.619 242.162 296.519C241.486 298.41 240.508 299.855 239.229 300.853C237.949 301.843 236.399 302.338 234.58 302.338ZM234.58 299.682C236.383 299.682 237.784 298.813 238.782 297.074C239.78 295.335 240.279 292.856 240.279 289.636C240.279 287.495 240.05 285.672 239.591 284.167C239.14 282.662 238.488 281.515 237.635 280.726C236.79 279.937 235.771 279.543 234.58 279.543C232.793 279.543 231.397 280.424 230.39 282.187C229.384 283.942 228.881 286.425 228.881 289.636C228.881 291.778 229.107 293.597 229.557 295.094C230.008 296.591 230.656 297.73 231.501 298.511C232.354 299.292 233.381 299.682 234.58 299.682ZM255.975 302.338C254.961 302.322 253.947 302.129 252.932 301.759C251.918 301.388 250.993 300.765 250.155 299.887C249.318 299.002 248.646 297.806 248.139 296.301C247.632 294.788 247.378 292.888 247.378 290.602C247.378 288.413 247.584 286.473 247.994 284.783C248.405 283.084 249 281.656 249.781 280.497C250.562 279.329 251.504 278.444 252.606 277.84C253.717 277.237 254.969 276.935 256.361 276.935C257.746 276.935 258.977 277.212 260.056 277.768C261.143 278.315 262.028 279.08 262.712 280.062C263.396 281.044 263.839 282.175 264.04 283.455L261.094 283.455C260.821 282.344 260.289 281.422 259.501 280.69C258.712 279.957 257.665 279.591 256.361 279.591C254.446 279.591 252.936 280.424 251.834 282.09C250.739 283.757 250.188 286.095 250.18 289.105L250.373 289.105C250.823 288.421 251.359 287.837 251.979 287.355C252.606 286.864 253.299 286.485 254.055 286.22C254.812 285.954 255.613 285.821 256.458 285.821C257.875 285.821 259.171 286.175 260.346 286.884C261.521 287.584 262.463 288.554 263.171 289.793C263.879 291.025 264.234 292.438 264.234 294.031C264.234 295.561 263.891 296.961 263.207 298.233C262.523 299.497 261.561 300.503 260.322 301.252C259.09 301.992 257.641 302.354 255.975 302.338ZM255.975 299.682C256.989 299.682 257.899 299.428 258.704 298.921C259.517 298.414 260.157 297.734 260.623 296.881C261.098 296.028 261.336 295.078 261.336 294.031C261.336 293.009 261.106 292.079 260.648 291.242C260.197 290.397 259.573 289.725 258.776 289.226C257.987 288.727 257.086 288.477 256.072 288.477C255.307 288.477 254.595 288.63 253.935 288.936C253.274 289.234 252.695 289.645 252.196 290.168C251.705 290.691 251.319 291.291 251.037 291.967C250.755 292.635 250.614 293.339 250.614 294.08C250.614 295.062 250.844 295.979 251.302 296.833C251.769 297.686 252.405 298.374 253.21 298.897C254.023 299.42 254.945 299.682 255.975 299.682ZM268.224 278.812L298.62 278.812L298.62 281.158L268.224 281.158L268.224 278.812ZM271.726 289.76L281.28 289.76L281.28 291.766L271.726 291.766L271.726 289.76ZM271.726 295.2L281.28 295.2L281.28 297.206L271.726 297.206L271.726 295.2ZM286.958 284.524L289.338 284.524L289.338 298.464L286.958 298.464L286.958 284.524ZM280.328 284.218L282.81 284.218L282.81 301.796C282.81 302.431 282.719 302.929 282.538 303.292C282.379 303.655 282.062 303.938 281.586 304.142C281.11 304.346 280.487 304.471 279.716 304.516C278.968 304.561 278.016 304.584 276.86 304.584C276.792 304.267 276.667 303.881 276.486 303.428C276.327 302.997 276.157 302.623 275.976 302.306C276.837 302.329 277.619 302.34 278.322 302.34C279.025 302.363 279.489 302.363 279.716 302.34C279.965 302.34 280.124 302.295 280.192 302.204C280.283 302.113 280.328 301.966 280.328 301.762L280.328 284.218ZM293.86 283.504L296.376 283.504L296.376 301.558C296.376 302.283 296.274 302.839 296.07 303.224C295.866 303.632 295.492 303.938 294.948 304.142C294.427 304.346 293.724 304.471 292.84 304.516C291.979 304.584 290.891 304.607 289.576 304.584C289.508 304.244 289.383 303.836 289.202 303.36C289.021 302.907 288.839 302.499 288.658 302.136C289.678 302.181 290.607 302.204 291.446 302.204C292.285 302.204 292.851 302.193 293.146 302.17C293.418 302.17 293.599 302.125 293.69 302.034C293.803 301.943 293.86 301.773 293.86 301.524L293.86 283.504ZM273.494 274.256L275.874 273.406C276.531 274.109 277.177 274.913 277.812 275.82C278.447 276.727 278.934 277.509 279.274 278.166L276.758 279.118C276.486 278.461 276.033 277.679 275.398 276.772C274.786 275.843 274.151 275.004 273.494 274.256ZM291.004 273.27L293.724 274.154C293.089 275.219 292.398 276.296 291.65 277.384C290.925 278.472 290.256 279.413 289.644 280.206L287.366 279.39C287.797 278.823 288.239 278.189 288.692 277.486C289.145 276.761 289.565 276.035 289.95 275.31C290.358 274.562 290.709 273.882 291.004 273.27ZM270.366 284.218L281.144 284.218L281.144 286.394L272.78 286.394L272.78 304.55L270.366 304.55L270.366 284.218Z" fill="black"/>
</g>
<defs>
<clipPath id="clip0_14_262">
<rect width="1280" height="720" fill="white" transform="translate(1280 720) rotate(-180)"/>
</clipPath>
</defs>
</svg>
