<svg width="1280" height="720" viewBox="0 0 1280 720" fill="none" xmlns="http://www.w3.org/2000/svg">
<g clip-path="url(#clip0_14_329)">
<mask id="mask0_14_329" style="mask-type:luminance" maskUnits="userSpaceOnUse" x="0" y="0" width="1280" height="720">
<path d="M0 720H1280V0H0V720Z" fill="white"/>
</mask>
<g mask="url(#mask0_14_329)">
<path d="M0 720H1280V0H0V720Z" fill="white"/>
<path d="M948 450H1152V313H948V450Z" fill="#FFE661" stroke="black" stroke-width="2" stroke-miterlimit="8"/>
<path d="M1029.9 398V371.091H1046.04V373.982H1033.16V383.074H1044.83V385.964H1033.16V398H1029.9ZM1060.6 371.091V398H1057.35V374.507H1057.19L1050.62 378.869V375.558L1057.35 371.091H1060.6ZM1077.8 371.091V398H1074.54V374.507H1074.39L1067.82 378.869V375.558L1074.54 371.091H1077.8Z" fill="black"/>
<path d="M689 424H829V354H689V424Z" fill="white" stroke="black" stroke-width="2" stroke-miterlimit="8"/>
<path d="M738.944 378.878H745.974V381.135H738.944V378.878ZM739.721 398.192H754.558V400.449H739.721V398.192ZM739.647 404.149H755.002V406.517H739.647V404.149ZM737.686 374.364H740.202V388.054H737.686V374.364ZM735.281 387.647C736.687 387.376 738.364 387.018 740.313 386.574C742.286 386.13 744.284 385.674 746.307 385.205L746.529 387.351C744.704 387.82 742.866 388.288 741.016 388.757C739.191 389.226 737.526 389.645 736.021 390.015L735.281 387.647ZM747.565 374.364H750.118V385.945C750.118 386.414 750.18 386.722 750.303 386.87C750.451 386.993 750.784 387.055 751.302 387.055C751.45 387.055 751.684 387.055 752.005 387.055C752.326 387.055 752.683 387.055 753.078 387.055C753.473 387.055 753.83 387.055 754.151 387.055C754.496 387.055 754.755 387.055 754.928 387.055C755.249 387.055 755.483 386.981 755.631 386.833C755.779 386.66 755.878 386.315 755.927 385.797C756.001 385.279 756.05 384.527 756.075 383.54C756.371 383.762 756.741 383.972 757.185 384.169C757.629 384.342 758.036 384.465 758.406 384.539C758.332 385.822 758.184 386.821 757.962 387.536C757.74 388.251 757.407 388.745 756.963 389.016C756.544 389.287 755.952 389.423 755.187 389.423C755.064 389.423 754.805 389.423 754.41 389.423C754.015 389.423 753.571 389.423 753.078 389.423C752.609 389.423 752.178 389.423 751.783 389.423C751.413 389.423 751.154 389.423 751.006 389.423C750.093 389.423 749.378 389.324 748.86 389.127C748.367 388.93 748.021 388.584 747.824 388.091C747.651 387.573 747.565 386.858 747.565 385.945V374.364ZM755.668 376.695L757.629 378.545C756.494 379.26 755.175 379.951 753.67 380.617C752.19 381.258 750.759 381.838 749.378 382.356C749.329 382.085 749.218 381.776 749.045 381.431C748.872 381.086 748.712 380.777 748.564 380.506C749.427 380.136 750.303 379.741 751.191 379.322C752.079 378.903 752.905 378.471 753.67 378.027C754.459 377.558 755.125 377.114 755.668 376.695ZM745.049 388.609L747.861 389.201C747.54 390.04 747.207 390.878 746.862 391.717C746.541 392.556 746.233 393.283 745.937 393.9L743.532 393.308C743.803 392.667 744.087 391.902 744.383 391.014C744.704 390.101 744.926 389.3 745.049 388.609ZM738.352 392.346H756.334V407.738H753.633V394.714H740.942V407.886H738.352V392.346ZM725.772 375.511H734.06V378.027H728.251V407.96H725.772V375.511ZM733.209 375.511H733.69L734.097 375.363L735.91 376.473C735.589 377.484 735.232 378.557 734.837 379.692C734.467 380.802 734.072 381.924 733.653 383.059C733.258 384.194 732.864 385.267 732.469 386.278C733.727 387.807 734.553 389.238 734.948 390.57C735.343 391.902 735.54 393.135 735.54 394.27C735.565 395.232 735.466 396.095 735.244 396.86C735.022 397.6 734.652 398.155 734.134 398.525C733.912 398.698 733.641 398.833 733.32 398.932C733.024 399.031 732.691 399.117 732.321 399.191C731.976 399.216 731.593 399.24 731.174 399.265C730.779 399.265 730.385 399.253 729.99 399.228C729.965 398.883 729.891 398.488 729.768 398.044C729.669 397.575 729.521 397.156 729.324 396.786C729.719 396.811 730.076 396.835 730.397 396.86C730.718 396.86 731.001 396.848 731.248 396.823C731.741 396.823 732.124 396.724 732.395 396.527C732.642 396.33 732.814 395.997 732.913 395.528C733.036 395.035 733.098 394.517 733.098 393.974C733.073 392.963 732.864 391.84 732.469 390.607C732.074 389.374 731.26 388.029 730.027 386.574C730.323 385.735 730.619 384.847 730.915 383.91C731.236 382.973 731.532 382.035 731.803 381.098C732.099 380.161 732.358 379.285 732.58 378.471C732.827 377.632 733.036 376.892 733.209 376.251V375.511ZM777.054 390.348H791.336V392.864H777.054V390.348ZM765.288 383.54H775.167V386.13H765.288V383.54ZM765.288 390.644H775.5V393.234H765.288V390.644ZM780.458 375.474H789.116V377.916H780.458V375.474ZM790.781 390.348H791.299L791.817 390.237L793.593 390.94C792.68 394.097 791.336 396.811 789.56 399.08C787.809 401.325 785.749 403.175 783.381 404.63C781.013 406.085 778.46 407.22 775.722 408.034C775.623 407.787 775.488 407.504 775.315 407.183C775.142 406.887 774.957 406.591 774.76 406.295C774.563 406.024 774.378 405.789 774.205 405.592C776.721 404.951 779.089 403.976 781.309 402.669C783.554 401.362 785.502 399.721 787.155 397.748C788.808 395.775 790.016 393.468 790.781 390.829V390.348ZM781.013 392.716C782.197 395.873 784.022 398.562 786.489 400.782C788.98 402.977 791.99 404.544 795.517 405.481C795.32 405.678 795.098 405.913 794.851 406.184C794.629 406.48 794.419 406.776 794.222 407.072C794.025 407.393 793.852 407.676 793.704 407.923C790.029 406.788 786.921 404.988 784.38 402.521C781.864 400.03 779.928 396.996 778.571 393.419L781.013 392.716ZM763.993 376.732L766.657 377.583V407.923H763.993V376.732ZM760.959 399.783C762.242 399.586 763.722 399.351 765.399 399.08C767.101 398.809 768.902 398.513 770.801 398.192C772.7 397.871 774.587 397.551 776.462 397.23L776.573 399.783C774.797 400.104 772.996 400.437 771.171 400.782C769.346 401.103 767.607 401.411 765.954 401.707C764.301 402.003 762.797 402.274 761.44 402.521L760.959 399.783ZM779.163 375.474H781.753V380.802C781.753 381.789 781.642 382.837 781.42 383.947C781.198 385.057 780.766 386.118 780.125 387.129C779.484 388.14 778.534 389.041 777.276 389.83C777.153 389.633 776.98 389.411 776.758 389.164C776.536 388.917 776.289 388.683 776.018 388.461C775.771 388.214 775.549 388.042 775.352 387.943C776.487 387.252 777.325 386.512 777.868 385.723C778.411 384.909 778.756 384.083 778.904 383.244C779.077 382.381 779.163 381.542 779.163 380.728V375.474ZM774.316 373.957L776.684 375.918C775.673 376.411 774.538 376.88 773.28 377.324C772.022 377.768 770.727 378.175 769.395 378.545C768.063 378.915 766.768 379.248 765.51 379.544C765.436 379.248 765.3 378.89 765.103 378.471C764.93 378.052 764.758 377.706 764.585 377.435C765.769 377.139 766.965 376.806 768.174 376.436C769.383 376.041 770.517 375.634 771.578 375.215C772.663 374.796 773.576 374.376 774.316 373.957ZM787.599 375.474H790.226V384.613C790.226 384.958 790.238 385.242 790.263 385.464C790.288 385.661 790.337 385.797 790.411 385.871C790.534 385.945 790.732 385.982 791.003 385.982C791.126 385.982 791.287 385.982 791.484 385.982C791.706 385.982 791.903 385.982 792.076 385.982C792.224 385.982 792.372 385.97 792.52 385.945C792.668 385.92 792.779 385.896 792.853 385.871C793.026 385.772 793.161 385.489 793.26 385.02C793.285 384.749 793.309 384.342 793.334 383.799C793.359 383.232 793.383 382.578 793.408 381.838C793.655 382.06 793.975 382.27 794.37 382.467C794.789 382.664 795.184 382.825 795.554 382.948C795.505 383.663 795.443 384.391 795.369 385.131C795.32 385.846 795.246 386.352 795.147 386.648C794.95 387.24 794.58 387.659 794.037 387.906C793.84 388.029 793.568 388.116 793.223 388.165C792.902 388.214 792.594 388.239 792.298 388.239C792.051 388.239 791.718 388.239 791.299 388.239C790.904 388.239 790.608 388.239 790.411 388.239C790.066 388.239 789.696 388.19 789.301 388.091C788.906 387.992 788.586 387.832 788.339 387.61C788.068 387.363 787.87 387.043 787.747 386.648C787.648 386.229 787.599 385.489 787.599 384.428V375.474Z" fill="black"/>
<path d="M473 424H689V354H473V424Z" fill="white" stroke="black" stroke-width="2" stroke-miterlimit="8"/>
<path d="M496.122 380.247C496.615 380.321 497.158 380.383 497.75 380.432C498.367 380.457 498.86 380.469 499.23 380.469H519.58C520.147 380.469 520.702 380.444 521.245 380.395C521.788 380.346 522.281 380.296 522.725 380.247V383.503C522.256 383.454 521.738 383.417 521.171 383.392C520.628 383.367 520.098 383.355 519.58 383.355H499.23C498.885 383.355 498.391 383.367 497.75 383.392C497.133 383.417 496.591 383.454 496.122 383.503V380.247ZM507.555 401.966V382.097H510.7V401.966H507.555ZM493.865 400.153C494.408 400.227 494.95 400.289 495.493 400.338C496.06 400.363 496.603 400.375 497.121 400.375H521.578C522.145 400.375 522.676 400.35 523.169 400.301C523.687 400.252 524.18 400.202 524.649 400.153V403.52C524.156 403.471 523.613 403.434 523.021 403.409C522.429 403.384 521.948 403.372 521.578 403.372H497.121C496.628 403.372 496.097 403.384 495.53 403.409C494.987 403.434 494.432 403.471 493.865 403.52V400.153ZM535.971 403.816C536.119 403.52 536.218 403.236 536.267 402.965C536.316 402.694 536.341 402.373 536.341 402.003C536.341 401.633 536.341 400.942 536.341 399.931C536.341 398.92 536.341 397.711 536.341 396.305C536.341 394.899 536.341 393.431 536.341 391.902C536.341 390.348 536.341 388.843 536.341 387.388C536.341 385.908 536.341 384.601 536.341 383.466C536.341 382.307 536.341 381.431 536.341 380.839C536.341 380.518 536.316 380.136 536.267 379.692C536.242 379.248 536.205 378.829 536.156 378.434C536.131 378.039 536.082 377.719 536.008 377.472H539.671C539.597 377.916 539.535 378.459 539.486 379.1C539.437 379.717 539.412 380.296 539.412 380.839C539.412 381.332 539.412 382.048 539.412 382.985C539.412 383.922 539.412 384.995 539.412 386.204C539.412 387.388 539.412 388.646 539.412 389.978C539.412 391.31 539.412 392.617 539.412 393.9C539.412 395.183 539.412 396.379 539.412 397.489C539.412 398.574 539.412 399.499 539.412 400.264C539.412 401.029 539.412 401.547 539.412 401.818C541.188 401.374 543.013 400.745 544.888 399.931C546.787 399.117 548.637 398.167 550.438 397.082C552.263 395.972 553.965 394.763 555.544 393.456C557.147 392.124 558.516 390.706 559.651 389.201L561.316 391.791C558.923 394.776 555.865 397.39 552.14 399.635C548.44 401.88 544.284 403.668 539.671 405C539.474 405.049 539.239 405.123 538.968 405.222C538.697 405.345 538.413 405.493 538.117 405.666L535.971 403.816ZM590.324 379.914C590.645 380.358 591.015 380.925 591.434 381.616C591.878 382.307 592.31 383.022 592.729 383.762C593.173 384.502 593.543 385.168 593.839 385.76L591.656 386.759C591.335 386.093 590.99 385.415 590.62 384.724C590.25 384.033 589.855 383.355 589.436 382.689C589.041 381.998 588.634 381.369 588.215 380.802L590.324 379.914ZM595.06 378.027C595.405 378.446 595.8 379.001 596.244 379.692C596.688 380.383 597.132 381.098 597.576 381.838C598.02 382.578 598.39 383.232 598.686 383.799L596.54 384.835C596.244 384.169 595.899 383.503 595.504 382.837C595.109 382.146 594.69 381.468 594.246 380.802C593.827 380.136 593.407 379.532 592.988 378.989L595.06 378.027ZM566.718 395.269C567.211 394.85 567.643 394.455 568.013 394.085C568.408 393.715 568.852 393.283 569.345 392.79C569.789 392.346 570.295 391.779 570.862 391.088C571.454 390.397 572.083 389.657 572.749 388.868C573.44 388.054 574.118 387.24 574.784 386.426C575.45 385.587 576.067 384.835 576.634 384.169C577.621 383.01 578.595 382.368 579.557 382.245C580.519 382.097 581.629 382.615 582.887 383.799C583.652 384.49 584.478 385.304 585.366 386.241C586.279 387.154 587.179 388.079 588.067 389.016C588.955 389.953 589.757 390.804 590.472 391.569C591.311 392.432 592.248 393.431 593.284 394.566C594.32 395.676 595.381 396.823 596.466 398.007C597.551 399.166 598.563 400.252 599.5 401.263L596.947 403.964C596.084 402.903 595.159 401.806 594.172 400.671C593.21 399.512 592.248 398.389 591.286 397.304C590.349 396.194 589.485 395.195 588.696 394.307C588.153 393.69 587.549 393.024 586.883 392.309C586.217 391.594 585.551 390.878 584.885 390.163C584.219 389.448 583.59 388.782 582.998 388.165C582.431 387.548 581.95 387.055 581.555 386.685C580.84 385.994 580.248 385.674 579.779 385.723C579.335 385.772 578.792 386.179 578.151 386.944C577.707 387.487 577.201 388.128 576.634 388.868C576.067 389.583 575.475 390.336 574.858 391.125C574.241 391.914 573.649 392.667 573.082 393.382C572.515 394.097 572.021 394.714 571.602 395.232C571.232 395.701 570.85 396.194 570.455 396.712C570.085 397.23 569.764 397.686 569.493 398.081L566.718 395.269ZM605.531 388.979C605.901 389.004 606.357 389.041 606.9 389.09C607.443 389.115 608.035 389.139 608.676 389.164C609.342 389.164 610.008 389.164 610.674 389.164C611.069 389.164 611.673 389.164 612.487 389.164C613.326 389.164 614.3 389.164 615.41 389.164C616.52 389.164 617.692 389.164 618.925 389.164C620.183 389.164 621.429 389.164 622.662 389.164C623.92 389.164 625.104 389.164 626.214 389.164C627.349 389.164 628.323 389.164 629.137 389.164C629.951 389.164 630.555 389.164 630.95 389.164C631.887 389.164 632.689 389.139 633.355 389.09C634.021 389.041 634.551 389.004 634.946 388.979V392.605C634.576 392.58 634.021 392.543 633.281 392.494C632.566 392.445 631.801 392.42 630.987 392.42C630.592 392.42 629.976 392.42 629.137 392.42C628.298 392.42 627.324 392.42 626.214 392.42C625.129 392.42 623.957 392.42 622.699 392.42C621.441 392.42 620.183 392.42 618.925 392.42C617.692 392.42 616.52 392.42 615.41 392.42C614.325 392.42 613.363 392.42 612.524 392.42C611.685 392.42 611.069 392.42 610.674 392.42C609.663 392.42 608.701 392.445 607.788 392.494C606.875 392.519 606.123 392.556 605.531 392.605V388.979ZM654.112 388.054C655.296 388.745 656.542 389.509 657.849 390.348C659.156 391.187 660.451 392.062 661.734 392.975C663.041 393.863 664.287 394.739 665.471 395.602C666.655 396.465 667.703 397.279 668.616 398.044L666.433 400.597C665.594 399.832 664.583 398.994 663.399 398.081C662.24 397.144 661.006 396.206 659.699 395.269C658.392 394.307 657.084 393.382 655.777 392.494C654.47 391.606 653.249 390.804 652.114 390.089L654.112 388.054ZM671.058 381.283C670.885 381.554 670.725 381.887 670.577 382.282C670.429 382.652 670.293 382.985 670.17 383.281C669.825 384.539 669.331 385.896 668.69 387.351C668.049 388.806 667.296 390.274 666.433 391.754C665.57 393.209 664.583 394.615 663.473 395.972C661.82 398.019 659.748 399.993 657.257 401.892C654.79 403.767 651.806 405.345 648.303 406.628L645.639 404.334C647.933 403.619 650.017 402.743 651.892 401.707C653.791 400.646 655.493 399.487 656.998 398.229C658.503 396.971 659.81 395.676 660.92 394.344C661.882 393.209 662.758 391.964 663.547 390.607C664.361 389.25 665.064 387.906 665.656 386.574C666.248 385.217 666.68 383.959 666.951 382.8H653.224L654.408 380.173H666.174C666.667 380.173 667.124 380.148 667.543 380.099C667.962 380.025 668.32 379.926 668.616 379.803L671.058 381.283ZM658.589 375.955C658.268 376.448 657.96 376.966 657.664 377.509C657.368 378.052 657.121 378.496 656.924 378.841C656.184 380.198 655.222 381.69 654.038 383.318C652.879 384.921 651.51 386.525 649.931 388.128C648.377 389.731 646.613 391.224 644.64 392.605L642.161 390.681C644.282 389.374 646.12 387.931 647.674 386.352C649.228 384.773 650.535 383.232 651.596 381.727C652.657 380.222 653.471 378.915 654.038 377.805C654.235 377.484 654.457 377.04 654.704 376.473C654.951 375.881 655.123 375.351 655.222 374.882L658.589 375.955Z" fill="black"/>
<path d="M969 270L473.017 228.427" stroke="black" stroke-width="2" stroke-miterlimit="8"/>
<path d="M333 434.646L333 526" stroke="black" stroke-width="2" stroke-miterlimit="8"/>
<path d="M970 312V270.452" stroke="black" stroke-width="2" stroke-miterlimit="8"/>
<path d="M1074 526H333.628" stroke="black" stroke-width="2" stroke-miterlimit="8"/>
<path d="M685 438H473.384" stroke="black" stroke-width="2" stroke-miterlimit="8"/>
<path d="M333 438H474V307H333V438Z" fill="white" stroke="black" stroke-width="2" stroke-miterlimit="8"/>
<path d="M378.205 389V362.091H394.34V364.982H381.463V374.074H393.131V376.965H381.463V389H378.205ZM408.908 362.091V389H405.649V365.507H405.491L398.922 369.869V366.558L405.649 362.091H408.908ZM425.739 389.368C424.005 389.368 422.459 389.07 421.101 388.474C419.752 387.879 418.679 387.051 417.882 385.991C417.093 384.923 416.664 383.683 416.594 382.273H419.905C419.975 383.14 420.273 383.889 420.799 384.52C421.324 385.142 422.012 385.623 422.861 385.965C423.711 386.307 424.653 386.477 425.686 386.477C426.843 386.477 427.867 386.276 428.761 385.873C429.654 385.47 430.355 384.909 430.863 384.191C431.371 383.473 431.625 382.641 431.625 381.695C431.625 380.705 431.38 379.833 430.889 379.08C430.399 378.318 429.681 377.722 428.735 377.293C427.789 376.864 426.632 376.649 425.266 376.649H423.111V373.759H425.266C426.335 373.759 427.272 373.566 428.078 373.18C428.892 372.795 429.527 372.252 429.983 371.551C430.447 370.85 430.679 370.027 430.679 369.081C430.679 368.17 430.478 367.377 430.075 366.703C429.672 366.028 429.103 365.503 428.367 365.126C427.64 364.749 426.781 364.561 425.791 364.561C424.863 364.561 423.987 364.732 423.164 365.074C422.349 365.406 421.683 365.893 421.166 366.532C420.65 367.163 420.369 367.925 420.326 368.818H417.172C417.225 367.408 417.65 366.173 418.447 365.113C419.244 364.044 420.286 363.212 421.574 362.617C422.87 362.021 424.294 361.723 425.844 361.723C427.508 361.723 428.936 362.06 430.127 362.735C431.319 363.401 432.234 364.281 432.874 365.376C433.513 366.471 433.833 367.653 433.833 368.923C433.833 370.439 433.434 371.731 432.637 372.799C431.849 373.868 430.776 374.608 429.418 375.02V375.23C431.117 375.51 432.444 376.233 433.399 377.398C434.354 378.554 434.831 379.987 434.831 381.695C434.831 383.157 434.433 384.471 433.636 385.636C432.847 386.793 431.77 387.704 430.403 388.369C429.037 389.035 427.482 389.368 425.739 389.368Z" fill="black"/>
<path d="M333 526L270.54 526" stroke="black" stroke-width="2" stroke-miterlimit="8"/>
<path d="M850.424 365.613H882.133V373.161H879.395V368.055H853.051V373.161H850.424V365.613ZM854.938 372.236H875.621V374.826H854.938V372.236ZM878.1 354.772L880.024 357.029C878.174 357.399 876.102 357.744 873.808 358.065C871.514 358.386 869.097 358.669 866.556 358.916C864.04 359.138 861.487 359.335 858.897 359.508C856.332 359.681 853.84 359.816 851.423 359.915C851.398 359.545 851.312 359.138 851.164 358.694C851.041 358.225 850.917 357.831 850.794 357.51C853.187 357.411 855.641 357.276 858.157 357.103C860.698 356.93 863.189 356.733 865.631 356.511C868.098 356.289 870.392 356.03 872.513 355.734C874.634 355.438 876.497 355.117 878.1 354.772ZM853.902 360.692L856.307 359.989C856.85 360.729 857.368 361.568 857.861 362.505C858.354 363.442 858.7 364.232 858.897 364.873L856.381 365.724C856.184 365.033 855.838 364.219 855.345 363.282C854.876 362.32 854.395 361.457 853.902 360.692ZM863.744 359.878L866.223 359.323C866.667 360.186 867.074 361.124 867.444 362.135C867.839 363.122 868.085 363.985 868.184 364.725L865.594 365.391C865.471 364.676 865.236 363.8 864.891 362.764C864.546 361.703 864.163 360.741 863.744 359.878ZM876.361 359.249L879.21 360.1C878.766 360.889 878.285 361.703 877.767 362.542C877.274 363.356 876.768 364.145 876.25 364.91C875.732 365.675 875.251 366.353 874.807 366.945L872.587 366.168C873.006 365.551 873.45 364.848 873.919 364.059C874.388 363.245 874.844 362.419 875.288 361.58C875.732 360.717 876.09 359.94 876.361 359.249ZM874.622 372.236H875.214L875.732 372.125L877.582 373.309C876.447 375.652 874.967 377.7 873.142 379.451C871.341 381.202 869.282 382.695 866.963 383.928C864.644 385.137 862.153 386.136 859.489 386.925C856.85 387.739 854.112 388.38 851.275 388.849C851.176 388.627 851.028 388.356 850.831 388.035C850.658 387.714 850.461 387.406 850.239 387.11C850.042 386.814 849.857 386.567 849.684 386.37C852.447 385.975 855.111 385.433 857.676 384.742C860.266 384.027 862.659 383.126 864.854 382.041C867.049 380.956 868.986 379.648 870.663 378.119C872.34 376.565 873.66 374.764 874.622 372.717V372.236ZM858.527 373.975C859.958 376.244 861.857 378.218 864.225 379.895C866.618 381.548 869.38 382.904 872.513 383.965C875.67 385.026 879.111 385.79 882.836 386.259C882.639 386.456 882.429 386.703 882.207 386.999C882.01 387.32 881.812 387.64 881.615 387.961C881.418 388.282 881.257 388.578 881.134 388.849C877.385 388.282 873.919 387.406 870.737 386.222C867.555 385.038 864.718 383.509 862.227 381.634C859.76 379.759 857.725 377.539 856.122 374.974L858.527 373.975Z" fill="black"/>
<path d="M860.525 408.134H883.058V410.946H860.525V408.134ZM875.547 400.364H878.396V430.149C878.396 431.21 878.236 431.987 877.915 432.48C877.594 432.973 877.089 433.331 876.398 433.553C875.683 433.775 874.671 433.911 873.364 433.96C872.057 434.009 870.404 434.022 868.406 433.997C868.357 433.75 868.27 433.454 868.147 433.109C868.024 432.788 867.888 432.455 867.74 432.11C867.592 431.789 867.444 431.493 867.296 431.222C868.332 431.271 869.331 431.296 870.293 431.296C871.28 431.321 872.131 431.321 872.846 431.296C873.561 431.296 874.055 431.296 874.326 431.296C874.77 431.271 875.078 431.173 875.251 431C875.448 430.852 875.547 430.568 875.547 430.149V400.364ZM862.856 415.978L865.261 414.831C865.902 415.793 866.568 416.829 867.259 417.939C867.974 419.049 868.653 420.122 869.294 421.158C869.935 422.194 870.453 423.094 870.848 423.859L868.258 425.265C867.888 424.476 867.395 423.551 866.778 422.49C866.186 421.429 865.545 420.332 864.854 419.197C864.163 418.038 863.497 416.965 862.856 415.978ZM854.642 409.984L857.417 407.209V407.246V433.886H854.642V409.984ZM858.675 400.142L861.376 400.993C860.537 403.139 859.563 405.248 858.453 407.32C857.343 409.392 856.147 411.341 854.864 413.166C853.581 414.967 852.249 416.57 850.868 417.976C850.769 417.754 850.609 417.47 850.387 417.125C850.19 416.755 849.98 416.397 849.758 416.052C849.536 415.707 849.326 415.423 849.129 415.201C850.412 413.992 851.645 412.586 852.829 410.983C854.013 409.38 855.098 407.653 856.085 405.803C857.096 403.953 857.96 402.066 858.675 400.142Z" fill="black"/>
<path d="M473 229L168.47 228.742" stroke="black" stroke-width="2" stroke-miterlimit="8"/>
<path d="M271 399.921L271 524" stroke="black" stroke-width="2" stroke-miterlimit="8"/>
<path d="M169 470H271V291H169V470Z" fill="white" stroke="black" stroke-width="2" stroke-miterlimit="8"/>
<path d="M194.218 397V370.091H210.353V372.982H197.477V382.074H209.145V384.964H197.477V397H194.218ZM224.922 370.091V397H221.663V373.507H221.505L214.936 377.869V374.558L221.663 370.091H224.922ZM232.661 397V394.635L241.543 384.912C242.585 383.773 243.443 382.783 244.118 381.942C244.792 381.093 245.292 380.296 245.616 379.551C245.949 378.798 246.115 378.009 246.115 377.186C246.115 376.24 245.887 375.421 245.432 374.729C244.985 374.037 244.372 373.503 243.592 373.126C242.813 372.749 241.937 372.561 240.964 372.561C239.931 372.561 239.029 372.776 238.258 373.205C237.496 373.625 236.904 374.217 236.484 374.979C236.072 375.741 235.866 376.634 235.866 377.659H232.766C232.766 376.082 233.129 374.698 233.856 373.507C234.583 372.316 235.573 371.387 236.826 370.722C238.087 370.056 239.502 369.723 241.07 369.723C242.646 369.723 244.043 370.056 245.261 370.722C246.479 371.387 247.433 372.285 248.125 373.415C248.817 374.545 249.163 375.802 249.163 377.186C249.163 378.176 248.984 379.144 248.625 380.09C248.274 381.027 247.661 382.074 246.785 383.23C245.918 384.378 244.714 385.779 243.172 387.435L237.128 393.899V394.109H249.636V397H232.661Z" fill="black"/>
<path d="M829 424.004L829 478" stroke="black" stroke-width="2" stroke-miterlimit="8"/>
<path d="M684 436.227L684 477" stroke="black" stroke-width="2" stroke-miterlimit="8"/>
<path d="M685 525H829V478H685V525Z" fill="white" stroke="black" stroke-width="2" stroke-miterlimit="8"/>
<path d="M736.834 491.878H743.864V494.135H736.834V491.878ZM737.611 511.192H752.448V513.449H737.611V511.192ZM737.537 517.149H752.892V519.517H737.537V517.149ZM735.576 487.364H738.092V501.054H735.576V487.364ZM733.171 500.647C734.577 500.376 736.254 500.018 738.203 499.574C740.176 499.13 742.174 498.674 744.197 498.205L744.419 500.351C742.594 500.82 740.756 501.288 738.906 501.757C737.081 502.226 735.416 502.645 733.911 503.015L733.171 500.647ZM745.455 487.364H748.008V498.945C748.008 499.414 748.07 499.722 748.193 499.87C748.341 499.993 748.674 500.055 749.192 500.055C749.34 500.055 749.574 500.055 749.895 500.055C750.216 500.055 750.573 500.055 750.968 500.055C751.363 500.055 751.72 500.055 752.041 500.055C752.386 500.055 752.645 500.055 752.818 500.055C753.139 500.055 753.373 499.981 753.521 499.833C753.669 499.66 753.768 499.315 753.817 498.797C753.891 498.279 753.94 497.527 753.965 496.54C754.261 496.762 754.631 496.972 755.075 497.169C755.519 497.342 755.926 497.465 756.296 497.539C756.222 498.822 756.074 499.821 755.852 500.536C755.63 501.251 755.297 501.745 754.853 502.016C754.434 502.287 753.842 502.423 753.077 502.423C752.954 502.423 752.695 502.423 752.3 502.423C751.905 502.423 751.461 502.423 750.968 502.423C750.499 502.423 750.068 502.423 749.673 502.423C749.303 502.423 749.044 502.423 748.896 502.423C747.983 502.423 747.268 502.324 746.75 502.127C746.257 501.93 745.911 501.584 745.714 501.091C745.541 500.573 745.455 499.858 745.455 498.945V487.364ZM753.558 489.695L755.519 491.545C754.384 492.26 753.065 492.951 751.56 493.617C750.08 494.258 748.649 494.838 747.268 495.356C747.219 495.085 747.108 494.776 746.935 494.431C746.762 494.086 746.602 493.777 746.454 493.506C747.317 493.136 748.193 492.741 749.081 492.322C749.969 491.903 750.795 491.471 751.56 491.027C752.349 490.558 753.015 490.114 753.558 489.695ZM742.939 501.609L745.751 502.201C745.43 503.04 745.097 503.878 744.752 504.717C744.431 505.556 744.123 506.283 743.827 506.9L741.422 506.308C741.693 505.667 741.977 504.902 742.273 504.014C742.594 503.101 742.816 502.3 742.939 501.609ZM736.242 505.346H754.224V520.738H751.523V507.714H738.832V520.886H736.242V505.346ZM723.662 488.511H731.95V491.027H726.141V520.96H723.662V488.511ZM731.099 488.511H731.58L731.987 488.363L733.8 489.473C733.479 490.484 733.122 491.557 732.727 492.692C732.357 493.802 731.962 494.924 731.543 496.059C731.148 497.194 730.754 498.267 730.359 499.278C731.617 500.807 732.443 502.238 732.838 503.57C733.233 504.902 733.43 506.135 733.43 507.27C733.455 508.232 733.356 509.095 733.134 509.86C732.912 510.6 732.542 511.155 732.024 511.525C731.802 511.698 731.531 511.833 731.21 511.932C730.914 512.031 730.581 512.117 730.211 512.191C729.866 512.216 729.483 512.24 729.064 512.265C728.669 512.265 728.275 512.253 727.88 512.228C727.855 511.883 727.781 511.488 727.658 511.044C727.559 510.575 727.411 510.156 727.214 509.786C727.609 509.811 727.966 509.835 728.287 509.86C728.608 509.86 728.891 509.848 729.138 509.823C729.631 509.823 730.014 509.724 730.285 509.527C730.532 509.33 730.704 508.997 730.803 508.528C730.926 508.035 730.988 507.517 730.988 506.974C730.963 505.963 730.754 504.84 730.359 503.607C729.964 502.374 729.15 501.029 727.917 499.574C728.213 498.735 728.509 497.847 728.805 496.91C729.126 495.973 729.422 495.035 729.693 494.098C729.989 493.161 730.248 492.285 730.47 491.471C730.717 490.632 730.926 489.892 731.099 489.251V488.511ZM774.944 503.348H789.226V505.864H774.944V503.348ZM763.178 496.54H773.057V499.13H763.178V496.54ZM763.178 503.644H773.39V506.234H763.178V503.644ZM778.348 488.474H787.006V490.916H778.348V488.474ZM788.671 503.348H789.189L789.707 503.237L791.483 503.94C790.57 507.097 789.226 509.811 787.45 512.08C785.699 514.325 783.639 516.175 781.271 517.63C778.903 519.085 776.35 520.22 773.612 521.034C773.513 520.787 773.378 520.504 773.205 520.183C773.032 519.887 772.847 519.591 772.65 519.295C772.453 519.024 772.268 518.789 772.095 518.592C774.611 517.951 776.979 516.976 779.199 515.669C781.444 514.362 783.392 512.721 785.045 510.748C786.698 508.775 787.906 506.468 788.671 503.829V503.348ZM778.903 505.716C780.087 508.873 781.912 511.562 784.379 513.782C786.87 515.977 789.88 517.544 793.407 518.481C793.21 518.678 792.988 518.913 792.741 519.184C792.519 519.48 792.309 519.776 792.112 520.072C791.915 520.393 791.742 520.676 791.594 520.923C787.919 519.788 784.811 517.988 782.27 515.521C779.754 513.03 777.818 509.996 776.461 506.419L778.903 505.716ZM761.883 489.732L764.547 490.583V520.923H761.883V489.732ZM758.849 512.783C760.132 512.586 761.612 512.351 763.289 512.08C764.991 511.809 766.792 511.513 768.691 511.192C770.59 510.871 772.477 510.551 774.352 510.23L774.463 512.783C772.687 513.104 770.886 513.437 769.061 513.782C767.236 514.103 765.497 514.411 763.844 514.707C762.191 515.003 760.687 515.274 759.33 515.521L758.849 512.783ZM777.053 488.474H779.643V493.802C779.643 494.789 779.532 495.837 779.31 496.947C779.088 498.057 778.656 499.118 778.015 500.129C777.374 501.14 776.424 502.041 775.166 502.83C775.043 502.633 774.87 502.411 774.648 502.164C774.426 501.917 774.179 501.683 773.908 501.461C773.661 501.214 773.439 501.042 773.242 500.943C774.377 500.252 775.215 499.512 775.758 498.723C776.301 497.909 776.646 497.083 776.794 496.244C776.967 495.381 777.053 494.542 777.053 493.728V488.474ZM772.206 486.957L774.574 488.918C773.563 489.411 772.428 489.88 771.17 490.324C769.912 490.768 768.617 491.175 767.285 491.545C765.953 491.915 764.658 492.248 763.4 492.544C763.326 492.248 763.19 491.89 762.993 491.471C762.82 491.052 762.648 490.706 762.475 490.435C763.659 490.139 764.855 489.806 766.064 489.436C767.273 489.041 768.407 488.634 769.468 488.215C770.553 487.796 771.466 487.376 772.206 486.957ZM785.489 488.474H788.116V497.613C788.116 497.958 788.128 498.242 788.153 498.464C788.178 498.661 788.227 498.797 788.301 498.871C788.424 498.945 788.622 498.982 788.893 498.982C789.016 498.982 789.177 498.982 789.374 498.982C789.596 498.982 789.793 498.982 789.966 498.982C790.114 498.982 790.262 498.97 790.41 498.945C790.558 498.92 790.669 498.896 790.743 498.871C790.916 498.772 791.051 498.489 791.15 498.02C791.175 497.749 791.199 497.342 791.224 496.799C791.249 496.232 791.273 495.578 791.298 494.838C791.545 495.06 791.865 495.27 792.26 495.467C792.679 495.664 793.074 495.825 793.444 495.948C793.395 496.663 793.333 497.391 793.259 498.131C793.21 498.846 793.136 499.352 793.037 499.648C792.84 500.24 792.47 500.659 791.927 500.906C791.73 501.029 791.458 501.116 791.113 501.165C790.792 501.214 790.484 501.239 790.188 501.239C789.941 501.239 789.608 501.239 789.189 501.239C788.794 501.239 788.498 501.239 788.301 501.239C787.956 501.239 787.586 501.19 787.191 501.091C786.796 500.992 786.476 500.832 786.229 500.61C785.958 500.363 785.76 500.043 785.637 499.648C785.538 499.229 785.489 498.489 785.489 497.428V488.474Z" fill="black"/>
<path d="M551.597 482.92H554.224V508.709H551.597V482.92ZM539.979 498.164L559.885 489.765L560.958 492.133L541.015 500.643L539.979 498.164ZM543.975 486.361H546.639V511.151C546.639 511.817 546.713 512.335 546.861 512.705C547.009 513.05 547.28 513.285 547.675 513.408C548.094 513.531 548.723 513.593 549.562 513.593C549.809 513.593 550.216 513.593 550.783 513.593C551.35 513.593 552.004 513.593 552.744 513.593C553.509 513.593 554.273 513.593 555.038 513.593C555.803 513.593 556.493 513.593 557.11 513.593C557.727 513.593 558.183 513.593 558.479 513.593C559.219 513.593 559.762 513.457 560.107 513.186C560.477 512.89 560.736 512.36 560.884 511.595C561.057 510.83 561.192 509.745 561.291 508.339C561.612 508.586 562.006 508.808 562.475 509.005C562.968 509.202 563.4 509.326 563.77 509.375C563.647 511.077 563.425 512.421 563.104 513.408C562.783 514.395 562.265 515.085 561.55 515.48C560.859 515.899 559.873 516.109 558.59 516.109C558.368 516.109 557.949 516.109 557.332 516.109C556.74 516.109 556.037 516.109 555.223 516.109C554.409 516.109 553.595 516.109 552.781 516.109C551.967 516.109 551.252 516.109 550.635 516.109C550.043 516.109 549.648 516.109 549.451 516.109C548.045 516.109 546.935 515.961 546.121 515.665C545.332 515.394 544.777 514.888 544.456 514.148C544.135 513.433 543.975 512.409 543.975 511.077V486.361ZM559.404 490.135H559.108L559.737 489.58L560.255 489.173L562.216 489.913L562.068 490.431C562.068 492.182 562.056 493.823 562.031 495.352C562.031 496.881 562.019 498.263 561.994 499.496C561.969 500.729 561.932 501.765 561.883 502.604C561.834 503.418 561.784 504.01 561.735 504.38C561.636 505.12 561.414 505.687 561.069 506.082C560.724 506.452 560.267 506.699 559.7 506.822C559.207 506.97 558.627 507.056 557.961 507.081C557.32 507.106 556.74 507.118 556.222 507.118C556.173 506.748 556.086 506.329 555.963 505.86C555.864 505.391 555.729 504.997 555.556 504.676C556 504.701 556.469 504.725 556.962 504.75C557.48 504.75 557.838 504.75 558.035 504.75C558.331 504.75 558.565 504.688 558.738 504.565C558.935 504.442 559.071 504.17 559.145 503.751C559.219 503.504 559.268 503.011 559.293 502.271C559.342 501.506 559.367 500.532 559.367 499.348C559.392 498.164 559.404 496.795 559.404 495.241C559.404 493.687 559.404 491.985 559.404 490.135ZM529.656 491.837H541.385V494.464H529.656V491.837ZM534.392 483.364H537.019V507.377H534.392V483.364ZM529.323 508.302C530.31 507.932 531.444 507.488 532.727 506.97C534.034 506.427 535.416 505.86 536.871 505.268C538.326 504.651 539.782 504.035 541.237 503.418L541.866 505.897C539.893 506.81 537.895 507.722 535.872 508.635C533.874 509.548 532.061 510.362 530.433 511.077L529.323 508.302ZM567.137 485.658H600.104V488.433H567.137V485.658ZM581.419 487.841H584.342V516.923H581.419V487.841ZM583.01 496.61L584.86 494.501C585.97 495.019 587.142 495.611 588.375 496.277C589.608 496.943 590.829 497.634 592.038 498.349C593.247 499.04 594.369 499.718 595.405 500.384C596.466 501.05 597.366 501.667 598.106 502.234L596.145 504.75C595.43 504.183 594.554 503.554 593.518 502.863C592.507 502.148 591.397 501.432 590.188 500.717C589.004 499.977 587.795 499.262 586.562 498.571C585.329 497.856 584.145 497.202 583.01 496.61ZM604.174 503.862C604.643 503.492 605.074 503.122 605.469 502.752C605.888 502.357 606.345 501.913 606.838 501.42C607.331 500.902 607.874 500.285 608.466 499.57C609.083 498.83 609.712 498.053 610.353 497.239C611.019 496.4 611.673 495.574 612.314 494.76C612.955 493.946 613.547 493.218 614.09 492.577C615.175 491.319 616.224 490.628 617.235 490.505C618.271 490.382 619.393 490.937 620.602 492.17C621.367 492.935 622.168 493.823 623.007 494.834C623.846 495.821 624.697 496.82 625.56 497.831C626.448 498.842 627.274 499.78 628.039 500.643C628.606 501.26 629.248 501.95 629.963 502.715C630.678 503.48 631.443 504.281 632.257 505.12C633.071 505.934 633.897 506.76 634.736 507.599C635.599 508.438 636.45 509.215 637.289 509.93L634.921 512.631C634.008 511.743 633.034 510.769 631.998 509.708C630.987 508.623 629.988 507.525 629.001 506.415C628.014 505.305 627.089 504.281 626.226 503.344C625.437 502.431 624.61 501.469 623.747 500.458C622.908 499.422 622.094 498.435 621.305 497.498C620.54 496.561 619.874 495.771 619.307 495.13C618.764 494.563 618.308 494.205 617.938 494.057C617.568 493.909 617.21 493.946 616.865 494.168C616.544 494.365 616.162 494.723 615.718 495.241C615.299 495.784 614.805 496.425 614.238 497.165C613.671 497.905 613.079 498.67 612.462 499.459C611.845 500.248 611.241 501.025 610.649 501.79C610.082 502.555 609.564 503.221 609.095 503.788C608.725 504.281 608.33 504.787 607.911 505.305C607.516 505.798 607.183 506.242 606.912 506.637L604.174 503.862Z" fill="black"/>
<path d="M581.671 442L583.695 443.997L575.364 452.327H596.939V455.218H575.364L583.695 463.522L581.671 465.545L569.899 453.773L581.671 442Z" fill="black"/>
<ellipse cx="696" cy="297" rx="152" ry="44" fill="#FFE661"/>
<path d="M658.609 283.358H670.93V286.54H658.609V283.358ZM659.201 276.735L662.642 277.253C662.075 280.46 661.298 283.469 660.311 286.281C659.324 289.093 658.128 291.449 656.722 293.348C656.525 293.175 656.241 292.966 655.871 292.719C655.501 292.448 655.119 292.201 654.724 291.979C654.354 291.732 654.021 291.535 653.725 291.387C655.156 289.685 656.315 287.539 657.203 284.949C658.091 282.359 658.757 279.621 659.201 276.735ZM664.048 284.616H665.75V290.906C665.75 291.572 665.812 292.435 665.935 293.496C666.083 294.557 666.317 295.728 666.638 297.011C666.983 298.294 667.464 299.613 668.081 300.97C668.698 302.302 669.487 303.585 670.449 304.818C671.411 306.051 672.57 307.149 673.927 308.111C673.73 308.358 673.495 308.666 673.224 309.036C672.953 309.406 672.681 309.776 672.41 310.146C672.163 310.541 671.941 310.886 671.744 311.182C670.708 310.467 669.783 309.628 668.969 308.666C668.155 307.729 667.452 306.754 666.86 305.743C666.293 304.707 665.812 303.683 665.417 302.672C665.022 301.636 664.714 300.674 664.492 299.786C664.27 298.898 664.122 298.146 664.048 297.529C663.925 298.294 663.678 299.256 663.308 300.415C662.938 301.574 662.408 302.808 661.717 304.115C661.051 305.398 660.2 306.656 659.164 307.889C658.153 309.122 656.919 310.208 655.464 311.145C655.316 310.898 655.119 310.59 654.872 310.22C654.625 309.85 654.366 309.48 654.095 309.11C653.848 308.765 653.614 308.481 653.392 308.259C654.897 307.297 656.179 306.199 657.24 304.966C658.301 303.733 659.152 302.438 659.793 301.081C660.459 299.724 660.977 298.405 661.347 297.122C661.717 295.815 661.964 294.631 662.087 293.57C662.235 292.485 662.309 291.597 662.309 290.906V284.616H664.048ZM670.079 283.358H670.634L671.152 283.21L673.52 283.839C673.298 284.974 673.039 286.145 672.743 287.354C672.447 288.563 672.114 289.722 671.744 290.832C671.399 291.917 671.041 292.879 670.671 293.718L667.896 292.756C668.192 292.016 668.476 291.153 668.747 290.166C669.018 289.155 669.265 288.106 669.487 287.021C669.734 285.936 669.931 284.912 670.079 283.95V283.358ZM646.732 283.395H649.84V287.724H646.732V283.395ZM641.959 286.577H645.104V307.297H641.959V286.577ZM643.883 291.461H652.763V293.866H643.883V291.461ZM639.295 306.446C640.38 306.199 641.614 305.891 642.995 305.521C644.401 305.151 645.881 304.744 647.435 304.3C648.989 303.856 650.543 303.412 652.097 302.968L652.504 305.78C650.407 306.471 648.311 307.161 646.214 307.852C644.117 308.543 642.206 309.159 640.479 309.702L639.295 306.446ZM648.73 300.452L651.579 299.416C652.023 300.205 652.467 301.056 652.911 301.969C653.355 302.882 653.75 303.77 654.095 304.633C654.465 305.496 654.736 306.261 654.909 306.927L651.912 308.185C651.739 307.494 651.48 306.705 651.135 305.817C650.79 304.929 650.407 304.016 649.988 303.079C649.569 302.142 649.149 301.266 648.73 300.452ZM643.883 286.577H654.317V298.898H643.883V296.382H651.209V289.056H643.883V286.577ZM646.066 276.772H647.953V277.475H648.989V278.4C648.446 279.337 647.78 280.373 646.991 281.508C646.226 282.618 645.314 283.753 644.253 284.912C643.192 286.071 641.984 287.181 640.627 288.242C640.479 287.971 640.282 287.687 640.035 287.391C639.813 287.095 639.566 286.811 639.295 286.54C639.024 286.244 638.777 286.01 638.555 285.837C640.38 284.53 641.91 283.062 643.143 281.434C644.401 279.781 645.375 278.227 646.066 276.772ZM646.991 276.772H649.433C650.173 277.413 650.938 278.141 651.727 278.955C652.541 279.744 653.306 280.534 654.021 281.323C654.761 282.088 655.365 282.778 655.834 283.395L653.392 285.689C652.973 285.097 652.442 284.406 651.801 283.617C651.16 282.803 650.457 282.001 649.692 281.212C648.952 280.398 648.237 279.683 647.546 279.066H646.991V276.772ZM693.352 279.806C692.291 281.064 690.959 282.359 689.356 283.691C687.753 285.023 685.989 286.293 684.065 287.502C682.141 288.686 680.168 289.734 678.145 290.647C678.022 290.376 677.837 290.067 677.59 289.722C677.368 289.352 677.121 288.994 676.85 288.649C676.603 288.304 676.357 288.008 676.11 287.761C678.207 286.898 680.229 285.862 682.178 284.653C684.127 283.42 685.903 282.125 687.506 280.768C689.134 279.387 690.441 278.03 691.428 276.698H694.943C695.954 277.857 697.089 278.967 698.347 280.028C699.63 281.089 700.962 282.088 702.343 283.025C703.724 283.938 705.155 284.764 706.635 285.504C708.115 286.244 709.57 286.861 711.001 287.354C710.606 287.798 710.212 288.304 709.817 288.871C709.422 289.438 709.077 289.969 708.781 290.462C706.98 289.673 705.106 288.698 703.157 287.539C701.208 286.38 699.383 285.134 697.681 283.802C695.979 282.445 694.536 281.113 693.352 279.806ZM684.879 292.312H701.973V294.939H684.879V292.312ZM691.613 283.617H695.202V288.649H691.613V283.617ZM678.663 307.519C680.069 307.42 681.66 307.297 683.436 307.149C685.212 307.001 687.087 306.841 689.06 306.668C691.058 306.471 693.044 306.286 695.017 306.113L695.054 309.221C693.179 309.418 691.292 309.616 689.393 309.813C687.494 310.01 685.668 310.183 683.917 310.331C682.166 310.504 680.575 310.652 679.144 310.775L678.663 307.519ZM694.092 299.268C695.449 301.71 697.533 303.659 700.345 305.114C703.157 306.569 706.512 307.556 710.409 308.074C710.162 308.321 709.891 308.617 709.595 308.962C709.324 309.332 709.065 309.702 708.818 310.072C708.596 310.467 708.411 310.824 708.263 311.145C705.55 310.652 703.095 309.924 700.9 308.962C698.705 308.025 696.793 306.828 695.165 305.373C693.537 303.893 692.193 302.142 691.132 300.119L694.092 299.268ZM705.895 298.565L708.485 300.674C707.523 301.315 706.487 301.969 705.377 302.635C704.292 303.301 703.194 303.93 702.084 304.522C700.974 305.089 699.938 305.607 698.976 306.076L696.83 304.152C697.792 303.708 698.828 303.165 699.938 302.524C701.048 301.883 702.121 301.217 703.157 300.526C704.218 299.835 705.13 299.182 705.895 298.565ZM684.879 286.947H704.267V300.452H684.879V297.677H700.752V289.722H684.879V286.947ZM682.733 286.947H686.174V307.926L682.733 308.296V286.947ZM732.868 289.389H746.854V292.497H732.868V289.389ZM724.506 306.631H742.636V309.739H724.506V306.631ZM731.203 285.393H734.755V299.009H731.203V285.393ZM722.656 297.27H744.523V311.071H740.934V300.378H726.097V311.145H722.656V297.27ZM729.797 276.772H733.423V283.284H729.797V276.772ZM718.031 281.36H747.372V284.69H718.031V281.36ZM716.292 281.36H719.807V290.832C719.807 292.287 719.758 293.891 719.659 295.642C719.56 297.393 719.375 299.182 719.104 301.007C718.857 302.832 718.475 304.621 717.957 306.372C717.464 308.099 716.81 309.677 715.996 311.108C715.799 310.911 715.515 310.676 715.145 310.405C714.775 310.134 714.393 309.875 713.998 309.628C713.603 309.406 713.27 309.233 712.999 309.11C713.764 307.778 714.368 306.335 714.812 304.781C715.256 303.227 715.577 301.636 715.774 300.008C715.996 298.355 716.132 296.752 716.181 295.198C716.255 293.619 716.292 292.164 716.292 290.832V281.36Z" fill="black"/>
<path d="M169 228.921L169 353" stroke="black" stroke-width="2" stroke-miterlimit="8"/>
<path d="M1005.87 471.177H1016.34V473.989H1005.87V471.177ZM1014.93 471.177H1017.75C1017.75 472.262 1017.79 473.545 1017.89 475.025C1017.99 476.505 1018.2 478.096 1018.52 479.798C1018.84 481.475 1019.34 483.227 1020 485.052C1020.67 486.877 1021.57 488.703 1022.7 490.528C1023.84 492.329 1025.26 494.08 1026.96 495.782C1028.68 497.484 1030.77 499.05 1033.21 500.481C1033.01 500.654 1032.75 500.876 1032.43 501.147C1032.14 501.443 1031.85 501.739 1031.58 502.035C1031.34 502.356 1031.13 502.627 1030.95 502.849C1028.49 501.344 1026.37 499.692 1024.59 497.891C1022.84 496.066 1021.37 494.166 1020.19 492.193C1019.03 490.22 1018.09 488.246 1017.38 486.273C1016.68 484.275 1016.15 482.351 1015.78 480.501C1015.44 478.626 1015.2 476.887 1015.08 475.284C1014.98 473.681 1014.93 472.312 1014.93 471.177ZM1013.86 478.429L1017.01 478.984C1016.12 482.733 1014.96 486.113 1013.53 489.122C1012.12 492.131 1010.41 494.783 1008.38 497.077C1006.39 499.346 1004.02 501.283 1001.28 502.886C1001.13 502.689 1000.9 502.454 1000.58 502.183C1000.28 501.912 999.96 501.628 999.615 501.332C999.294 501.061 999.011 500.839 998.764 500.666C1002.88 498.495 1006.15 495.56 1008.57 491.86C1010.99 488.135 1012.75 483.658 1013.86 478.429ZM1039.13 472.805H1066.88V501.887H1063.88V475.58H1042.02V502.035H1039.13V472.805ZM1040.43 496.041H1065.92V498.89H1040.43V496.041Z" fill="black"/>
<path d="M169 292H271V229H169V292Z" fill="white" stroke="black" stroke-width="2" stroke-miterlimit="8"/>
<path d="M200.033 250.878H207.063V253.135H200.033V250.878ZM200.81 270.192H215.647V272.449H200.81V270.192ZM200.736 276.149H216.091V278.517H200.736V276.149ZM198.775 246.364H201.291V260.054H198.775V246.364ZM196.37 259.647C197.776 259.376 199.453 259.018 201.402 258.574C203.375 258.13 205.373 257.674 207.396 257.205L207.618 259.351C205.793 259.82 203.955 260.288 202.105 260.757C200.28 261.226 198.615 261.645 197.11 262.015L196.37 259.647ZM208.654 246.364H211.207V257.945C211.207 258.414 211.269 258.722 211.392 258.87C211.54 258.993 211.873 259.055 212.391 259.055C212.539 259.055 212.773 259.055 213.094 259.055C213.415 259.055 213.772 259.055 214.167 259.055C214.562 259.055 214.919 259.055 215.24 259.055C215.585 259.055 215.844 259.055 216.017 259.055C216.338 259.055 216.572 258.981 216.72 258.833C216.868 258.66 216.967 258.315 217.016 257.797C217.09 257.279 217.139 256.527 217.164 255.54C217.46 255.762 217.83 255.972 218.274 256.169C218.718 256.342 219.125 256.465 219.495 256.539C219.421 257.822 219.273 258.821 219.051 259.536C218.829 260.251 218.496 260.745 218.052 261.016C217.633 261.287 217.041 261.423 216.276 261.423C216.153 261.423 215.894 261.423 215.499 261.423C215.104 261.423 214.66 261.423 214.167 261.423C213.698 261.423 213.267 261.423 212.872 261.423C212.502 261.423 212.243 261.423 212.095 261.423C211.182 261.423 210.467 261.324 209.949 261.127C209.456 260.93 209.11 260.584 208.913 260.091C208.74 259.573 208.654 258.858 208.654 257.945V246.364ZM216.757 248.695L218.718 250.545C217.583 251.26 216.264 251.951 214.759 252.617C213.279 253.258 211.848 253.838 210.467 254.356C210.418 254.085 210.307 253.776 210.134 253.431C209.961 253.086 209.801 252.777 209.653 252.506C210.516 252.136 211.392 251.741 212.28 251.322C213.168 250.903 213.994 250.471 214.759 250.027C215.548 249.558 216.214 249.114 216.757 248.695ZM206.138 260.609L208.95 261.201C208.629 262.04 208.296 262.878 207.951 263.717C207.63 264.556 207.322 265.283 207.026 265.9L204.621 265.308C204.892 264.667 205.176 263.902 205.472 263.014C205.793 262.101 206.015 261.3 206.138 260.609ZM199.441 264.346H217.423V279.738H214.722V266.714H202.031V279.886H199.441V264.346ZM186.861 247.511H195.149V250.027H189.34V279.96H186.861V247.511ZM194.298 247.511H194.779L195.186 247.363L196.999 248.473C196.678 249.484 196.321 250.557 195.926 251.692C195.556 252.802 195.161 253.924 194.742 255.059C194.347 256.194 193.953 257.267 193.558 258.278C194.816 259.807 195.642 261.238 196.037 262.57C196.432 263.902 196.629 265.135 196.629 266.27C196.654 267.232 196.555 268.095 196.333 268.86C196.111 269.6 195.741 270.155 195.223 270.525C195.001 270.698 194.73 270.833 194.409 270.932C194.113 271.031 193.78 271.117 193.41 271.191C193.065 271.216 192.682 271.24 192.263 271.265C191.868 271.265 191.474 271.253 191.079 271.228C191.054 270.883 190.98 270.488 190.857 270.044C190.758 269.575 190.61 269.156 190.413 268.786C190.808 268.811 191.165 268.835 191.486 268.86C191.807 268.86 192.09 268.848 192.337 268.823C192.83 268.823 193.213 268.724 193.484 268.527C193.731 268.33 193.903 267.997 194.002 267.528C194.125 267.035 194.187 266.517 194.187 265.974C194.162 264.963 193.953 263.84 193.558 262.607C193.163 261.374 192.349 260.029 191.116 258.574C191.412 257.735 191.708 256.847 192.004 255.91C192.325 254.973 192.621 254.035 192.892 253.098C193.188 252.161 193.447 251.285 193.669 250.471C193.916 249.632 194.125 248.892 194.298 248.251V247.511ZM238.143 262.348H252.425V264.864H238.143V262.348ZM226.377 255.54H236.256V258.13H226.377V255.54ZM226.377 262.644H236.589V265.234H226.377V262.644ZM241.547 247.474H250.205V249.916H241.547V247.474ZM251.87 262.348H252.388L252.906 262.237L254.682 262.94C253.769 266.097 252.425 268.811 250.649 271.08C248.898 273.325 246.838 275.175 244.47 276.63C242.102 278.085 239.549 279.22 236.811 280.034C236.712 279.787 236.577 279.504 236.404 279.183C236.231 278.887 236.046 278.591 235.849 278.295C235.652 278.024 235.467 277.789 235.294 277.592C237.81 276.951 240.178 275.976 242.398 274.669C244.643 273.362 246.591 271.721 248.244 269.748C249.897 267.775 251.105 265.468 251.87 262.829V262.348ZM242.102 264.716C243.286 267.873 245.111 270.562 247.578 272.782C250.069 274.977 253.079 276.544 256.606 277.481C256.409 277.678 256.187 277.913 255.94 278.184C255.718 278.48 255.508 278.776 255.311 279.072C255.114 279.393 254.941 279.676 254.793 279.923C251.118 278.788 248.01 276.988 245.469 274.521C242.953 272.03 241.017 268.996 239.66 265.419L242.102 264.716ZM225.082 248.732L227.746 249.583V279.923H225.082V248.732ZM222.048 271.783C223.331 271.586 224.811 271.351 226.488 271.08C228.19 270.809 229.991 270.513 231.89 270.192C233.789 269.871 235.676 269.551 237.551 269.23L237.662 271.783C235.886 272.104 234.085 272.437 232.26 272.782C230.435 273.103 228.696 273.411 227.043 273.707C225.39 274.003 223.886 274.274 222.529 274.521L222.048 271.783ZM240.252 247.474H242.842V252.802C242.842 253.789 242.731 254.837 242.509 255.947C242.287 257.057 241.855 258.118 241.214 259.129C240.573 260.14 239.623 261.041 238.365 261.83C238.242 261.633 238.069 261.411 237.847 261.164C237.625 260.917 237.378 260.683 237.107 260.461C236.86 260.214 236.638 260.042 236.441 259.943C237.576 259.252 238.414 258.512 238.957 257.723C239.5 256.909 239.845 256.083 239.993 255.244C240.166 254.381 240.252 253.542 240.252 252.728V247.474ZM235.405 245.957L237.773 247.918C236.762 248.411 235.627 248.88 234.369 249.324C233.111 249.768 231.816 250.175 230.484 250.545C229.152 250.915 227.857 251.248 226.599 251.544C226.525 251.248 226.389 250.89 226.192 250.471C226.019 250.052 225.847 249.706 225.674 249.435C226.858 249.139 228.054 248.806 229.263 248.436C230.472 248.041 231.606 247.634 232.667 247.215C233.752 246.796 234.665 246.376 235.405 245.957ZM248.688 247.474H251.315V256.613C251.315 256.958 251.327 257.242 251.352 257.464C251.377 257.661 251.426 257.797 251.5 257.871C251.623 257.945 251.821 257.982 252.092 257.982C252.215 257.982 252.376 257.982 252.573 257.982C252.795 257.982 252.992 257.982 253.165 257.982C253.313 257.982 253.461 257.97 253.609 257.945C253.757 257.92 253.868 257.896 253.942 257.871C254.115 257.772 254.25 257.489 254.349 257.02C254.374 256.749 254.398 256.342 254.423 255.799C254.448 255.232 254.472 254.578 254.497 253.838C254.744 254.06 255.064 254.27 255.459 254.467C255.878 254.664 256.273 254.825 256.643 254.948C256.594 255.663 256.532 256.391 256.458 257.131C256.409 257.846 256.335 258.352 256.236 258.648C256.039 259.24 255.669 259.659 255.126 259.906C254.929 260.029 254.657 260.116 254.312 260.165C253.991 260.214 253.683 260.239 253.387 260.239C253.14 260.239 252.807 260.239 252.388 260.239C251.993 260.239 251.697 260.239 251.5 260.239C251.155 260.239 250.785 260.19 250.39 260.091C249.995 259.992 249.675 259.832 249.428 259.61C249.157 259.363 248.959 259.043 248.836 258.648C248.737 258.229 248.688 257.489 248.688 256.428V247.474Z" fill="black"/>
<path d="M337 229.219L337 271" stroke="black" stroke-width="2" stroke-miterlimit="8"/>
<path d="M482 228.466L482 270.001" stroke="black" stroke-width="2" stroke-miterlimit="8"/>
<path d="M368.519 258.184C368.519 257.885 368.519 257.288 368.519 256.392C368.519 255.475 368.519 254.397 368.519 253.16C368.519 251.901 368.519 250.589 368.519 249.224C368.519 247.837 368.519 246.493 368.519 245.192C368.519 243.891 368.519 242.739 368.519 241.736C368.519 240.733 368.519 240.008 368.519 239.56C368.519 239.112 368.498 238.568 368.455 237.928C368.412 237.288 368.348 236.723 368.263 236.232H371.399C371.356 236.701 371.303 237.256 371.239 237.896C371.196 238.536 371.175 239.091 371.175 239.56C371.175 240.392 371.175 241.395 371.175 242.568C371.175 243.72 371.175 244.957 371.175 246.28C371.175 247.581 371.175 248.883 371.175 250.184C371.196 251.464 371.207 252.669 371.207 253.8C371.207 254.909 371.207 255.859 371.207 256.648C371.207 257.416 371.207 257.928 371.207 258.184C371.207 258.525 371.207 258.92 371.207 259.368C371.228 259.816 371.26 260.275 371.303 260.744C371.346 261.192 371.378 261.597 371.399 261.96H368.295C368.38 261.448 368.434 260.84 368.455 260.136C368.498 259.432 368.519 258.781 368.519 258.184ZM370.631 244.616C371.676 244.936 372.828 245.32 374.087 245.768C375.367 246.195 376.668 246.653 377.991 247.144C379.314 247.635 380.562 248.136 381.735 248.648C382.93 249.139 383.964 249.608 384.839 250.056L383.751 252.776C382.834 252.264 381.799 251.763 380.647 251.272C379.495 250.76 378.311 250.259 377.095 249.768C375.9 249.277 374.738 248.84 373.607 248.456C372.498 248.051 371.506 247.72 370.631 247.464V244.616ZM392.487 249.448C395.26 248.701 397.842 247.795 400.231 246.728C402.62 245.661 404.7 244.573 406.471 243.464C407.58 242.76 408.658 242.003 409.703 241.192C410.77 240.36 411.772 239.496 412.711 238.6C413.65 237.704 414.482 236.819 415.207 235.944L417.351 237.928C416.455 238.888 415.484 239.827 414.439 240.744C413.394 241.661 412.284 242.547 411.111 243.4C409.959 244.232 408.754 245.043 407.495 245.832C406.322 246.536 404.999 247.261 403.527 248.008C402.055 248.755 400.487 249.459 398.823 250.12C397.159 250.781 395.474 251.389 393.767 251.944L392.487 249.448ZM405.959 244.808L408.711 243.976V258.568C408.711 258.973 408.711 259.4 408.711 259.848C408.732 260.296 408.754 260.712 408.775 261.096C408.818 261.48 408.86 261.779 408.903 261.992H405.767C405.788 261.779 405.81 261.48 405.831 261.096C405.874 260.712 405.906 260.296 405.927 259.848C405.948 259.4 405.959 258.973 405.959 258.568V244.808ZM428.839 259.976C428.967 259.72 429.052 259.475 429.095 259.24C429.138 259.005 429.159 258.728 429.159 258.408C429.159 258.088 429.159 257.491 429.159 256.616C429.159 255.741 429.159 254.696 429.159 253.48C429.159 252.264 429.159 250.995 429.159 249.672C429.159 248.328 429.159 247.027 429.159 245.768C429.159 244.488 429.159 243.357 429.159 242.376C429.159 241.373 429.159 240.616 429.159 240.104C429.159 239.827 429.138 239.496 429.095 239.112C429.074 238.728 429.042 238.365 428.999 238.024C428.978 237.683 428.935 237.405 428.871 237.192H432.039C431.975 237.576 431.922 238.045 431.879 238.6C431.836 239.133 431.815 239.635 431.815 240.104C431.815 240.531 431.815 241.149 431.815 241.96C431.815 242.771 431.815 243.699 431.815 244.744C431.815 245.768 431.815 246.856 431.815 248.008C431.815 249.16 431.815 250.291 431.815 251.4C431.815 252.509 431.815 253.544 431.815 254.504C431.815 255.443 431.815 256.243 431.815 256.904C431.815 257.565 431.815 258.013 431.815 258.248C433.351 257.864 434.93 257.32 436.551 256.616C438.194 255.912 439.794 255.091 441.351 254.152C442.93 253.192 444.402 252.147 445.767 251.016C447.154 249.864 448.338 248.637 449.319 247.336L450.759 249.576C448.69 252.157 446.044 254.419 442.823 256.36C439.623 258.301 436.028 259.848 432.039 261C431.868 261.043 431.666 261.107 431.431 261.192C431.196 261.299 430.951 261.427 430.695 261.576L428.839 259.976Z" fill="black"/>
<path d="M482 270H336.995" stroke="black" stroke-width="2" stroke-miterlimit="8"/>
</g>
</g>
<defs>
<clipPath id="clip0_14_329">
<rect width="1280" height="720" fill="white" transform="matrix(-1 0 0 -1 1280 720)"/>
</clipPath>
</defs>
</svg>
