<svg width="1123" height="794" viewBox="0 0 1123 794" fill="none" xmlns="http://www.w3.org/2000/svg">
<g clip-path="url(#clip0_2_3)">
<path d="M1126.56 717.76L4 717.76L4.00006 86.4L1126.56 86.4001L1126.56 717.76Z" fill="white"/>
<path d="M1097.12 543.36L973.6 543.36L973.6 419.04L1097.12 419.04L1097.12 543.36Z" fill="white"/>
<path d="M1097.12 543.36L973.6 543.36L973.6 419.04L1097.12 419.04L1097.12 543.36Z" stroke="black" stroke-width="1.76" stroke-miterlimit="8"/>
<path d="M1011.2 496.316L1011.2 472.461L1025.51 472.461L1025.51 475.024L1014.09 475.024L1014.09 483.084L1024.43 483.084L1024.43 485.647L1014.09 485.647L1014.09 496.316L1011.2 496.316ZM1030.03 496.316L1030.03 494.219L1037.91 485.6C1038.83 484.591 1039.59 483.713 1040.19 482.968C1040.79 482.214 1041.23 481.508 1041.52 480.848C1041.81 480.18 1041.96 479.481 1041.96 478.751C1041.96 477.913 1041.76 477.187 1041.36 476.573C1040.96 475.96 1040.42 475.486 1039.72 475.152C1039.03 474.818 1038.26 474.651 1037.4 474.651C1036.48 474.651 1035.68 474.841 1035 475.222C1034.32 475.595 1033.8 476.119 1033.42 476.794C1033.06 477.47 1032.88 478.262 1032.88 479.171L1030.13 479.171C1030.13 477.773 1030.45 476.546 1031.09 475.49C1031.74 474.434 1032.62 473.611 1033.73 473.02C1034.84 472.43 1036.1 472.135 1037.49 472.135C1038.89 472.135 1040.12 472.43 1041.2 473.02C1042.28 473.611 1043.13 474.407 1043.74 475.408C1044.36 476.41 1044.66 477.524 1044.66 478.751C1044.66 479.629 1044.5 480.487 1044.19 481.325C1043.88 482.156 1043.33 483.084 1042.56 484.109C1041.79 485.126 1040.72 486.369 1039.35 487.836L1033.99 493.567L1033.99 493.754L1045.08 493.754L1045.08 496.316L1030.03 496.316ZM1058.28 472.461L1058.28 496.316L1055.39 496.316L1055.39 475.49L1055.25 475.49L1049.43 479.357L1049.43 476.422L1055.39 472.461L1058.28 472.461Z" fill="black"/>
<path d="M974.4 542.88L727.04 542.88L727.04 391.36L974.4 391.36L974.4 542.88Z" fill="white"/>
<path d="M974.4 542.88L727.04 542.88L727.04 391.36L974.4 391.36L974.4 542.88Z" stroke="black" stroke-width="1.76" stroke-miterlimit="8"/>
<path d="M795.297 482.394L795.297 458.539L809.6 458.539L809.6 461.102L798.186 461.102L798.186 469.162L808.529 469.162L808.529 471.724L798.186 471.724L798.186 482.394L795.297 482.394ZM814.128 482.394L814.128 480.297L822.002 471.678C822.926 470.668 823.687 469.791 824.285 469.045C824.883 468.292 825.326 467.586 825.613 466.926C825.908 466.258 826.056 465.559 826.056 464.829C826.056 463.99 825.854 463.264 825.45 462.651C825.054 462.037 824.51 461.564 823.819 461.23C823.128 460.896 822.352 460.729 821.49 460.729C820.574 460.729 819.774 460.919 819.09 461.3C818.415 461.672 817.891 462.197 817.518 462.872C817.153 463.548 816.97 464.34 816.97 465.248L814.222 465.248C814.222 463.851 814.544 462.624 815.188 461.568C815.833 460.512 816.71 459.688 817.821 459.098C818.939 458.508 820.193 458.213 821.583 458.213C822.981 458.213 824.219 458.508 825.299 459.098C826.378 459.688 827.224 460.484 827.838 461.486C828.451 462.488 828.758 463.602 828.758 464.829C828.758 465.706 828.599 466.564 828.28 467.403C827.97 468.234 827.426 469.162 826.65 470.187C825.881 471.204 824.813 472.447 823.447 473.914L818.089 479.645L818.089 479.831L829.177 479.831L829.177 482.394L814.128 482.394ZM833.988 482.394L833.988 480.297L841.862 471.678C842.786 470.668 843.547 469.791 844.145 469.045C844.743 468.292 845.185 467.586 845.473 466.926C845.768 466.258 845.915 465.559 845.915 464.829C845.915 463.99 845.713 463.264 845.31 462.651C844.913 462.037 844.37 461.564 843.679 461.23C842.988 460.896 842.211 460.729 841.349 460.729C840.433 460.729 839.633 460.919 838.95 461.3C838.274 461.672 837.75 462.197 837.377 462.872C837.012 463.548 836.83 464.34 836.83 465.248L834.081 465.248C834.081 463.851 834.403 462.624 835.048 461.568C835.692 460.512 836.57 459.688 837.68 459.098C838.798 458.508 840.052 458.213 841.442 458.213C842.84 458.213 844.079 458.508 845.158 459.098C846.237 459.688 847.084 460.484 847.697 461.486C848.311 462.488 848.617 463.602 848.617 464.829C848.617 465.706 848.458 466.564 848.14 467.403C847.829 468.234 847.286 469.162 846.509 470.187C845.74 471.204 844.673 472.447 843.306 473.914L837.948 479.645L837.948 479.831L849.037 479.831L849.037 482.394L833.988 482.394ZM857.994 479.132L857.808 480.39C857.676 481.276 857.474 482.223 857.202 483.232C856.938 484.242 856.662 485.193 856.375 486.086C856.088 486.979 855.851 487.69 855.664 488.218L853.568 488.218C853.669 487.721 853.801 487.065 853.964 486.249C854.127 485.434 854.29 484.521 854.453 483.512C854.624 482.51 854.764 481.485 854.872 480.437L855.012 479.132L857.994 479.132ZM863.04 482.394L863.04 480.297L870.914 471.678C871.838 470.668 872.599 469.791 873.197 469.045C873.795 468.292 874.238 467.586 874.525 466.926C874.82 466.258 874.968 465.559 874.968 464.829C874.968 463.99 874.766 463.264 874.362 462.651C873.966 462.037 873.422 461.564 872.731 461.23C872.04 460.896 871.264 460.729 870.402 460.729C869.485 460.729 868.686 460.919 868.002 461.3C867.327 461.672 866.803 462.197 866.43 462.872C866.065 463.548 865.882 464.34 865.882 465.248L863.133 465.248C863.133 463.851 863.456 462.624 864.1 461.568C864.745 460.512 865.622 459.688 866.733 459.098C867.851 458.508 869.105 458.213 870.495 458.213C871.893 458.213 873.131 458.508 874.211 459.098C875.29 459.688 876.136 460.484 876.75 461.486C877.363 462.488 877.67 463.602 877.67 464.829C877.67 465.706 877.511 466.564 877.192 467.403C876.882 468.234 876.338 469.162 875.562 470.187C874.793 471.204 873.725 472.447 872.359 473.914L867.001 479.645L867.001 479.831L878.089 479.831L878.089 482.394L863.04 482.394ZM890.96 482.72C889.423 482.72 888.052 482.456 886.848 481.928C885.653 481.4 884.701 480.666 883.995 479.726C883.296 478.779 882.915 477.68 882.853 476.43L885.788 476.43C885.851 477.199 886.115 477.863 886.58 478.422C887.046 478.973 887.656 479.4 888.409 479.703C889.162 480.006 889.997 480.157 890.913 480.157C891.938 480.157 892.847 479.979 893.639 479.622C894.431 479.264 895.052 478.767 895.503 478.131C895.953 477.494 896.178 476.756 896.178 475.918C896.178 475.04 895.961 474.268 895.526 473.6C895.091 472.924 894.454 472.396 893.616 472.016C892.777 471.635 891.752 471.445 890.541 471.445L888.63 471.445L888.63 468.882L890.541 468.882C891.488 468.882 892.319 468.712 893.033 468.37C893.755 468.028 894.318 467.547 894.722 466.926C895.134 466.304 895.34 465.574 895.34 464.736C895.34 463.928 895.161 463.225 894.804 462.628C894.447 462.03 893.942 461.564 893.29 461.23C892.645 460.896 891.884 460.729 891.007 460.729C890.183 460.729 889.407 460.88 888.677 461.183C887.955 461.478 887.365 461.909 886.907 462.476C886.448 463.035 886.2 463.711 886.161 464.503L883.366 464.503C883.412 463.253 883.789 462.158 884.496 461.218C885.202 460.271 886.126 459.533 887.268 459.005C888.417 458.477 889.679 458.213 891.053 458.213C892.529 458.213 893.794 458.512 894.85 459.11C895.906 459.7 896.718 460.48 897.285 461.451C897.852 462.422 898.135 463.47 898.135 464.596C898.135 465.939 897.782 467.085 897.075 468.032C896.376 468.979 895.425 469.636 894.221 470.001L894.221 470.187C895.728 470.435 896.904 471.076 897.751 472.109C898.597 473.134 899.02 474.403 899.02 475.918C899.02 477.214 898.667 478.379 897.96 479.412C897.261 480.437 896.306 481.245 895.095 481.835C893.884 482.425 892.505 482.72 890.96 482.72Z" fill="black"/>
<path d="M727.36 452.96L603.84 452.96L603.84 391.68L727.36 391.68L727.36 452.96Z" fill="white"/>
<path d="M727.36 452.96L603.84 452.96L603.84 391.68L727.36 391.68L727.36 452.96Z" stroke="black" stroke-width="1.76" stroke-miterlimit="8"/>
<path d="M603.84 452.96L415.04 452.96L415.04 391.68L603.84 391.68L603.84 452.96Z" fill="white"/>
<path d="M603.84 452.96L415.04 452.96L415.04 391.68L603.84 391.68L603.84 452.96Z" stroke="black" stroke-width="1.76" stroke-miterlimit="8"/>
<path d="M431.244 415.262C431.681 415.328 432.162 415.383 432.687 415.426C433.234 415.448 433.671 415.459 433.999 415.459L452.039 415.459C452.542 415.459 453.034 415.437 453.515 415.394C453.996 415.35 454.433 415.306 454.827 415.262L454.827 418.149C454.412 418.105 453.952 418.072 453.449 418.05C452.968 418.029 452.498 418.018 452.039 418.018L433.999 418.018C433.693 418.018 433.256 418.029 432.687 418.05C432.14 418.072 431.659 418.105 431.244 418.149L431.244 415.262ZM441.379 434.516L441.379 416.902L444.167 416.902L444.167 434.516L441.379 434.516ZM429.243 432.909C429.724 432.974 430.205 433.029 430.686 433.073C431.189 433.095 431.67 433.106 432.129 433.106L453.81 433.106C454.313 433.106 454.783 433.084 455.221 433.04C455.68 432.996 456.117 432.953 456.533 432.909L456.533 435.894C456.095 435.85 455.614 435.817 455.089 435.795C454.565 435.773 454.138 435.762 453.81 435.762L432.129 435.762C431.692 435.762 431.222 435.773 430.719 435.795C430.238 435.817 429.746 435.85 429.243 435.894L429.243 432.909ZM466.57 436.156C466.701 435.894 466.788 435.642 466.832 435.402C466.876 435.161 466.898 434.877 466.898 434.549C466.898 434.221 466.898 433.609 466.898 432.712C466.898 431.816 466.898 430.744 466.898 429.498C466.898 428.251 466.898 426.95 466.898 425.594C466.898 424.217 466.898 422.883 466.898 421.593C466.898 420.281 466.898 419.122 466.898 418.116C466.898 417.088 466.898 416.312 466.898 415.787C466.898 415.503 466.876 415.164 466.832 414.77C466.81 414.377 466.777 414.005 466.734 413.655C466.712 413.305 466.668 413.021 466.602 412.802L469.85 412.802C469.784 413.196 469.729 413.677 469.686 414.246C469.642 414.792 469.62 415.306 469.62 415.787C469.62 416.225 469.62 416.859 469.62 417.69C469.62 418.521 469.62 419.472 469.62 420.543C469.62 421.593 469.62 422.708 469.62 423.889C469.62 425.07 469.62 426.229 469.62 427.366C469.62 428.503 469.62 429.563 469.62 430.547C469.62 431.509 469.62 432.329 469.62 433.007C469.62 433.685 469.62 434.144 469.62 434.385C471.194 433.991 472.812 433.434 474.474 432.712C476.158 431.99 477.798 431.149 479.394 430.186C481.013 429.202 482.521 428.131 483.921 426.972C485.342 425.791 486.556 424.534 487.562 423.2L489.038 425.496C486.917 428.142 484.205 430.46 480.903 432.45C477.623 434.44 473.939 436.025 469.85 437.206C469.675 437.249 469.467 437.315 469.226 437.402C468.986 437.512 468.734 437.643 468.472 437.796L466.57 436.156ZM514.753 414.967C515.037 415.361 515.365 415.864 515.737 416.476C516.13 417.088 516.513 417.722 516.885 418.378C517.278 419.034 517.606 419.625 517.869 420.15L515.934 421.035C515.649 420.445 515.343 419.843 515.015 419.231C514.687 418.619 514.337 418.018 513.966 417.427C513.616 416.815 513.255 416.257 512.883 415.754L514.753 414.967ZM518.951 413.294C519.257 413.666 519.607 414.158 520.001 414.77C520.395 415.383 520.788 416.017 521.182 416.673C521.575 417.329 521.903 417.908 522.166 418.411L520.263 419.33C520.001 418.739 519.695 418.149 519.345 417.558C518.995 416.946 518.623 416.345 518.23 415.754C517.858 415.164 517.486 414.628 517.114 414.147L518.951 413.294ZM493.826 428.579C494.264 428.208 494.646 427.858 494.974 427.53C495.324 427.202 495.718 426.819 496.155 426.382C496.549 425.988 496.997 425.485 497.5 424.873C498.025 424.261 498.582 423.605 499.173 422.905C499.785 422.183 500.386 421.462 500.977 420.74C501.567 419.997 502.114 419.33 502.617 418.739C503.492 417.711 504.355 417.143 505.208 417.034C506.061 416.902 507.045 417.362 508.16 418.411C508.838 419.023 509.57 419.745 510.358 420.576C511.167 421.385 511.965 422.205 512.752 423.036C513.539 423.867 514.25 424.621 514.884 425.299C515.628 426.065 516.458 426.95 517.377 427.956C518.295 428.94 519.236 429.957 520.198 431.006C521.16 432.034 522.056 432.996 522.887 433.893L520.624 436.287C519.859 435.347 519.039 434.374 518.164 433.368C517.311 432.34 516.458 431.345 515.606 430.383C514.775 429.399 514.009 428.514 513.31 427.726C512.829 427.18 512.293 426.589 511.702 425.955C511.112 425.321 510.522 424.687 509.931 424.053C509.341 423.419 508.783 422.828 508.258 422.282C507.756 421.735 507.329 421.298 506.979 420.97C506.345 420.357 505.82 420.073 505.405 420.117C505.011 420.161 504.53 420.521 503.962 421.199C503.568 421.68 503.12 422.249 502.617 422.905C502.114 423.539 501.589 424.206 501.042 424.906C500.496 425.605 499.971 426.272 499.468 426.906C498.965 427.541 498.528 428.087 498.156 428.546C497.828 428.962 497.489 429.399 497.139 429.858C496.811 430.318 496.527 430.722 496.286 431.072L493.826 428.579ZM528.234 423.003C528.562 423.025 528.966 423.058 529.447 423.102C529.928 423.123 530.453 423.145 531.022 423.167C531.612 423.167 532.203 423.167 532.793 423.167C533.143 423.167 533.679 423.167 534.4 423.167C535.144 423.167 536.007 423.167 536.991 423.167C537.975 423.167 539.014 423.167 540.107 423.167C541.223 423.167 542.327 423.167 543.42 423.167C544.535 423.167 545.585 423.167 546.569 423.167C547.575 423.167 548.439 423.167 549.16 423.167C549.882 423.167 550.418 423.167 550.767 423.167C551.598 423.167 552.309 423.145 552.899 423.102C553.49 423.058 553.96 423.025 554.31 423.003L554.31 426.218C553.982 426.196 553.49 426.163 552.834 426.119C552.2 426.076 551.522 426.054 550.8 426.054C550.45 426.054 549.904 426.054 549.16 426.054C548.417 426.054 547.553 426.054 546.569 426.054C545.607 426.054 544.568 426.054 543.453 426.054C542.338 426.054 541.223 426.054 540.107 426.054C539.014 426.054 537.975 426.054 536.991 426.054C536.029 426.054 535.176 426.054 534.433 426.054C533.689 426.054 533.143 426.054 532.793 426.054C531.896 426.054 531.044 426.076 530.235 426.119C529.425 426.141 528.759 426.174 528.234 426.218L528.234 423.003ZM571.3 422.183C572.35 422.795 573.454 423.473 574.613 424.217C575.772 424.96 576.92 425.737 578.057 426.546C579.216 427.333 580.32 428.109 581.37 428.874C582.42 429.64 583.349 430.361 584.158 431.039L582.223 433.302C581.479 432.625 580.583 431.881 579.533 431.072C578.505 430.241 577.412 429.41 576.253 428.579C575.094 427.726 573.935 426.906 572.776 426.119C571.617 425.332 570.535 424.621 569.529 423.987L571.3 422.183ZM586.323 416.181C586.17 416.421 586.028 416.717 585.896 417.066C585.765 417.394 585.645 417.69 585.536 417.952C585.229 419.067 584.792 420.27 584.224 421.56C583.655 422.85 582.988 424.151 582.223 425.463C581.457 426.753 580.583 428 579.599 429.202C578.134 431.017 576.297 432.767 574.088 434.45C571.902 436.112 569.256 437.512 566.151 438.649L563.789 436.615C565.823 435.981 567.67 435.205 569.332 434.286C571.016 433.346 572.525 432.318 573.859 431.203C575.193 430.088 576.351 428.94 577.335 427.759C578.188 426.753 578.965 425.649 579.664 424.446C580.386 423.244 581.009 422.052 581.534 420.871C582.059 419.669 582.441 418.553 582.682 417.526L570.513 417.526L571.563 415.197L581.993 415.197C582.43 415.197 582.835 415.175 583.207 415.131C583.578 415.066 583.896 414.978 584.158 414.869L586.323 416.181ZM575.269 411.458C574.985 411.895 574.711 412.354 574.449 412.835C574.187 413.316 573.968 413.71 573.793 414.016C573.137 415.219 572.284 416.542 571.235 417.985C570.207 419.406 568.993 420.827 567.594 422.249C566.216 423.67 564.653 424.993 562.903 426.218L560.706 424.512C562.586 423.353 564.215 422.074 565.593 420.674C566.971 419.275 568.13 417.908 569.07 416.574C570.01 415.241 570.732 414.082 571.235 413.098C571.41 412.813 571.606 412.42 571.825 411.917C572.044 411.392 572.197 410.922 572.284 410.506L575.269 411.458Z" fill="black"/>
<path d="M1097.12 354.72L850.88 354.72" stroke="black" stroke-width="1.76" stroke-miterlimit="8"/>
<path d="M852.32 317.28L415.04 280.48" stroke="black" stroke-width="1.76" stroke-miterlimit="8"/>
<path d="M415.04 282.88L415.04 344.96" stroke="black" stroke-width="1.76" stroke-miterlimit="8"/>
<path d="M850.88 354.72L850.88 318.4" stroke="black" stroke-width="1.76" stroke-miterlimit="8"/>
<path d="M726.08 307.2L726.08 345.92" stroke="black" stroke-width="1.76" stroke-miterlimit="8"/>
<path d="M727.36 345.92L415.04 345.92" stroke="black" stroke-width="1.76" stroke-miterlimit="8"/>
<path d="M850.08 543.36L481.6 543.36" stroke="black" stroke-width="1.76" stroke-miterlimit="8"/>
<path d="M271.52 542.88L34.4001 542.88L34.4001 279.68L271.52 279.68L271.52 542.88Z" fill="white"/>
<path d="M271.52 542.88L34.4001 542.88L34.4001 279.68L271.52 279.68L271.52 542.88Z" stroke="black" stroke-width="1.76" stroke-miterlimit="8"/>
<path d="M205.698 426.401L205.698 402.546L220.001 402.546L220.001 405.109L208.587 405.109L208.587 413.169L218.93 413.169L218.93 415.731L208.587 415.731L208.587 426.401L205.698 426.401ZM224.529 426.401L224.529 424.304L232.403 415.685C233.327 414.675 234.088 413.798 234.686 413.052C235.284 412.299 235.727 411.593 236.014 410.932C236.309 410.265 236.457 409.566 236.457 408.836C236.457 407.997 236.255 407.271 235.851 406.658C235.455 406.044 234.912 405.571 234.22 405.237C233.529 404.903 232.753 404.736 231.891 404.736C230.975 404.736 230.175 404.926 229.491 405.307C228.816 405.679 228.292 406.203 227.919 406.879C227.554 407.555 227.372 408.347 227.372 409.255L224.623 409.255C224.623 407.857 224.945 406.631 225.589 405.574C226.234 404.518 227.111 403.695 228.222 403.105C229.34 402.515 230.594 402.22 231.984 402.22C233.382 402.22 234.62 402.515 235.7 403.105C236.779 403.695 237.625 404.491 238.239 405.493C238.852 406.495 239.159 407.609 239.159 408.836C239.159 409.713 239 410.571 238.682 411.41C238.371 412.241 237.827 413.169 237.051 414.194C236.282 415.211 235.214 416.454 233.848 417.921L228.49 423.652L228.49 423.838L239.578 423.838L239.578 426.401L224.529 426.401ZM252.03 426.727C250.43 426.727 249.017 426.443 247.79 425.877C246.571 425.302 245.62 424.514 244.936 423.512C244.253 422.503 243.915 421.353 243.923 420.064C243.915 419.055 244.113 418.123 244.517 417.269C244.921 416.407 245.472 415.689 246.171 415.114C246.878 414.532 247.666 414.163 248.536 414.007L248.536 413.868C247.394 413.573 246.486 412.932 245.81 411.946C245.134 410.952 244.8 409.822 244.808 408.556C244.8 407.345 245.107 406.262 245.728 405.307C246.35 404.351 247.204 403.598 248.291 403.047C249.386 402.496 250.632 402.22 252.03 402.22C253.412 402.22 254.647 402.496 255.734 403.047C256.821 403.598 257.675 404.351 258.296 405.307C258.925 406.262 259.244 407.345 259.251 408.556C259.244 409.822 258.898 410.952 258.215 411.946C257.539 412.932 256.642 413.573 255.524 413.868L255.524 414.007C256.386 414.163 257.163 414.532 257.854 415.114C258.545 415.689 259.096 416.407 259.508 417.269C259.919 418.123 260.129 419.055 260.137 420.064C260.129 421.353 259.78 422.503 259.088 423.512C258.405 424.514 257.454 425.302 256.235 425.877C255.023 426.443 253.622 426.727 252.03 426.727ZM252.03 424.164C253.109 424.164 254.041 423.99 254.825 423.64C255.61 423.291 256.215 422.798 256.642 422.161C257.069 421.524 257.287 420.779 257.295 419.925C257.287 419.024 257.054 418.228 256.596 417.537C256.138 416.846 255.513 416.302 254.721 415.906C253.936 415.51 253.039 415.312 252.03 415.312C251.013 415.312 250.104 415.51 249.304 415.906C248.512 416.302 247.887 416.846 247.429 417.537C246.979 418.228 246.757 419.024 246.765 419.925C246.757 420.779 246.963 421.524 247.382 422.161C247.809 422.798 248.419 423.291 249.211 423.64C250.003 423.99 250.943 424.164 252.03 424.164ZM252.03 412.843C252.884 412.843 253.641 412.672 254.301 412.33C254.969 411.989 255.493 411.511 255.874 410.898C256.254 410.284 256.448 409.566 256.456 408.743C256.448 407.935 256.258 407.232 255.885 406.634C255.513 406.029 254.996 405.563 254.336 405.237C253.676 404.903 252.907 404.736 252.03 404.736C251.137 404.736 250.356 404.903 249.689 405.237C249.021 405.563 248.504 406.029 248.14 406.634C247.775 407.232 247.596 407.935 247.604 408.743C247.596 409.566 247.778 410.284 248.151 410.898C248.532 411.511 249.056 411.989 249.724 412.33C250.391 412.672 251.16 412.843 252.03 412.843Z" fill="black"/>
<path d="M481.6 543.36L201.92 543.36" stroke="black" stroke-width="1.76" stroke-miterlimit="8"/>
<path d="M425.851 326.801L425.851 302.946L440.154 302.946L440.154 305.509L428.739 305.509L428.739 313.569L439.083 313.569L439.083 316.132L428.739 316.132L428.739 326.801L425.851 326.801ZM444.682 326.801L444.682 324.704L452.556 316.085C453.48 315.076 454.241 314.198 454.839 313.453C455.437 312.699 455.88 311.993 456.167 311.333C456.462 310.665 456.61 309.966 456.61 309.236C456.61 308.397 456.408 307.671 456.004 307.058C455.608 306.445 455.064 305.971 454.373 305.637C453.682 305.303 452.906 305.136 452.044 305.136C451.127 305.136 450.327 305.326 449.644 305.707C448.969 306.08 448.444 306.604 448.072 307.279C447.707 307.955 447.524 308.747 447.524 309.655L444.775 309.655C444.775 308.258 445.098 307.031 445.742 305.975C446.387 304.919 447.264 304.096 448.375 303.505C449.493 302.915 450.747 302.62 452.137 302.62C453.535 302.62 454.773 302.915 455.852 303.505C456.932 304.096 457.778 304.892 458.392 305.893C459.005 306.895 459.312 308.009 459.312 309.236C459.312 310.114 459.153 310.972 458.834 311.81C458.524 312.641 457.98 313.569 457.204 314.594C456.435 315.611 455.367 316.854 454 318.321L448.642 324.052L448.642 324.238L459.731 324.238L459.731 326.801L444.682 326.801ZM472.462 327.127C471.484 327.112 470.505 326.925 469.527 326.568C468.548 326.211 467.655 325.609 466.848 324.763C466.04 323.908 465.392 322.755 464.903 321.303C464.414 319.843 464.169 318.011 464.169 315.805C464.169 313.693 464.367 311.822 464.763 310.191C465.159 308.553 465.734 307.174 466.487 306.056C467.24 304.93 468.149 304.076 469.212 303.494C470.284 302.911 471.491 302.62 472.835 302.62C474.17 302.62 475.359 302.888 476.399 303.424C477.447 303.952 478.302 304.69 478.962 305.637C479.622 306.584 480.049 307.675 480.243 308.91L477.401 308.91C477.137 307.838 476.624 306.949 475.863 306.243C475.102 305.536 474.093 305.183 472.835 305.183C470.987 305.183 469.531 305.986 468.467 307.594C467.411 309.201 466.879 311.457 466.871 314.361L467.058 314.361C467.492 313.701 468.009 313.138 468.607 312.672C469.212 312.199 469.88 311.834 470.61 311.577C471.34 311.321 472.113 311.193 472.928 311.193C474.295 311.193 475.545 311.535 476.679 312.218C477.812 312.894 478.721 313.829 479.404 315.025C480.088 316.213 480.429 317.576 480.429 319.113C480.429 320.589 480.099 321.94 479.439 323.167C478.779 324.386 477.851 325.357 476.655 326.079C475.467 326.793 474.07 327.143 472.462 327.127ZM472.462 324.565C473.441 324.565 474.318 324.32 475.095 323.831C475.879 323.342 476.496 322.685 476.947 321.862C477.405 321.039 477.634 320.123 477.634 319.113C477.634 318.127 477.412 317.23 476.97 316.423C476.535 315.607 475.933 314.959 475.164 314.478C474.403 313.996 473.534 313.755 472.555 313.755C471.818 313.755 471.13 313.903 470.494 314.198C469.857 314.485 469.298 314.881 468.816 315.386C468.343 315.891 467.97 316.469 467.698 317.122C467.426 317.766 467.291 318.446 467.291 319.16C467.291 320.107 467.512 320.993 467.954 321.816C468.405 322.639 469.018 323.303 469.795 323.807C470.579 324.312 471.468 324.565 472.462 324.565Z" fill="black"/>
<path d="M417.44 279.84L94.0801 279.84" stroke="black" stroke-width="1.76" stroke-miterlimit="8"/>
<path d="M34.4 279.68L34.4 388.48" stroke="black" stroke-width="1.76" stroke-miterlimit="8"/>
<path d="M727.36 543.36L727.36 446.72" stroke="black" stroke-width="1.76" stroke-miterlimit="8"/>
<path d="M565.44 344.96L565.44 294.56" stroke="black" stroke-width="1.76" stroke-miterlimit="8"/>
<path d="M124.48 335.68L34.8801 335.68L34.8801 280L124.48 280L124.48 335.68Z" fill="white"/>
<path d="M124.48 335.68L34.8801 335.68L34.8801 280L124.48 280L124.48 335.68Z" stroke="black" stroke-width="1.76" stroke-miterlimit="8"/>
<path d="M492.96 344.96L492.96 287.52" stroke="black" stroke-width="1.76" stroke-miterlimit="8"/>
<path d="M498.165 326.801L498.165 302.946L512.468 302.946L512.468 305.509L501.053 305.509L501.053 313.569L511.396 313.569L511.396 316.132L501.053 316.132L501.053 326.801L498.165 326.801ZM516.996 326.801L516.996 324.704L524.87 316.085C525.794 315.076 526.555 314.198 527.153 313.453C527.751 312.699 528.193 311.993 528.481 311.333C528.776 310.665 528.923 309.966 528.923 309.236C528.923 308.397 528.721 307.671 528.318 307.058C527.922 306.445 527.378 305.971 526.687 305.637C525.996 305.303 525.219 305.136 524.357 305.136C523.441 305.136 522.641 305.326 521.958 305.707C521.282 306.08 520.758 306.604 520.386 307.279C520.021 307.955 519.838 308.747 519.838 309.655L517.089 309.655C517.089 308.258 517.411 307.031 518.056 305.975C518.701 304.919 519.578 304.096 520.688 303.505C521.807 302.915 523.061 302.62 524.451 302.62C525.848 302.62 527.087 302.915 528.166 303.505C529.246 304.096 530.092 304.892 530.705 305.893C531.319 306.895 531.626 308.009 531.626 309.236C531.626 310.114 531.466 310.972 531.148 311.81C530.837 312.641 530.294 313.569 529.517 314.594C528.749 315.611 527.681 316.854 526.314 318.321L520.956 324.052L520.956 324.238L532.045 324.238L532.045 326.801L516.996 326.801ZM544.31 327.127C542.943 327.127 541.713 326.855 540.618 326.312C539.523 325.768 538.645 325.023 537.985 324.075C537.325 323.128 536.964 322.049 536.902 320.837L539.698 320.837C539.806 321.917 540.295 322.81 541.165 323.516C542.043 324.215 543.091 324.565 544.31 324.565C545.288 324.565 546.158 324.336 546.919 323.877C547.688 323.419 548.29 322.79 548.725 321.99C549.167 321.183 549.388 320.27 549.388 319.253C549.388 318.213 549.159 317.285 548.701 316.469C548.251 315.646 547.63 314.998 546.838 314.524C546.046 314.051 545.141 313.81 544.124 313.802C543.394 313.794 542.644 313.907 541.876 314.14C541.107 314.365 540.474 314.656 539.977 315.013L537.275 314.687L538.719 302.946L551.112 302.946L551.112 305.509L541.142 305.509L540.303 312.544L540.443 312.544C540.932 312.156 541.546 311.834 542.283 311.577C543.021 311.321 543.79 311.193 544.59 311.193C546.049 311.193 547.35 311.542 548.492 312.241C549.641 312.932 550.542 313.88 551.194 315.083C551.854 316.287 552.184 317.661 552.184 319.207C552.184 320.729 551.842 322.087 551.159 323.283C550.483 324.471 549.552 325.411 548.363 326.102C547.175 326.785 545.824 327.127 544.31 327.127Z" fill="black"/>
<path d="M415.04 453.44L271.52 453.44" stroke="black" stroke-width="1.76" stroke-miterlimit="8"/>
<path d="M1097.12 428.32L1097.12 353.76" stroke="black" stroke-width="1.76" stroke-miterlimit="8"/>
<path d="M415.04 396.8L415.04 322.4" stroke="black" stroke-width="1.76" stroke-miterlimit="8"/>
<path d="M271.52 453.12L271.52 280.8" stroke="white" stroke-width="5.28" stroke-miterlimit="8"/>
<line x1="620.5" y1="392" x2="620.5" y2="453" stroke="black"/>
<line x1="635.5" y1="392" x2="635.5" y2="453" stroke="black"/>
<line x1="650.5" y1="392" x2="650.5" y2="453" stroke="black"/>
<line x1="665.5" y1="392" x2="665.5" y2="453" stroke="black"/>
<line x1="680.5" y1="392" x2="680.5" y2="453" stroke="black"/>
<path d="M640.186 303.484H637.786V341.441H640.186V303.484Z" fill="#4B4B4B"/>
<path d="M626.556 309.825C628.307 309.825 629.727 308.406 629.727 306.654C629.727 304.903 628.307 303.484 626.556 303.484C624.804 303.484 623.385 304.903 623.385 306.654C623.385 308.406 624.804 309.825 626.556 309.825Z" fill="#4B4B4B"/>
<path d="M632.738 314.348C632.095 312.178 630.655 310.74 629.034 310.74C627.834 310.74 626.556 310.74 626.556 310.74C626.556 310.74 625.278 310.74 624.078 310.74C622.457 310.74 621.016 312.178 620.373 314.348L618.038 322.632C617.866 323.33 618.292 324.042 618.989 324.213C619.688 324.386 620.387 323.977 620.559 323.28L622.886 315.021H623.573L619.523 329.386H623.341V340.042C623.341 340.856 624.002 341.516 624.816 341.516C625.631 341.516 626.291 340.856 626.291 340.042V329.386H627.103V340.042C627.103 340.856 627.764 341.516 628.579 341.516C629.393 341.516 630.054 340.856 630.054 340.042V329.386H633.587L629.538 315.021H630.224L632.552 323.28C632.724 323.977 633.424 324.386 634.121 324.213C634.82 324.042 635.245 323.33 635.072 322.632L632.738 314.348Z" fill="#4B4B4B"/>
<path d="M651.887 309.825C653.64 309.825 655.058 308.406 655.058 306.654C655.058 304.903 653.64 303.484 651.887 303.484C650.136 303.484 648.716 304.903 648.716 306.654C648.716 308.406 650.136 309.825 651.887 309.825Z" fill="#4B4B4B"/>
<path d="M655.791 310.721H647.459C645.923 310.721 644.251 312.393 644.251 313.929V324.588C644.251 325.356 644.874 325.979 645.642 325.979C646.41 325.979 647.033 325.356 647.033 324.588V315.825H647.674V339.613C647.674 340.623 648.492 341.441 649.502 341.441C650.512 341.441 651.33 340.623 651.33 339.613V325.808H651.92V339.613C651.92 340.623 652.738 341.441 653.748 341.441C654.757 341.441 655.576 340.623 655.576 339.613V315.825H656.218V324.588C656.218 325.356 656.841 325.979 657.609 325.979C658.377 325.979 659 325.356 659 324.588V313.929C659 312.393 657.328 310.721 655.791 310.721Z" fill="#4B4B4B"/>
<rect opacity="0.74" x="35" y="278" width="1062" height="266" fill="#D2D2D2"/>
<path d="M366.825 437.52H411.369V443.472H366.825V437.52ZM385.513 388.432H391.721V441.104H385.513V388.432ZM363.881 420.496H369.961V447.376H363.881V420.496ZM408.169 420.496H414.441V447.312H408.169V420.496ZM366.313 394.064H372.393V410.832H405.545V394H411.881V416.656H366.313V394.064ZM437.545 412.56H479.273V417.68H437.545V412.56ZM435.625 423.248H482.025V428.432H435.625V423.248ZM446.505 406.672H452.073V425.808H446.505V406.672ZM443.113 425.104H448.745V441.936H443.113V425.104ZM463.465 406.672H469.161V425.68H463.465V406.672ZM429.673 390.928H435.753V409.808C435.753 412.539 435.667 415.547 435.497 418.832C435.326 422.075 434.985 425.403 434.473 428.816C433.961 432.229 433.193 435.536 432.169 438.736C431.145 441.936 429.779 444.859 428.073 447.504C427.689 447.163 427.155 446.779 426.473 446.352C425.833 445.968 425.171 445.584 424.489 445.2C423.806 444.859 423.209 444.581 422.697 444.368C424.318 441.893 425.577 439.184 426.473 436.24C427.411 433.296 428.094 430.288 428.521 427.216C428.99 424.101 429.289 421.072 429.417 418.128C429.587 415.141 429.673 412.368 429.673 409.808V390.928ZM433.321 390.928H478.377V407.376H433.321V402.192H472.297V396.112H433.321V390.928ZM436.137 440.976C438.227 440.72 440.638 440.4 443.369 440.016C446.099 439.632 448.979 439.205 452.009 438.736C455.081 438.267 458.153 437.797 461.225 437.328L461.481 442.576C457.214 443.301 452.905 444.005 448.553 444.688C444.201 445.371 440.361 445.989 437.033 446.544L436.137 440.976ZM459.881 425.36C461.673 429.797 464.489 433.488 468.329 436.432C472.211 439.333 476.99 441.36 482.665 442.512C482.025 443.109 481.363 443.899 480.681 444.88C479.998 445.861 479.465 446.736 479.081 447.504C473.022 445.968 467.987 443.451 463.977 439.952C459.966 436.411 456.915 431.931 454.825 426.512L459.881 425.36ZM474.537 428.24L479.081 431.44C477.331 432.72 475.411 433.979 473.321 435.216C471.23 436.411 469.331 437.435 467.625 438.288L463.721 435.344C464.873 434.747 466.11 434.043 467.433 433.232C468.755 432.421 470.035 431.589 471.273 430.736C472.51 429.84 473.598 429.008 474.537 428.24ZM510.249 403.536C512.083 403.707 513.897 403.856 515.689 403.984C517.523 404.069 519.401 404.112 521.321 404.112C525.161 404.112 529.001 403.941 532.841 403.6C536.681 403.259 540.243 402.768 543.529 402.128V408.336C540.115 408.891 536.489 409.296 532.649 409.552C528.851 409.808 525.054 409.957 521.257 410C519.379 410 517.545 409.957 515.753 409.872C514.003 409.787 512.19 409.68 510.313 409.552L510.249 403.536ZM533.481 392.336C533.395 392.976 533.31 393.637 533.225 394.32C533.182 395.003 533.139 395.664 533.097 396.304C533.054 397.029 533.011 397.989 532.969 399.184C532.969 400.379 532.947 401.68 532.905 403.088C532.905 404.453 532.905 405.819 532.905 407.184C532.905 409.872 532.947 412.453 533.033 414.928C533.161 417.403 533.289 419.749 533.417 421.968C533.545 424.187 533.651 426.277 533.737 428.24C533.822 430.16 533.865 431.909 533.865 433.488C533.865 434.939 533.673 436.325 533.289 437.648C532.905 438.971 532.265 440.144 531.369 441.168C530.473 442.192 529.257 442.981 527.721 443.536C526.227 444.133 524.371 444.432 522.153 444.432C517.801 444.432 514.43 443.579 512.041 441.872C509.651 440.165 508.457 437.776 508.457 434.704C508.457 432.741 508.99 430.992 510.057 429.456C511.166 427.92 512.723 426.704 514.729 425.808C516.777 424.912 519.23 424.464 522.089 424.464C524.947 424.464 527.55 424.784 529.897 425.424C532.243 426.021 534.419 426.853 536.425 427.92C538.43 428.944 540.222 430.075 541.801 431.312C543.422 432.549 544.894 433.744 546.217 434.896L542.761 440.272C540.457 438.053 538.153 436.133 535.849 434.512C533.587 432.891 531.283 431.632 528.937 430.736C526.59 429.84 524.137 429.392 521.577 429.392C519.401 429.392 517.63 429.819 516.265 430.672C514.942 431.525 514.281 432.635 514.281 434C514.281 435.493 514.942 436.624 516.265 437.392C517.587 438.117 519.273 438.48 521.321 438.48C522.899 438.48 524.137 438.224 525.033 437.712C525.929 437.2 526.569 436.453 526.953 435.472C527.337 434.491 527.529 433.339 527.529 432.016C527.529 430.907 527.486 429.413 527.401 427.536C527.315 425.616 527.209 423.525 527.081 421.264C526.953 418.96 526.846 416.613 526.761 414.224C526.675 411.792 526.633 409.467 526.633 407.248C526.633 404.944 526.633 402.832 526.633 400.912C526.633 398.949 526.633 397.456 526.633 396.432C526.633 395.877 526.59 395.216 526.505 394.448C526.462 393.637 526.377 392.933 526.249 392.336H533.481ZM502.057 392.912C501.929 393.253 501.779 393.744 501.609 394.384C501.438 395.024 501.267 395.664 501.097 396.304C500.969 396.944 500.862 397.456 500.777 397.84C500.563 398.864 500.307 400.187 500.009 401.808C499.753 403.387 499.475 405.136 499.177 407.056C498.921 408.933 498.665 410.853 498.409 412.816C498.195 414.779 498.003 416.656 497.833 418.448C497.705 420.24 497.641 421.819 497.641 423.184C497.641 424.293 497.683 425.424 497.769 426.576C497.854 427.685 497.982 428.837 498.153 430.032C498.451 429.136 498.793 428.219 499.177 427.28C499.561 426.299 499.945 425.339 500.329 424.4C500.755 423.461 501.139 422.608 501.481 421.84L504.681 424.336C504.126 425.957 503.529 427.707 502.889 429.584C502.249 431.419 501.673 433.168 501.161 434.832C500.691 436.496 500.329 437.883 500.073 438.992C499.987 439.419 499.902 439.931 499.817 440.528C499.774 441.083 499.753 441.552 499.753 441.936C499.795 442.235 499.817 442.597 499.817 443.024C499.859 443.493 499.902 443.92 499.945 444.304L494.249 444.752C493.566 442.491 492.969 439.632 492.457 436.176C491.987 432.677 491.753 428.752 491.753 424.4C491.753 422.011 491.859 419.536 492.073 416.976C492.286 414.373 492.542 411.835 492.841 409.36C493.182 406.885 493.502 404.624 493.801 402.576C494.099 400.528 494.355 398.864 494.569 397.584C494.654 396.773 494.739 395.899 494.825 394.96C494.953 394.021 495.038 393.125 495.081 392.272L502.057 392.912ZM579.817 390.992C579.689 391.461 579.539 391.973 579.369 392.528C579.241 393.083 579.134 393.595 579.049 394.064C578.665 395.941 578.302 398.203 577.961 400.848C577.619 403.451 577.342 406.224 577.129 409.168C576.915 412.112 576.809 414.992 576.809 417.808C576.809 420.837 576.979 423.696 577.321 426.384C577.705 429.072 578.195 431.589 578.793 433.936C579.39 436.283 580.03 438.501 580.713 440.592L574.889 442.32C574.249 440.4 573.63 438.16 573.033 435.6C572.478 432.997 572.03 430.245 571.689 427.344C571.347 424.443 571.177 421.541 571.177 418.64C571.177 416.507 571.241 414.309 571.369 412.048C571.497 409.787 571.646 407.589 571.817 405.456C572.03 403.28 572.243 401.232 572.457 399.312C572.713 397.392 572.905 395.685 573.033 394.192C573.118 393.637 573.161 393.04 573.161 392.4C573.203 391.76 573.225 391.227 573.225 390.8L579.817 390.992ZM569.065 398.48C572.947 398.48 576.702 398.395 580.329 398.224C583.955 398.011 587.433 397.691 590.761 397.264C594.131 396.837 597.353 396.261 600.425 395.536L600.489 401.488C598.227 401.872 595.774 402.235 593.129 402.576C590.483 402.875 587.753 403.131 584.937 403.344C582.121 403.557 579.326 403.728 576.553 403.856C573.822 403.984 571.262 404.048 568.873 404.048C567.891 404.048 566.739 404.027 565.417 403.984C564.094 403.899 562.771 403.835 561.449 403.792C560.169 403.707 559.059 403.643 558.121 403.6L557.929 397.648C558.697 397.776 559.742 397.904 561.065 398.032C562.43 398.16 563.838 398.267 565.289 398.352C566.739 398.437 567.998 398.48 569.065 398.48ZM596.137 406.8C596.009 407.141 595.838 407.589 595.625 408.144C595.454 408.699 595.262 409.253 595.049 409.808C594.878 410.363 594.707 410.832 594.537 411.216C593.299 415.141 591.785 418.725 589.993 421.968C588.243 425.168 586.323 428.005 584.233 430.48C582.185 432.912 580.073 434.939 577.897 436.56C575.849 438.139 573.545 439.483 570.985 440.592C568.467 441.701 565.971 442.256 563.497 442.256C562.046 442.256 560.702 441.957 559.465 441.36C558.227 440.763 557.246 439.824 556.521 438.544C555.795 437.264 555.433 435.643 555.433 433.68C555.433 431.461 555.902 429.264 556.841 427.088C557.779 424.912 559.059 422.843 560.681 420.88C562.345 418.917 564.265 417.168 566.441 415.632C568.617 414.096 570.921 412.859 573.353 411.92C575.486 411.152 577.769 410.533 580.201 410.064C582.675 409.595 585.022 409.36 587.241 409.36C591.294 409.36 594.814 410.085 597.801 411.536C600.83 412.944 603.177 414.885 604.841 417.36C606.547 419.835 607.401 422.629 607.401 425.744C607.401 428.048 607.017 430.267 606.249 432.4C605.523 434.491 604.329 436.432 602.665 438.224C601.001 439.973 598.825 441.488 596.137 442.768C593.491 444.048 590.27 444.987 586.473 445.584L583.017 440.272C586.985 439.845 590.313 438.928 593.001 437.52C595.689 436.112 597.715 434.363 599.081 432.272C600.489 430.181 601.193 427.92 601.193 425.488C601.193 423.483 600.638 421.669 599.529 420.048C598.462 418.384 596.862 417.04 594.729 416.016C592.638 414.992 590.057 414.48 586.985 414.48C584.211 414.48 581.673 414.821 579.369 415.504C577.107 416.144 575.187 416.827 573.609 417.552C571.305 418.576 569.235 419.941 567.401 421.648C565.566 423.312 564.115 425.104 563.049 427.024C561.982 428.944 561.449 430.779 561.449 432.528C561.449 433.723 561.726 434.619 562.281 435.216C562.878 435.813 563.731 436.112 564.841 436.112C566.377 436.112 568.147 435.643 570.153 434.704C572.158 433.765 574.163 432.379 576.169 430.544C578.814 428.197 581.267 425.36 583.529 422.032C585.833 418.704 587.667 414.608 589.033 409.744C589.161 409.36 589.267 408.912 589.353 408.4C589.481 407.845 589.587 407.291 589.673 406.736C589.758 406.139 589.822 405.648 589.865 405.264L596.137 406.8ZM635.241 391.12C634.985 392.101 634.707 393.296 634.409 394.704C634.11 396.069 633.833 397.499 633.577 398.992C633.321 400.485 633.086 401.936 632.873 403.344C632.702 404.709 632.574 405.904 632.489 406.928C633.214 405.477 634.11 404.005 635.177 402.512C636.286 401.019 637.566 399.653 639.017 398.416C640.467 397.179 642.046 396.176 643.753 395.408C645.459 394.64 647.273 394.256 649.193 394.256C652.094 394.256 654.675 395.173 656.937 397.008C659.241 398.8 661.054 401.36 662.377 404.688C663.699 408.016 664.361 411.984 664.361 416.592C664.361 421.029 663.699 424.912 662.377 428.24C661.054 431.568 659.177 434.384 656.745 436.688C654.313 438.992 651.411 440.869 648.041 442.32C644.67 443.813 640.958 444.923 636.905 445.648L633.065 439.824C636.563 439.269 639.806 438.501 642.793 437.52C645.779 436.496 648.382 435.109 650.601 433.36C652.819 431.611 654.526 429.371 655.721 426.64C656.958 423.909 657.577 420.56 657.577 416.592C657.577 413.264 657.214 410.363 656.489 407.888C655.763 405.413 654.697 403.493 653.289 402.128C651.881 400.763 650.153 400.08 648.105 400.08C646.142 400.08 644.265 400.72 642.473 402C640.681 403.28 639.059 404.923 637.609 406.928C636.201 408.933 635.049 411.088 634.153 413.392C633.299 415.696 632.787 417.915 632.617 420.048C632.531 421.115 632.489 422.224 632.489 423.376C632.531 424.528 632.659 425.872 632.873 427.408L626.601 427.856C626.473 426.661 626.323 425.168 626.153 423.376C625.982 421.541 625.897 419.579 625.897 417.488C625.897 415.952 625.961 414.309 626.089 412.56C626.217 410.768 626.366 408.955 626.537 407.12C626.707 405.243 626.899 403.429 627.113 401.68C627.369 399.931 627.582 398.331 627.753 396.88C627.923 395.771 628.03 394.704 628.073 393.68C628.158 392.656 628.222 391.696 628.265 390.8L635.241 391.12ZM714.281 390.8C714.238 391.397 714.174 392.059 714.089 392.784C714.046 393.467 714.003 394.256 713.961 395.152C713.918 395.877 713.875 396.923 713.833 398.288C713.833 399.653 713.811 401.168 713.769 402.832C713.769 404.453 713.769 406.096 713.769 407.76C713.769 409.381 713.769 410.875 713.769 412.24C713.769 414.203 713.811 416.336 713.897 418.64C714.025 420.901 714.153 423.141 714.281 425.36C714.409 427.579 714.515 429.627 714.601 431.504C714.729 433.381 714.793 434.917 714.793 436.112C714.793 437.733 714.387 439.248 713.577 440.656C712.766 442.064 711.486 443.195 709.737 444.048C707.987 444.944 705.705 445.392 702.889 445.392C698.067 445.392 694.398 444.517 691.881 442.768C689.363 441.061 688.105 438.608 688.105 435.408C688.105 433.36 688.702 431.568 689.897 430.032C691.134 428.496 692.883 427.301 695.145 426.448C697.449 425.552 700.179 425.104 703.337 425.104C706.75 425.104 709.95 425.488 712.937 426.256C715.966 427.024 718.718 428.005 721.193 429.2C723.71 430.395 725.929 431.653 727.849 432.976C729.769 434.256 731.39 435.408 732.713 436.432L729.001 442.128C727.507 440.763 725.822 439.376 723.945 437.968C722.067 436.56 719.998 435.28 717.737 434.128C715.475 432.976 713.065 432.059 710.505 431.376C707.987 430.693 705.321 430.352 702.505 430.352C699.774 430.352 697.683 430.821 696.233 431.76C694.825 432.656 694.121 433.744 694.121 435.024C694.121 435.92 694.398 436.731 694.953 437.456C695.55 438.139 696.425 438.693 697.577 439.12C698.729 439.504 700.222 439.696 702.057 439.696C703.251 439.696 704.318 439.547 705.257 439.248C706.238 438.949 707.006 438.437 707.561 437.712C708.115 436.944 708.393 435.877 708.393 434.512C708.393 433.403 708.35 431.909 708.265 430.032C708.179 428.155 708.094 426.128 708.009 423.952C707.966 421.733 707.902 419.6 707.817 417.552C707.731 415.461 707.689 413.691 707.689 412.24C707.689 410.747 707.689 409.211 707.689 407.632C707.731 406.011 707.753 404.432 707.753 402.896C707.753 401.317 707.753 399.845 707.753 398.48C707.753 397.072 707.753 395.856 707.753 394.832C707.753 394.277 707.731 393.595 707.689 392.784C707.646 391.931 707.561 391.269 707.433 390.8H714.281ZM688.937 397.328C690.003 397.499 691.241 397.669 692.649 397.84C694.099 398.011 695.571 398.181 697.065 398.352C698.601 398.48 700.051 398.587 701.417 398.672C702.782 398.715 703.977 398.736 705.001 398.736C709.225 398.736 713.47 398.587 717.737 398.288C722.003 397.989 726.313 397.477 730.665 396.752V402.64C728.361 402.896 725.801 403.152 722.985 403.408C720.169 403.664 717.225 403.877 714.153 404.048C711.123 404.219 708.094 404.304 705.065 404.304C703.657 404.304 701.95 404.24 699.945 404.112C697.982 403.984 696.019 403.835 694.057 403.664C692.094 403.493 690.409 403.323 689.001 403.152L688.937 397.328ZM688.617 411.024C689.683 411.195 690.921 411.365 692.329 411.536C693.737 411.664 695.187 411.771 696.681 411.856C698.174 411.941 699.582 412.027 700.905 412.112C702.27 412.155 703.443 412.176 704.425 412.176C707.881 412.176 711.123 412.112 714.153 411.984C717.225 411.813 720.169 411.6 722.985 411.344C725.843 411.045 728.617 410.725 731.305 410.384L731.241 416.336C729.065 416.635 726.931 416.891 724.841 417.104C722.75 417.275 720.638 417.424 718.505 417.552C716.414 417.68 714.195 417.765 711.849 417.808C709.545 417.851 707.027 417.872 704.297 417.872C702.974 417.872 701.374 417.851 699.497 417.808C697.619 417.723 695.721 417.616 693.801 417.488C691.881 417.36 690.174 417.211 688.681 417.04L688.617 411.024ZM787.095 392.272C787.053 392.613 787.01 393.083 786.967 393.68C786.925 394.277 786.882 394.896 786.839 395.536C786.797 396.176 786.775 396.773 786.775 397.328C786.733 398.651 786.711 399.995 786.711 401.36C786.711 402.725 786.69 404.048 786.647 405.328C786.647 406.565 786.626 407.739 786.583 408.848C786.541 410.555 786.477 412.411 786.391 414.416C786.306 416.421 786.199 418.299 786.071 420.048C785.943 421.797 785.773 423.227 785.559 424.336C785.261 425.872 784.706 426.917 783.895 427.472C783.085 427.984 781.911 428.24 780.375 428.24C779.607 428.24 778.626 428.197 777.431 428.112C776.279 427.984 775.149 427.856 774.039 427.728C772.93 427.557 772.055 427.408 771.415 427.28L771.543 421.712C772.61 421.925 773.719 422.117 774.871 422.288C776.066 422.459 777.005 422.544 777.687 422.544C778.413 422.544 778.946 422.437 779.287 422.224C779.671 422.011 779.885 421.563 779.927 420.88C780.098 420.069 780.205 419.003 780.247 417.68C780.333 416.357 780.418 414.928 780.503 413.392C780.589 411.813 780.631 410.299 780.631 408.848C780.674 407.653 780.695 406.437 780.695 405.2C780.695 403.92 780.695 402.619 780.695 401.296C780.695 399.973 780.695 398.715 780.695 397.52C780.695 397.008 780.653 396.432 780.567 395.792C780.525 395.109 780.482 394.448 780.439 393.808C780.397 393.168 780.333 392.656 780.247 392.272H787.095ZM761.815 394.256C761.73 395.109 761.645 396.005 761.559 396.944C761.517 397.883 761.495 398.928 761.495 400.08C761.495 401.317 761.474 402.96 761.431 405.008C761.431 407.013 761.41 409.189 761.367 411.536C761.367 413.84 761.367 416.123 761.367 418.384C761.367 420.645 761.367 422.672 761.367 424.464C761.367 426.256 761.389 427.643 761.431 428.624C761.474 430.288 761.581 431.675 761.751 432.784C761.922 433.893 762.349 434.768 763.031 435.408C763.714 436.048 764.781 436.517 766.231 436.816C767.725 437.115 769.751 437.264 772.311 437.264C774.53 437.264 776.834 437.2 779.223 437.072C781.613 436.901 783.874 436.688 786.007 436.432C788.141 436.176 789.933 435.92 791.383 435.664L791.191 442.512C789.783 442.683 788.034 442.832 785.943 442.96C783.853 443.131 781.655 443.28 779.351 443.408C777.047 443.536 774.829 443.6 772.695 443.6C768.813 443.6 765.719 443.365 763.415 442.896C761.111 442.427 759.383 441.659 758.231 440.592C757.079 439.483 756.311 438.032 755.927 436.24C755.543 434.448 755.309 432.229 755.223 429.584C755.223 428.645 755.202 427.387 755.159 425.808C755.159 424.187 755.159 422.373 755.159 420.368C755.159 418.32 755.159 416.251 755.159 414.16C755.159 412.069 755.159 410.085 755.159 408.208C755.159 406.331 755.159 404.709 755.159 403.344C755.159 401.936 755.159 400.955 755.159 400.4C755.159 399.248 755.117 398.203 755.031 397.264C754.989 396.283 754.882 395.28 754.711 394.256H761.815ZM741.719 409.168C742.658 409.168 743.746 409.147 744.983 409.104C746.263 409.019 747.586 408.912 748.951 408.784C750.317 408.656 752.279 408.464 754.839 408.208C757.399 407.952 760.301 407.675 763.543 407.376C766.829 407.077 770.221 406.779 773.719 406.48C777.261 406.139 780.674 405.84 783.959 405.584C787.245 405.328 790.167 405.115 792.727 404.944C793.581 404.901 794.498 404.859 795.479 404.816C796.461 404.731 797.378 404.645 798.231 404.56V410.832C797.89 410.789 797.378 410.789 796.695 410.832C796.055 410.832 795.351 410.832 794.583 410.832C793.858 410.832 793.218 410.853 792.663 410.896C790.999 410.896 788.951 410.981 786.519 411.152C784.087 411.323 781.485 411.536 778.711 411.792C775.938 412.005 773.101 412.261 770.199 412.56C767.298 412.816 764.503 413.093 761.815 413.392C759.17 413.648 756.759 413.904 754.583 414.16C752.407 414.373 750.679 414.565 749.399 414.736C748.717 414.821 747.927 414.928 747.031 415.056C746.178 415.141 745.325 415.248 744.471 415.376C743.661 415.504 742.978 415.611 742.423 415.696L741.719 409.168ZM838.871 394.448C838.573 394.875 838.253 395.365 837.911 395.92C837.57 396.432 837.207 396.987 836.823 397.584C836.098 398.693 835.245 400.08 834.263 401.744C833.282 403.365 832.258 405.115 831.191 406.992C830.125 408.869 829.079 410.725 828.055 412.56C827.031 414.395 826.135 416.059 825.367 417.552C826.733 416.485 828.141 415.717 829.591 415.248C831.085 414.736 832.514 414.48 833.879 414.48C836.141 414.48 837.954 415.184 839.319 416.592C840.727 417.957 841.495 419.941 841.623 422.544C841.666 423.653 841.687 424.912 841.687 426.32C841.687 427.685 841.687 429.029 841.687 430.352C841.73 431.675 841.794 432.827 841.879 433.808C841.965 435.301 842.455 436.368 843.351 437.008C844.29 437.605 845.357 437.904 846.551 437.904C848.173 437.904 849.623 437.456 850.903 436.56C852.226 435.664 853.378 434.469 854.359 432.976C855.383 431.44 856.237 429.776 856.919 427.984C857.645 426.149 858.221 424.315 858.647 422.48L864.023 426.896C862.914 430.437 861.527 433.552 859.863 436.24C858.199 438.885 856.194 440.955 853.847 442.448C851.501 443.984 848.727 444.752 845.527 444.752C843.223 444.752 841.346 444.325 839.895 443.472C838.487 442.619 837.442 441.552 836.759 440.272C836.119 438.992 835.757 437.669 835.671 436.304C835.586 435.067 835.522 433.744 835.479 432.336C835.479 430.885 835.458 429.477 835.415 428.112C835.415 426.704 835.373 425.488 835.287 424.464C835.245 423.184 834.861 422.203 834.135 421.52C833.41 420.795 832.386 420.432 831.063 420.432C829.485 420.432 827.949 420.901 826.455 421.84C825.005 422.779 823.682 424.016 822.487 425.552C821.335 427.088 820.354 428.709 819.543 430.416C819.074 431.355 818.583 432.485 818.071 433.808C817.559 435.088 817.047 436.432 816.535 437.84C816.066 439.205 815.639 440.507 815.255 441.744C814.871 442.981 814.551 444.005 814.295 444.816L807.255 442.448C808.066 440.272 809.069 437.819 810.263 435.088C811.458 432.315 812.781 429.413 814.231 426.384C815.682 423.312 817.154 420.283 818.647 417.296C820.141 414.309 821.57 411.472 822.935 408.784C824.301 406.096 825.517 403.749 826.583 401.744C827.65 399.739 828.461 398.224 829.015 397.2C829.442 396.432 829.89 395.6 830.359 394.704C830.829 393.765 831.277 392.72 831.703 391.568L838.871 394.448Z" fill="black"/>
</g>
<defs>
<clipPath id="clip0_2_3">
<rect width="1122.56" height="793.76" fill="white" transform="translate(1122.56 793.76) rotate(-180)"/>
</clipPath>
</defs>
</svg>
