<svg width="1280" height="720" viewBox="0 0 1280 720" fill="none" xmlns="http://www.w3.org/2000/svg">
<g clip-path="url(#clip0_14_216)">
<mask id="mask0_14_216" style="mask-type:luminance" maskUnits="userSpaceOnUse" x="0" y="0" width="1280" height="720">
<path d="M0 720H1280V0H0V720Z" fill="white"/>
</mask>
<g mask="url(#mask0_14_216)">
<path d="M0 720H1280V0H0V720Z" fill="white"/>
<path d="M1110 527H1251V312H1110V527Z" stroke="black" stroke-width="2" stroke-miterlimit="8"/>
<path d="M1153.45 436V409.091H1169.58V411.982H1156.71V421.074H1168.37V423.964H1156.71V436H1153.45ZM1183.78 436.368C1182.05 436.368 1180.5 436.07 1179.14 435.474C1177.8 434.879 1176.72 434.051 1175.93 432.991C1175.14 431.922 1174.71 430.683 1174.64 429.273H1177.95C1178.02 430.14 1178.32 430.889 1178.84 431.52C1179.37 432.141 1180.06 432.623 1180.9 432.965C1181.75 433.306 1182.7 433.477 1183.73 433.477C1184.89 433.477 1185.91 433.276 1186.8 432.873C1187.7 432.47 1188.4 431.909 1188.91 431.191C1189.41 430.473 1189.67 429.641 1189.67 428.695C1189.67 427.705 1189.42 426.833 1188.93 426.08C1188.44 425.318 1187.72 424.722 1186.78 424.293C1185.83 423.864 1184.68 423.649 1183.31 423.649H1181.15V420.759H1183.31C1184.38 420.759 1185.32 420.566 1186.12 420.18C1186.94 419.795 1187.57 419.252 1188.03 418.551C1188.49 417.85 1188.72 417.027 1188.72 416.081C1188.72 415.17 1188.52 414.377 1188.12 413.703C1187.72 413.028 1187.15 412.503 1186.41 412.126C1185.68 411.749 1184.82 411.561 1183.83 411.561C1182.91 411.561 1182.03 411.732 1181.21 412.074C1180.39 412.406 1179.73 412.893 1179.21 413.532C1178.69 414.163 1178.41 414.925 1178.37 415.818H1175.22C1175.27 414.408 1175.69 413.173 1176.49 412.113C1177.29 411.044 1178.33 410.212 1179.62 409.616C1180.91 409.021 1182.34 408.723 1183.89 408.723C1185.55 408.723 1186.98 409.06 1188.17 409.735C1189.36 410.4 1190.28 411.281 1190.92 412.376C1191.56 413.471 1191.88 414.653 1191.88 415.923C1191.88 417.439 1191.48 418.731 1190.68 419.799C1189.89 420.868 1188.82 421.608 1187.46 422.02V422.23C1189.16 422.51 1190.49 423.233 1191.44 424.398C1192.4 425.554 1192.87 426.987 1192.87 428.695C1192.87 430.157 1192.48 431.471 1191.68 432.636C1190.89 433.793 1189.81 434.704 1188.45 435.369C1187.08 436.035 1185.53 436.368 1183.78 436.368ZM1207.71 409.091V436H1204.45V412.507H1204.29L1197.72 416.869V413.558L1204.45 409.091H1207.71Z" fill="black"/>
<path d="M969 526H1110V354H969V526Z" fill="white" stroke="black" stroke-width="2" stroke-miterlimit="8"/>
<path d="M1008.35 457V430.091H1024.49V432.982H1011.61V442.074H1023.28V444.964H1011.61V457H1008.35ZM1038.69 457.368C1036.95 457.368 1035.41 457.07 1034.05 456.474C1032.7 455.879 1031.63 455.051 1030.83 453.991C1030.04 452.922 1029.61 451.683 1029.54 450.273H1032.85C1032.92 451.14 1033.22 451.889 1033.75 452.52C1034.27 453.141 1034.96 453.623 1035.81 453.965C1036.66 454.306 1037.6 454.477 1038.63 454.477C1039.79 454.477 1040.81 454.276 1041.71 453.873C1042.6 453.47 1043.3 452.909 1043.81 452.191C1044.32 451.473 1044.57 450.641 1044.57 449.695C1044.57 448.705 1044.33 447.833 1043.84 447.08C1043.35 446.318 1042.63 445.722 1041.68 445.293C1040.74 444.864 1039.58 444.649 1038.21 444.649H1036.06V441.759H1038.21C1039.28 441.759 1040.22 441.566 1041.02 441.18C1041.84 440.795 1042.47 440.252 1042.93 439.551C1043.39 438.85 1043.63 438.027 1043.63 437.081C1043.63 436.17 1043.42 435.377 1043.02 434.703C1042.62 434.028 1042.05 433.503 1041.31 433.126C1040.59 432.749 1039.73 432.561 1038.74 432.561C1037.81 432.561 1036.93 432.732 1036.11 433.074C1035.3 433.406 1034.63 433.893 1034.11 434.532C1033.6 435.163 1033.32 435.925 1033.27 436.818H1030.12C1030.17 435.408 1030.6 434.173 1031.39 433.113C1032.19 432.044 1033.23 431.212 1034.52 430.616C1035.82 430.021 1037.24 429.723 1038.79 429.723C1040.46 429.723 1041.88 430.06 1043.07 430.735C1044.27 431.4 1045.18 432.281 1045.82 433.376C1046.46 434.471 1046.78 435.653 1046.78 436.923C1046.78 438.439 1046.38 439.731 1045.58 440.799C1044.8 441.868 1043.72 442.608 1042.36 443.02V443.23C1044.06 443.51 1045.39 444.233 1046.35 445.398C1047.3 446.554 1047.78 447.987 1047.78 449.695C1047.78 451.157 1047.38 452.471 1046.58 453.636C1045.79 454.793 1044.72 455.704 1043.35 456.369C1041.98 457.035 1040.43 457.368 1038.69 457.368ZM1053.15 457V454.635L1062.03 444.912C1063.08 443.773 1063.93 442.783 1064.61 441.942C1065.28 441.093 1065.78 440.296 1066.11 439.551C1066.44 438.798 1066.61 438.009 1066.61 437.186C1066.61 436.24 1066.38 435.421 1065.92 434.729C1065.48 434.037 1064.86 433.503 1064.08 433.126C1063.3 432.749 1062.43 432.561 1061.46 432.561C1060.42 432.561 1059.52 432.776 1058.75 433.205C1057.99 433.625 1057.4 434.217 1056.98 434.979C1056.56 435.741 1056.36 436.634 1056.36 437.659H1053.26C1053.26 436.082 1053.62 434.698 1054.35 433.507C1055.07 432.316 1056.06 431.387 1057.32 430.722C1058.58 430.056 1059.99 429.723 1061.56 429.723C1063.14 429.723 1064.53 430.056 1065.75 430.722C1066.97 431.387 1067.92 432.285 1068.62 433.415C1069.31 434.545 1069.65 435.802 1069.65 437.186C1069.65 438.176 1069.48 439.144 1069.12 440.09C1068.77 441.027 1068.15 442.074 1067.28 443.23C1066.41 444.378 1065.2 445.779 1063.66 447.435L1057.62 453.899V454.109H1070.13V457H1053.15Z" fill="black"/>
<path d="M689 424H829V354H689V424Z" fill="white" stroke="black" stroke-width="2" stroke-miterlimit="8"/>
<path d="M738.944 378.878H745.974V381.135H738.944V378.878ZM739.721 398.192H754.558V400.449H739.721V398.192ZM739.647 404.149H755.002V406.517H739.647V404.149ZM737.686 374.364H740.202V388.054H737.686V374.364ZM735.281 387.647C736.687 387.376 738.364 387.018 740.313 386.574C742.286 386.13 744.284 385.674 746.307 385.205L746.529 387.351C744.704 387.82 742.866 388.288 741.016 388.757C739.191 389.226 737.526 389.645 736.021 390.015L735.281 387.647ZM747.565 374.364H750.118V385.945C750.118 386.414 750.18 386.722 750.303 386.87C750.451 386.993 750.784 387.055 751.302 387.055C751.45 387.055 751.684 387.055 752.005 387.055C752.326 387.055 752.683 387.055 753.078 387.055C753.473 387.055 753.83 387.055 754.151 387.055C754.496 387.055 754.755 387.055 754.928 387.055C755.249 387.055 755.483 386.981 755.631 386.833C755.779 386.66 755.878 386.315 755.927 385.797C756.001 385.279 756.05 384.527 756.075 383.54C756.371 383.762 756.741 383.972 757.185 384.169C757.629 384.342 758.036 384.465 758.406 384.539C758.332 385.822 758.184 386.821 757.962 387.536C757.74 388.251 757.407 388.745 756.963 389.016C756.544 389.287 755.952 389.423 755.187 389.423C755.064 389.423 754.805 389.423 754.41 389.423C754.015 389.423 753.571 389.423 753.078 389.423C752.609 389.423 752.178 389.423 751.783 389.423C751.413 389.423 751.154 389.423 751.006 389.423C750.093 389.423 749.378 389.324 748.86 389.127C748.367 388.93 748.021 388.584 747.824 388.091C747.651 387.573 747.565 386.858 747.565 385.945V374.364ZM755.668 376.695L757.629 378.545C756.494 379.26 755.175 379.951 753.67 380.617C752.19 381.258 750.759 381.838 749.378 382.356C749.329 382.085 749.218 381.776 749.045 381.431C748.872 381.086 748.712 380.777 748.564 380.506C749.427 380.136 750.303 379.741 751.191 379.322C752.079 378.903 752.905 378.471 753.67 378.027C754.459 377.558 755.125 377.114 755.668 376.695ZM745.049 388.609L747.861 389.201C747.54 390.04 747.207 390.878 746.862 391.717C746.541 392.556 746.233 393.283 745.937 393.9L743.532 393.308C743.803 392.667 744.087 391.902 744.383 391.014C744.704 390.101 744.926 389.3 745.049 388.609ZM738.352 392.346H756.334V407.738H753.633V394.714H740.942V407.886H738.352V392.346ZM725.772 375.511H734.06V378.027H728.251V407.96H725.772V375.511ZM733.209 375.511H733.69L734.097 375.363L735.91 376.473C735.589 377.484 735.232 378.557 734.837 379.692C734.467 380.802 734.072 381.924 733.653 383.059C733.258 384.194 732.864 385.267 732.469 386.278C733.727 387.807 734.553 389.238 734.948 390.57C735.343 391.902 735.54 393.135 735.54 394.27C735.565 395.232 735.466 396.095 735.244 396.86C735.022 397.6 734.652 398.155 734.134 398.525C733.912 398.698 733.641 398.833 733.32 398.932C733.024 399.031 732.691 399.117 732.321 399.191C731.976 399.216 731.593 399.24 731.174 399.265C730.779 399.265 730.385 399.253 729.99 399.228C729.965 398.883 729.891 398.488 729.768 398.044C729.669 397.575 729.521 397.156 729.324 396.786C729.719 396.811 730.076 396.835 730.397 396.86C730.718 396.86 731.001 396.848 731.248 396.823C731.741 396.823 732.124 396.724 732.395 396.527C732.642 396.33 732.814 395.997 732.913 395.528C733.036 395.035 733.098 394.517 733.098 393.974C733.073 392.963 732.864 391.84 732.469 390.607C732.074 389.374 731.26 388.029 730.027 386.574C730.323 385.735 730.619 384.847 730.915 383.91C731.236 382.973 731.532 382.035 731.803 381.098C732.099 380.161 732.358 379.285 732.58 378.471C732.827 377.632 733.036 376.892 733.209 376.251V375.511ZM777.054 390.348H791.336V392.864H777.054V390.348ZM765.288 383.54H775.167V386.13H765.288V383.54ZM765.288 390.644H775.5V393.234H765.288V390.644ZM780.458 375.474H789.116V377.916H780.458V375.474ZM790.781 390.348H791.299L791.817 390.237L793.593 390.94C792.68 394.097 791.336 396.811 789.56 399.08C787.809 401.325 785.749 403.175 783.381 404.63C781.013 406.085 778.46 407.22 775.722 408.034C775.623 407.787 775.488 407.504 775.315 407.183C775.142 406.887 774.957 406.591 774.76 406.295C774.563 406.024 774.378 405.789 774.205 405.592C776.721 404.951 779.089 403.976 781.309 402.669C783.554 401.362 785.502 399.721 787.155 397.748C788.808 395.775 790.016 393.468 790.781 390.829V390.348ZM781.013 392.716C782.197 395.873 784.022 398.562 786.489 400.782C788.98 402.977 791.99 404.544 795.517 405.481C795.32 405.678 795.098 405.913 794.851 406.184C794.629 406.48 794.419 406.776 794.222 407.072C794.025 407.393 793.852 407.676 793.704 407.923C790.029 406.788 786.921 404.988 784.38 402.521C781.864 400.03 779.928 396.996 778.571 393.419L781.013 392.716ZM763.993 376.732L766.657 377.583V407.923H763.993V376.732ZM760.959 399.783C762.242 399.586 763.722 399.351 765.399 399.08C767.101 398.809 768.902 398.513 770.801 398.192C772.7 397.871 774.587 397.551 776.462 397.23L776.573 399.783C774.797 400.104 772.996 400.437 771.171 400.782C769.346 401.103 767.607 401.411 765.954 401.707C764.301 402.003 762.797 402.274 761.44 402.521L760.959 399.783ZM779.163 375.474H781.753V380.802C781.753 381.789 781.642 382.837 781.42 383.947C781.198 385.057 780.766 386.118 780.125 387.129C779.484 388.14 778.534 389.041 777.276 389.83C777.153 389.633 776.98 389.411 776.758 389.164C776.536 388.917 776.289 388.683 776.018 388.461C775.771 388.214 775.549 388.042 775.352 387.943C776.487 387.252 777.325 386.512 777.868 385.723C778.411 384.909 778.756 384.083 778.904 383.244C779.077 382.381 779.163 381.542 779.163 380.728V375.474ZM774.316 373.957L776.684 375.918C775.673 376.411 774.538 376.88 773.28 377.324C772.022 377.768 770.727 378.175 769.395 378.545C768.063 378.915 766.768 379.248 765.51 379.544C765.436 379.248 765.3 378.89 765.103 378.471C764.93 378.052 764.758 377.706 764.585 377.435C765.769 377.139 766.965 376.806 768.174 376.436C769.383 376.041 770.517 375.634 771.578 375.215C772.663 374.796 773.576 374.376 774.316 373.957ZM787.599 375.474H790.226V384.613C790.226 384.958 790.238 385.242 790.263 385.464C790.288 385.661 790.337 385.797 790.411 385.871C790.534 385.945 790.732 385.982 791.003 385.982C791.126 385.982 791.287 385.982 791.484 385.982C791.706 385.982 791.903 385.982 792.076 385.982C792.224 385.982 792.372 385.97 792.52 385.945C792.668 385.92 792.779 385.896 792.853 385.871C793.026 385.772 793.161 385.489 793.26 385.02C793.285 384.749 793.309 384.342 793.334 383.799C793.359 383.232 793.383 382.578 793.408 381.838C793.655 382.06 793.975 382.27 794.37 382.467C794.789 382.664 795.184 382.825 795.554 382.948C795.505 383.663 795.443 384.391 795.369 385.131C795.32 385.846 795.246 386.352 795.147 386.648C794.95 387.24 794.58 387.659 794.037 387.906C793.84 388.029 793.568 388.116 793.223 388.165C792.902 388.214 792.594 388.239 792.298 388.239C792.051 388.239 791.718 388.239 791.299 388.239C790.904 388.239 790.608 388.239 790.411 388.239C790.066 388.239 789.696 388.19 789.301 388.091C788.906 387.992 788.586 387.832 788.339 387.61C788.068 387.363 787.87 387.043 787.747 386.648C787.648 386.229 787.599 385.489 787.599 384.428V375.474Z" fill="black"/>
<path d="M473 424H689V354H473V424Z" fill="white" stroke="black" stroke-width="2" stroke-miterlimit="8"/>
<path d="M496.122 380.247C496.615 380.321 497.158 380.383 497.75 380.432C498.367 380.457 498.86 380.469 499.23 380.469H519.58C520.147 380.469 520.702 380.444 521.245 380.395C521.788 380.346 522.281 380.296 522.725 380.247V383.503C522.256 383.454 521.738 383.417 521.171 383.392C520.628 383.367 520.098 383.355 519.58 383.355H499.23C498.885 383.355 498.391 383.367 497.75 383.392C497.133 383.417 496.591 383.454 496.122 383.503V380.247ZM507.555 401.966V382.097H510.7V401.966H507.555ZM493.865 400.153C494.408 400.227 494.95 400.289 495.493 400.338C496.06 400.363 496.603 400.375 497.121 400.375H521.578C522.145 400.375 522.676 400.35 523.169 400.301C523.687 400.252 524.18 400.202 524.649 400.153V403.52C524.156 403.471 523.613 403.434 523.021 403.409C522.429 403.384 521.948 403.372 521.578 403.372H497.121C496.628 403.372 496.097 403.384 495.53 403.409C494.987 403.434 494.432 403.471 493.865 403.52V400.153ZM535.971 403.816C536.119 403.52 536.218 403.236 536.267 402.965C536.316 402.694 536.341 402.373 536.341 402.003C536.341 401.633 536.341 400.942 536.341 399.931C536.341 398.92 536.341 397.711 536.341 396.305C536.341 394.899 536.341 393.431 536.341 391.902C536.341 390.348 536.341 388.843 536.341 387.388C536.341 385.908 536.341 384.601 536.341 383.466C536.341 382.307 536.341 381.431 536.341 380.839C536.341 380.518 536.316 380.136 536.267 379.692C536.242 379.248 536.205 378.829 536.156 378.434C536.131 378.039 536.082 377.719 536.008 377.472H539.671C539.597 377.916 539.535 378.459 539.486 379.1C539.437 379.717 539.412 380.296 539.412 380.839C539.412 381.332 539.412 382.048 539.412 382.985C539.412 383.922 539.412 384.995 539.412 386.204C539.412 387.388 539.412 388.646 539.412 389.978C539.412 391.31 539.412 392.617 539.412 393.9C539.412 395.183 539.412 396.379 539.412 397.489C539.412 398.574 539.412 399.499 539.412 400.264C539.412 401.029 539.412 401.547 539.412 401.818C541.188 401.374 543.013 400.745 544.888 399.931C546.787 399.117 548.637 398.167 550.438 397.082C552.263 395.972 553.965 394.763 555.544 393.456C557.147 392.124 558.516 390.706 559.651 389.201L561.316 391.791C558.923 394.776 555.865 397.39 552.14 399.635C548.44 401.88 544.284 403.668 539.671 405C539.474 405.049 539.239 405.123 538.968 405.222C538.697 405.345 538.413 405.493 538.117 405.666L535.971 403.816ZM590.324 379.914C590.645 380.358 591.015 380.925 591.434 381.616C591.878 382.307 592.31 383.022 592.729 383.762C593.173 384.502 593.543 385.168 593.839 385.76L591.656 386.759C591.335 386.093 590.99 385.415 590.62 384.724C590.25 384.033 589.855 383.355 589.436 382.689C589.041 381.998 588.634 381.369 588.215 380.802L590.324 379.914ZM595.06 378.027C595.405 378.446 595.8 379.001 596.244 379.692C596.688 380.383 597.132 381.098 597.576 381.838C598.02 382.578 598.39 383.232 598.686 383.799L596.54 384.835C596.244 384.169 595.899 383.503 595.504 382.837C595.109 382.146 594.69 381.468 594.246 380.802C593.827 380.136 593.407 379.532 592.988 378.989L595.06 378.027ZM566.718 395.269C567.211 394.85 567.643 394.455 568.013 394.085C568.408 393.715 568.852 393.283 569.345 392.79C569.789 392.346 570.295 391.779 570.862 391.088C571.454 390.397 572.083 389.657 572.749 388.868C573.44 388.054 574.118 387.24 574.784 386.426C575.45 385.587 576.067 384.835 576.634 384.169C577.621 383.01 578.595 382.368 579.557 382.245C580.519 382.097 581.629 382.615 582.887 383.799C583.652 384.49 584.478 385.304 585.366 386.241C586.279 387.154 587.179 388.079 588.067 389.016C588.955 389.953 589.757 390.804 590.472 391.569C591.311 392.432 592.248 393.431 593.284 394.566C594.32 395.676 595.381 396.823 596.466 398.007C597.551 399.166 598.563 400.252 599.5 401.263L596.947 403.964C596.084 402.903 595.159 401.806 594.172 400.671C593.21 399.512 592.248 398.389 591.286 397.304C590.349 396.194 589.485 395.195 588.696 394.307C588.153 393.69 587.549 393.024 586.883 392.309C586.217 391.594 585.551 390.878 584.885 390.163C584.219 389.448 583.59 388.782 582.998 388.165C582.431 387.548 581.95 387.055 581.555 386.685C580.84 385.994 580.248 385.674 579.779 385.723C579.335 385.772 578.792 386.179 578.151 386.944C577.707 387.487 577.201 388.128 576.634 388.868C576.067 389.583 575.475 390.336 574.858 391.125C574.241 391.914 573.649 392.667 573.082 393.382C572.515 394.097 572.021 394.714 571.602 395.232C571.232 395.701 570.85 396.194 570.455 396.712C570.085 397.23 569.764 397.686 569.493 398.081L566.718 395.269ZM605.531 388.979C605.901 389.004 606.357 389.041 606.9 389.09C607.443 389.115 608.035 389.139 608.676 389.164C609.342 389.164 610.008 389.164 610.674 389.164C611.069 389.164 611.673 389.164 612.487 389.164C613.326 389.164 614.3 389.164 615.41 389.164C616.52 389.164 617.692 389.164 618.925 389.164C620.183 389.164 621.429 389.164 622.662 389.164C623.92 389.164 625.104 389.164 626.214 389.164C627.349 389.164 628.323 389.164 629.137 389.164C629.951 389.164 630.555 389.164 630.95 389.164C631.887 389.164 632.689 389.139 633.355 389.09C634.021 389.041 634.551 389.004 634.946 388.979V392.605C634.576 392.58 634.021 392.543 633.281 392.494C632.566 392.445 631.801 392.42 630.987 392.42C630.592 392.42 629.976 392.42 629.137 392.42C628.298 392.42 627.324 392.42 626.214 392.42C625.129 392.42 623.957 392.42 622.699 392.42C621.441 392.42 620.183 392.42 618.925 392.42C617.692 392.42 616.52 392.42 615.41 392.42C614.325 392.42 613.363 392.42 612.524 392.42C611.685 392.42 611.069 392.42 610.674 392.42C609.663 392.42 608.701 392.445 607.788 392.494C606.875 392.519 606.123 392.556 605.531 392.605V388.979ZM654.112 388.054C655.296 388.745 656.542 389.509 657.849 390.348C659.156 391.187 660.451 392.062 661.734 392.975C663.041 393.863 664.287 394.739 665.471 395.602C666.655 396.465 667.703 397.279 668.616 398.044L666.433 400.597C665.594 399.832 664.583 398.994 663.399 398.081C662.24 397.144 661.006 396.206 659.699 395.269C658.392 394.307 657.084 393.382 655.777 392.494C654.47 391.606 653.249 390.804 652.114 390.089L654.112 388.054ZM671.058 381.283C670.885 381.554 670.725 381.887 670.577 382.282C670.429 382.652 670.293 382.985 670.17 383.281C669.825 384.539 669.331 385.896 668.69 387.351C668.049 388.806 667.296 390.274 666.433 391.754C665.57 393.209 664.583 394.615 663.473 395.972C661.82 398.019 659.748 399.993 657.257 401.892C654.79 403.767 651.806 405.345 648.303 406.628L645.639 404.334C647.933 403.619 650.017 402.743 651.892 401.707C653.791 400.646 655.493 399.487 656.998 398.229C658.503 396.971 659.81 395.676 660.92 394.344C661.882 393.209 662.758 391.964 663.547 390.607C664.361 389.25 665.064 387.906 665.656 386.574C666.248 385.217 666.68 383.959 666.951 382.8H653.224L654.408 380.173H666.174C666.667 380.173 667.124 380.148 667.543 380.099C667.962 380.025 668.32 379.926 668.616 379.803L671.058 381.283ZM658.589 375.955C658.268 376.448 657.96 376.966 657.664 377.509C657.368 378.052 657.121 378.496 656.924 378.841C656.184 380.198 655.222 381.69 654.038 383.318C652.879 384.921 651.51 386.525 649.931 388.128C648.377 389.731 646.613 391.224 644.64 392.605L642.161 390.681C644.282 389.374 646.12 387.931 647.674 386.352C649.228 384.773 650.535 383.232 651.596 381.727C652.657 380.222 653.471 378.915 654.038 377.805C654.235 377.484 654.457 377.04 654.704 376.473C654.951 375.881 655.123 375.351 655.222 374.882L658.589 375.955Z" fill="black"/>
<path d="M1110 312H970.13" stroke="black" stroke-width="2" stroke-miterlimit="8"/>
<path d="M972 269L473.304 227.128" stroke="black" stroke-width="2" stroke-miterlimit="8"/>
<path d="M473 230.032L473 301" stroke="black" stroke-width="2" stroke-miterlimit="8"/>
<path d="M970 312V270.452" stroke="black" stroke-width="2" stroke-miterlimit="8"/>
<path d="M865 258.861L865 303" stroke="black" stroke-width="2" stroke-miterlimit="8"/>
<path d="M865 302H473.682" stroke="black" stroke-width="2" stroke-miterlimit="8"/>
<path d="M969 527H548.872" stroke="black" stroke-width="2" stroke-miterlimit="8"/>
<path d="M39 526H310V291H39V526Z" fill="white" stroke="black" stroke-width="2" stroke-miterlimit="8"/>
<path d="M141.639 425V398.091H157.773V400.982H144.897V410.074H156.565V412.964H144.897V425H141.639ZM171.974 425.368C170.239 425.368 168.693 425.07 167.336 424.474C165.987 423.879 164.914 423.051 164.116 421.991C163.328 420.922 162.899 419.683 162.829 418.273H166.14C166.21 419.14 166.508 419.889 167.033 420.52C167.559 421.141 168.247 421.623 169.096 421.965C169.946 422.306 170.887 422.477 171.921 422.477C173.077 422.477 174.102 422.276 174.996 421.873C175.889 421.47 176.59 420.909 177.098 420.191C177.606 419.473 177.86 418.641 177.86 417.695C177.86 416.705 177.615 415.833 177.124 415.08C176.634 414.318 175.915 413.722 174.969 413.293C174.023 412.864 172.867 412.649 171.501 412.649H169.346V409.759H171.501C172.569 409.759 173.507 409.566 174.312 409.18C175.127 408.795 175.762 408.252 176.218 407.551C176.682 406.85 176.914 406.027 176.914 405.081C176.914 404.17 176.713 403.377 176.31 402.703C175.907 402.028 175.337 401.503 174.602 401.126C173.874 400.749 173.016 400.561 172.026 400.561C171.098 400.561 170.222 400.732 169.398 401.074C168.584 401.406 167.918 401.893 167.401 402.532C166.884 403.163 166.604 403.925 166.56 404.818H163.407C163.459 403.408 163.884 402.173 164.681 401.113C165.479 400.044 166.521 399.212 167.809 398.616C169.105 398.021 170.528 397.723 172.079 397.723C173.743 397.723 175.171 398.06 176.362 398.735C177.553 399.4 178.469 400.281 179.108 401.376C179.748 402.471 180.067 403.653 180.067 404.923C180.067 406.439 179.669 407.731 178.872 408.799C178.083 409.868 177.01 410.608 175.653 411.02V411.23C177.352 411.51 178.679 412.233 179.634 413.398C180.589 414.554 181.066 415.987 181.066 417.695C181.066 419.157 180.667 420.471 179.87 421.636C179.082 422.793 178.005 423.704 176.638 424.369C175.272 425.035 173.717 425.368 171.974 425.368ZM195.375 425.368C194.271 425.35 193.167 425.14 192.064 424.737C190.96 424.334 189.952 423.655 189.041 422.701C188.131 421.737 187.399 420.436 186.847 418.798C186.295 417.152 186.019 415.084 186.019 412.597C186.019 410.214 186.243 408.103 186.69 406.263C187.136 404.415 187.785 402.86 188.634 401.599C189.484 400.329 190.509 399.365 191.709 398.708C192.918 398.051 194.28 397.723 195.795 397.723C197.302 397.723 198.642 398.025 199.816 398.63C200.998 399.225 201.962 400.057 202.706 401.126C203.451 402.195 203.933 403.425 204.152 404.818H200.946C200.648 403.609 200.07 402.606 199.211 401.809C198.353 401.012 197.214 400.614 195.795 400.614C193.71 400.614 192.068 401.52 190.868 403.333C189.677 405.147 189.077 407.691 189.068 410.967H189.278C189.769 410.223 190.351 409.588 191.026 409.062C191.709 408.528 192.462 408.116 193.285 407.827C194.109 407.538 194.98 407.393 195.9 407.393C197.442 407.393 198.852 407.779 200.131 408.55C201.41 409.312 202.435 410.367 203.206 411.716C203.976 413.056 204.362 414.594 204.362 416.328C204.362 417.992 203.99 419.517 203.245 420.901C202.5 422.276 201.454 423.371 200.105 424.185C198.765 424.991 197.188 425.385 195.375 425.368ZM195.375 422.477C196.478 422.477 197.468 422.201 198.344 421.65C199.229 421.098 199.925 420.357 200.433 419.429C200.95 418.5 201.208 417.467 201.208 416.328C201.208 415.216 200.959 414.204 200.459 413.293C199.969 412.373 199.29 411.642 198.423 411.099C197.564 410.556 196.583 410.284 195.48 410.284C194.648 410.284 193.872 410.451 193.154 410.783C192.436 411.107 191.805 411.554 191.262 412.124C190.728 412.693 190.307 413.346 190.001 414.081C189.694 414.808 189.541 415.575 189.541 416.381C189.541 417.449 189.79 418.448 190.29 419.376C190.798 420.305 191.49 421.054 192.366 421.623C193.25 422.193 194.253 422.477 195.375 422.477Z" fill="black"/>
<path d="M549 527H230.04" stroke="black" stroke-width="2" stroke-miterlimit="8"/>
<path d="M485.49 280V253.091H501.625V255.982H488.749V265.074H500.417V267.964H488.749V280H485.49ZM515.826 280.368C514.091 280.368 512.545 280.07 511.187 279.474C509.838 278.879 508.765 278.051 507.968 276.991C507.18 275.922 506.751 274.683 506.681 273.273H509.992C510.062 274.14 510.36 274.889 510.885 275.52C511.411 276.141 512.098 276.623 512.948 276.965C513.798 277.306 514.739 277.477 515.773 277.477C516.929 277.477 517.954 277.276 518.848 276.873C519.741 276.47 520.442 275.909 520.95 275.191C521.458 274.473 521.712 273.641 521.712 272.695C521.712 271.705 521.467 270.833 520.976 270.08C520.486 269.318 519.767 268.722 518.821 268.293C517.875 267.864 516.719 267.649 515.353 267.649H513.198V264.759H515.353C516.421 264.759 517.359 264.566 518.164 264.18C518.979 263.795 519.614 263.252 520.07 262.551C520.534 261.85 520.766 261.027 520.766 260.081C520.766 259.17 520.564 258.377 520.162 257.703C519.759 257.028 519.189 256.503 518.453 256.126C517.726 255.749 516.868 255.561 515.878 255.561C514.95 255.561 514.074 255.732 513.25 256.074C512.436 256.406 511.77 256.893 511.253 257.532C510.736 258.163 510.456 258.925 510.412 259.818H507.259C507.311 258.408 507.736 257.173 508.533 256.113C509.33 255.044 510.373 254.212 511.66 253.616C512.957 253.021 514.38 252.723 515.931 252.723C517.595 252.723 519.023 253.06 520.214 253.735C521.405 254.4 522.321 255.281 522.96 256.376C523.6 257.471 523.919 258.653 523.919 259.923C523.919 261.439 523.521 262.731 522.724 263.799C521.935 264.868 520.862 265.608 519.505 266.02V266.23C521.204 266.51 522.531 267.233 523.486 268.398C524.441 269.554 524.918 270.987 524.918 272.695C524.918 274.157 524.519 275.471 523.722 276.636C522.934 277.793 521.856 278.704 520.49 279.369C519.124 280.035 517.569 280.368 515.826 280.368ZM529.661 274.482V271.801L541.486 253.091H543.431V257.243H542.117L533.182 271.381V271.591H549.107V274.482H529.661ZM542.327 280V273.667V272.419V253.091H545.428V280H542.327Z" fill="black"/>
<path d="M386 302H473V227H386V302Z" fill="white" stroke="black" stroke-width="2" stroke-miterlimit="8"/>
<path d="M398.673 281V254.091H414.808V256.982H401.931V266.074H413.599V268.964H401.931V281H398.673ZM429.008 281.368C427.273 281.368 425.727 281.07 424.37 280.474C423.021 279.879 421.948 279.051 421.15 277.991C420.362 276.922 419.933 275.683 419.863 274.273H423.174C423.244 275.14 423.542 275.889 424.067 276.52C424.593 277.141 425.281 277.623 426.13 277.965C426.98 278.306 427.922 278.477 428.955 278.477C430.111 278.477 431.136 278.276 432.03 277.873C432.923 277.47 433.624 276.909 434.132 276.191C434.64 275.473 434.894 274.641 434.894 273.695C434.894 272.705 434.649 271.833 434.158 271.08C433.668 270.318 432.949 269.722 432.003 269.293C431.057 268.864 429.901 268.649 428.535 268.649H426.38V265.759H428.535C429.603 265.759 430.541 265.566 431.347 265.18C432.161 264.795 432.796 264.252 433.252 263.551C433.716 262.85 433.948 262.027 433.948 261.081C433.948 260.17 433.747 259.377 433.344 258.703C432.941 258.028 432.371 257.503 431.636 257.126C430.909 256.749 430.05 256.561 429.06 256.561C428.132 256.561 427.256 256.732 426.432 257.074C425.618 257.406 424.952 257.893 424.435 258.532C423.918 259.163 423.638 259.925 423.594 260.818H420.441C420.494 259.408 420.918 258.173 421.715 257.113C422.513 256.044 423.555 255.212 424.843 254.616C426.139 254.021 427.562 253.723 429.113 253.723C430.777 253.723 432.205 254.06 433.396 254.735C434.588 255.4 435.503 256.281 436.142 257.376C436.782 258.471 437.101 259.653 437.101 260.923C437.101 262.439 436.703 263.731 435.906 264.799C435.117 265.868 434.044 266.608 432.687 267.02V267.23C434.386 267.51 435.713 268.233 436.668 269.398C437.623 270.554 438.1 271.987 438.1 273.695C438.1 275.157 437.701 276.471 436.904 277.636C436.116 278.793 435.039 279.704 433.672 280.369C432.306 281.035 430.751 281.368 429.008 281.368ZM451.883 281.368C450.341 281.368 448.953 281.061 447.718 280.448C446.483 279.835 445.493 278.994 444.748 277.925C444.004 276.857 443.597 275.639 443.527 274.273H446.68C446.803 275.49 447.354 276.498 448.335 277.295C449.325 278.083 450.508 278.477 451.883 278.477C452.987 278.477 453.968 278.219 454.826 277.702C455.693 277.185 456.372 276.476 456.863 275.574C457.362 274.663 457.612 273.633 457.612 272.486C457.612 271.312 457.353 270.265 456.837 269.346C456.329 268.417 455.628 267.686 454.734 267.151C453.841 266.617 452.82 266.345 451.673 266.337C450.849 266.328 450.004 266.455 449.137 266.718C448.27 266.972 447.556 267.3 446.995 267.703L443.947 267.335L445.576 254.091H459.556V256.982H448.309L447.363 264.918H447.521C448.073 264.48 448.765 264.116 449.597 263.827C450.429 263.538 451.296 263.393 452.198 263.393C453.845 263.393 455.312 263.788 456.6 264.576C457.896 265.356 458.913 266.424 459.648 267.782C460.393 269.14 460.765 270.69 460.765 272.433C460.765 274.15 460.38 275.683 459.609 277.032C458.847 278.372 457.796 279.432 456.456 280.212C455.115 280.982 453.591 281.368 451.883 281.368Z" fill="black"/>
<path d="M386 228L107.82 227.613" stroke="black" stroke-width="2" stroke-miterlimit="8"/>
<path d="M39 225.921L38.9999 350" stroke="black" stroke-width="2" stroke-miterlimit="8"/>
<path d="M829 527V416.936" stroke="black" stroke-width="2" stroke-miterlimit="8"/>
<path d="M645 301V243.43" stroke="black" stroke-width="2" stroke-miterlimit="8"/>
<path d="M40 291H142V228H40V291Z" fill="white" stroke="black" stroke-width="2" stroke-miterlimit="8"/>
<path d="M71.093 249.878H78.123V252.135H71.093V249.878ZM71.87 269.192H86.707V271.449H71.87V269.192ZM71.796 275.149H87.151V277.517H71.796V275.149ZM69.835 245.364H72.351V259.054H69.835V245.364ZM67.43 258.647C68.836 258.376 70.5133 258.018 72.462 257.574C74.4353 257.13 76.4333 256.674 78.456 256.205L78.678 258.351C76.8526 258.82 75.015 259.288 73.165 259.757C71.3396 260.226 69.6746 260.645 68.17 261.015L67.43 258.647ZM79.714 245.364H82.267V256.945C82.267 257.414 82.3286 257.722 82.452 257.87C82.6 257.993 82.933 258.055 83.451 258.055C83.599 258.055 83.8333 258.055 84.154 258.055C84.4746 258.055 84.8323 258.055 85.227 258.055C85.6216 258.055 85.9793 258.055 86.3 258.055C86.6453 258.055 86.9043 258.055 87.077 258.055C87.3976 258.055 87.632 257.981 87.78 257.833C87.928 257.66 88.0266 257.315 88.076 256.797C88.15 256.279 88.1993 255.527 88.224 254.54C88.52 254.762 88.89 254.972 89.334 255.169C89.778 255.342 90.185 255.465 90.555 255.539C90.481 256.822 90.333 257.821 90.111 258.536C89.889 259.251 89.556 259.745 89.112 260.016C88.6926 260.287 88.1006 260.423 87.336 260.423C87.2126 260.423 86.9536 260.423 86.559 260.423C86.1643 260.423 85.7203 260.423 85.227 260.423C84.7583 260.423 84.3266 260.423 83.932 260.423C83.562 260.423 83.303 260.423 83.155 260.423C82.2423 260.423 81.527 260.324 81.009 260.127C80.5156 259.93 80.1703 259.584 79.973 259.091C79.8003 258.573 79.714 257.858 79.714 256.945V245.364ZM87.817 247.695L89.778 249.545C88.6433 250.26 87.3236 250.951 85.819 251.617C84.339 252.258 82.9083 252.838 81.527 253.356C81.4776 253.085 81.3666 252.776 81.194 252.431C81.0213 252.086 80.861 251.777 80.713 251.506C81.5763 251.136 82.452 250.741 83.34 250.322C84.228 249.903 85.0543 249.471 85.819 249.027C86.6083 248.558 87.2743 248.114 87.817 247.695ZM77.198 259.609L80.01 260.201C79.6893 261.04 79.3563 261.878 79.011 262.717C78.6903 263.556 78.382 264.283 78.086 264.9L75.681 264.308C75.9523 263.667 76.236 262.902 76.532 262.014C76.8526 261.101 77.0746 260.3 77.198 259.609ZM70.501 263.346H88.483V278.738H85.782V265.714H73.091V278.886H70.501V263.346ZM57.921 246.511H66.209V249.027H60.4V278.96H57.921V246.511ZM65.358 246.511H65.839L66.246 246.363L68.059 247.473C67.7383 248.484 67.3806 249.557 66.986 250.692C66.616 251.802 66.2213 252.924 65.802 254.059C65.4073 255.194 65.0126 256.267 64.618 257.278C65.876 258.807 66.7023 260.238 67.097 261.57C67.4916 262.902 67.689 264.135 67.689 265.27C67.7136 266.232 67.615 267.095 67.393 267.86C67.171 268.6 66.801 269.155 66.283 269.525C66.061 269.698 65.7896 269.833 65.469 269.932C65.173 270.031 64.84 270.117 64.47 270.191C64.1246 270.216 63.7423 270.24 63.323 270.265C62.9283 270.265 62.5336 270.253 62.139 270.228C62.1143 269.883 62.0403 269.488 61.917 269.044C61.8183 268.575 61.6703 268.156 61.473 267.786C61.8676 267.811 62.2253 267.835 62.546 267.86C62.8666 267.86 63.1503 267.848 63.397 267.823C63.8903 267.823 64.2726 267.724 64.544 267.527C64.7906 267.33 64.9633 266.997 65.062 266.528C65.1853 266.035 65.247 265.517 65.247 264.974C65.2223 263.963 65.0126 262.84 64.618 261.607C64.2233 260.374 63.4093 259.029 62.176 257.574C62.472 256.735 62.768 255.847 63.064 254.91C63.3846 253.973 63.6806 253.035 63.952 252.098C64.248 251.161 64.507 250.285 64.729 249.471C64.9756 248.632 65.1853 247.892 65.358 247.251V246.511ZM109.203 261.348H123.485V263.864H109.203V261.348ZM97.437 254.54H107.316V257.13H97.437V254.54ZM97.437 261.644H107.649V264.234H97.437V261.644ZM112.607 246.474H121.265V248.916H112.607V246.474ZM122.93 261.348H123.448L123.966 261.237L125.742 261.94C124.829 265.097 123.485 267.811 121.709 270.08C119.958 272.325 117.898 274.175 115.53 275.63C113.162 277.085 110.609 278.22 107.871 279.034C107.772 278.787 107.637 278.504 107.464 278.183C107.291 277.887 107.106 277.591 106.909 277.295C106.712 277.024 106.527 276.789 106.354 276.592C108.87 275.951 111.238 274.976 113.458 273.669C115.703 272.362 117.651 270.721 119.304 268.748C120.957 266.775 122.165 264.468 122.93 261.829V261.348ZM113.162 263.716C114.346 266.873 116.171 269.562 118.638 271.782C121.129 273.977 124.139 275.544 127.666 276.481C127.469 276.678 127.247 276.913 127 277.184C126.778 277.48 126.568 277.776 126.371 278.072C126.174 278.393 126.001 278.676 125.853 278.923C122.178 277.788 119.07 275.988 116.529 273.521C114.013 271.03 112.077 267.996 110.72 264.419L113.162 263.716ZM96.142 247.732L98.806 248.583V278.923H96.142V247.732ZM93.108 270.783C94.3906 270.586 95.8706 270.351 97.548 270.08C99.25 269.809 101.051 269.513 102.95 269.192C104.849 268.871 106.736 268.551 108.611 268.23L108.722 270.783C106.946 271.104 105.145 271.437 103.32 271.782C101.495 272.103 99.7556 272.411 98.103 272.707C96.4503 273.003 94.9456 273.274 93.589 273.521L93.108 270.783ZM111.312 246.474H113.902V251.802C113.902 252.789 113.791 253.837 113.569 254.947C113.347 256.057 112.915 257.118 112.274 258.129C111.633 259.14 110.683 260.041 109.425 260.83C109.302 260.633 109.129 260.411 108.907 260.164C108.685 259.917 108.438 259.683 108.167 259.461C107.92 259.214 107.698 259.042 107.501 258.943C108.636 258.252 109.474 257.512 110.017 256.723C110.56 255.909 110.905 255.083 111.053 254.244C111.226 253.381 111.312 252.542 111.312 251.728V246.474ZM106.465 244.957L108.833 246.918C107.822 247.411 106.687 247.88 105.429 248.324C104.171 248.768 102.876 249.175 101.544 249.545C100.212 249.915 98.917 250.248 97.659 250.544C97.585 250.248 97.4493 249.89 97.252 249.471C97.0793 249.052 96.9066 248.706 96.734 248.435C97.918 248.139 99.1143 247.806 100.323 247.436C101.532 247.041 102.666 246.634 103.727 246.215C104.812 245.796 105.725 245.376 106.465 244.957ZM119.748 246.474H122.375V255.613C122.375 255.958 122.387 256.242 122.412 256.464C122.437 256.661 122.486 256.797 122.56 256.871C122.683 256.945 122.881 256.982 123.152 256.982C123.275 256.982 123.436 256.982 123.633 256.982C123.855 256.982 124.052 256.982 124.225 256.982C124.373 256.982 124.521 256.97 124.669 256.945C124.817 256.92 124.928 256.896 125.002 256.871C125.175 256.772 125.31 256.489 125.409 256.02C125.434 255.749 125.458 255.342 125.483 254.799C125.508 254.232 125.532 253.578 125.557 252.838C125.804 253.06 126.124 253.27 126.519 253.467C126.938 253.664 127.333 253.825 127.703 253.948C127.654 254.663 127.592 255.391 127.518 256.131C127.469 256.846 127.395 257.352 127.296 257.648C127.099 258.24 126.729 258.659 126.186 258.906C125.989 259.029 125.717 259.116 125.372 259.165C125.051 259.214 124.743 259.239 124.447 259.239C124.2 259.239 123.867 259.239 123.448 259.239C123.053 259.239 122.757 259.239 122.56 259.239C122.215 259.239 121.845 259.19 121.45 259.091C121.055 258.992 120.735 258.832 120.488 258.61C120.217 258.363 120.019 258.043 119.896 257.648C119.797 257.229 119.748 256.489 119.748 255.428V246.474Z" fill="black"/>
<path d="M562 301V235.387" stroke="black" stroke-width="2" stroke-miterlimit="8"/>
<path d="M567.691 280V253.091H583.826V255.982H570.949V265.074H582.617V267.964H570.949V280H567.691ZM598.026 280.368C596.291 280.368 594.745 280.07 593.388 279.474C592.039 278.879 590.966 278.051 590.169 276.991C589.38 275.922 588.951 274.683 588.881 273.273H592.192C592.262 274.14 592.56 274.889 593.085 275.52C593.611 276.141 594.299 276.623 595.148 276.965C595.998 277.306 596.94 277.477 597.973 277.477C599.129 277.477 600.154 277.276 601.048 276.873C601.941 276.47 602.642 275.909 603.15 275.191C603.658 274.473 603.912 273.641 603.912 272.695C603.912 271.705 603.667 270.833 603.176 270.08C602.686 269.318 601.968 268.722 601.022 268.293C600.076 267.864 598.919 267.649 597.553 267.649H595.398V264.759H597.553C598.621 264.759 599.559 264.566 600.365 264.18C601.179 263.795 601.814 263.252 602.27 262.551C602.734 261.85 602.966 261.027 602.966 260.081C602.966 259.17 602.765 258.377 602.362 257.703C601.959 257.028 601.389 256.503 600.654 256.126C599.927 255.749 599.068 255.561 598.078 255.561C597.15 255.561 596.274 255.732 595.451 256.074C594.636 256.406 593.97 256.893 593.453 257.532C592.937 258.163 592.656 258.925 592.612 259.818H589.459C589.512 258.408 589.936 257.173 590.734 256.113C591.531 255.044 592.573 254.212 593.861 253.616C595.157 253.021 596.58 252.723 598.131 252.723C599.795 252.723 601.223 253.06 602.414 253.735C603.606 254.4 604.521 255.281 605.16 256.376C605.8 257.471 606.12 258.653 606.12 259.923C606.12 261.439 605.721 262.731 604.924 263.799C604.136 264.868 603.062 265.608 601.705 266.02V266.23C603.404 266.51 604.731 267.233 605.686 268.398C606.641 269.554 607.118 270.987 607.118 272.695C607.118 274.157 606.72 275.471 605.922 276.636C605.134 277.793 604.057 278.704 602.69 279.369C601.324 280.035 599.769 280.368 598.026 280.368ZM621.584 280.368C619.85 280.368 618.304 280.07 616.946 279.474C615.597 278.879 614.524 278.051 613.727 276.991C612.939 275.922 612.51 274.683 612.439 273.273H615.751C615.821 274.14 616.118 274.889 616.644 275.52C617.17 276.141 617.857 276.623 618.707 276.965C619.557 277.306 620.498 277.477 621.532 277.477C622.688 277.477 623.713 277.276 624.606 276.873C625.5 276.47 626.201 275.909 626.709 275.191C627.217 274.473 627.471 273.641 627.471 272.695C627.471 271.705 627.225 270.833 626.735 270.08C626.244 269.318 625.526 268.722 624.58 268.293C623.634 267.864 622.478 267.649 621.111 267.649H618.957V264.759H621.111C622.18 264.759 623.117 264.566 623.923 264.18C624.738 263.795 625.373 263.252 625.828 262.551C626.293 261.85 626.525 261.027 626.525 260.081C626.525 259.17 626.323 258.377 625.92 257.703C625.517 257.028 624.948 256.503 624.212 256.126C623.485 255.749 622.627 255.561 621.637 255.561C620.708 255.561 619.832 255.732 619.009 256.074C618.194 256.406 617.529 256.893 617.012 257.532C616.495 258.163 616.215 258.925 616.171 259.818H613.018C613.07 258.408 613.495 257.173 614.292 256.113C615.089 255.044 616.132 254.212 617.419 253.616C618.716 253.021 620.139 252.723 621.689 252.723C623.354 252.723 624.782 253.06 625.973 253.735C627.164 254.4 628.08 255.281 628.719 256.376C629.358 257.471 629.678 258.653 629.678 259.923C629.678 261.439 629.28 262.731 628.482 263.799C627.694 264.868 626.621 265.608 625.263 266.02V266.23C626.963 266.51 628.29 267.233 629.245 268.398C630.199 269.554 630.677 270.987 630.677 272.695C630.677 274.157 630.278 275.471 629.481 276.636C628.693 277.793 627.615 278.704 626.249 279.369C624.882 280.035 623.328 280.368 621.584 280.368Z" fill="black"/>
<path d="M708.027 285.744C708.027 285.399 708.027 284.708 708.027 283.672C708.027 282.611 708.027 281.366 708.027 279.935C708.027 278.48 708.027 276.963 708.027 275.384C708.027 273.781 708.027 272.227 708.027 270.722C708.027 269.217 708.027 267.885 708.027 266.726C708.027 265.567 708.027 264.728 708.027 264.21C708.027 263.692 708.002 263.063 707.953 262.323C707.904 261.583 707.83 260.929 707.731 260.362H711.357C711.308 260.905 711.246 261.546 711.172 262.286C711.123 263.026 711.098 263.667 711.098 264.21C711.098 265.172 711.098 266.331 711.098 267.688C711.098 269.02 711.098 270.451 711.098 271.98C711.098 273.485 711.098 274.989 711.098 276.494C711.123 277.974 711.135 279.368 711.135 280.675C711.135 281.958 711.135 283.055 711.135 283.968C711.135 284.856 711.135 285.448 711.135 285.744C711.135 286.139 711.135 286.595 711.135 287.113C711.16 287.631 711.197 288.161 711.246 288.704C711.295 289.222 711.332 289.691 711.357 290.11H707.768C707.867 289.518 707.928 288.815 707.953 288.001C708.002 287.187 708.027 286.435 708.027 285.744ZM710.469 270.056C711.678 270.426 713.01 270.87 714.465 271.388C715.945 271.881 717.45 272.412 718.979 272.979C720.508 273.546 721.951 274.126 723.308 274.718C724.689 275.285 725.886 275.828 726.897 276.346L725.639 279.491C724.578 278.899 723.382 278.319 722.05 277.752C720.718 277.16 719.349 276.58 717.943 276.013C716.562 275.446 715.217 274.94 713.91 274.496C712.627 274.027 711.48 273.645 710.469 273.349V270.056ZM735.74 275.643C738.947 274.78 741.931 273.731 744.694 272.498C747.457 271.265 749.862 270.007 751.909 268.724C753.192 267.91 754.437 267.034 755.646 266.097C756.879 265.135 758.039 264.136 759.124 263.1C760.209 262.064 761.171 261.04 762.01 260.029L764.489 262.323C763.453 263.433 762.331 264.518 761.122 265.579C759.913 266.64 758.631 267.663 757.274 268.65C755.942 269.612 754.548 270.549 753.093 271.462C751.736 272.276 750.207 273.115 748.505 273.978C746.803 274.841 744.99 275.655 743.066 276.42C741.142 277.185 739.193 277.888 737.22 278.529L735.74 275.643ZM751.317 270.278L754.499 269.316V286.188C754.499 286.657 754.499 287.15 754.499 287.668C754.524 288.186 754.548 288.667 754.573 289.111C754.622 289.555 754.672 289.9 754.721 290.147H751.095C751.12 289.9 751.144 289.555 751.169 289.111C751.218 288.667 751.255 288.186 751.28 287.668C751.305 287.15 751.317 286.657 751.317 286.188V270.278ZM777.772 287.816C777.92 287.52 778.019 287.236 778.068 286.965C778.117 286.694 778.142 286.373 778.142 286.003C778.142 285.633 778.142 284.942 778.142 283.931C778.142 282.92 778.142 281.711 778.142 280.305C778.142 278.899 778.142 277.431 778.142 275.902C778.142 274.348 778.142 272.843 778.142 271.388C778.142 269.908 778.142 268.601 778.142 267.466C778.142 266.307 778.142 265.431 778.142 264.839C778.142 264.518 778.117 264.136 778.068 263.692C778.043 263.248 778.006 262.829 777.957 262.434C777.932 262.039 777.883 261.719 777.809 261.472H781.472C781.398 261.916 781.336 262.459 781.287 263.1C781.238 263.717 781.213 264.296 781.213 264.839C781.213 265.332 781.213 266.048 781.213 266.985C781.213 267.922 781.213 268.995 781.213 270.204C781.213 271.388 781.213 272.646 781.213 273.978C781.213 275.31 781.213 276.617 781.213 277.9C781.213 279.183 781.213 280.379 781.213 281.489C781.213 282.574 781.213 283.499 781.213 284.264C781.213 285.029 781.213 285.547 781.213 285.818C782.989 285.374 784.814 284.745 786.689 283.931C788.588 283.117 790.438 282.167 792.239 281.082C794.064 279.972 795.766 278.763 797.345 277.456C798.948 276.124 800.317 274.706 801.452 273.201L803.117 275.791C800.724 278.776 797.666 281.39 793.941 283.635C790.241 285.88 786.085 287.668 781.472 289C781.275 289.049 781.04 289.123 780.769 289.222C780.498 289.345 780.214 289.493 779.918 289.666L777.772 287.816Z" fill="black"/>
<path d="M473 425H309.371" stroke="black" stroke-width="2" stroke-miterlimit="8"/>
<path d="M332.52 349.655C333.26 349.68 333.889 349.704 334.407 349.729C334.925 349.729 335.394 349.729 335.813 349.729C336.109 349.729 336.652 349.729 337.441 349.729C338.23 349.729 339.18 349.729 340.29 349.729C341.425 349.729 342.633 349.729 343.916 349.729C345.199 349.729 346.469 349.729 347.727 349.729C349.01 349.729 350.206 349.729 351.316 349.729C352.426 349.729 353.363 349.729 354.128 349.729C354.893 349.729 355.411 349.729 355.682 349.729C356.077 349.729 356.57 349.729 357.162 349.729C357.779 349.704 358.371 349.68 358.938 349.655C358.913 350.099 358.889 350.58 358.864 351.098C358.864 351.591 358.864 352.072 358.864 352.541C358.864 352.788 358.864 353.281 358.864 354.021C358.864 354.736 358.864 355.612 358.864 356.648C358.864 357.684 358.864 358.806 358.864 360.015C358.864 361.199 358.864 362.383 358.864 363.567C358.864 364.751 358.864 365.849 358.864 366.86C358.864 367.871 358.864 368.735 358.864 369.45C358.864 370.141 358.864 370.585 358.864 370.782C358.864 371.053 358.864 371.423 358.864 371.892C358.864 372.361 358.864 372.829 358.864 373.298C358.889 373.767 358.901 374.186 358.901 374.556C358.926 374.901 358.938 375.136 358.938 375.259H355.756C355.756 375.111 355.756 374.815 355.756 374.371C355.781 373.902 355.793 373.384 355.793 372.817C355.818 372.225 355.83 371.67 355.83 371.152C355.83 370.979 355.83 370.511 355.83 369.746C355.83 368.981 355.83 368.044 355.83 366.934C355.83 365.799 355.83 364.591 355.83 363.308C355.83 362.001 355.83 360.73 355.83 359.497C355.83 358.239 355.83 357.092 355.83 356.056C355.83 355.02 355.83 354.194 355.83 353.577C355.83 352.96 355.83 352.652 355.83 352.652H335.591C335.591 352.652 335.591 352.96 335.591 353.577C335.591 354.169 335.591 354.983 335.591 356.019C335.591 357.055 335.591 358.202 335.591 359.46C335.591 360.693 335.591 361.951 335.591 363.234C335.591 364.517 335.591 365.725 335.591 366.86C335.591 367.97 335.591 368.907 335.591 369.672C335.591 370.437 335.591 370.93 335.591 371.152C335.591 371.473 335.591 371.843 335.591 372.262C335.591 372.681 335.591 373.101 335.591 373.52C335.616 373.915 335.628 374.272 335.628 374.593C335.653 374.914 335.665 375.136 335.665 375.259H332.483C332.483 375.136 332.483 374.901 332.483 374.556C332.508 374.186 332.52 373.767 332.52 373.298C332.545 372.829 332.557 372.373 332.557 371.929C332.557 371.46 332.557 371.066 332.557 370.745C332.557 370.548 332.557 370.091 332.557 369.376C332.557 368.661 332.557 367.785 332.557 366.749C332.557 365.713 332.557 364.603 332.557 363.419C332.557 362.21 332.557 361.014 332.557 359.83C332.557 358.621 332.557 357.511 332.557 356.5C332.557 355.464 332.557 354.601 332.557 353.91C332.557 353.195 332.557 352.738 332.557 352.541C332.557 352.097 332.557 351.616 332.557 351.098C332.557 350.58 332.545 350.099 332.52 349.655ZM357.014 370.227V373.113H334.148V370.227H357.014ZM391.054 345.992C391.375 346.436 391.72 346.966 392.09 347.583C392.46 348.175 392.818 348.779 393.163 349.396C393.533 350.013 393.841 350.568 394.088 351.061L392.09 351.986C391.72 351.221 391.251 350.358 390.684 349.396C390.117 348.409 389.586 347.558 389.093 346.843L391.054 345.992ZM395.124 344.512C395.445 344.981 395.802 345.523 396.197 346.14C396.592 346.757 396.962 347.373 397.307 347.99C397.677 348.582 397.985 349.1 398.232 349.544L396.234 350.469C395.839 349.655 395.358 348.779 394.791 347.842C394.224 346.88 393.681 346.054 393.163 345.363L395.124 344.512ZM374.441 347.25C374.392 347.669 374.342 348.15 374.293 348.693C374.268 349.211 374.256 349.729 374.256 350.247C374.256 350.568 374.256 351.209 374.256 352.171C374.256 353.108 374.256 354.243 374.256 355.575C374.256 356.882 374.256 358.276 374.256 359.756C374.256 361.211 374.256 362.617 374.256 363.974C374.256 365.331 374.256 366.527 374.256 367.563C374.256 368.574 374.256 369.314 374.256 369.783C374.256 370.72 374.453 371.374 374.848 371.744C375.267 372.089 375.933 372.348 376.846 372.521C377.438 372.62 378.166 372.694 379.029 372.743C379.917 372.792 380.817 372.817 381.73 372.817C382.717 372.817 383.777 372.792 384.912 372.743C386.047 372.694 387.194 372.62 388.353 372.521C389.537 372.422 390.647 372.299 391.683 372.151C392.719 372.003 393.619 371.83 394.384 371.633V375C393.323 375.173 392.041 375.308 390.536 375.407C389.056 375.53 387.527 375.617 385.948 375.666C384.394 375.74 382.939 375.777 381.582 375.777C380.497 375.777 379.424 375.74 378.363 375.666C377.327 375.617 376.427 375.53 375.662 375.407C374.231 375.16 373.134 374.679 372.369 373.964C371.604 373.224 371.222 372.102 371.222 370.597C371.222 369.98 371.222 369.117 371.222 368.007C371.222 366.897 371.222 365.627 371.222 364.196C371.222 362.765 371.222 361.31 371.222 359.83C371.222 358.325 371.222 356.907 371.222 355.575C371.222 354.243 371.222 353.108 371.222 352.171C371.222 351.209 371.222 350.568 371.222 350.247C371.222 349.926 371.21 349.593 371.185 349.248C371.185 348.903 371.16 348.557 371.111 348.212C371.086 347.842 371.049 347.521 371 347.25H374.441ZM372.887 358.905C373.997 358.658 375.218 358.362 376.55 358.017C377.907 357.647 379.276 357.252 380.657 356.833C382.063 356.414 383.42 355.97 384.727 355.501C386.059 355.032 387.255 354.564 388.316 354.095C388.883 353.848 389.438 353.589 389.981 353.318C390.524 353.047 391.054 352.751 391.572 352.43L392.867 355.39C392.349 355.612 391.769 355.859 391.128 356.13C390.511 356.377 389.932 356.611 389.389 356.833C388.23 357.302 386.935 357.783 385.504 358.276C384.098 358.769 382.643 359.25 381.138 359.719C379.633 360.163 378.166 360.582 376.735 360.977C375.329 361.372 374.046 361.705 372.887 361.976V358.905ZM404.892 358.979C405.262 359.004 405.718 359.041 406.261 359.09C406.804 359.115 407.396 359.139 408.037 359.164C408.703 359.164 409.369 359.164 410.035 359.164C410.43 359.164 411.034 359.164 411.848 359.164C412.687 359.164 413.661 359.164 414.771 359.164C415.881 359.164 417.053 359.164 418.286 359.164C419.544 359.164 420.79 359.164 422.023 359.164C423.281 359.164 424.465 359.164 425.575 359.164C426.71 359.164 427.684 359.164 428.498 359.164C429.312 359.164 429.916 359.164 430.311 359.164C431.248 359.164 432.05 359.139 432.716 359.09C433.382 359.041 433.912 359.004 434.307 358.979V362.605C433.937 362.58 433.382 362.543 432.642 362.494C431.927 362.445 431.162 362.42 430.348 362.42C429.953 362.42 429.337 362.42 428.498 362.42C427.659 362.42 426.685 362.42 425.575 362.42C424.49 362.42 423.318 362.42 422.06 362.42C420.802 362.42 419.544 362.42 418.286 362.42C417.053 362.42 415.881 362.42 414.771 362.42C413.686 362.42 412.724 362.42 411.885 362.42C411.046 362.42 410.43 362.42 410.035 362.42C409.024 362.42 408.062 362.445 407.149 362.494C406.236 362.519 405.484 362.556 404.892 362.605V358.979Z" fill="black"/>
</g>
<rect x="830" y="353" width="138" height="173" fill="#FFE661"/>
<path d="M839.778 372.986H855.465V374.903H839.778V372.986ZM839.778 378.872H855.465V380.762H839.778V378.872ZM839.778 384.758H855.465V386.675H839.778V384.758ZM838.401 367.019H857.031V388.052H854.898V368.963H840.453V388.187H838.401V367.019ZM846.285 363.266L848.634 363.59C848.346 364.4 848.031 365.21 847.689 366.02C847.365 366.83 847.05 367.532 846.744 368.126L844.935 367.775C845.115 367.343 845.286 366.866 845.448 366.344C845.628 365.804 845.79 365.273 845.934 364.751C846.096 364.211 846.213 363.716 846.285 363.266ZM847.365 397.67H859.272V399.533H847.365V397.67ZM846.717 397.67H848.607V407.498C848.607 408.542 848.571 409.667 848.499 410.873C848.445 412.079 848.319 413.294 848.121 414.518C847.923 415.742 847.626 416.93 847.23 418.082C846.834 419.216 846.312 420.269 845.664 421.241C845.556 421.115 845.403 420.98 845.205 420.836C845.007 420.692 844.8 420.557 844.584 420.431C844.386 420.305 844.215 420.206 844.071 420.134C844.881 418.928 845.475 417.596 845.853 416.138C846.231 414.68 846.465 413.204 846.555 411.71C846.663 410.216 846.717 408.812 846.717 407.498V397.67ZM856.923 404.555H857.274L857.625 404.501L858.84 404.798C858.426 407.714 857.733 410.243 856.761 412.385C855.807 414.509 854.628 416.291 853.224 417.731C851.838 419.153 850.263 420.287 848.499 421.133C848.427 420.971 848.319 420.782 848.175 420.566C848.049 420.368 847.914 420.17 847.77 419.972C847.626 419.774 847.473 419.612 847.311 419.486C848.931 418.802 850.389 417.803 851.685 416.489C852.999 415.175 854.106 413.555 855.006 411.629C855.906 409.685 856.545 407.444 856.923 404.906V404.555ZM850.443 405.77C850.911 407.948 851.559 409.946 852.387 411.764C853.233 413.582 854.295 415.157 855.573 416.489C856.851 417.821 858.372 418.856 860.136 419.594C860.01 419.72 859.857 419.873 859.677 420.053C859.497 420.251 859.335 420.449 859.191 420.647C859.047 420.845 858.921 421.034 858.813 421.214C856.995 420.332 855.429 419.171 854.115 417.731C852.801 416.291 851.703 414.599 850.821 412.655C849.957 410.711 849.264 408.533 848.742 406.121L850.443 405.77ZM847.824 404.555H857.463V406.364H847.824V404.555ZM837.726 414.923L839.643 415.355C839.301 416.453 838.851 417.524 838.293 418.568C837.735 419.612 837.132 420.494 836.484 421.214C836.376 421.106 836.223 420.971 836.025 420.809C835.827 420.665 835.62 420.521 835.404 420.377C835.206 420.251 835.026 420.143 834.864 420.053C835.512 419.405 836.079 418.631 836.565 417.731C837.069 416.831 837.456 415.895 837.726 414.923ZM841.209 415.598L842.829 414.896C843.207 415.436 843.585 416.021 843.963 416.651C844.359 417.281 844.656 417.83 844.854 418.298L843.18 419.162C843 418.676 842.721 418.1 842.343 417.434C841.965 416.768 841.587 416.156 841.209 415.598ZM838.131 404.096V407.552H842.559V404.096H838.131ZM838.131 409.145V412.655H842.559V409.145H838.131ZM838.131 399.047V402.503H842.559V399.047H838.131ZM836.295 397.373H844.476V414.329H836.295V397.373ZM843.423 443.117H859.812V444.791H843.423V443.117ZM845.556 447.383L846.636 446.168C847.104 446.42 847.599 446.717 848.121 447.059C848.643 447.401 849.129 447.743 849.579 448.085C850.047 448.427 850.434 448.733 850.74 449.003L849.606 450.407C849.318 450.119 848.94 449.795 848.472 449.435C848.022 449.075 847.536 448.715 847.014 448.355C846.51 447.995 846.024 447.671 845.556 447.383ZM854.304 441.551L855.276 440.579C855.78 440.849 856.302 441.164 856.842 441.524C857.4 441.884 857.832 442.217 858.138 442.523L857.112 443.576C856.806 443.27 856.383 442.928 855.843 442.55C855.303 442.172 854.79 441.839 854.304 441.551ZM845.394 443.9H847.257C847.149 445.286 846.96 446.618 846.69 447.896C846.438 449.174 846.033 450.344 845.475 451.406C844.917 452.45 844.125 453.35 843.099 454.106C842.973 453.89 842.784 453.647 842.532 453.377C842.298 453.125 842.073 452.918 841.857 452.756C842.775 452.126 843.468 451.343 843.936 450.407C844.422 449.471 844.773 448.445 844.989 447.329C845.205 446.213 845.34 445.07 845.394 443.9ZM850.254 429.347H852.063C852.045 432.029 852.108 434.549 852.252 436.907C852.396 439.247 852.612 441.371 852.9 443.279C853.188 445.169 853.557 446.807 854.007 448.193C854.475 449.561 855.006 450.614 855.6 451.352C856.194 452.072 856.851 452.432 857.571 452.432C857.967 452.432 858.246 452.225 858.408 451.811C858.57 451.397 858.687 450.578 858.759 449.354C858.957 449.552 859.191 449.732 859.461 449.894C859.731 450.056 859.974 450.182 860.19 450.272C860.082 451.28 859.929 452.063 859.731 452.621C859.533 453.197 859.254 453.602 858.894 453.836C858.534 454.088 858.048 454.214 857.436 454.214C856.356 454.214 855.411 453.791 854.601 452.945C853.809 452.117 853.134 450.947 852.576 449.435C852.036 447.905 851.595 446.105 851.253 444.035C850.911 441.965 850.659 439.688 850.497 437.204C850.353 434.702 850.272 432.083 850.254 429.347ZM856.302 445.196L858.057 445.844C857.175 447.716 855.933 449.354 854.331 450.758C852.729 452.144 850.884 453.269 848.796 454.133C848.67 453.953 848.499 453.737 848.283 453.485C848.067 453.233 847.869 453.017 847.689 452.837C849.705 452.045 851.46 450.992 852.954 449.678C854.448 448.364 855.564 446.87 856.302 445.196ZM852.198 434.018L853.035 432.911C853.629 433.325 854.223 433.811 854.817 434.369C855.429 434.909 855.897 435.404 856.221 435.854L855.33 437.123C855.024 436.673 854.574 436.16 853.98 435.584C853.386 434.99 852.792 434.468 852.198 434.018ZM857.247 437.312L858.489 436.799C858.885 437.429 859.236 438.113 859.542 438.851C859.866 439.571 860.082 440.192 860.19 440.714L858.867 441.335C858.741 440.795 858.525 440.147 858.219 439.391C857.931 438.617 857.607 437.924 857.247 437.312ZM852.549 439.175C853.395 439.139 854.358 439.085 855.438 439.013C856.518 438.941 857.652 438.869 858.84 438.797L858.867 440.174C857.787 440.282 856.743 440.39 855.735 440.498C854.727 440.588 853.764 440.678 852.846 440.768L852.549 439.175ZM855.33 429.59L856.923 430.211C856.527 430.949 856.113 431.723 855.681 432.533C855.249 433.325 854.844 434 854.466 434.558L853.332 434.018C853.566 433.622 853.8 433.163 854.034 432.641C854.286 432.119 854.529 431.588 854.763 431.048C854.997 430.508 855.186 430.022 855.33 429.59ZM857.571 432.29L859.056 432.992C858.606 433.766 858.111 434.585 857.571 435.449C857.031 436.295 856.491 437.123 855.951 437.933C855.411 438.725 854.889 439.427 854.385 440.039L853.251 439.391C853.737 438.779 854.241 438.059 854.763 437.231C855.303 436.385 855.816 435.53 856.302 434.666C856.806 433.802 857.229 433.01 857.571 432.29ZM843.072 434.018L843.909 432.911C844.503 433.325 845.097 433.811 845.691 434.369C846.303 434.909 846.762 435.404 847.068 435.854L846.204 437.123C845.898 436.673 845.439 436.16 844.827 435.584C844.233 434.99 843.648 434.468 843.072 434.018ZM847.743 437.474L848.985 437.015C849.345 437.627 849.669 438.302 849.957 439.04C850.245 439.778 850.434 440.408 850.524 440.93L849.174 441.497C849.102 440.957 848.931 440.309 848.661 439.553C848.391 438.797 848.085 438.104 847.743 437.474ZM843.153 439.499C843.999 439.445 844.962 439.382 846.042 439.31C847.14 439.22 848.283 439.139 849.471 439.067L849.498 440.498C848.418 440.624 847.365 440.732 846.339 440.822C845.313 440.912 844.35 441.002 843.45 441.092L843.153 439.499ZM846.204 429.59L847.77 430.211C847.374 430.949 846.96 431.732 846.528 432.56C846.096 433.37 845.7 434.054 845.34 434.612L844.179 434.072C844.413 433.658 844.656 433.19 844.908 432.668C845.16 432.146 845.403 431.615 845.637 431.075C845.871 430.517 846.06 430.022 846.204 429.59ZM848.445 432.29L849.903 432.992C849.435 433.784 848.922 434.63 848.364 435.53C847.824 436.412 847.266 437.267 846.69 438.095C846.132 438.923 845.592 439.652 845.07 440.282L843.936 439.661C844.44 439.013 844.971 438.257 845.529 437.393C846.087 436.529 846.618 435.647 847.122 434.747C847.644 433.847 848.085 433.028 848.445 432.29ZM835.404 435.179H843.585V437.069H835.404V435.179ZM838.806 429.32H840.642V454.133H838.806V429.32ZM838.752 436.313L839.94 436.691C839.76 437.735 839.526 438.842 839.238 440.012C838.95 441.164 838.626 442.298 838.266 443.414C837.906 444.53 837.519 445.565 837.105 446.519C836.709 447.473 836.286 448.292 835.836 448.976C835.728 448.724 835.566 448.436 835.35 448.112C835.152 447.788 834.981 447.509 834.837 447.275C835.251 446.663 835.647 445.934 836.025 445.088C836.421 444.242 836.79 443.324 837.132 442.334C837.492 441.344 837.807 440.336 838.077 439.31C838.365 438.266 838.59 437.267 838.752 436.313ZM840.534 438.095C840.678 438.275 840.885 438.59 841.155 439.04C841.443 439.472 841.758 439.958 842.1 440.498C842.442 441.02 842.748 441.515 843.018 441.983C843.306 442.433 843.504 442.757 843.612 442.955L842.559 444.44C842.433 444.116 842.244 443.693 841.992 443.171C841.74 442.649 841.461 442.109 841.155 441.551C840.867 440.975 840.588 440.453 840.318 439.985C840.048 439.499 839.841 439.121 839.697 438.851L840.534 438.095Z" fill="black"/>
<path d="M904.392 367.16C904.819 367.224 905.277 367.267 905.768 367.288C906.259 367.309 906.76 367.32 907.272 367.32C907.592 367.32 908.168 367.32 909 367.32C909.853 367.32 910.813 367.32 911.88 367.32C912.968 367.32 914.045 367.32 915.112 367.32C916.2 367.32 917.171 367.32 918.024 367.32C918.877 367.32 919.485 367.32 919.848 367.32C920.36 367.32 920.872 367.309 921.384 367.288C921.896 367.267 922.355 367.224 922.76 367.16V369.816C922.376 369.773 921.917 369.752 921.384 369.752C920.872 369.731 920.349 369.72 919.816 369.72C919.453 369.72 918.845 369.72 917.992 369.72C917.16 369.72 916.211 369.72 915.144 369.72C914.077 369.72 913 369.72 911.912 369.72C910.845 369.72 909.885 369.72 909.032 369.72C908.2 369.72 907.613 369.72 907.272 369.72C906.781 369.72 906.291 369.731 905.8 369.752C905.309 369.773 904.84 369.795 904.392 369.816V367.16ZM925.096 375.608C925.032 375.736 924.947 375.896 924.84 376.088C924.755 376.259 924.701 376.408 924.68 376.536C924.253 378.115 923.667 379.704 922.92 381.304C922.173 382.883 921.203 384.323 920.008 385.624C918.323 387.459 916.499 388.888 914.536 389.912C912.595 390.936 910.6 391.736 908.552 392.312L906.568 390.04C908.829 389.571 910.931 388.835 912.872 387.832C914.813 386.829 916.467 385.613 917.832 384.184C918.813 383.16 919.613 382.019 920.232 380.76C920.872 379.48 921.341 378.264 921.64 377.112C921.405 377.112 920.957 377.112 920.296 377.112C919.656 377.112 918.867 377.112 917.928 377.112C916.989 377.112 915.976 377.112 914.888 377.112C913.821 377.112 912.733 377.112 911.624 377.112C910.536 377.112 909.512 377.112 908.552 377.112C907.613 377.112 906.792 377.112 906.088 377.112C905.405 377.112 904.925 377.112 904.648 377.112C904.264 377.112 903.795 377.123 903.24 377.144C902.685 377.144 902.109 377.165 901.512 377.208V374.52C902.109 374.584 902.675 374.637 903.208 374.68C903.741 374.701 904.221 374.712 904.648 374.712C904.883 374.712 905.331 374.712 905.992 374.712C906.653 374.712 907.453 374.712 908.392 374.712C909.331 374.712 910.344 374.712 911.432 374.712C912.52 374.712 913.608 374.712 914.696 374.712C915.784 374.712 916.797 374.712 917.736 374.712C918.675 374.712 919.475 374.712 920.136 374.712C920.819 374.712 921.277 374.712 921.512 374.712C921.875 374.712 922.216 374.691 922.536 374.648C922.856 374.605 923.101 374.541 923.272 374.456L925.096 375.608ZM914.312 404.368C914.248 404.859 914.195 405.296 914.152 405.68C914.131 406.064 914.12 406.427 914.12 406.768C914.12 407.024 914.12 407.419 914.12 407.952C914.12 408.485 914.12 409.04 914.12 409.616C914.12 410.192 914.12 410.672 914.12 411.056H911.4C911.4 410.629 911.4 410.128 911.4 409.552C911.4 408.976 911.4 408.432 911.4 407.92C911.4 407.408 911.4 407.024 911.4 406.768C911.4 406.427 911.389 406.064 911.368 405.68C911.368 405.296 911.325 404.859 911.24 404.368H914.312ZM925.224 410.576C925.139 410.811 925.053 411.12 924.968 411.504C924.883 411.867 924.808 412.197 924.744 412.496C924.659 413.136 924.52 413.851 924.328 414.64C924.157 415.429 923.944 416.261 923.688 417.136C923.432 417.989 923.133 418.843 922.792 419.696C922.451 420.528 922.056 421.339 921.608 422.128C920.819 423.515 919.805 424.795 918.568 425.968C917.331 427.141 915.901 428.165 914.28 429.04C912.68 429.915 910.899 430.629 908.936 431.184L906.856 428.784C907.389 428.699 907.944 428.581 908.52 428.432C909.117 428.261 909.672 428.08 910.184 427.888C911.251 427.547 912.328 427.067 913.416 426.448C914.504 425.808 915.517 425.072 916.456 424.24C917.416 423.387 918.216 422.459 918.856 421.456C919.432 420.539 919.923 419.536 920.328 418.448C920.755 417.36 921.096 416.261 921.352 415.152C921.608 414.043 921.789 413.029 921.896 412.112H904.008C904.008 412.453 904.008 412.891 904.008 413.424C904.008 413.957 904.008 414.523 904.008 415.12C904.008 415.696 904.008 416.24 904.008 416.752C904.008 417.243 904.008 417.605 904.008 417.84C904.008 418.139 904.019 418.469 904.04 418.832C904.061 419.195 904.093 419.504 904.136 419.76H901.352C901.395 419.461 901.416 419.12 901.416 418.736C901.437 418.352 901.448 418.011 901.448 417.712C901.448 417.456 901.448 417.072 901.448 416.56C901.448 416.048 901.448 415.504 901.448 414.928C901.448 414.331 901.448 413.776 901.448 413.264C901.448 412.752 901.448 412.357 901.448 412.08C901.448 411.739 901.437 411.333 901.416 410.864C901.416 410.395 901.395 409.979 901.352 409.616C901.821 409.659 902.291 409.691 902.76 409.712C903.251 409.733 903.773 409.744 904.328 409.744H921.288C921.885 409.744 922.344 409.723 922.664 409.68C923.005 409.616 923.283 409.552 923.496 409.488L925.224 410.576ZM904.264 445.544C904.84 445.928 905.501 446.408 906.248 446.984C906.995 447.539 907.752 448.136 908.52 448.776C909.309 449.395 910.045 450.003 910.728 450.6C911.411 451.197 911.976 451.72 912.424 452.168L910.408 454.184C910.003 453.779 909.48 453.277 908.84 452.68C908.2 452.083 907.496 451.464 906.728 450.824C905.96 450.163 905.203 449.544 904.456 448.968C903.709 448.371 903.037 447.88 902.44 447.496L904.264 445.544ZM901.512 466.984C903.389 466.707 905.096 466.323 906.632 465.832C908.189 465.341 909.608 464.787 910.888 464.168C912.168 463.549 913.309 462.931 914.312 462.312C915.955 461.288 917.469 460.115 918.856 458.792C920.243 457.448 921.459 456.061 922.504 454.632C923.549 453.203 924.381 451.837 925 450.536L926.536 453.256C925.811 454.579 924.915 455.923 923.848 457.288C922.781 458.653 921.576 459.965 920.232 461.224C918.888 462.483 917.405 463.624 915.784 464.648C914.717 465.309 913.544 465.96 912.264 466.6C911.005 467.24 909.619 467.827 908.104 468.36C906.611 468.872 904.979 469.288 903.208 469.608L901.512 466.984ZM919.912 484.128C920.189 484.491 920.509 484.971 920.872 485.568C921.256 486.165 921.629 486.773 921.992 487.392C922.355 488.011 922.653 488.576 922.888 489.088L921.064 489.92C920.808 489.365 920.52 488.8 920.2 488.224C919.88 487.627 919.549 487.04 919.208 486.464C918.867 485.888 918.515 485.355 918.152 484.864L919.912 484.128ZM924.104 482.592C924.403 482.955 924.733 483.424 925.096 484C925.459 484.576 925.832 485.173 926.216 485.792C926.6 486.411 926.92 486.976 927.176 487.488L925.352 488.32C925.075 487.744 924.765 487.168 924.424 486.592C924.083 486.016 923.731 485.451 923.368 484.896C923.027 484.341 922.675 483.829 922.312 483.36L924.104 482.592ZM906.248 483.648C906.717 483.904 907.272 484.245 907.912 484.672C908.552 485.077 909.213 485.504 909.896 485.952C910.579 486.379 911.208 486.795 911.784 487.2C912.381 487.584 912.851 487.904 913.192 488.16L911.688 490.368C911.304 490.069 910.813 489.717 910.216 489.312C909.64 488.907 909.021 488.491 908.36 488.064C907.72 487.616 907.08 487.2 906.44 486.816C905.821 486.411 905.277 486.069 904.808 485.792L906.248 483.648ZM901.448 506.528C902.621 506.315 903.827 506.037 905.064 505.696C906.301 505.355 907.528 504.939 908.744 504.448C909.96 503.957 911.101 503.413 912.168 502.816C913.939 501.792 915.581 500.661 917.096 499.424C918.611 498.165 919.976 496.832 921.192 495.424C922.408 494.016 923.443 492.565 924.296 491.072L925.832 493.728C924.445 495.861 922.685 497.931 920.552 499.936C918.419 501.92 916.072 503.659 913.512 505.152C912.445 505.771 911.272 506.347 909.992 506.88C908.733 507.392 907.485 507.84 906.248 508.224C905.032 508.629 903.923 508.928 902.92 509.12L901.448 506.528ZM901.416 490.848C901.885 491.104 902.451 491.424 903.112 491.808C903.773 492.192 904.445 492.597 905.128 493.024C905.811 493.451 906.44 493.856 907.016 494.24C907.613 494.603 908.083 494.912 908.424 495.168L906.984 497.408C906.579 497.109 906.077 496.768 905.48 496.384C904.904 496 904.285 495.595 903.624 495.168C902.963 494.741 902.312 494.347 901.672 493.984C901.032 493.6 900.467 493.28 899.976 493.024L901.416 490.848Z" fill="black"/>
</g>
<defs>
<clipPath id="clip0_14_216">
<rect width="1280" height="720" fill="white" transform="matrix(-1 0 0 -1 1280 720)"/>
</clipPath>
</defs>
</svg>
