<svg width="1280" height="720" xmlns="http://www.w3.org/2000/svg" xmlns:xlink="http://www.w3.org/1999/xlink" overflow="hidden"><defs><clipPath id="clip0"><rect x="0" y="0" width="1280" height="720"/></clipPath></defs><g clip-path="url(#clip0)"><rect x="0" y="0" width="1280" height="720" fill="#FFFFFF"/><rect x="29" y="193" width="141" height="215" stroke="#000000" stroke-width="2" stroke-miterlimit="8" fill="#FFFFFF"/><text font-family="Yu Gothic,Yu Gothic_MSFontService,sans-serif" font-weight="400" font-size="37" transform="translate(67.1887 312)">F41</text><rect x="170" y="194" width="141" height="172" stroke="#000000" stroke-width="2" stroke-miterlimit="8" fill="#FFFFFF"/><text font-family="Yu Gothic,Yu Gothic_MSFontService,sans-serif" font-weight="400" font-size="37" transform="translate(208.092 291)">F42</text><rect x="451" y="296" width="140" height="70" stroke="#000000" stroke-width="2" stroke-miterlimit="8" fill="#FFFFFF"/><text font-family="Yu Gothic,Yu Gothic_MSFontService,sans-serif" font-weight="400" font-size="37" transform="translate(483.701 343)">階段</text><rect x="591" y="296" width="216" height="70" stroke="#000000" stroke-width="2" stroke-miterlimit="8" fill="#FFFFFF"/><text font-family="Yu Gothic,Yu Gothic_MSFontService,sans-serif" font-weight="400" font-size="37" transform="translate(605.757 343)">エレベータ</text><path d="M170 408 309.87 408" stroke="#000000" stroke-width="2" stroke-miterlimit="8" fill="none" fill-rule="evenodd"/><path d="M308 451 806.696 491.195" stroke="#000000" stroke-width="2" stroke-miterlimit="8" fill="none" fill-rule="evenodd"/><path d="M310 408 310 449.548" stroke="#000000" stroke-width="2" stroke-miterlimit="8" fill="none" fill-rule="evenodd"/><path d="M0 0 0.000104987 44.139" stroke="#000000" stroke-width="2" stroke-miterlimit="8" fill="none" fill-rule="evenodd" transform="matrix(1 0 0 -1 415 461.139)"/><path d="M415 418 634.743 418" stroke="#000000" stroke-width="2" stroke-miterlimit="8" fill="none" fill-rule="evenodd"/><path d="M311 193 731.128 193" stroke="#000000" stroke-width="2" stroke-miterlimit="8" fill="none" fill-rule="evenodd"/><rect x="1084" y="194" width="157" height="235" stroke="#000000" stroke-width="2" stroke-miterlimit="8" fill="#FFFFFF"/><text font-family="Yu Gothic,Yu Gothic_MSFontService,sans-serif" font-weight="400" font-size="37" transform="translate(1130.34 323)">F46</text><path d="M731 193 950.743 193" stroke="#000000" stroke-width="2" stroke-miterlimit="8" fill="none" fill-rule="evenodd"/><path d="M804 491 1172.66 491" stroke="#000000" stroke-width="2" stroke-miterlimit="8" fill="none" fill-rule="evenodd"/><path d="M0 0 0.000104987 124.079" stroke="#000000" stroke-width="2" stroke-miterlimit="8" fill="none" fill-rule="evenodd" transform="matrix(1 0 0 -1 1241 494.079)"/><path d="M451 193 451 303.064" stroke="#000000" stroke-width="2" stroke-miterlimit="8" fill="none" fill-rule="evenodd"/><path d="M635 419 635 476.57" stroke="#000000" stroke-width="2" stroke-miterlimit="8" fill="none" fill-rule="evenodd"/><rect x="1138" y="428" width="102" height="64" stroke="#000000" stroke-width="2" stroke-miterlimit="8" fill="#FFFFFF"/><text font-family="Yu Gothic,Yu Gothic_MSFontService,sans-serif" font-weight="400" font-size="37" transform="translate(1151.85 471)">階段<tspan font-size="37" x="-677.292" y="-12">トイレ</tspan></text><rect x="951" y="193" width="133" height="235" stroke="#000000" stroke-width="2" stroke-miterlimit="8" fill="#FFFFFF"/><text font-family="Yu Gothic,Yu Gothic_MSFontService,sans-serif" font-weight="400" font-size="37" transform="translate(985.701 322)">F45</text><rect x="808" y="296" width="144" height="132" stroke="#000000" stroke-width="2" stroke-miterlimit="8" fill="#FFFFFF"/><text font-family="Yu Gothic,Yu Gothic_MSFontService,sans-serif" font-weight="400" font-size="37" transform="translate(847.503 374)">F44</text><rect x="308" y="193" width="143" height="173" stroke="#000000" stroke-width="2" stroke-miterlimit="8" fill="#FFFFFF"/><text font-family="Yu Gothic,Yu Gothic_MSFontService,sans-serif" font-weight="400" font-size="37" transform="translate(347.442 291)">F43</text></g></svg>