<svg width="1280" height="720" viewBox="0 0 1280 720" fill="none" xmlns="http://www.w3.org/2000/svg">
<g clip-path="url(#clip0_14_142)">
<mask id="mask0_14_142" style="mask-type:luminance" maskUnits="userSpaceOnUse" x="0" y="0" width="1280" height="720">
<path d="M0 720H1280V0H0V720Z" fill="white"/>
</mask>
<g mask="url(#mask0_14_142)">
<path d="M0 720H1280V0H0V720Z" fill="white"/>
<path d="M1110 527H1251V312H1110V527Z" fill="white" stroke="black" stroke-width="2" stroke-miterlimit="8"/>
<path d="M1153.45 436V409.091H1169.58V411.982H1156.71V421.074H1168.37V423.964H1156.71V436H1153.45ZM1174.06 430.482V427.801L1185.88 409.091H1187.83V413.243H1186.52L1177.58 427.381V427.591H1193.51V430.482H1174.06ZM1186.73 436V429.667V428.419V409.091H1189.83V436H1186.73ZM1207.53 409.091V436H1204.27V412.507H1204.11L1197.54 416.869V413.558L1204.27 409.091H1207.53Z" fill="black"/>
<path d="M969 526H1110V354H969V526Z" fill="#FFE661" stroke="black" stroke-width="2" stroke-miterlimit="8"/>
<path d="M1007.35 458V431.091H1023.49V433.981H1010.61V443.074H1022.28V445.964H1010.61V458H1007.35ZM1027.96 452.481V449.801L1039.79 431.091H1041.73V435.243H1040.42L1031.48 449.38V449.591H1047.41V452.481H1027.96ZM1040.63 458V451.667V450.418V431.091H1043.73V458H1040.63ZM1052.33 458V455.635L1061.21 445.912C1062.26 444.773 1063.12 443.783 1063.79 442.942C1064.46 442.093 1064.96 441.295 1065.29 440.551C1065.62 439.798 1065.79 439.009 1065.79 438.186C1065.79 437.24 1065.56 436.421 1065.1 435.729C1064.66 435.037 1064.04 434.502 1063.26 434.126C1062.48 433.749 1061.61 433.561 1060.64 433.561C1059.6 433.561 1058.7 433.775 1057.93 434.205C1057.17 434.625 1056.58 435.216 1056.16 435.978C1055.74 436.741 1055.54 437.634 1055.54 438.659H1052.44C1052.44 437.082 1052.8 435.698 1053.53 434.507C1054.26 433.316 1055.24 432.387 1056.5 431.721C1057.76 431.056 1059.17 430.723 1060.74 430.723C1062.32 430.723 1063.72 431.056 1064.93 431.721C1066.15 432.387 1067.11 433.285 1067.8 434.415C1068.49 435.545 1068.84 436.802 1068.84 438.186C1068.84 439.176 1068.66 440.144 1068.3 441.09C1067.95 442.027 1067.33 443.074 1066.46 444.23C1065.59 445.377 1064.39 446.779 1062.84 448.434L1056.8 454.899V455.109H1069.31V458H1052.33Z" fill="black"/>
<path d="M689 424H829V354H689V424Z" fill="white" stroke="black" stroke-width="2" stroke-miterlimit="8"/>
<path d="M738.944 378.878H745.974V381.135H738.944V378.878ZM739.721 398.192H754.558V400.449H739.721V398.192ZM739.647 404.149H755.002V406.517H739.647V404.149ZM737.686 374.364H740.202V388.054H737.686V374.364ZM735.281 387.647C736.687 387.376 738.364 387.018 740.313 386.574C742.286 386.13 744.284 385.674 746.307 385.205L746.529 387.351C744.704 387.82 742.866 388.288 741.016 388.757C739.191 389.226 737.526 389.645 736.021 390.015L735.281 387.647ZM747.565 374.364H750.118V385.945C750.118 386.414 750.18 386.722 750.303 386.87C750.451 386.993 750.784 387.055 751.302 387.055C751.45 387.055 751.684 387.055 752.005 387.055C752.326 387.055 752.683 387.055 753.078 387.055C753.473 387.055 753.83 387.055 754.151 387.055C754.496 387.055 754.755 387.055 754.928 387.055C755.249 387.055 755.483 386.981 755.631 386.833C755.779 386.66 755.878 386.315 755.927 385.797C756.001 385.279 756.05 384.527 756.075 383.54C756.371 383.762 756.741 383.972 757.185 384.169C757.629 384.342 758.036 384.465 758.406 384.539C758.332 385.822 758.184 386.821 757.962 387.536C757.74 388.251 757.407 388.745 756.963 389.016C756.544 389.287 755.952 389.423 755.187 389.423C755.064 389.423 754.805 389.423 754.41 389.423C754.015 389.423 753.571 389.423 753.078 389.423C752.609 389.423 752.178 389.423 751.783 389.423C751.413 389.423 751.154 389.423 751.006 389.423C750.093 389.423 749.378 389.324 748.86 389.127C748.367 388.93 748.021 388.584 747.824 388.091C747.651 387.573 747.565 386.858 747.565 385.945V374.364ZM755.668 376.695L757.629 378.545C756.494 379.26 755.175 379.951 753.67 380.617C752.19 381.258 750.759 381.838 749.378 382.356C749.329 382.085 749.218 381.776 749.045 381.431C748.872 381.086 748.712 380.777 748.564 380.506C749.427 380.136 750.303 379.741 751.191 379.322C752.079 378.903 752.905 378.471 753.67 378.027C754.459 377.558 755.125 377.114 755.668 376.695ZM745.049 388.609L747.861 389.201C747.54 390.04 747.207 390.878 746.862 391.717C746.541 392.556 746.233 393.283 745.937 393.9L743.532 393.308C743.803 392.667 744.087 391.902 744.383 391.014C744.704 390.101 744.926 389.3 745.049 388.609ZM738.352 392.346H756.334V407.738H753.633V394.714H740.942V407.886H738.352V392.346ZM725.772 375.511H734.06V378.027H728.251V407.96H725.772V375.511ZM733.209 375.511H733.69L734.097 375.363L735.91 376.473C735.589 377.484 735.232 378.557 734.837 379.692C734.467 380.802 734.072 381.924 733.653 383.059C733.258 384.194 732.864 385.267 732.469 386.278C733.727 387.807 734.553 389.238 734.948 390.57C735.343 391.902 735.54 393.135 735.54 394.27C735.565 395.232 735.466 396.095 735.244 396.86C735.022 397.6 734.652 398.155 734.134 398.525C733.912 398.698 733.641 398.833 733.32 398.932C733.024 399.031 732.691 399.117 732.321 399.191C731.976 399.216 731.593 399.24 731.174 399.265C730.779 399.265 730.385 399.253 729.99 399.228C729.965 398.883 729.891 398.488 729.768 398.044C729.669 397.575 729.521 397.156 729.324 396.786C729.719 396.811 730.076 396.835 730.397 396.86C730.718 396.86 731.001 396.848 731.248 396.823C731.741 396.823 732.124 396.724 732.395 396.527C732.642 396.33 732.814 395.997 732.913 395.528C733.036 395.035 733.098 394.517 733.098 393.974C733.073 392.963 732.864 391.84 732.469 390.607C732.074 389.374 731.26 388.029 730.027 386.574C730.323 385.735 730.619 384.847 730.915 383.91C731.236 382.973 731.532 382.035 731.803 381.098C732.099 380.161 732.358 379.285 732.58 378.471C732.827 377.632 733.036 376.892 733.209 376.251V375.511ZM777.054 390.348H791.336V392.864H777.054V390.348ZM765.288 383.54H775.167V386.13H765.288V383.54ZM765.288 390.644H775.5V393.234H765.288V390.644ZM780.458 375.474H789.116V377.916H780.458V375.474ZM790.781 390.348H791.299L791.817 390.237L793.593 390.94C792.68 394.097 791.336 396.811 789.56 399.08C787.809 401.325 785.749 403.175 783.381 404.63C781.013 406.085 778.46 407.22 775.722 408.034C775.623 407.787 775.488 407.504 775.315 407.183C775.142 406.887 774.957 406.591 774.76 406.295C774.563 406.024 774.378 405.789 774.205 405.592C776.721 404.951 779.089 403.976 781.309 402.669C783.554 401.362 785.502 399.721 787.155 397.748C788.808 395.775 790.016 393.468 790.781 390.829V390.348ZM781.013 392.716C782.197 395.873 784.022 398.562 786.489 400.782C788.98 402.977 791.99 404.544 795.517 405.481C795.32 405.678 795.098 405.913 794.851 406.184C794.629 406.48 794.419 406.776 794.222 407.072C794.025 407.393 793.852 407.676 793.704 407.923C790.029 406.788 786.921 404.988 784.38 402.521C781.864 400.03 779.928 396.996 778.571 393.419L781.013 392.716ZM763.993 376.732L766.657 377.583V407.923H763.993V376.732ZM760.959 399.783C762.242 399.586 763.722 399.351 765.399 399.08C767.101 398.809 768.902 398.513 770.801 398.192C772.7 397.871 774.587 397.551 776.462 397.23L776.573 399.783C774.797 400.104 772.996 400.437 771.171 400.782C769.346 401.103 767.607 401.411 765.954 401.707C764.301 402.003 762.797 402.274 761.44 402.521L760.959 399.783ZM779.163 375.474H781.753V380.802C781.753 381.789 781.642 382.837 781.42 383.947C781.198 385.057 780.766 386.118 780.125 387.129C779.484 388.14 778.534 389.041 777.276 389.83C777.153 389.633 776.98 389.411 776.758 389.164C776.536 388.917 776.289 388.683 776.018 388.461C775.771 388.214 775.549 388.042 775.352 387.943C776.487 387.252 777.325 386.512 777.868 385.723C778.411 384.909 778.756 384.083 778.904 383.244C779.077 382.381 779.163 381.542 779.163 380.728V375.474ZM774.316 373.957L776.684 375.918C775.673 376.411 774.538 376.88 773.28 377.324C772.022 377.768 770.727 378.175 769.395 378.545C768.063 378.915 766.768 379.248 765.51 379.544C765.436 379.248 765.3 378.89 765.103 378.471C764.93 378.052 764.758 377.706 764.585 377.435C765.769 377.139 766.965 376.806 768.174 376.436C769.383 376.041 770.517 375.634 771.578 375.215C772.663 374.796 773.576 374.376 774.316 373.957ZM787.599 375.474H790.226V384.613C790.226 384.958 790.238 385.242 790.263 385.464C790.288 385.661 790.337 385.797 790.411 385.871C790.534 385.945 790.732 385.982 791.003 385.982C791.126 385.982 791.287 385.982 791.484 385.982C791.706 385.982 791.903 385.982 792.076 385.982C792.224 385.982 792.372 385.97 792.52 385.945C792.668 385.92 792.779 385.896 792.853 385.871C793.026 385.772 793.161 385.489 793.26 385.02C793.285 384.749 793.309 384.342 793.334 383.799C793.359 383.232 793.383 382.578 793.408 381.838C793.655 382.06 793.975 382.27 794.37 382.467C794.789 382.664 795.184 382.825 795.554 382.948C795.505 383.663 795.443 384.391 795.369 385.131C795.32 385.846 795.246 386.352 795.147 386.648C794.95 387.24 794.58 387.659 794.037 387.906C793.84 388.029 793.568 388.116 793.223 388.165C792.902 388.214 792.594 388.239 792.298 388.239C792.051 388.239 791.718 388.239 791.299 388.239C790.904 388.239 790.608 388.239 790.411 388.239C790.066 388.239 789.696 388.19 789.301 388.091C788.906 387.992 788.586 387.832 788.339 387.61C788.068 387.363 787.87 387.043 787.747 386.648C787.648 386.229 787.599 385.489 787.599 384.428V375.474Z" fill="black"/>
<path d="M473 424H689V354H473V424Z" fill="white" stroke="black" stroke-width="2" stroke-miterlimit="8"/>
<path d="M496.122 380.247C496.615 380.321 497.158 380.383 497.75 380.432C498.367 380.457 498.86 380.469 499.23 380.469H519.58C520.147 380.469 520.702 380.444 521.245 380.395C521.788 380.346 522.281 380.296 522.725 380.247V383.503C522.256 383.454 521.738 383.417 521.171 383.392C520.628 383.367 520.098 383.355 519.58 383.355H499.23C498.885 383.355 498.391 383.367 497.75 383.392C497.133 383.417 496.591 383.454 496.122 383.503V380.247ZM507.555 401.966V382.097H510.7V401.966H507.555ZM493.865 400.153C494.408 400.227 494.95 400.289 495.493 400.338C496.06 400.363 496.603 400.375 497.121 400.375H521.578C522.145 400.375 522.676 400.35 523.169 400.301C523.687 400.252 524.18 400.202 524.649 400.153V403.52C524.156 403.471 523.613 403.434 523.021 403.409C522.429 403.384 521.948 403.372 521.578 403.372H497.121C496.628 403.372 496.097 403.384 495.53 403.409C494.987 403.434 494.432 403.471 493.865 403.52V400.153ZM535.971 403.816C536.119 403.52 536.218 403.236 536.267 402.965C536.316 402.694 536.341 402.373 536.341 402.003C536.341 401.633 536.341 400.942 536.341 399.931C536.341 398.92 536.341 397.711 536.341 396.305C536.341 394.899 536.341 393.431 536.341 391.902C536.341 390.348 536.341 388.843 536.341 387.388C536.341 385.908 536.341 384.601 536.341 383.466C536.341 382.307 536.341 381.431 536.341 380.839C536.341 380.518 536.316 380.136 536.267 379.692C536.242 379.248 536.205 378.829 536.156 378.434C536.131 378.039 536.082 377.719 536.008 377.472H539.671C539.597 377.916 539.535 378.459 539.486 379.1C539.437 379.717 539.412 380.296 539.412 380.839C539.412 381.332 539.412 382.048 539.412 382.985C539.412 383.922 539.412 384.995 539.412 386.204C539.412 387.388 539.412 388.646 539.412 389.978C539.412 391.31 539.412 392.617 539.412 393.9C539.412 395.183 539.412 396.379 539.412 397.489C539.412 398.574 539.412 399.499 539.412 400.264C539.412 401.029 539.412 401.547 539.412 401.818C541.188 401.374 543.013 400.745 544.888 399.931C546.787 399.117 548.637 398.167 550.438 397.082C552.263 395.972 553.965 394.763 555.544 393.456C557.147 392.124 558.516 390.706 559.651 389.201L561.316 391.791C558.923 394.776 555.865 397.39 552.14 399.635C548.44 401.88 544.284 403.668 539.671 405C539.474 405.049 539.239 405.123 538.968 405.222C538.697 405.345 538.413 405.493 538.117 405.666L535.971 403.816ZM590.324 379.914C590.645 380.358 591.015 380.925 591.434 381.616C591.878 382.307 592.31 383.022 592.729 383.762C593.173 384.502 593.543 385.168 593.839 385.76L591.656 386.759C591.335 386.093 590.99 385.415 590.62 384.724C590.25 384.033 589.855 383.355 589.436 382.689C589.041 381.998 588.634 381.369 588.215 380.802L590.324 379.914ZM595.06 378.027C595.405 378.446 595.8 379.001 596.244 379.692C596.688 380.383 597.132 381.098 597.576 381.838C598.02 382.578 598.39 383.232 598.686 383.799L596.54 384.835C596.244 384.169 595.899 383.503 595.504 382.837C595.109 382.146 594.69 381.468 594.246 380.802C593.827 380.136 593.407 379.532 592.988 378.989L595.06 378.027ZM566.718 395.269C567.211 394.85 567.643 394.455 568.013 394.085C568.408 393.715 568.852 393.283 569.345 392.79C569.789 392.346 570.295 391.779 570.862 391.088C571.454 390.397 572.083 389.657 572.749 388.868C573.44 388.054 574.118 387.24 574.784 386.426C575.45 385.587 576.067 384.835 576.634 384.169C577.621 383.01 578.595 382.368 579.557 382.245C580.519 382.097 581.629 382.615 582.887 383.799C583.652 384.49 584.478 385.304 585.366 386.241C586.279 387.154 587.179 388.079 588.067 389.016C588.955 389.953 589.757 390.804 590.472 391.569C591.311 392.432 592.248 393.431 593.284 394.566C594.32 395.676 595.381 396.823 596.466 398.007C597.551 399.166 598.563 400.252 599.5 401.263L596.947 403.964C596.084 402.903 595.159 401.806 594.172 400.671C593.21 399.512 592.248 398.389 591.286 397.304C590.349 396.194 589.485 395.195 588.696 394.307C588.153 393.69 587.549 393.024 586.883 392.309C586.217 391.594 585.551 390.878 584.885 390.163C584.219 389.448 583.59 388.782 582.998 388.165C582.431 387.548 581.95 387.055 581.555 386.685C580.84 385.994 580.248 385.674 579.779 385.723C579.335 385.772 578.792 386.179 578.151 386.944C577.707 387.487 577.201 388.128 576.634 388.868C576.067 389.583 575.475 390.336 574.858 391.125C574.241 391.914 573.649 392.667 573.082 393.382C572.515 394.097 572.021 394.714 571.602 395.232C571.232 395.701 570.85 396.194 570.455 396.712C570.085 397.23 569.764 397.686 569.493 398.081L566.718 395.269ZM605.531 388.979C605.901 389.004 606.357 389.041 606.9 389.09C607.443 389.115 608.035 389.139 608.676 389.164C609.342 389.164 610.008 389.164 610.674 389.164C611.069 389.164 611.673 389.164 612.487 389.164C613.326 389.164 614.3 389.164 615.41 389.164C616.52 389.164 617.692 389.164 618.925 389.164C620.183 389.164 621.429 389.164 622.662 389.164C623.92 389.164 625.104 389.164 626.214 389.164C627.349 389.164 628.323 389.164 629.137 389.164C629.951 389.164 630.555 389.164 630.95 389.164C631.887 389.164 632.689 389.139 633.355 389.09C634.021 389.041 634.551 389.004 634.946 388.979V392.605C634.576 392.58 634.021 392.543 633.281 392.494C632.566 392.445 631.801 392.42 630.987 392.42C630.592 392.42 629.976 392.42 629.137 392.42C628.298 392.42 627.324 392.42 626.214 392.42C625.129 392.42 623.957 392.42 622.699 392.42C621.441 392.42 620.183 392.42 618.925 392.42C617.692 392.42 616.52 392.42 615.41 392.42C614.325 392.42 613.363 392.42 612.524 392.42C611.685 392.42 611.069 392.42 610.674 392.42C609.663 392.42 608.701 392.445 607.788 392.494C606.875 392.519 606.123 392.556 605.531 392.605V388.979ZM654.112 388.054C655.296 388.745 656.542 389.509 657.849 390.348C659.156 391.187 660.451 392.062 661.734 392.975C663.041 393.863 664.287 394.739 665.471 395.602C666.655 396.465 667.703 397.279 668.616 398.044L666.433 400.597C665.594 399.832 664.583 398.994 663.399 398.081C662.24 397.144 661.006 396.206 659.699 395.269C658.392 394.307 657.084 393.382 655.777 392.494C654.47 391.606 653.249 390.804 652.114 390.089L654.112 388.054ZM671.058 381.283C670.885 381.554 670.725 381.887 670.577 382.282C670.429 382.652 670.293 382.985 670.17 383.281C669.825 384.539 669.331 385.896 668.69 387.351C668.049 388.806 667.296 390.274 666.433 391.754C665.57 393.209 664.583 394.615 663.473 395.972C661.82 398.019 659.748 399.993 657.257 401.892C654.79 403.767 651.806 405.345 648.303 406.628L645.639 404.334C647.933 403.619 650.017 402.743 651.892 401.707C653.791 400.646 655.493 399.487 656.998 398.229C658.503 396.971 659.81 395.676 660.92 394.344C661.882 393.209 662.758 391.964 663.547 390.607C664.361 389.25 665.064 387.906 665.656 386.574C666.248 385.217 666.68 383.959 666.951 382.8H653.224L654.408 380.173H666.174C666.667 380.173 667.124 380.148 667.543 380.099C667.962 380.025 668.32 379.926 668.616 379.803L671.058 381.283ZM658.589 375.955C658.268 376.448 657.96 376.966 657.664 377.509C657.368 378.052 657.121 378.496 656.924 378.841C656.184 380.198 655.222 381.69 654.038 383.318C652.879 384.921 651.51 386.525 649.931 388.128C648.377 389.731 646.613 391.224 644.64 392.605L642.161 390.681C644.282 389.374 646.12 387.931 647.674 386.352C649.228 384.773 650.535 383.232 651.596 381.727C652.657 380.222 653.471 378.915 654.038 377.805C654.235 377.484 654.457 377.04 654.704 376.473C654.951 375.881 655.123 375.351 655.222 374.882L658.589 375.955Z" fill="black"/>
<path d="M1110 312H970.13" stroke="black" stroke-width="2" stroke-miterlimit="8"/>
<path d="M972 269L473.304 228.805" stroke="black" stroke-width="2" stroke-miterlimit="8"/>
<path d="M970 312V270.452" stroke="black" stroke-width="2" stroke-miterlimit="8"/>
<path d="M865 258.861L865 303" stroke="black" stroke-width="2" stroke-miterlimit="8"/>
<path d="M865 302H645.257" stroke="black" stroke-width="2" stroke-miterlimit="8"/>
<path d="M969 527H548.872" stroke="black" stroke-width="2" stroke-miterlimit="8"/>
<path d="M39 526H196V291H39V526Z" fill="white" stroke="black" stroke-width="2" stroke-miterlimit="8"/>
<path d="M84.5984 425V398.091H100.733V400.982H87.8569V410.074H99.5245V412.964H87.8569V425H84.5984ZM105.21 419.482V416.801L117.036 398.091H118.98V402.243H117.666L108.732 416.381V416.591H124.657V419.482H105.21ZM117.877 425V418.667V417.419V398.091H120.978V425H117.877ZM138.515 425.368C137.411 425.35 136.308 425.14 135.204 424.737C134.1 424.334 133.093 423.655 132.182 422.701C131.271 421.737 130.54 420.436 129.988 418.798C129.436 417.152 129.16 415.084 129.16 412.597C129.16 410.214 129.383 408.103 129.83 406.263C130.277 404.415 130.925 402.86 131.775 401.599C132.624 400.329 133.649 399.365 134.849 398.708C136.058 398.051 137.42 397.723 138.936 397.723C140.442 397.723 141.782 398.025 142.956 398.63C144.139 399.225 145.102 400.057 145.847 401.126C146.591 402.195 147.073 403.425 147.292 404.818H144.086C143.788 403.609 143.21 402.606 142.352 401.809C141.493 401.012 140.355 400.614 138.936 400.614C136.851 400.614 135.208 401.52 134.008 403.333C132.817 405.147 132.217 407.691 132.208 410.967H132.419C132.909 410.223 133.492 409.588 134.166 409.062C134.849 408.528 135.603 408.116 136.426 407.827C137.249 407.538 138.121 407.393 139.041 407.393C140.582 407.393 141.993 407.779 143.271 408.55C144.55 409.312 145.575 410.367 146.346 411.716C147.117 413.056 147.502 414.594 147.502 416.328C147.502 417.992 147.13 419.517 146.385 420.901C145.641 422.276 144.594 423.371 143.245 424.185C141.905 424.991 140.328 425.385 138.515 425.368ZM138.515 422.477C139.619 422.477 140.609 422.201 141.485 421.65C142.369 421.098 143.066 420.357 143.574 419.429C144.09 418.5 144.349 417.467 144.349 416.328C144.349 415.216 144.099 414.204 143.6 413.293C143.109 412.373 142.431 411.642 141.563 411.099C140.705 410.556 139.724 410.284 138.62 410.284C137.788 410.284 137.013 410.451 136.295 410.783C135.576 411.107 134.946 411.554 134.403 412.124C133.868 412.693 133.448 413.346 133.141 414.081C132.835 414.808 132.681 415.575 132.681 416.381C132.681 417.449 132.931 418.448 133.43 419.376C133.938 420.305 134.63 421.054 135.506 421.623C136.391 422.193 137.394 422.477 138.515 422.477Z" fill="black"/>
<path d="M549 527H329.257" stroke="black" stroke-width="2" stroke-miterlimit="8"/>
<path d="M476 229H107.34" stroke="black" stroke-width="2" stroke-miterlimit="8"/>
<path d="M39 225.921L38.9999 350" stroke="black" stroke-width="2" stroke-miterlimit="8"/>
<path d="M829 527V416.936" stroke="black" stroke-width="2" stroke-miterlimit="8"/>
<path d="M645 301V243.43" stroke="black" stroke-width="2" stroke-miterlimit="8"/>
<path d="M40 292H142V228H40V292Z" fill="white" stroke="black" stroke-width="2" stroke-miterlimit="8"/>
<path d="M71.0931 250.878H78.1231V253.135H71.0931V250.878ZM71.8701 270.192H86.7071V272.449H71.8701V270.192ZM71.7961 276.149H87.1511V278.517H71.7961V276.149ZM69.8351 246.364H72.3511V260.054H69.8351V246.364ZM67.4301 259.647C68.8361 259.376 70.5134 259.018 72.4621 258.574C74.4354 258.13 76.4334 257.674 78.4561 257.205L78.6781 259.351C76.8528 259.82 75.0151 260.288 73.1651 260.757C71.3398 261.226 69.6748 261.645 68.1701 262.015L67.4301 259.647ZM79.7141 246.364H82.2671V257.945C82.2671 258.414 82.3288 258.722 82.4521 258.87C82.6001 258.993 82.9331 259.055 83.4511 259.055C83.5991 259.055 83.8334 259.055 84.1541 259.055C84.4748 259.055 84.8324 259.055 85.2271 259.055C85.6218 259.055 85.9794 259.055 86.3001 259.055C86.6454 259.055 86.9044 259.055 87.0771 259.055C87.3978 259.055 87.6321 258.981 87.7801 258.833C87.9281 258.66 88.0268 258.315 88.0761 257.797C88.1501 257.279 88.1994 256.527 88.2241 255.54C88.5201 255.762 88.8901 255.972 89.3341 256.169C89.7781 256.342 90.1851 256.465 90.5551 256.539C90.4811 257.822 90.3331 258.821 90.1111 259.536C89.8891 260.251 89.5561 260.745 89.1121 261.016C88.6928 261.287 88.1008 261.423 87.3361 261.423C87.2128 261.423 86.9538 261.423 86.5591 261.423C86.1644 261.423 85.7204 261.423 85.2271 261.423C84.7584 261.423 84.3268 261.423 83.9321 261.423C83.5621 261.423 83.3031 261.423 83.1551 261.423C82.2424 261.423 81.5271 261.324 81.0091 261.127C80.5158 260.93 80.1704 260.584 79.9731 260.091C79.8004 259.573 79.7141 258.858 79.7141 257.945V246.364ZM87.8171 248.695L89.7781 250.545C88.6434 251.26 87.3238 251.951 85.8191 252.617C84.3391 253.258 82.9084 253.838 81.5271 254.356C81.4778 254.085 81.3668 253.776 81.1941 253.431C81.0214 253.086 80.8611 252.777 80.7131 252.506C81.5764 252.136 82.4521 251.741 83.3401 251.322C84.2281 250.903 85.0544 250.471 85.8191 250.027C86.6084 249.558 87.2744 249.114 87.8171 248.695ZM77.1981 260.609L80.0101 261.201C79.6894 262.04 79.3564 262.878 79.0111 263.717C78.6904 264.556 78.3821 265.283 78.0861 265.9L75.6811 265.308C75.9524 264.667 76.2361 263.902 76.5321 263.014C76.8528 262.101 77.0748 261.3 77.1981 260.609ZM70.5011 264.346H88.4831V279.738H85.7821V266.714H73.0911V279.886H70.5011V264.346ZM57.9211 247.511H66.2091V250.027H60.4001V279.96H57.9211V247.511ZM65.3581 247.511H65.8391L66.2461 247.363L68.0591 248.473C67.7384 249.484 67.3808 250.557 66.9861 251.692C66.6161 252.802 66.2214 253.924 65.8021 255.059C65.4074 256.194 65.0128 257.267 64.6181 258.278C65.8761 259.807 66.7024 261.238 67.0971 262.57C67.4918 263.902 67.6891 265.135 67.6891 266.27C67.7138 267.232 67.6151 268.095 67.3931 268.86C67.1711 269.6 66.8011 270.155 66.2831 270.525C66.0611 270.698 65.7898 270.833 65.4691 270.932C65.1731 271.031 64.8401 271.117 64.4701 271.191C64.1248 271.216 63.7424 271.24 63.3231 271.265C62.9284 271.265 62.5338 271.253 62.1391 271.228C62.1144 270.883 62.0404 270.488 61.9171 270.044C61.8184 269.575 61.6704 269.156 61.4731 268.786C61.8678 268.811 62.2254 268.835 62.5461 268.86C62.8668 268.86 63.1504 268.848 63.3971 268.823C63.8904 268.823 64.2728 268.724 64.5441 268.527C64.7908 268.33 64.9634 267.997 65.0621 267.528C65.1854 267.035 65.2471 266.517 65.2471 265.974C65.2224 264.963 65.0128 263.84 64.6181 262.607C64.2234 261.374 63.4094 260.029 62.1761 258.574C62.4721 257.735 62.7681 256.847 63.0641 255.91C63.3848 254.973 63.6808 254.035 63.9521 253.098C64.2481 252.161 64.5071 251.285 64.7291 250.471C64.9758 249.632 65.1854 248.892 65.3581 248.251V247.511ZM109.203 262.348H123.485V264.864H109.203V262.348ZM97.4371 255.54H107.316V258.13H97.4371V255.54ZM97.4371 262.644H107.649V265.234H97.4371V262.644ZM112.607 247.474H121.265V249.916H112.607V247.474ZM122.93 262.348H123.448L123.966 262.237L125.742 262.94C124.829 266.097 123.485 268.811 121.709 271.08C119.958 273.325 117.898 275.175 115.53 276.63C113.162 278.085 110.609 279.22 107.871 280.034C107.772 279.787 107.637 279.504 107.464 279.183C107.291 278.887 107.106 278.591 106.909 278.295C106.712 278.024 106.527 277.789 106.354 277.592C108.87 276.951 111.238 275.976 113.458 274.669C115.703 273.362 117.651 271.721 119.304 269.748C120.957 267.775 122.165 265.468 122.93 262.829V262.348ZM113.162 264.716C114.346 267.873 116.171 270.562 118.638 272.782C121.129 274.977 124.139 276.544 127.666 277.481C127.469 277.678 127.247 277.913 127 278.184C126.778 278.48 126.568 278.776 126.371 279.072C126.174 279.393 126.001 279.676 125.853 279.923C122.178 278.788 119.07 276.988 116.529 274.521C114.013 272.03 112.077 268.996 110.72 265.419L113.162 264.716ZM96.1421 248.732L98.8061 249.583V279.923H96.1421V248.732ZM93.1081 271.783C94.3908 271.586 95.8708 271.351 97.5481 271.08C99.2501 270.809 101.051 270.513 102.95 270.192C104.849 269.871 106.736 269.551 108.611 269.23L108.722 271.783C106.946 272.104 105.145 272.437 103.32 272.782C101.495 273.103 99.7558 273.411 98.1031 273.707C96.4504 274.003 94.9458 274.274 93.5891 274.521L93.1081 271.783ZM111.312 247.474H113.902V252.802C113.902 253.789 113.791 254.837 113.569 255.947C113.347 257.057 112.915 258.118 112.274 259.129C111.633 260.14 110.683 261.041 109.425 261.83C109.302 261.633 109.129 261.411 108.907 261.164C108.685 260.917 108.438 260.683 108.167 260.461C107.92 260.214 107.698 260.042 107.501 259.943C108.636 259.252 109.474 258.512 110.017 257.723C110.56 256.909 110.905 256.083 111.053 255.244C111.226 254.381 111.312 253.542 111.312 252.728V247.474ZM106.465 245.957L108.833 247.918C107.822 248.411 106.687 248.88 105.429 249.324C104.171 249.768 102.876 250.175 101.544 250.545C100.212 250.915 98.9171 251.248 97.6591 251.544C97.5851 251.248 97.4494 250.89 97.2521 250.471C97.0794 250.052 96.9068 249.706 96.7341 249.435C97.9181 249.139 99.1144 248.806 100.323 248.436C101.532 248.041 102.666 247.634 103.727 247.215C104.812 246.796 105.725 246.376 106.465 245.957ZM119.748 247.474H122.375V256.613C122.375 256.958 122.387 257.242 122.412 257.464C122.437 257.661 122.486 257.797 122.56 257.871C122.683 257.945 122.881 257.982 123.152 257.982C123.275 257.982 123.436 257.982 123.633 257.982C123.855 257.982 124.052 257.982 124.225 257.982C124.373 257.982 124.521 257.97 124.669 257.945C124.817 257.92 124.928 257.896 125.002 257.871C125.175 257.772 125.31 257.489 125.409 257.02C125.434 256.749 125.458 256.342 125.483 255.799C125.508 255.232 125.532 254.578 125.557 253.838C125.804 254.06 126.124 254.27 126.519 254.467C126.938 254.664 127.333 254.825 127.703 254.948C127.654 255.663 127.592 256.391 127.518 257.131C127.469 257.846 127.395 258.352 127.296 258.648C127.099 259.24 126.729 259.659 126.186 259.906C125.989 260.029 125.717 260.116 125.372 260.165C125.051 260.214 124.743 260.239 124.447 260.239C124.2 260.239 123.867 260.239 123.448 260.239C123.053 260.239 122.757 260.239 122.56 260.239C122.215 260.239 121.845 260.19 121.45 260.091C121.055 259.992 120.735 259.832 120.488 259.61C120.217 259.363 120.019 259.043 119.896 258.648C119.797 258.229 119.748 257.489 119.748 256.428V247.474Z" fill="black"/>
<path d="M708.027 285.744C708.027 285.399 708.027 284.708 708.027 283.672C708.027 282.611 708.027 281.366 708.027 279.935C708.027 278.48 708.027 276.963 708.027 275.384C708.027 273.781 708.027 272.227 708.027 270.722C708.027 269.217 708.027 267.885 708.027 266.726C708.027 265.567 708.027 264.728 708.027 264.21C708.027 263.692 708.002 263.063 707.953 262.323C707.904 261.583 707.83 260.929 707.731 260.362H711.357C711.308 260.905 711.246 261.546 711.172 262.286C711.123 263.026 711.098 263.667 711.098 264.21C711.098 265.172 711.098 266.331 711.098 267.688C711.098 269.02 711.098 270.451 711.098 271.98C711.098 273.485 711.098 274.989 711.098 276.494C711.123 277.974 711.135 279.368 711.135 280.675C711.135 281.958 711.135 283.055 711.135 283.968C711.135 284.856 711.135 285.448 711.135 285.744C711.135 286.139 711.135 286.595 711.135 287.113C711.16 287.631 711.197 288.161 711.246 288.704C711.295 289.222 711.332 289.691 711.357 290.11H707.768C707.867 289.518 707.928 288.815 707.953 288.001C708.002 287.187 708.027 286.435 708.027 285.744ZM710.469 270.056C711.678 270.426 713.01 270.87 714.465 271.388C715.945 271.881 717.45 272.412 718.979 272.979C720.508 273.546 721.951 274.126 723.308 274.718C724.689 275.285 725.886 275.828 726.897 276.346L725.639 279.491C724.578 278.899 723.382 278.319 722.05 277.752C720.718 277.16 719.349 276.58 717.943 276.013C716.562 275.446 715.217 274.94 713.91 274.496C712.627 274.027 711.48 273.645 710.469 273.349V270.056ZM735.74 275.643C738.947 274.78 741.931 273.731 744.694 272.498C747.457 271.265 749.862 270.007 751.909 268.724C753.192 267.91 754.437 267.034 755.646 266.097C756.879 265.135 758.039 264.136 759.124 263.1C760.209 262.064 761.171 261.04 762.01 260.029L764.489 262.323C763.453 263.433 762.331 264.518 761.122 265.579C759.913 266.64 758.631 267.663 757.274 268.65C755.942 269.612 754.548 270.549 753.093 271.462C751.736 272.276 750.207 273.115 748.505 273.978C746.803 274.841 744.99 275.655 743.066 276.42C741.142 277.185 739.193 277.888 737.22 278.529L735.74 275.643ZM751.317 270.278L754.499 269.316V286.188C754.499 286.657 754.499 287.15 754.499 287.668C754.524 288.186 754.548 288.667 754.573 289.111C754.622 289.555 754.672 289.9 754.721 290.147H751.095C751.12 289.9 751.144 289.555 751.169 289.111C751.218 288.667 751.255 288.186 751.28 287.668C751.305 287.15 751.317 286.657 751.317 286.188V270.278ZM777.772 287.816C777.92 287.52 778.019 287.236 778.068 286.965C778.117 286.694 778.142 286.373 778.142 286.003C778.142 285.633 778.142 284.942 778.142 283.931C778.142 282.92 778.142 281.711 778.142 280.305C778.142 278.899 778.142 277.431 778.142 275.902C778.142 274.348 778.142 272.843 778.142 271.388C778.142 269.908 778.142 268.601 778.142 267.466C778.142 266.307 778.142 265.431 778.142 264.839C778.142 264.518 778.117 264.136 778.068 263.692C778.043 263.248 778.006 262.829 777.957 262.434C777.932 262.039 777.883 261.719 777.809 261.472H781.472C781.398 261.916 781.336 262.459 781.287 263.1C781.238 263.717 781.213 264.296 781.213 264.839C781.213 265.332 781.213 266.048 781.213 266.985C781.213 267.922 781.213 268.995 781.213 270.204C781.213 271.388 781.213 272.646 781.213 273.978C781.213 275.31 781.213 276.617 781.213 277.9C781.213 279.183 781.213 280.379 781.213 281.489C781.213 282.574 781.213 283.499 781.213 284.264C781.213 285.029 781.213 285.547 781.213 285.818C782.989 285.374 784.814 284.745 786.689 283.931C788.588 283.117 790.438 282.167 792.239 281.082C794.064 279.972 795.766 278.763 797.345 277.456C798.948 276.124 800.317 274.706 801.452 273.201L803.117 275.791C800.724 278.776 797.666 281.39 793.941 283.635C790.241 285.88 786.085 287.668 781.472 289C781.275 289.049 781.04 289.123 780.769 289.222C780.498 289.345 780.214 289.493 779.918 289.666L777.772 287.816Z" fill="black"/>
<path d="M196 527H329V292H196V527Z" fill="white" stroke="black" stroke-width="2" stroke-miterlimit="8"/>
<path d="M229.959 426V399.091H246.094V401.982H233.218V411.074H244.886V413.964H233.218V426H229.959ZM250.572 420.482V417.801L262.397 399.091H264.341V403.243H263.028L254.093 417.381V417.591H270.018V420.482H250.572ZM263.238 426V419.667V418.419V399.091H266.339V426H263.238ZM283.351 426.368C281.809 426.368 280.421 426.061 279.185 425.448C277.95 424.835 276.961 423.994 276.216 422.925C275.471 421.857 275.064 420.639 274.994 419.273H278.147C278.27 420.49 278.822 421.498 279.803 422.295C280.793 423.083 281.975 423.477 283.351 423.477C284.454 423.477 285.435 423.219 286.294 422.702C287.161 422.185 287.84 421.476 288.33 420.574C288.83 419.663 289.079 418.633 289.079 417.486C289.079 416.312 288.821 415.265 288.304 414.346C287.796 413.417 287.095 412.686 286.202 412.151C285.308 411.617 284.288 411.345 283.14 411.337C282.317 411.328 281.472 411.455 280.605 411.718C279.737 411.972 279.023 412.3 278.463 412.703L275.415 412.335L277.044 399.091H291.024V401.982H279.777L278.831 409.918H278.988C279.54 409.48 280.232 409.116 281.064 408.827C281.897 408.538 282.764 408.393 283.666 408.393C285.313 408.393 286.78 408.788 288.068 409.576C289.364 410.356 290.38 411.424 291.116 412.782C291.86 414.14 292.233 415.69 292.233 417.433C292.233 419.15 291.847 420.683 291.076 422.032C290.314 423.372 289.263 424.432 287.923 425.212C286.583 425.982 285.059 426.368 283.351 426.368Z" fill="black"/>
<path d="M328 424H472V292H328V424Z" fill="white" stroke="black" stroke-width="2" stroke-miterlimit="8"/>
<path d="M365.761 374V347.091H381.896V349.982H369.02V359.074H380.688V361.964H369.02V374H365.761ZM386.374 368.482V365.801L398.199 347.091H400.143V351.243H398.83L389.895 365.381V365.591H405.82V368.482H386.374ZM399.04 374V367.667V366.419V347.091H402.141V374H399.04ZM410.113 368.482V365.801L421.938 347.091H423.883V351.243H422.569L413.634 365.381V365.591H429.559V368.482H410.113ZM422.779 374V367.667V366.419V347.091H425.88V374H422.779Z" fill="black"/>
<path d="M829 527H972V354H829V527Z" fill="#FFE661" stroke="black" stroke-width="2" stroke-miterlimit="8"/>
<path d="M867.7 457V430.091H883.835V432.982H870.959V442.074H882.627V444.964H870.959V457H867.7ZM888.313 451.482V448.801L900.138 430.091H902.082V434.243H900.769L891.834 448.381V448.591H907.759V451.482H888.313ZM900.979 457V450.667V449.419V430.091H904.08V457H900.979ZM921.775 457.368C920.04 457.368 918.494 457.07 917.137 456.474C915.788 455.879 914.715 455.051 913.918 453.991C913.129 452.922 912.7 451.683 912.63 450.273H915.941C916.011 451.14 916.309 451.889 916.834 452.52C917.36 453.141 918.048 453.623 918.897 453.965C919.747 454.306 920.689 454.477 921.722 454.477C922.879 454.477 923.903 454.276 924.797 453.873C925.69 453.47 926.391 452.909 926.899 452.191C927.407 451.473 927.661 450.641 927.661 449.695C927.661 448.705 927.416 447.833 926.925 447.08C926.435 446.318 925.717 445.722 924.771 445.293C923.825 444.864 922.668 444.649 921.302 444.649H919.147V441.759H921.302C922.37 441.759 923.308 441.566 924.114 441.18C924.928 440.795 925.563 440.252 926.019 439.551C926.483 438.85 926.715 438.027 926.715 437.081C926.715 436.17 926.514 435.377 926.111 434.703C925.708 434.028 925.138 433.503 924.403 433.126C923.676 432.749 922.817 432.561 921.827 432.561C920.899 432.561 920.023 432.732 919.2 433.074C918.385 433.406 917.719 433.893 917.202 434.532C916.686 435.163 916.405 435.925 916.361 436.818H913.208C913.261 435.408 913.685 434.173 914.483 433.113C915.28 432.044 916.322 431.212 917.61 430.616C918.906 430.021 920.33 429.723 921.88 429.723C923.544 429.723 924.972 430.06 926.163 430.735C927.355 431.4 928.27 432.281 928.909 433.376C929.549 434.471 929.869 435.653 929.869 436.923C929.869 438.439 929.47 439.731 928.673 440.799C927.885 441.868 926.812 442.608 925.454 443.02V443.23C927.153 443.51 928.48 444.233 929.435 445.398C930.39 446.554 930.867 447.987 930.867 449.695C930.867 451.157 930.469 452.471 929.671 453.636C928.883 454.793 927.806 455.704 926.439 456.369C925.073 457.035 923.518 457.368 921.775 457.368Z" fill="black"/>
</g>
</g>
<defs>
<clipPath id="clip0_14_142">
<rect width="1280" height="720" fill="white" transform="matrix(-1 0 0 -1 1280 720)"/>
</clipPath>
</defs>
</svg>
