<svg width="1548" height="720" viewBox="0 0 1548 720" fill="none" xmlns="http://www.w3.org/2000/svg">
<g clip-path="url(#clip0_14_105)">
<mask id="mask0_14_105" style="mask-type:luminance" maskUnits="userSpaceOnUse" x="0" y="0" width="1548" height="720">
<path d="M0.00012207 720H1547.38V0H0.00012207V720Z" fill="white"/>
</mask>
<g mask="url(#mask0_14_105)">
<path d="M0.00012207 720H1547.38V0H0.00012207V720Z" fill="white"/>
<path d="M1341.87 527H1512.32V354H1341.87V527Z" fill="#FFE661" stroke="black" stroke-width="2" stroke-miterlimit="8"/>
<path d="M1393.86 458V431.091H1410V433.982H1397.12V443.074H1408.79V445.964H1397.12V458H1393.86ZM1423.52 458.368C1421.97 458.368 1420.59 458.061 1419.35 457.448C1418.12 456.835 1417.13 455.994 1416.38 454.925C1415.64 453.857 1415.23 452.639 1415.16 451.273H1418.31C1418.44 452.49 1418.99 453.498 1419.97 454.295C1420.96 455.083 1422.14 455.477 1423.52 455.477C1424.62 455.477 1425.6 455.219 1426.46 454.702C1427.33 454.185 1428.01 453.476 1428.5 452.574C1429 451.663 1429.24 450.633 1429.24 449.486C1429.24 448.312 1428.99 447.265 1428.47 446.346C1427.96 445.417 1427.26 444.686 1426.37 444.151C1425.47 443.617 1424.45 443.345 1423.31 443.337C1422.48 443.328 1421.64 443.455 1420.77 443.718C1419.9 443.972 1419.19 444.3 1418.63 444.703L1415.58 444.335L1417.21 431.091H1431.19V433.982H1419.94L1419 441.918H1419.15C1419.71 441.48 1420.4 441.116 1421.23 440.827C1422.06 440.538 1422.93 440.393 1423.83 440.393C1425.48 440.393 1426.95 440.788 1428.23 441.576C1429.53 442.356 1430.55 443.424 1431.28 444.782C1432.03 446.14 1432.4 447.69 1432.4 449.433C1432.4 451.15 1432.01 452.683 1431.24 454.032C1430.48 455.372 1429.43 456.432 1428.09 457.212C1426.75 457.982 1425.22 458.368 1423.52 458.368ZM1447.08 431.091V458H1443.82V434.507H1443.66L1437.09 438.869V435.558L1443.82 431.091H1447.08Z" fill="black"/>
<path d="M1171.42 526H1341.87V354H1171.42V526Z" fill="#FFE661" stroke="black" stroke-width="2" stroke-miterlimit="8"/>
<path d="M1218.2 458V431.091H1234.34V433.982H1221.46V443.074H1233.13V445.964H1221.46V458H1218.2ZM1247.85 458.368C1246.31 458.368 1244.92 458.061 1243.69 457.448C1242.45 456.835 1241.46 455.994 1240.72 454.925C1239.97 453.857 1239.57 452.639 1239.5 451.273H1242.65C1242.77 452.49 1243.32 453.498 1244.31 454.295C1245.3 455.083 1246.48 455.477 1247.85 455.477C1248.96 455.477 1249.94 455.219 1250.8 454.702C1251.66 454.185 1252.34 453.476 1252.83 452.574C1253.33 451.663 1253.58 450.633 1253.58 449.486C1253.58 448.312 1253.32 447.265 1252.81 446.346C1252.3 445.417 1251.6 444.686 1250.7 444.151C1249.81 443.617 1248.79 443.345 1247.64 443.337C1246.82 443.328 1245.97 443.455 1245.11 443.718C1244.24 443.972 1243.53 444.3 1242.97 444.703L1239.92 444.335L1241.55 431.091H1255.53V433.982H1244.28L1243.33 441.918H1243.49C1244.04 441.48 1244.73 441.116 1245.57 440.827C1246.4 440.538 1247.27 440.393 1248.17 440.393C1249.82 440.393 1251.28 440.788 1252.57 441.576C1253.87 442.356 1254.88 443.424 1255.62 444.782C1256.36 446.14 1256.74 447.69 1256.74 449.433C1256.74 451.15 1256.35 452.683 1255.58 454.032C1254.82 455.372 1253.77 456.432 1252.43 457.212C1251.09 457.982 1249.56 458.368 1247.85 458.368ZM1261.95 458V455.635L1270.84 445.912C1271.88 444.773 1272.74 443.783 1273.41 442.942C1274.09 442.093 1274.59 441.296 1274.91 440.551C1275.24 439.798 1275.41 439.009 1275.41 438.186C1275.41 437.24 1275.18 436.421 1274.73 435.729C1274.28 435.037 1273.67 434.503 1272.89 434.126C1272.11 433.749 1271.23 433.561 1270.26 433.561C1269.23 433.561 1268.32 433.776 1267.55 434.205C1266.79 434.625 1266.2 435.217 1265.78 435.979C1265.37 436.741 1265.16 437.634 1265.16 438.659H1262.06C1262.06 437.082 1262.42 435.698 1263.15 434.507C1263.88 433.316 1264.87 432.387 1266.12 431.722C1267.38 431.056 1268.8 430.723 1270.36 430.723C1271.94 430.723 1273.34 431.056 1274.56 431.722C1275.77 432.387 1276.73 433.285 1277.42 434.415C1278.11 435.545 1278.46 436.802 1278.46 438.186C1278.46 439.176 1278.28 440.144 1277.92 441.09C1277.57 442.027 1276.96 443.074 1276.08 444.23C1275.21 445.378 1274.01 446.779 1272.47 448.435L1266.42 454.899V455.109H1278.93V458H1261.95Z" fill="black"/>
<path d="M832.927 424H1002.17V354H832.927V424Z" fill="white" stroke="black" stroke-width="2" stroke-miterlimit="8"/>
<path d="M890.367 379.878H897.397V382.135H890.367V379.878ZM891.144 399.192H905.981V401.449H891.144V399.192ZM891.07 405.149H906.425V407.517H891.07V405.149ZM889.109 375.364H891.625V389.054H889.109V375.364ZM886.704 388.647C888.11 388.376 889.787 388.018 891.736 387.574C893.709 387.13 895.707 386.674 897.73 386.205L897.952 388.351C896.127 388.82 894.289 389.288 892.439 389.757C890.614 390.226 888.949 390.645 887.444 391.015L886.704 388.647ZM898.988 375.364H901.541V386.945C901.541 387.414 901.603 387.722 901.726 387.87C901.874 387.993 902.207 388.055 902.725 388.055C902.873 388.055 903.107 388.055 903.428 388.055C903.749 388.055 904.106 388.055 904.501 388.055C904.896 388.055 905.253 388.055 905.574 388.055C905.919 388.055 906.178 388.055 906.351 388.055C906.672 388.055 906.906 387.981 907.054 387.833C907.202 387.66 907.301 387.315 907.35 386.797C907.424 386.279 907.473 385.527 907.498 384.54C907.794 384.762 908.164 384.972 908.608 385.169C909.052 385.342 909.459 385.465 909.829 385.539C909.755 386.822 909.607 387.821 909.385 388.536C909.163 389.251 908.83 389.745 908.386 390.016C907.967 390.287 907.375 390.423 906.61 390.423C906.487 390.423 906.228 390.423 905.833 390.423C905.438 390.423 904.994 390.423 904.501 390.423C904.032 390.423 903.601 390.423 903.206 390.423C902.836 390.423 902.577 390.423 902.429 390.423C901.516 390.423 900.801 390.324 900.283 390.127C899.79 389.93 899.444 389.584 899.247 389.091C899.074 388.573 898.988 387.858 898.988 386.945V375.364ZM907.091 377.695L909.052 379.545C907.917 380.26 906.598 380.951 905.093 381.617C903.613 382.258 902.182 382.838 900.801 383.356C900.752 383.085 900.641 382.776 900.468 382.431C900.295 382.086 900.135 381.777 899.987 381.506C900.85 381.136 901.726 380.741 902.614 380.322C903.502 379.903 904.328 379.471 905.093 379.027C905.882 378.558 906.548 378.114 907.091 377.695ZM896.472 389.609L899.284 390.201C898.963 391.04 898.63 391.878 898.285 392.717C897.964 393.556 897.656 394.283 897.36 394.9L894.955 394.308C895.226 393.667 895.51 392.902 895.806 392.014C896.127 391.101 896.349 390.3 896.472 389.609ZM889.775 393.346H907.757V408.738H905.056V395.714H892.365V408.886H889.775V393.346ZM877.195 376.511H885.483V379.027H879.674V408.96H877.195V376.511ZM884.632 376.511H885.113L885.52 376.363L887.333 377.473C887.012 378.484 886.655 379.557 886.26 380.692C885.89 381.802 885.495 382.924 885.076 384.059C884.681 385.194 884.287 386.267 883.892 387.278C885.15 388.807 885.976 390.238 886.371 391.57C886.766 392.902 886.963 394.135 886.963 395.27C886.988 396.232 886.889 397.095 886.667 397.86C886.445 398.6 886.075 399.155 885.557 399.525C885.335 399.698 885.064 399.833 884.743 399.932C884.447 400.031 884.114 400.117 883.744 400.191C883.399 400.216 883.016 400.24 882.597 400.265C882.202 400.265 881.808 400.253 881.413 400.228C881.388 399.883 881.314 399.488 881.191 399.044C881.092 398.575 880.944 398.156 880.747 397.786C881.142 397.811 881.499 397.835 881.82 397.86C882.141 397.86 882.424 397.848 882.671 397.823C883.164 397.823 883.547 397.724 883.818 397.527C884.065 397.33 884.237 396.997 884.336 396.528C884.459 396.035 884.521 395.517 884.521 394.974C884.496 393.963 884.287 392.84 883.892 391.607C883.497 390.374 882.683 389.029 881.45 387.574C881.746 386.735 882.042 385.847 882.338 384.91C882.659 383.973 882.955 383.035 883.226 382.098C883.522 381.161 883.781 380.285 884.003 379.471C884.25 378.632 884.459 377.892 884.632 377.251V376.511ZM928.477 391.348H942.759V393.864H928.477V391.348ZM916.711 384.54H926.59V387.13H916.711V384.54ZM916.711 391.644H926.923V394.234H916.711V391.644ZM931.881 376.474H940.539V378.916H931.881V376.474ZM942.204 391.348H942.722L943.24 391.237L945.016 391.94C944.103 395.097 942.759 397.811 940.983 400.08C939.232 402.325 937.172 404.175 934.804 405.63C932.436 407.085 929.883 408.22 927.145 409.034C927.046 408.787 926.911 408.504 926.738 408.183C926.565 407.887 926.38 407.591 926.183 407.295C925.986 407.024 925.801 406.789 925.628 406.592C928.144 405.951 930.512 404.976 932.732 403.669C934.977 402.362 936.925 400.721 938.578 398.748C940.231 396.775 941.439 394.468 942.204 391.829V391.348ZM932.436 393.716C933.62 396.873 935.445 399.562 937.912 401.782C940.403 403.977 943.413 405.544 946.94 406.481C946.743 406.678 946.521 406.913 946.274 407.184C946.052 407.48 945.842 407.776 945.645 408.072C945.448 408.393 945.275 408.676 945.127 408.923C941.452 407.788 938.344 405.988 935.803 403.521C933.287 401.03 931.351 397.996 929.994 394.419L932.436 393.716ZM915.416 377.732L918.08 378.583V408.923H915.416V377.732ZM912.382 400.783C913.665 400.586 915.145 400.351 916.822 400.08C918.524 399.809 920.325 399.513 922.224 399.192C924.123 398.871 926.01 398.551 927.885 398.23L927.996 400.783C926.22 401.104 924.419 401.437 922.594 401.782C920.769 402.103 919.03 402.411 917.377 402.707C915.724 403.003 914.22 403.274 912.863 403.521L912.382 400.783ZM930.586 376.474H933.176V381.802C933.176 382.789 933.065 383.837 932.843 384.947C932.621 386.057 932.189 387.118 931.548 388.129C930.907 389.14 929.957 390.041 928.699 390.83C928.576 390.633 928.403 390.411 928.181 390.164C927.959 389.917 927.712 389.683 927.441 389.461C927.194 389.214 926.972 389.042 926.775 388.943C927.91 388.252 928.748 387.512 929.291 386.723C929.834 385.909 930.179 385.083 930.327 384.244C930.5 383.381 930.586 382.542 930.586 381.728V376.474ZM925.739 374.957L928.107 376.918C927.096 377.411 925.961 377.88 924.703 378.324C923.445 378.768 922.15 379.175 920.818 379.545C919.486 379.915 918.191 380.248 916.933 380.544C916.859 380.248 916.723 379.89 916.526 379.471C916.353 379.052 916.181 378.706 916.008 378.435C917.192 378.139 918.388 377.806 919.597 377.436C920.806 377.041 921.94 376.634 923.001 376.215C924.086 375.796 924.999 375.376 925.739 374.957ZM939.022 376.474H941.649V385.613C941.649 385.958 941.661 386.242 941.686 386.464C941.711 386.661 941.76 386.797 941.834 386.871C941.957 386.945 942.155 386.982 942.426 386.982C942.549 386.982 942.71 386.982 942.907 386.982C943.129 386.982 943.326 386.982 943.499 386.982C943.647 386.982 943.795 386.97 943.943 386.945C944.091 386.92 944.202 386.896 944.276 386.871C944.449 386.772 944.584 386.489 944.683 386.02C944.708 385.749 944.732 385.342 944.757 384.799C944.782 384.232 944.806 383.578 944.831 382.838C945.078 383.06 945.398 383.27 945.793 383.467C946.212 383.664 946.607 383.825 946.977 383.948C946.928 384.663 946.866 385.391 946.792 386.131C946.743 386.846 946.669 387.352 946.57 387.648C946.373 388.24 946.003 388.659 945.46 388.906C945.263 389.029 944.991 389.116 944.646 389.165C944.325 389.214 944.017 389.239 943.721 389.239C943.474 389.239 943.141 389.239 942.722 389.239C942.327 389.239 942.031 389.239 941.834 389.239C941.489 389.239 941.119 389.19 940.724 389.091C940.329 388.992 940.009 388.832 939.762 388.61C939.491 388.363 939.293 388.043 939.17 387.648C939.071 387.229 939.022 386.489 939.022 385.428V376.474Z" fill="black"/>
<path d="M571.806 424H832.927V354H571.806V424Z" fill="white" stroke="black" stroke-width="2" stroke-miterlimit="8"/>
<path d="M597.042 381.247C597.535 381.321 598.078 381.383 598.67 381.432C599.287 381.457 599.78 381.469 600.15 381.469H620.5C621.067 381.469 621.622 381.444 622.165 381.395C622.708 381.346 623.201 381.296 623.645 381.247V384.503C623.176 384.454 622.658 384.417 622.091 384.392C621.548 384.367 621.018 384.355 620.5 384.355H600.15C599.805 384.355 599.311 384.367 598.67 384.392C598.053 384.417 597.511 384.454 597.042 384.503V381.247ZM608.475 402.966V383.097H611.62V402.966H608.475ZM594.785 401.153C595.328 401.227 595.87 401.289 596.413 401.338C596.98 401.363 597.523 401.375 598.041 401.375H622.498C623.065 401.375 623.596 401.35 624.089 401.301C624.607 401.252 625.1 401.202 625.569 401.153V404.52C625.076 404.471 624.533 404.434 623.941 404.409C623.349 404.384 622.868 404.372 622.498 404.372H598.041C597.548 404.372 597.017 404.384 596.45 404.409C595.907 404.434 595.352 404.471 594.785 404.52V401.153ZM636.891 404.816C637.039 404.52 637.138 404.236 637.187 403.965C637.236 403.694 637.261 403.373 637.261 403.003C637.261 402.633 637.261 401.942 637.261 400.931C637.261 399.92 637.261 398.711 637.261 397.305C637.261 395.899 637.261 394.431 637.261 392.902C637.261 391.348 637.261 389.843 637.261 388.388C637.261 386.908 637.261 385.601 637.261 384.466C637.261 383.307 637.261 382.431 637.261 381.839C637.261 381.518 637.236 381.136 637.187 380.692C637.162 380.248 637.125 379.829 637.076 379.434C637.051 379.039 637.002 378.719 636.928 378.472H640.591C640.517 378.916 640.455 379.459 640.406 380.1C640.357 380.717 640.332 381.296 640.332 381.839C640.332 382.332 640.332 383.048 640.332 383.985C640.332 384.922 640.332 385.995 640.332 387.204C640.332 388.388 640.332 389.646 640.332 390.978C640.332 392.31 640.332 393.617 640.332 394.9C640.332 396.183 640.332 397.379 640.332 398.489C640.332 399.574 640.332 400.499 640.332 401.264C640.332 402.029 640.332 402.547 640.332 402.818C642.108 402.374 643.933 401.745 645.808 400.931C647.707 400.117 649.557 399.167 651.358 398.082C653.183 396.972 654.885 395.763 656.464 394.456C658.067 393.124 659.436 391.706 660.571 390.201L662.236 392.791C659.843 395.776 656.785 398.39 653.06 400.635C649.36 402.88 645.204 404.668 640.591 406C640.394 406.049 640.159 406.123 639.888 406.222C639.617 406.345 639.333 406.493 639.037 406.666L636.891 404.816ZM691.244 380.914C691.565 381.358 691.935 381.925 692.354 382.616C692.798 383.307 693.23 384.022 693.649 384.762C694.093 385.502 694.463 386.168 694.759 386.76L692.576 387.759C692.255 387.093 691.91 386.415 691.54 385.724C691.17 385.033 690.775 384.355 690.356 383.689C689.961 382.998 689.554 382.369 689.135 381.802L691.244 380.914ZM695.98 379.027C696.325 379.446 696.72 380.001 697.164 380.692C697.608 381.383 698.052 382.098 698.496 382.838C698.94 383.578 699.31 384.232 699.606 384.799L697.46 385.835C697.164 385.169 696.819 384.503 696.424 383.837C696.029 383.146 695.61 382.468 695.166 381.802C694.747 381.136 694.327 380.532 693.908 379.989L695.98 379.027ZM667.638 396.269C668.131 395.85 668.563 395.455 668.933 395.085C669.328 394.715 669.772 394.283 670.265 393.79C670.709 393.346 671.215 392.779 671.782 392.088C672.374 391.397 673.003 390.657 673.669 389.868C674.36 389.054 675.038 388.24 675.704 387.426C676.37 386.587 676.987 385.835 677.554 385.169C678.541 384.01 679.515 383.368 680.477 383.245C681.439 383.097 682.549 383.615 683.807 384.799C684.572 385.49 685.398 386.304 686.286 387.241C687.199 388.154 688.099 389.079 688.987 390.016C689.875 390.953 690.677 391.804 691.392 392.569C692.231 393.432 693.168 394.431 694.204 395.566C695.24 396.676 696.301 397.823 697.386 399.007C698.471 400.166 699.483 401.252 700.42 402.263L697.867 404.964C697.004 403.903 696.079 402.806 695.092 401.671C694.13 400.512 693.168 399.389 692.206 398.304C691.269 397.194 690.405 396.195 689.616 395.307C689.073 394.69 688.469 394.024 687.803 393.309C687.137 392.594 686.471 391.878 685.805 391.163C685.139 390.448 684.51 389.782 683.918 389.165C683.351 388.548 682.87 388.055 682.475 387.685C681.76 386.994 681.168 386.674 680.699 386.723C680.255 386.772 679.712 387.179 679.071 387.944C678.627 388.487 678.121 389.128 677.554 389.868C676.987 390.583 676.395 391.336 675.778 392.125C675.161 392.914 674.569 393.667 674.002 394.382C673.435 395.097 672.941 395.714 672.522 396.232C672.152 396.701 671.77 397.194 671.375 397.712C671.005 398.23 670.684 398.686 670.413 399.081L667.638 396.269ZM706.451 389.979C706.821 390.004 707.277 390.041 707.82 390.09C708.363 390.115 708.955 390.139 709.596 390.164C710.262 390.164 710.928 390.164 711.594 390.164C711.989 390.164 712.593 390.164 713.407 390.164C714.246 390.164 715.22 390.164 716.33 390.164C717.44 390.164 718.612 390.164 719.845 390.164C721.103 390.164 722.349 390.164 723.582 390.164C724.84 390.164 726.024 390.164 727.134 390.164C728.269 390.164 729.243 390.164 730.057 390.164C730.871 390.164 731.475 390.164 731.87 390.164C732.807 390.164 733.609 390.139 734.275 390.09C734.941 390.041 735.471 390.004 735.866 389.979V393.605C735.496 393.58 734.941 393.543 734.201 393.494C733.486 393.445 732.721 393.42 731.907 393.42C731.512 393.42 730.896 393.42 730.057 393.42C729.218 393.42 728.244 393.42 727.134 393.42C726.049 393.42 724.877 393.42 723.619 393.42C722.361 393.42 721.103 393.42 719.845 393.42C718.612 393.42 717.44 393.42 716.33 393.42C715.245 393.42 714.283 393.42 713.444 393.42C712.605 393.42 711.989 393.42 711.594 393.42C710.583 393.42 709.621 393.445 708.708 393.494C707.795 393.519 707.043 393.556 706.451 393.605V389.979ZM755.032 389.054C756.216 389.745 757.462 390.509 758.769 391.348C760.076 392.187 761.371 393.062 762.654 393.975C763.961 394.863 765.207 395.739 766.391 396.602C767.575 397.465 768.623 398.279 769.536 399.044L767.353 401.597C766.514 400.832 765.503 399.994 764.319 399.081C763.16 398.144 761.926 397.206 760.619 396.269C759.312 395.307 758.004 394.382 756.697 393.494C755.39 392.606 754.169 391.804 753.034 391.089L755.032 389.054ZM771.978 382.283C771.805 382.554 771.645 382.887 771.497 383.282C771.349 383.652 771.213 383.985 771.09 384.281C770.745 385.539 770.251 386.896 769.61 388.351C768.969 389.806 768.216 391.274 767.353 392.754C766.49 394.209 765.503 395.615 764.393 396.972C762.74 399.019 760.668 400.993 758.177 402.892C755.71 404.767 752.726 406.345 749.223 407.628L746.559 405.334C748.853 404.619 750.937 403.743 752.812 402.707C754.711 401.646 756.413 400.487 757.918 399.229C759.423 397.971 760.73 396.676 761.84 395.344C762.802 394.209 763.678 392.964 764.467 391.607C765.281 390.25 765.984 388.906 766.576 387.574C767.168 386.217 767.6 384.959 767.871 383.8H754.144L755.328 381.173H767.094C767.587 381.173 768.044 381.148 768.463 381.099C768.882 381.025 769.24 380.926 769.536 380.803L771.978 382.283ZM759.509 376.955C759.188 377.448 758.88 377.966 758.584 378.509C758.288 379.052 758.041 379.496 757.844 379.841C757.104 381.198 756.142 382.69 754.958 384.318C753.799 385.921 752.43 387.525 750.851 389.128C749.297 390.731 747.533 392.224 745.56 393.605L743.081 391.681C745.202 390.374 747.04 388.931 748.594 387.352C750.148 385.773 751.455 384.232 752.516 382.727C753.577 381.222 754.391 379.915 754.958 378.805C755.155 378.484 755.377 378.04 755.624 377.473C755.871 376.881 756.043 376.351 756.142 375.882L759.509 376.955Z" fill="black"/>
<path d="M1512.32 312H1171.65" stroke="black" stroke-width="2" stroke-miterlimit="8"/>
<path d="M1175.04 269L572.174 228.805" stroke="black" stroke-width="2" stroke-miterlimit="8"/>
<path d="M1172.63 312V270.452" stroke="black" stroke-width="2" stroke-miterlimit="8"/>
<path d="M1045.69 258.861L1045.69 303" stroke="black" stroke-width="2" stroke-miterlimit="8"/>
<path d="M1045.69 302H780.046" stroke="black" stroke-width="2" stroke-miterlimit="8"/>
<path d="M1078.33 457H570.442" stroke="black" stroke-width="2" stroke-miterlimit="8"/>
<path d="M47.1467 459H224.854V291H47.1467V459Z" fill="white" stroke="black" stroke-width="2" stroke-miterlimit="8"/>
<path d="M95.2772 392V365.091H111.412V367.982H98.5357V377.074H110.203V379.964H98.5357V392H95.2772ZM124.929 392.368C123.387 392.368 121.999 392.061 120.764 391.448C119.529 390.835 118.539 389.994 117.795 388.925C117.05 387.857 116.643 386.639 116.573 385.273H119.726C119.849 386.49 120.4 387.498 121.382 388.295C122.371 389.083 123.554 389.477 124.929 389.477C126.033 389.477 127.014 389.219 127.872 388.702C128.739 388.185 129.418 387.476 129.909 386.574C130.408 385.663 130.658 384.633 130.658 383.486C130.658 382.312 130.399 381.265 129.883 380.346C129.375 379.417 128.674 378.686 127.78 378.151C126.887 377.617 125.866 377.345 124.719 377.337C123.895 377.328 123.05 377.455 122.183 377.718C121.316 377.972 120.602 378.3 120.041 378.703L116.993 378.335L118.622 365.091H132.602V367.982H121.355L120.409 375.918H120.567C121.119 375.48 121.811 375.116 122.643 374.827C123.475 374.538 124.342 374.393 125.244 374.393C126.891 374.393 128.358 374.788 129.646 375.576C130.942 376.356 131.959 377.424 132.694 378.782C133.439 380.14 133.811 381.69 133.811 383.433C133.811 385.15 133.426 386.683 132.655 388.032C131.893 389.372 130.842 390.432 129.502 391.212C128.161 391.982 126.637 392.368 124.929 392.368ZM147.965 392.368C146.862 392.35 145.758 392.14 144.654 391.737C143.551 391.334 142.543 390.655 141.632 389.701C140.721 388.737 139.99 387.436 139.438 385.798C138.886 384.152 138.61 382.084 138.61 379.597C138.61 377.214 138.834 375.103 139.28 373.263C139.727 371.415 140.375 369.86 141.225 368.599C142.075 367.329 143.1 366.365 144.3 365.708C145.508 365.051 146.87 364.723 148.386 364.723C149.892 364.723 151.233 365.025 152.406 365.63C153.589 366.225 154.553 367.057 155.297 368.126C156.042 369.195 156.523 370.425 156.742 371.818H153.536C153.239 370.609 152.66 369.606 151.802 368.809C150.944 368.012 149.805 367.614 148.386 367.614C146.301 367.614 144.659 368.52 143.459 370.333C142.267 372.147 141.667 374.691 141.659 377.967H141.869C142.359 377.223 142.942 376.588 143.616 376.062C144.3 375.528 145.053 375.116 145.876 374.827C146.7 374.538 147.571 374.393 148.491 374.393C150.033 374.393 151.443 374.779 152.722 375.55C154.001 376.312 155.026 377.367 155.796 378.716C156.567 380.056 156.953 381.594 156.953 383.328C156.953 384.992 156.58 386.517 155.836 387.901C155.091 389.276 154.044 390.371 152.696 391.185C151.355 391.991 149.779 392.385 147.965 392.368ZM147.965 389.477C149.069 389.477 150.059 389.201 150.935 388.65C151.82 388.098 152.516 387.357 153.024 386.429C153.541 385.5 153.799 384.467 153.799 383.328C153.799 382.216 153.55 381.204 153.05 380.293C152.56 379.373 151.881 378.642 151.014 378.099C150.155 377.556 149.174 377.284 148.071 377.284C147.238 377.284 146.463 377.451 145.745 377.783C145.027 378.107 144.396 378.554 143.853 379.124C143.319 379.693 142.898 380.346 142.591 381.081C142.285 381.808 142.132 382.575 142.132 383.381C142.132 384.449 142.381 385.448 142.881 386.376C143.389 387.305 144.081 388.054 144.957 388.623C145.841 389.193 146.844 389.477 147.965 389.477Z" fill="black"/>
<path d="M575.433 229H129.763" stroke="black" stroke-width="2" stroke-miterlimit="8"/>
<path d="M47.1469 225.921L47.1467 350" stroke="black" stroke-width="2" stroke-miterlimit="8"/>
<path d="M1002.17 527V416.936" stroke="black" stroke-width="2" stroke-miterlimit="8"/>
<path d="M779.735 301V243.43" stroke="black" stroke-width="2" stroke-miterlimit="8"/>
<path d="M48.3557 292H171.663V228H48.3557V292Z" fill="white" stroke="black" stroke-width="2" stroke-miterlimit="8"/>
<path d="M82.0874 251.878H89.1174V254.135H82.0874V251.878ZM82.8644 271.192H97.7014V273.449H82.8644V271.192ZM82.7904 277.149H98.1454V279.517H82.7904V277.149ZM80.8294 247.364H83.3454V261.054H80.8294V247.364ZM78.4244 260.647C79.8304 260.376 81.5077 260.018 83.4564 259.574C85.4297 259.13 87.4277 258.674 89.4504 258.205L89.6724 260.351C87.847 260.82 86.0094 261.288 84.1594 261.757C82.334 262.226 80.669 262.645 79.1644 263.015L78.4244 260.647ZM90.7084 247.364H93.2614V258.945C93.2614 259.414 93.323 259.722 93.4464 259.87C93.5944 259.993 93.9274 260.055 94.4454 260.055C94.5934 260.055 94.8277 260.055 95.1484 260.055C95.469 260.055 95.8267 260.055 96.2214 260.055C96.616 260.055 96.9737 260.055 97.2944 260.055C97.6397 260.055 97.8987 260.055 98.0714 260.055C98.392 260.055 98.6264 259.981 98.7744 259.833C98.9224 259.66 99.021 259.315 99.0704 258.797C99.1444 258.279 99.1937 257.527 99.2184 256.54C99.5144 256.762 99.8844 256.972 100.328 257.169C100.772 257.342 101.179 257.465 101.549 257.539C101.475 258.822 101.327 259.821 101.105 260.536C100.883 261.251 100.55 261.745 100.106 262.016C99.687 262.287 99.095 262.423 98.3304 262.423C98.207 262.423 97.948 262.423 97.5534 262.423C97.1587 262.423 96.7147 262.423 96.2214 262.423C95.7527 262.423 95.321 262.423 94.9264 262.423C94.5564 262.423 94.2974 262.423 94.1494 262.423C93.2367 262.423 92.5214 262.324 92.0034 262.127C91.51 261.93 91.1647 261.584 90.9674 261.091C90.7947 260.573 90.7084 259.858 90.7084 258.945V247.364ZM98.8114 249.695L100.772 251.545C99.6377 252.26 98.318 252.951 96.8134 253.617C95.3334 254.258 93.9027 254.838 92.5214 255.356C92.472 255.085 92.361 254.776 92.1884 254.431C92.0157 254.086 91.8554 253.777 91.7074 253.506C92.5707 253.136 93.4464 252.741 94.3344 252.322C95.2224 251.903 96.0487 251.471 96.8134 251.027C97.6027 250.558 98.2687 250.114 98.8114 249.695ZM88.1924 261.609L91.0044 262.201C90.6837 263.04 90.3507 263.878 90.0054 264.717C89.6847 265.556 89.3764 266.283 89.0804 266.9L86.6754 266.308C86.9467 265.667 87.2304 264.902 87.5264 264.014C87.847 263.101 88.069 262.3 88.1924 261.609ZM81.4954 265.346H99.4774V280.738H96.7764V267.714H84.0854V280.886H81.4954V265.346ZM68.9154 248.511H77.2034V251.027H71.3944V280.96H68.9154V248.511ZM76.3524 248.511H76.8334L77.2404 248.363L79.0534 249.473C78.7327 250.484 78.375 251.557 77.9804 252.692C77.6104 253.802 77.2157 254.924 76.7964 256.059C76.4017 257.194 76.007 258.267 75.6124 259.278C76.8704 260.807 77.6967 262.238 78.0914 263.57C78.486 264.902 78.6834 266.135 78.6834 267.27C78.708 268.232 78.6094 269.095 78.3874 269.86C78.1654 270.6 77.7954 271.155 77.2774 271.525C77.0554 271.698 76.784 271.833 76.4634 271.932C76.1674 272.031 75.8344 272.117 75.4644 272.191C75.119 272.216 74.7367 272.24 74.3174 272.265C73.9227 272.265 73.528 272.253 73.1334 272.228C73.1087 271.883 73.0347 271.488 72.9114 271.044C72.8127 270.575 72.6647 270.156 72.4674 269.786C72.862 269.811 73.2197 269.835 73.5404 269.86C73.861 269.86 74.1447 269.848 74.3914 269.823C74.8847 269.823 75.267 269.724 75.5384 269.527C75.785 269.33 75.9577 268.997 76.0564 268.528C76.1797 268.035 76.2414 267.517 76.2414 266.974C76.2167 265.963 76.007 264.84 75.6124 263.607C75.2177 262.374 74.4037 261.029 73.1704 259.574C73.4664 258.735 73.7624 257.847 74.0584 256.91C74.379 255.973 74.675 255.035 74.9464 254.098C75.2424 253.161 75.5014 252.285 75.7234 251.471C75.97 250.632 76.1797 249.892 76.3524 249.251V248.511ZM120.197 263.348H134.479V265.864H120.197V263.348ZM108.431 256.54H118.31V259.13H108.431V256.54ZM108.431 263.644H118.643V266.234H108.431V263.644ZM123.601 248.474H132.259V250.916H123.601V248.474ZM133.924 263.348H134.442L134.96 263.237L136.736 263.94C135.824 267.097 134.479 269.811 132.703 272.08C130.952 274.325 128.892 276.175 126.524 277.63C124.156 279.085 121.603 280.22 118.865 281.034C118.767 280.787 118.631 280.504 118.458 280.183C118.286 279.887 118.101 279.591 117.903 279.295C117.706 279.024 117.521 278.789 117.348 278.592C119.864 277.951 122.232 276.976 124.452 275.669C126.697 274.362 128.646 272.721 130.298 270.748C131.951 268.775 133.16 266.468 133.924 263.829V263.348ZM124.156 265.716C125.34 268.873 127.166 271.562 129.632 273.782C132.124 275.977 135.133 277.544 138.66 278.481C138.463 278.678 138.241 278.913 137.994 279.184C137.772 279.48 137.563 279.776 137.365 280.072C137.168 280.393 136.995 280.676 136.847 280.923C133.172 279.788 130.064 277.988 127.523 275.521C125.007 273.03 123.071 269.996 121.714 266.419L124.156 265.716ZM107.136 249.732L109.8 250.583V280.923H107.136V249.732ZM104.102 272.783C105.385 272.586 106.865 272.351 108.542 272.08C110.244 271.809 112.045 271.513 113.944 271.192C115.844 270.871 117.731 270.551 119.605 270.23L119.716 272.783C117.94 273.104 116.14 273.437 114.314 273.782C112.489 274.103 110.75 274.411 109.097 274.707C107.445 275.003 105.94 275.274 104.583 275.521L104.102 272.783ZM122.306 248.474H124.896V253.802C124.896 254.789 124.785 255.837 124.563 256.947C124.341 258.057 123.91 259.118 123.268 260.129C122.627 261.14 121.677 262.041 120.419 262.83C120.296 262.633 120.123 262.411 119.901 262.164C119.679 261.917 119.433 261.683 119.161 261.461C118.915 261.214 118.693 261.042 118.495 260.943C119.63 260.252 120.469 259.512 121.011 258.723C121.554 257.909 121.899 257.083 122.047 256.244C122.22 255.381 122.306 254.542 122.306 253.728V248.474ZM117.459 246.957L119.827 248.918C118.816 249.411 117.681 249.88 116.423 250.324C115.165 250.768 113.87 251.175 112.538 251.545C111.206 251.915 109.911 252.248 108.653 252.544C108.579 252.248 108.444 251.89 108.246 251.471C108.074 251.052 107.901 250.706 107.728 250.435C108.912 250.139 110.109 249.806 111.317 249.436C112.526 249.041 113.661 248.634 114.721 248.215C115.807 247.796 116.719 247.376 117.459 246.957ZM130.742 248.474H133.369V257.613C133.369 257.958 133.382 258.242 133.406 258.464C133.431 258.661 133.48 258.797 133.554 258.871C133.678 258.945 133.875 258.982 134.146 258.982C134.27 258.982 134.43 258.982 134.627 258.982C134.849 258.982 135.047 258.982 135.219 258.982C135.367 258.982 135.515 258.97 135.663 258.945C135.811 258.92 135.922 258.896 135.996 258.871C136.169 258.772 136.305 258.489 136.403 258.02C136.428 257.749 136.453 257.342 136.477 256.799C136.502 256.232 136.527 255.578 136.551 254.838C136.798 255.06 137.119 255.27 137.513 255.467C137.933 255.664 138.327 255.825 138.697 255.948C138.648 256.663 138.586 257.391 138.512 258.131C138.463 258.846 138.389 259.352 138.29 259.648C138.093 260.24 137.723 260.659 137.18 260.906C136.983 261.029 136.712 261.116 136.366 261.165C136.046 261.214 135.737 261.239 135.441 261.239C135.195 261.239 134.862 261.239 134.442 261.239C134.048 261.239 133.752 261.239 133.554 261.239C133.209 261.239 132.839 261.19 132.444 261.091C132.05 260.992 131.729 260.832 131.482 260.61C131.211 260.363 131.014 260.043 130.89 259.648C130.792 259.229 130.742 258.489 130.742 257.428V248.474Z" fill="black"/>
<path d="M851.54 286.744C851.54 286.399 851.54 285.708 851.54 284.672C851.54 283.611 851.54 282.366 851.54 280.935C851.54 279.48 851.54 277.963 851.54 276.384C851.54 274.781 851.54 273.227 851.54 271.722C851.54 270.217 851.54 268.885 851.54 267.726C851.54 266.567 851.54 265.728 851.54 265.21C851.54 264.692 851.516 264.063 851.466 263.323C851.417 262.583 851.343 261.929 851.244 261.362H854.87C854.821 261.905 854.759 262.546 854.685 263.286C854.636 264.026 854.611 264.667 854.611 265.21C854.611 266.172 854.611 267.331 854.611 268.688C854.611 270.02 854.611 271.451 854.611 272.98C854.611 274.485 854.611 275.989 854.611 277.494C854.636 278.974 854.648 280.368 854.648 281.675C854.648 282.958 854.648 284.055 854.648 284.968C854.648 285.856 854.648 286.448 854.648 286.744C854.648 287.139 854.648 287.595 854.648 288.113C854.673 288.631 854.71 289.161 854.759 289.704C854.809 290.222 854.846 290.691 854.87 291.11H851.281C851.38 290.518 851.442 289.815 851.466 289.001C851.516 288.187 851.54 287.435 851.54 286.744ZM853.982 271.056C855.191 271.426 856.523 271.87 857.978 272.388C859.458 272.881 860.963 273.412 862.492 273.979C864.022 274.546 865.465 275.126 866.821 275.718C868.203 276.285 869.399 276.828 870.41 277.346L869.152 280.491C868.092 279.899 866.895 279.319 865.563 278.752C864.231 278.16 862.862 277.58 861.456 277.013C860.075 276.446 858.731 275.94 857.423 275.496C856.141 275.027 854.994 274.645 853.982 274.349V271.056ZM879.253 276.643C882.46 275.78 885.445 274.731 888.207 273.498C890.97 272.265 893.375 271.007 895.422 269.724C896.705 268.91 897.951 268.034 899.159 267.097C900.393 266.135 901.552 265.136 902.637 264.1C903.723 263.064 904.685 262.04 905.523 261.029L908.002 263.323C906.966 264.433 905.844 265.518 904.635 266.579C903.427 267.64 902.144 268.663 900.787 269.65C899.455 270.612 898.062 271.549 896.606 272.462C895.25 273.276 893.72 274.115 892.018 274.978C890.316 275.841 888.503 276.655 886.579 277.42C884.655 278.185 882.707 278.888 880.733 279.529L879.253 276.643ZM894.83 271.278L898.012 270.316V287.188C898.012 287.657 898.012 288.15 898.012 288.668C898.037 289.186 898.062 289.667 898.086 290.111C898.136 290.555 898.185 290.9 898.234 291.147H894.608C894.633 290.9 894.658 290.555 894.682 290.111C894.732 289.667 894.769 289.186 894.793 288.668C894.818 288.15 894.83 287.657 894.83 287.188V271.278ZM921.285 288.816C921.433 288.52 921.532 288.236 921.581 287.965C921.631 287.694 921.655 287.373 921.655 287.003C921.655 286.633 921.655 285.942 921.655 284.931C921.655 283.92 921.655 282.711 921.655 281.305C921.655 279.899 921.655 278.431 921.655 276.902C921.655 275.348 921.655 273.843 921.655 272.388C921.655 270.908 921.655 269.601 921.655 268.466C921.655 267.307 921.655 266.431 921.655 265.839C921.655 265.518 921.631 265.136 921.581 264.692C921.557 264.248 921.52 263.829 921.47 263.434C921.446 263.039 921.396 262.719 921.322 262.472H924.985C924.911 262.916 924.85 263.459 924.8 264.1C924.751 264.717 924.726 265.296 924.726 265.839C924.726 266.332 924.726 267.048 924.726 267.985C924.726 268.922 924.726 269.995 924.726 271.204C924.726 272.388 924.726 273.646 924.726 274.978C924.726 276.31 924.726 277.617 924.726 278.9C924.726 280.183 924.726 281.379 924.726 282.489C924.726 283.574 924.726 284.499 924.726 285.264C924.726 286.029 924.726 286.547 924.726 286.818C926.502 286.374 928.328 285.745 930.202 284.931C932.102 284.117 933.952 283.167 935.752 282.082C937.578 280.972 939.28 279.763 940.858 278.456C942.462 277.124 943.831 275.706 944.965 274.201L946.63 276.791C944.238 279.776 941.179 282.39 937.454 284.635C933.754 286.88 929.598 288.668 924.985 290C924.788 290.049 924.554 290.123 924.282 290.222C924.011 290.345 923.727 290.493 923.431 290.666L921.285 288.816Z" fill="black"/>
<path d="M223.645 458H397.725V292H223.645V458Z" fill="#FFE661" stroke="black" stroke-width="2" stroke-miterlimit="8"/>
<path d="M270.961 392V365.091H287.096V367.982H274.219V377.074H285.887V379.964H274.219V392H270.961ZM300.613 392.368C299.071 392.368 297.683 392.061 296.448 391.448C295.212 390.835 294.223 389.994 293.478 388.925C292.734 387.857 292.326 386.639 292.256 385.273H295.41C295.532 386.49 296.084 387.498 297.065 388.295C298.055 389.083 299.237 389.477 300.613 389.477C301.716 389.477 302.697 389.219 303.556 388.702C304.423 388.185 305.102 387.476 305.592 386.574C306.092 385.663 306.341 384.633 306.341 383.486C306.341 382.312 306.083 381.265 305.566 380.346C305.058 379.417 304.357 378.686 303.464 378.151C302.57 377.617 301.55 377.345 300.402 377.337C299.579 377.328 298.734 377.455 297.867 377.718C296.999 377.972 296.286 378.3 295.725 378.703L292.677 378.335L294.306 365.091H308.286V367.982H297.039L296.093 375.918H296.25C296.802 375.48 297.494 375.116 298.326 374.827C299.159 374.538 300.026 374.393 300.928 374.393C302.575 374.393 304.042 374.788 305.33 375.576C306.626 376.356 307.642 377.424 308.378 378.782C309.123 380.14 309.495 381.69 309.495 383.433C309.495 385.15 309.109 386.683 308.339 388.032C307.576 389.372 306.525 390.432 305.185 391.212C303.845 391.982 302.321 392.368 300.613 392.368ZM323.123 392.368C321.582 392.368 320.193 392.061 318.958 391.448C317.723 390.835 316.733 389.994 315.989 388.925C315.244 387.857 314.837 386.639 314.767 385.273H317.92C318.043 386.49 318.595 387.498 319.576 388.295C320.566 389.083 321.748 389.477 323.123 389.477C324.227 389.477 325.208 389.219 326.067 388.702C326.934 388.185 327.613 387.476 328.103 386.574C328.602 385.663 328.852 384.633 328.852 383.486C328.852 382.312 328.594 381.265 328.077 380.346C327.569 379.417 326.868 378.686 325.975 378.151C325.081 377.617 324.061 377.345 322.913 377.337C322.09 377.328 321.245 377.455 320.377 377.718C319.51 377.972 318.796 378.3 318.236 378.703L315.187 378.335L316.817 365.091H330.797V367.982H319.55L318.604 375.918H318.761C319.313 375.48 320.005 375.116 320.837 374.827C321.669 374.538 322.537 374.393 323.439 374.393C325.086 374.393 326.553 374.788 327.84 375.576C329.137 376.356 330.153 377.424 330.889 378.782C331.633 380.14 332.006 381.69 332.006 383.433C332.006 385.15 331.62 386.683 330.849 388.032C330.087 389.372 329.036 390.432 327.696 391.212C326.356 391.982 324.832 392.368 323.123 392.368Z" fill="black"/>
<path d="M396.517 458H570.597V292H396.517V458Z" fill="#FFE661" stroke="black" stroke-width="2" stroke-miterlimit="8"/>
<path d="M443.18 392V365.091H459.315V367.982H446.439V377.074H458.106V379.964H446.439V392H443.18ZM472.832 392.368C471.29 392.368 469.902 392.061 468.667 391.448C467.432 390.835 466.442 389.994 465.697 388.925C464.953 387.857 464.545 386.639 464.475 385.273H467.629C467.751 386.49 468.303 387.498 469.284 388.295C470.274 389.083 471.457 389.477 472.832 389.477C473.936 389.477 474.917 389.219 475.775 388.702C476.642 388.185 477.321 387.476 477.812 386.574C478.311 385.663 478.561 384.633 478.561 383.486C478.561 382.312 478.302 381.265 477.785 380.346C477.277 379.417 476.577 378.686 475.683 378.151C474.79 377.617 473.769 377.345 472.622 377.337C471.798 377.328 470.953 377.455 470.086 377.718C469.219 377.972 468.505 378.3 467.944 378.703L464.896 378.335L466.525 365.091H480.505V367.982H469.258L468.312 375.918H468.47C469.022 375.48 469.714 375.116 470.546 374.827C471.378 374.538 472.245 374.393 473.147 374.393C474.794 374.393 476.261 374.788 477.549 375.576C478.845 376.356 479.861 377.424 480.597 378.782C481.342 380.14 481.714 381.69 481.714 383.433C481.714 385.15 481.329 386.683 480.558 388.032C479.796 389.372 478.745 390.432 477.404 391.212C476.064 391.982 474.54 392.368 472.832 392.368ZM486.303 386.482V383.801L498.128 365.091H500.073V369.243H498.759L489.824 383.381V383.591H505.749V386.482H486.303ZM498.969 392V385.667V384.419V365.091H502.07V392H498.969Z" fill="black"/>
<path d="M1002.17 527H1175.04V354H1002.17V527Z" fill="#FFE661" stroke="black" stroke-width="2" stroke-miterlimit="8"/>
<path d="M1048.66 458V431.091H1064.8V433.982H1051.92V443.074H1063.59V445.964H1051.92V458H1048.66ZM1078.31 458.368C1076.77 458.368 1075.38 458.061 1074.15 457.448C1072.91 456.835 1071.92 455.994 1071.18 454.925C1070.43 453.857 1070.03 452.639 1069.96 451.273H1073.11C1073.23 452.49 1073.78 453.498 1074.76 454.295C1075.75 455.083 1076.94 455.477 1078.31 455.477C1079.42 455.477 1080.4 455.219 1081.26 454.702C1082.12 454.185 1082.8 453.476 1083.29 452.574C1083.79 451.663 1084.04 450.633 1084.04 449.486C1084.04 448.312 1083.78 447.265 1083.27 446.346C1082.76 445.417 1082.06 444.686 1081.16 444.151C1080.27 443.617 1079.25 443.345 1078.1 443.337C1077.28 443.328 1076.43 443.455 1075.57 443.718C1074.7 443.972 1073.99 444.3 1073.42 444.703L1070.38 444.335L1072.01 431.091H1085.99V433.982H1074.74L1073.79 441.918H1073.95C1074.5 441.48 1075.19 441.116 1076.03 440.827C1076.86 440.538 1077.73 440.393 1078.63 440.393C1080.27 440.393 1081.74 440.788 1083.03 441.576C1084.33 442.356 1085.34 443.424 1086.08 444.782C1086.82 446.14 1087.19 447.69 1087.19 449.433C1087.19 451.15 1086.81 452.683 1086.04 454.032C1085.28 455.372 1084.23 456.432 1082.88 457.212C1081.54 457.982 1080.02 458.368 1078.31 458.368ZM1101.51 458.368C1099.77 458.368 1098.23 458.07 1096.87 457.474C1095.52 456.879 1094.45 456.051 1093.65 454.991C1092.86 453.922 1092.43 452.683 1092.36 451.273H1095.67C1095.74 452.14 1096.04 452.889 1096.57 453.52C1097.09 454.141 1097.78 454.623 1098.63 454.965C1099.48 455.306 1100.42 455.477 1101.45 455.477C1102.61 455.477 1103.63 455.276 1104.53 454.873C1105.42 454.47 1106.12 453.909 1106.63 453.191C1107.14 452.473 1107.39 451.641 1107.39 450.695C1107.39 449.705 1107.15 448.833 1106.66 448.08C1106.17 447.318 1105.45 446.722 1104.5 446.293C1103.56 445.864 1102.4 445.649 1101.03 445.649H1098.88V442.759H1101.03C1102.1 442.759 1103.04 442.566 1103.85 442.18C1104.66 441.795 1105.29 441.252 1105.75 440.551C1106.21 439.85 1106.45 439.027 1106.45 438.081C1106.45 437.17 1106.25 436.377 1105.84 435.703C1105.44 435.028 1104.87 434.503 1104.13 434.126C1103.41 433.749 1102.55 433.561 1101.56 433.561C1100.63 433.561 1099.75 433.732 1098.93 434.074C1098.12 434.406 1097.45 434.893 1096.93 435.532C1096.42 436.163 1096.14 436.925 1096.09 437.818H1092.94C1092.99 436.408 1093.42 435.173 1094.21 434.113C1095.01 433.044 1096.05 432.212 1097.34 431.616C1098.64 431.021 1100.06 430.723 1101.61 430.723C1103.28 430.723 1104.7 431.06 1105.89 431.735C1107.09 432.4 1108 433.281 1108.64 434.376C1109.28 435.471 1109.6 436.653 1109.6 437.923C1109.6 439.439 1109.2 440.731 1108.4 441.799C1107.62 442.868 1106.54 443.608 1105.19 444.02V444.23C1106.88 444.51 1108.21 445.233 1109.17 446.398C1110.12 447.554 1110.6 448.987 1110.6 450.695C1110.6 452.157 1110.2 453.471 1109.4 454.636C1108.61 455.793 1107.54 456.704 1106.17 457.369C1104.8 458.035 1103.25 458.368 1101.51 458.368Z" fill="black"/>
<path d="M1512.32 312L1512.32 360" stroke="black" stroke-width="2" stroke-miterlimit="8"/>
</g>
</g>
<defs>
<clipPath id="clip0_14_105">
<rect width="1547.38" height="720" fill="white" transform="matrix(-1 0 0 -1 1547.38 720)"/>
</clipPath>
</defs>
</svg>
