<svg width="1280" height="720" viewBox="0 0 1280 720" fill="none" xmlns="http://www.w3.org/2000/svg">
<g clip-path="url(#clip0_14_179)">
<mask id="mask0_14_179" style="mask-type:luminance" maskUnits="userSpaceOnUse" x="0" y="0" width="1280" height="720">
<path d="M0 720H1280V0H0V720Z" fill="white"/>
</mask>
<g mask="url(#mask0_14_179)">
<path d="M0 720H1280V0H0V720Z" fill="white"/>
<path d="M1110 527H1251V354H1110V527Z" fill="#FFE661" stroke="black" stroke-width="2" stroke-miterlimit="8"/>
<path d="M1153.45 457V430.091H1169.58V432.982H1156.71V442.074H1168.37V444.964H1156.71V457H1153.45ZM1183.62 457.368C1182.52 457.35 1181.42 457.14 1180.31 456.737C1179.21 456.334 1178.2 455.655 1177.29 454.701C1176.38 453.737 1175.65 452.436 1175.1 450.798C1174.55 449.152 1174.27 447.084 1174.27 444.597C1174.27 442.214 1174.49 440.103 1174.94 438.263C1175.39 436.415 1176.03 434.86 1176.88 433.599C1177.73 432.329 1178.76 431.365 1179.96 430.708C1181.17 430.051 1182.53 429.723 1184.05 429.723C1185.55 429.723 1186.89 430.025 1188.07 430.63C1189.25 431.225 1190.21 432.057 1190.96 433.126C1191.7 434.195 1192.18 435.425 1192.4 436.818H1189.2C1188.9 435.609 1188.32 434.606 1187.46 433.809C1186.6 433.012 1185.46 432.614 1184.05 432.614C1181.96 432.614 1180.32 433.52 1179.12 435.333C1177.93 437.147 1177.33 439.691 1177.32 442.967H1177.53C1178.02 442.223 1178.6 441.588 1179.28 441.062C1179.96 440.528 1180.71 440.116 1181.54 439.827C1182.36 439.538 1183.23 439.393 1184.15 439.393C1185.69 439.393 1187.1 439.779 1188.38 440.55C1189.66 441.312 1190.68 442.367 1191.46 443.716C1192.23 445.056 1192.61 446.594 1192.61 448.328C1192.61 449.992 1192.24 451.517 1191.5 452.901C1190.75 454.276 1189.7 455.371 1188.35 456.185C1187.01 456.991 1185.44 457.385 1183.62 457.368ZM1183.62 454.477C1184.73 454.477 1185.72 454.201 1186.59 453.65C1187.48 453.098 1188.18 452.357 1188.68 451.429C1189.2 450.5 1189.46 449.467 1189.46 448.328C1189.46 447.216 1189.21 446.204 1188.71 445.293C1188.22 444.373 1187.54 443.642 1186.67 443.099C1185.81 442.556 1184.83 442.284 1183.73 442.284C1182.9 442.284 1182.12 442.451 1181.4 442.783C1180.69 443.107 1180.06 443.554 1179.51 444.124C1178.98 444.693 1178.56 445.346 1178.25 446.081C1177.94 446.808 1177.79 447.575 1177.79 448.381C1177.79 449.449 1178.04 450.448 1178.54 451.376C1179.05 452.305 1179.74 453.054 1180.62 453.623C1181.5 454.193 1182.5 454.477 1183.62 454.477ZM1207.24 430.091V457H1203.98V433.507H1203.82L1197.25 437.869V434.558L1203.98 430.091H1207.24Z" fill="black"/>
<path d="M969 526H1110V354H969V526Z" fill="#FFE661" stroke="black" stroke-width="2" stroke-miterlimit="8"/>
<path d="M1008.35 457V430.091H1024.49V432.982H1011.61V442.074H1023.28V444.964H1011.61V457H1008.35ZM1038.53 457.368C1037.42 457.35 1036.32 457.14 1035.22 456.737C1034.11 456.334 1033.11 455.655 1032.19 454.701C1031.28 453.737 1030.55 452.436 1030 450.798C1029.45 449.152 1029.17 447.084 1029.17 444.597C1029.17 442.214 1029.4 440.103 1029.84 438.263C1030.29 436.415 1030.94 434.86 1031.79 433.599C1032.64 432.329 1033.66 431.365 1034.86 430.708C1036.07 430.051 1037.43 429.723 1038.95 429.723C1040.46 429.723 1041.8 430.025 1042.97 430.63C1044.15 431.225 1045.12 432.057 1045.86 433.126C1046.6 434.195 1047.09 435.425 1047.31 436.818H1044.1C1043.8 435.609 1043.22 434.606 1042.36 433.809C1041.51 433.012 1040.37 432.614 1038.95 432.614C1036.86 432.614 1035.22 433.52 1034.02 435.333C1032.83 437.147 1032.23 439.691 1032.22 442.967H1032.43C1032.92 442.223 1033.5 441.588 1034.18 441.062C1034.86 440.528 1035.62 440.116 1036.44 439.827C1037.26 439.538 1038.13 439.393 1039.05 439.393C1040.6 439.393 1042.01 439.779 1043.28 440.55C1044.56 441.312 1045.59 442.367 1046.36 443.716C1047.13 445.056 1047.52 446.594 1047.52 448.328C1047.52 449.992 1047.14 451.517 1046.4 452.901C1045.65 454.276 1044.61 455.371 1043.26 456.185C1041.92 456.991 1040.34 457.385 1038.53 457.368ZM1038.53 454.477C1039.63 454.477 1040.62 454.201 1041.5 453.65C1042.38 453.098 1043.08 452.357 1043.59 451.429C1044.1 450.5 1044.36 449.467 1044.36 448.328C1044.36 447.216 1044.11 446.204 1043.61 445.293C1043.12 444.373 1042.44 443.642 1041.58 443.099C1040.72 442.556 1039.74 442.284 1038.63 442.284C1037.8 442.284 1037.03 442.451 1036.31 442.783C1035.59 443.107 1034.96 443.554 1034.42 444.124C1033.88 444.693 1033.46 445.346 1033.15 446.081C1032.85 446.808 1032.69 447.575 1032.69 448.381C1032.69 449.449 1032.94 450.448 1033.44 451.376C1033.95 452.305 1034.64 453.054 1035.52 453.623C1036.4 454.193 1037.41 454.477 1038.53 454.477ZM1052.68 457V454.635L1061.56 444.912C1062.61 443.773 1063.47 442.783 1064.14 441.942C1064.81 441.093 1065.31 440.296 1065.64 439.551C1065.97 438.798 1066.14 438.009 1066.14 437.186C1066.14 436.24 1065.91 435.421 1065.45 434.729C1065.01 434.037 1064.39 433.503 1063.61 433.126C1062.83 432.749 1061.96 432.561 1060.99 432.561C1059.95 432.561 1059.05 432.776 1058.28 433.205C1057.52 433.625 1056.93 434.217 1056.51 434.979C1056.09 435.741 1055.89 436.634 1055.89 437.659H1052.79C1052.79 436.082 1053.15 434.698 1053.88 433.507C1054.6 432.316 1055.59 431.387 1056.85 430.722C1058.11 430.056 1059.52 429.723 1061.09 429.723C1062.67 429.723 1064.07 430.056 1065.28 430.722C1066.5 431.387 1067.46 432.285 1068.15 433.415C1068.84 434.545 1069.19 435.802 1069.19 437.186C1069.19 438.176 1069.01 439.144 1068.65 440.09C1068.3 441.027 1067.68 442.074 1066.81 443.23C1065.94 444.378 1064.74 445.779 1063.19 447.435L1057.15 453.899V454.109H1069.66V457H1052.68Z" fill="black"/>
<path d="M689 424H829V354H689V424Z" fill="white" stroke="black" stroke-width="2" stroke-miterlimit="8"/>
<path d="M738.944 378.878H745.974V381.135H738.944V378.878ZM739.721 398.192H754.558V400.449H739.721V398.192ZM739.647 404.149H755.002V406.517H739.647V404.149ZM737.686 374.364H740.202V388.054H737.686V374.364ZM735.281 387.647C736.687 387.376 738.364 387.018 740.313 386.574C742.286 386.13 744.284 385.674 746.307 385.205L746.529 387.351C744.704 387.82 742.866 388.288 741.016 388.757C739.191 389.226 737.526 389.645 736.021 390.015L735.281 387.647ZM747.565 374.364H750.118V385.945C750.118 386.414 750.18 386.722 750.303 386.87C750.451 386.993 750.784 387.055 751.302 387.055C751.45 387.055 751.684 387.055 752.005 387.055C752.326 387.055 752.683 387.055 753.078 387.055C753.473 387.055 753.83 387.055 754.151 387.055C754.496 387.055 754.755 387.055 754.928 387.055C755.249 387.055 755.483 386.981 755.631 386.833C755.779 386.66 755.878 386.315 755.927 385.797C756.001 385.279 756.05 384.527 756.075 383.54C756.371 383.762 756.741 383.972 757.185 384.169C757.629 384.342 758.036 384.465 758.406 384.539C758.332 385.822 758.184 386.821 757.962 387.536C757.74 388.251 757.407 388.745 756.963 389.016C756.544 389.287 755.952 389.423 755.187 389.423C755.064 389.423 754.805 389.423 754.41 389.423C754.015 389.423 753.571 389.423 753.078 389.423C752.609 389.423 752.178 389.423 751.783 389.423C751.413 389.423 751.154 389.423 751.006 389.423C750.093 389.423 749.378 389.324 748.86 389.127C748.367 388.93 748.021 388.584 747.824 388.091C747.651 387.573 747.565 386.858 747.565 385.945V374.364ZM755.668 376.695L757.629 378.545C756.494 379.26 755.175 379.951 753.67 380.617C752.19 381.258 750.759 381.838 749.378 382.356C749.329 382.085 749.218 381.776 749.045 381.431C748.872 381.086 748.712 380.777 748.564 380.506C749.427 380.136 750.303 379.741 751.191 379.322C752.079 378.903 752.905 378.471 753.67 378.027C754.459 377.558 755.125 377.114 755.668 376.695ZM745.049 388.609L747.861 389.201C747.54 390.04 747.207 390.878 746.862 391.717C746.541 392.556 746.233 393.283 745.937 393.9L743.532 393.308C743.803 392.667 744.087 391.902 744.383 391.014C744.704 390.101 744.926 389.3 745.049 388.609ZM738.352 392.346H756.334V407.738H753.633V394.714H740.942V407.886H738.352V392.346ZM725.772 375.511H734.06V378.027H728.251V407.96H725.772V375.511ZM733.209 375.511H733.69L734.097 375.363L735.91 376.473C735.589 377.484 735.232 378.557 734.837 379.692C734.467 380.802 734.072 381.924 733.653 383.059C733.258 384.194 732.864 385.267 732.469 386.278C733.727 387.807 734.553 389.238 734.948 390.57C735.343 391.902 735.54 393.135 735.54 394.27C735.565 395.232 735.466 396.095 735.244 396.86C735.022 397.6 734.652 398.155 734.134 398.525C733.912 398.698 733.641 398.833 733.32 398.932C733.024 399.031 732.691 399.117 732.321 399.191C731.976 399.216 731.593 399.24 731.174 399.265C730.779 399.265 730.385 399.253 729.99 399.228C729.965 398.883 729.891 398.488 729.768 398.044C729.669 397.575 729.521 397.156 729.324 396.786C729.719 396.811 730.076 396.835 730.397 396.86C730.718 396.86 731.001 396.848 731.248 396.823C731.741 396.823 732.124 396.724 732.395 396.527C732.642 396.33 732.814 395.997 732.913 395.528C733.036 395.035 733.098 394.517 733.098 393.974C733.073 392.963 732.864 391.84 732.469 390.607C732.074 389.374 731.26 388.029 730.027 386.574C730.323 385.735 730.619 384.847 730.915 383.91C731.236 382.973 731.532 382.035 731.803 381.098C732.099 380.161 732.358 379.285 732.58 378.471C732.827 377.632 733.036 376.892 733.209 376.251V375.511ZM777.054 390.348H791.336V392.864H777.054V390.348ZM765.288 383.54H775.167V386.13H765.288V383.54ZM765.288 390.644H775.5V393.234H765.288V390.644ZM780.458 375.474H789.116V377.916H780.458V375.474ZM790.781 390.348H791.299L791.817 390.237L793.593 390.94C792.68 394.097 791.336 396.811 789.56 399.08C787.809 401.325 785.749 403.175 783.381 404.63C781.013 406.085 778.46 407.22 775.722 408.034C775.623 407.787 775.488 407.504 775.315 407.183C775.142 406.887 774.957 406.591 774.76 406.295C774.563 406.024 774.378 405.789 774.205 405.592C776.721 404.951 779.089 403.976 781.309 402.669C783.554 401.362 785.502 399.721 787.155 397.748C788.808 395.775 790.016 393.468 790.781 390.829V390.348ZM781.013 392.716C782.197 395.873 784.022 398.562 786.489 400.782C788.98 402.977 791.99 404.544 795.517 405.481C795.32 405.678 795.098 405.913 794.851 406.184C794.629 406.48 794.419 406.776 794.222 407.072C794.025 407.393 793.852 407.676 793.704 407.923C790.029 406.788 786.921 404.988 784.38 402.521C781.864 400.03 779.928 396.996 778.571 393.419L781.013 392.716ZM763.993 376.732L766.657 377.583V407.923H763.993V376.732ZM760.959 399.783C762.242 399.586 763.722 399.351 765.399 399.08C767.101 398.809 768.902 398.513 770.801 398.192C772.7 397.871 774.587 397.551 776.462 397.23L776.573 399.783C774.797 400.104 772.996 400.437 771.171 400.782C769.346 401.103 767.607 401.411 765.954 401.707C764.301 402.003 762.797 402.274 761.44 402.521L760.959 399.783ZM779.163 375.474H781.753V380.802C781.753 381.789 781.642 382.837 781.42 383.947C781.198 385.057 780.766 386.118 780.125 387.129C779.484 388.14 778.534 389.041 777.276 389.83C777.153 389.633 776.98 389.411 776.758 389.164C776.536 388.917 776.289 388.683 776.018 388.461C775.771 388.214 775.549 388.042 775.352 387.943C776.487 387.252 777.325 386.512 777.868 385.723C778.411 384.909 778.756 384.083 778.904 383.244C779.077 382.381 779.163 381.542 779.163 380.728V375.474ZM774.316 373.957L776.684 375.918C775.673 376.411 774.538 376.88 773.28 377.324C772.022 377.768 770.727 378.175 769.395 378.545C768.063 378.915 766.768 379.248 765.51 379.544C765.436 379.248 765.3 378.89 765.103 378.471C764.93 378.052 764.758 377.706 764.585 377.435C765.769 377.139 766.965 376.806 768.174 376.436C769.383 376.041 770.517 375.634 771.578 375.215C772.663 374.796 773.576 374.376 774.316 373.957ZM787.599 375.474H790.226V384.613C790.226 384.958 790.238 385.242 790.263 385.464C790.288 385.661 790.337 385.797 790.411 385.871C790.534 385.945 790.732 385.982 791.003 385.982C791.126 385.982 791.287 385.982 791.484 385.982C791.706 385.982 791.903 385.982 792.076 385.982C792.224 385.982 792.372 385.97 792.52 385.945C792.668 385.92 792.779 385.896 792.853 385.871C793.026 385.772 793.161 385.489 793.26 385.02C793.285 384.749 793.309 384.342 793.334 383.799C793.359 383.232 793.383 382.578 793.408 381.838C793.655 382.06 793.975 382.27 794.37 382.467C794.789 382.664 795.184 382.825 795.554 382.948C795.505 383.663 795.443 384.391 795.369 385.131C795.32 385.846 795.246 386.352 795.147 386.648C794.95 387.24 794.58 387.659 794.037 387.906C793.84 388.029 793.568 388.116 793.223 388.165C792.902 388.214 792.594 388.239 792.298 388.239C792.051 388.239 791.718 388.239 791.299 388.239C790.904 388.239 790.608 388.239 790.411 388.239C790.066 388.239 789.696 388.19 789.301 388.091C788.906 387.992 788.586 387.832 788.339 387.61C788.068 387.363 787.87 387.043 787.747 386.648C787.648 386.229 787.599 385.489 787.599 384.428V375.474Z" fill="black"/>
<path d="M473 424H689V354H473V424Z" fill="white" stroke="black" stroke-width="2" stroke-miterlimit="8"/>
<path d="M496.122 380.247C496.615 380.321 497.158 380.383 497.75 380.432C498.367 380.457 498.86 380.469 499.23 380.469H519.58C520.147 380.469 520.702 380.444 521.245 380.395C521.788 380.346 522.281 380.296 522.725 380.247V383.503C522.256 383.454 521.738 383.417 521.171 383.392C520.628 383.367 520.098 383.355 519.58 383.355H499.23C498.885 383.355 498.391 383.367 497.75 383.392C497.133 383.417 496.591 383.454 496.122 383.503V380.247ZM507.555 401.966V382.097H510.7V401.966H507.555ZM493.865 400.153C494.408 400.227 494.95 400.289 495.493 400.338C496.06 400.363 496.603 400.375 497.121 400.375H521.578C522.145 400.375 522.676 400.35 523.169 400.301C523.687 400.252 524.18 400.202 524.649 400.153V403.52C524.156 403.471 523.613 403.434 523.021 403.409C522.429 403.384 521.948 403.372 521.578 403.372H497.121C496.628 403.372 496.097 403.384 495.53 403.409C494.987 403.434 494.432 403.471 493.865 403.52V400.153ZM535.971 403.816C536.119 403.52 536.218 403.236 536.267 402.965C536.316 402.694 536.341 402.373 536.341 402.003C536.341 401.633 536.341 400.942 536.341 399.931C536.341 398.92 536.341 397.711 536.341 396.305C536.341 394.899 536.341 393.431 536.341 391.902C536.341 390.348 536.341 388.843 536.341 387.388C536.341 385.908 536.341 384.601 536.341 383.466C536.341 382.307 536.341 381.431 536.341 380.839C536.341 380.518 536.316 380.136 536.267 379.692C536.242 379.248 536.205 378.829 536.156 378.434C536.131 378.039 536.082 377.719 536.008 377.472H539.671C539.597 377.916 539.535 378.459 539.486 379.1C539.437 379.717 539.412 380.296 539.412 380.839C539.412 381.332 539.412 382.048 539.412 382.985C539.412 383.922 539.412 384.995 539.412 386.204C539.412 387.388 539.412 388.646 539.412 389.978C539.412 391.31 539.412 392.617 539.412 393.9C539.412 395.183 539.412 396.379 539.412 397.489C539.412 398.574 539.412 399.499 539.412 400.264C539.412 401.029 539.412 401.547 539.412 401.818C541.188 401.374 543.013 400.745 544.888 399.931C546.787 399.117 548.637 398.167 550.438 397.082C552.263 395.972 553.965 394.763 555.544 393.456C557.147 392.124 558.516 390.706 559.651 389.201L561.316 391.791C558.923 394.776 555.865 397.39 552.14 399.635C548.44 401.88 544.284 403.668 539.671 405C539.474 405.049 539.239 405.123 538.968 405.222C538.697 405.345 538.413 405.493 538.117 405.666L535.971 403.816ZM590.324 379.914C590.645 380.358 591.015 380.925 591.434 381.616C591.878 382.307 592.31 383.022 592.729 383.762C593.173 384.502 593.543 385.168 593.839 385.76L591.656 386.759C591.335 386.093 590.99 385.415 590.62 384.724C590.25 384.033 589.855 383.355 589.436 382.689C589.041 381.998 588.634 381.369 588.215 380.802L590.324 379.914ZM595.06 378.027C595.405 378.446 595.8 379.001 596.244 379.692C596.688 380.383 597.132 381.098 597.576 381.838C598.02 382.578 598.39 383.232 598.686 383.799L596.54 384.835C596.244 384.169 595.899 383.503 595.504 382.837C595.109 382.146 594.69 381.468 594.246 380.802C593.827 380.136 593.407 379.532 592.988 378.989L595.06 378.027ZM566.718 395.269C567.211 394.85 567.643 394.455 568.013 394.085C568.408 393.715 568.852 393.283 569.345 392.79C569.789 392.346 570.295 391.779 570.862 391.088C571.454 390.397 572.083 389.657 572.749 388.868C573.44 388.054 574.118 387.24 574.784 386.426C575.45 385.587 576.067 384.835 576.634 384.169C577.621 383.01 578.595 382.368 579.557 382.245C580.519 382.097 581.629 382.615 582.887 383.799C583.652 384.49 584.478 385.304 585.366 386.241C586.279 387.154 587.179 388.079 588.067 389.016C588.955 389.953 589.757 390.804 590.472 391.569C591.311 392.432 592.248 393.431 593.284 394.566C594.32 395.676 595.381 396.823 596.466 398.007C597.551 399.166 598.563 400.252 599.5 401.263L596.947 403.964C596.084 402.903 595.159 401.806 594.172 400.671C593.21 399.512 592.248 398.389 591.286 397.304C590.349 396.194 589.485 395.195 588.696 394.307C588.153 393.69 587.549 393.024 586.883 392.309C586.217 391.594 585.551 390.878 584.885 390.163C584.219 389.448 583.59 388.782 582.998 388.165C582.431 387.548 581.95 387.055 581.555 386.685C580.84 385.994 580.248 385.674 579.779 385.723C579.335 385.772 578.792 386.179 578.151 386.944C577.707 387.487 577.201 388.128 576.634 388.868C576.067 389.583 575.475 390.336 574.858 391.125C574.241 391.914 573.649 392.667 573.082 393.382C572.515 394.097 572.021 394.714 571.602 395.232C571.232 395.701 570.85 396.194 570.455 396.712C570.085 397.23 569.764 397.686 569.493 398.081L566.718 395.269ZM605.531 388.979C605.901 389.004 606.357 389.041 606.9 389.09C607.443 389.115 608.035 389.139 608.676 389.164C609.342 389.164 610.008 389.164 610.674 389.164C611.069 389.164 611.673 389.164 612.487 389.164C613.326 389.164 614.3 389.164 615.41 389.164C616.52 389.164 617.692 389.164 618.925 389.164C620.183 389.164 621.429 389.164 622.662 389.164C623.92 389.164 625.104 389.164 626.214 389.164C627.349 389.164 628.323 389.164 629.137 389.164C629.951 389.164 630.555 389.164 630.95 389.164C631.887 389.164 632.689 389.139 633.355 389.09C634.021 389.041 634.551 389.004 634.946 388.979V392.605C634.576 392.58 634.021 392.543 633.281 392.494C632.566 392.445 631.801 392.42 630.987 392.42C630.592 392.42 629.976 392.42 629.137 392.42C628.298 392.42 627.324 392.42 626.214 392.42C625.129 392.42 623.957 392.42 622.699 392.42C621.441 392.42 620.183 392.42 618.925 392.42C617.692 392.42 616.52 392.42 615.41 392.42C614.325 392.42 613.363 392.42 612.524 392.42C611.685 392.42 611.069 392.42 610.674 392.42C609.663 392.42 608.701 392.445 607.788 392.494C606.875 392.519 606.123 392.556 605.531 392.605V388.979ZM654.112 388.054C655.296 388.745 656.542 389.509 657.849 390.348C659.156 391.187 660.451 392.062 661.734 392.975C663.041 393.863 664.287 394.739 665.471 395.602C666.655 396.465 667.703 397.279 668.616 398.044L666.433 400.597C665.594 399.832 664.583 398.994 663.399 398.081C662.24 397.144 661.006 396.206 659.699 395.269C658.392 394.307 657.084 393.382 655.777 392.494C654.47 391.606 653.249 390.804 652.114 390.089L654.112 388.054ZM671.058 381.283C670.885 381.554 670.725 381.887 670.577 382.282C670.429 382.652 670.293 382.985 670.17 383.281C669.825 384.539 669.331 385.896 668.69 387.351C668.049 388.806 667.296 390.274 666.433 391.754C665.57 393.209 664.583 394.615 663.473 395.972C661.82 398.019 659.748 399.993 657.257 401.892C654.79 403.767 651.806 405.345 648.303 406.628L645.639 404.334C647.933 403.619 650.017 402.743 651.892 401.707C653.791 400.646 655.493 399.487 656.998 398.229C658.503 396.971 659.81 395.676 660.92 394.344C661.882 393.209 662.758 391.964 663.547 390.607C664.361 389.25 665.064 387.906 665.656 386.574C666.248 385.217 666.68 383.959 666.951 382.8H653.224L654.408 380.173H666.174C666.667 380.173 667.124 380.148 667.543 380.099C667.962 380.025 668.32 379.926 668.616 379.803L671.058 381.283ZM658.589 375.955C658.268 376.448 657.96 376.966 657.664 377.509C657.368 378.052 657.121 378.496 656.924 378.841C656.184 380.198 655.222 381.69 654.038 383.318C652.879 384.921 651.51 386.525 649.931 388.128C648.377 389.731 646.613 391.224 644.64 392.605L642.161 390.681C644.282 389.374 646.12 387.931 647.674 386.352C649.228 384.773 650.535 383.232 651.596 381.727C652.657 380.222 653.471 378.915 654.038 377.805C654.235 377.484 654.457 377.04 654.704 376.473C654.951 375.881 655.123 375.351 655.222 374.882L658.589 375.955Z" fill="black"/>
<path d="M1251 312H969.192" stroke="black" stroke-width="2" stroke-miterlimit="8"/>
<path d="M972 269L473.304 228.805" stroke="black" stroke-width="2" stroke-miterlimit="8"/>
<path d="M970 312V270.452" stroke="black" stroke-width="2" stroke-miterlimit="8"/>
<path d="M865 258.861L865 303" stroke="black" stroke-width="2" stroke-miterlimit="8"/>
<path d="M865 302H645.257" stroke="black" stroke-width="2" stroke-miterlimit="8"/>
<path d="M892 457H471.872" stroke="black" stroke-width="2" stroke-miterlimit="8"/>
<path d="M39 459H186V291H39V459Z" fill="#FFE661" stroke="black" stroke-width="2" stroke-miterlimit="8"/>
<path d="M81.7085 391V364.091H97.8434V366.982H84.967V376.074H96.6346V378.964H84.967V391H81.7085ZM111.886 391.368C110.782 391.35 109.679 391.14 108.575 390.737C107.471 390.334 106.464 389.655 105.553 388.701C104.642 387.737 103.91 386.436 103.359 384.798C102.807 383.152 102.531 381.084 102.531 378.597C102.531 376.214 102.754 374.103 103.201 372.263C103.648 370.415 104.296 368.86 105.146 367.599C105.995 366.329 107.02 365.365 108.22 364.708C109.429 364.051 110.791 363.723 112.306 363.723C113.813 363.723 115.153 364.025 116.327 364.63C117.51 365.225 118.473 366.057 119.218 367.126C119.962 368.195 120.444 369.425 120.663 370.818H117.457C117.159 369.609 116.581 368.606 115.723 367.809C114.864 367.012 113.725 366.614 112.306 366.614C110.222 366.614 108.579 367.52 107.379 369.333C106.188 371.147 105.588 373.691 105.579 376.967H105.789C106.28 376.223 106.862 375.588 107.537 375.062C108.22 374.528 108.973 374.116 109.797 373.827C110.62 373.538 111.492 373.393 112.412 373.393C113.953 373.393 115.363 373.779 116.642 374.55C117.921 375.312 118.946 376.367 119.717 377.716C120.488 379.056 120.873 380.594 120.873 382.328C120.873 383.992 120.501 385.517 119.756 386.901C119.012 388.276 117.965 389.371 116.616 390.185C115.276 390.991 113.699 391.385 111.886 391.368ZM111.886 388.477C112.99 388.477 113.979 388.201 114.855 387.65C115.74 387.098 116.436 386.357 116.945 385.429C117.461 384.5 117.72 383.467 117.72 382.328C117.72 381.216 117.47 380.204 116.971 379.293C116.48 378.373 115.801 377.642 114.934 377.099C114.076 376.556 113.095 376.284 111.991 376.284C111.159 376.284 110.384 376.451 109.665 376.783C108.947 377.107 108.316 377.554 107.773 378.124C107.239 378.693 106.819 379.346 106.512 380.081C106.205 380.808 106.052 381.575 106.052 382.381C106.052 383.449 106.302 384.448 106.801 385.376C107.309 386.305 108.001 387.054 108.877 387.623C109.762 388.193 110.765 388.477 111.886 388.477ZM134.975 391.368C133.871 391.35 132.767 391.14 131.664 390.737C130.56 390.334 129.553 389.655 128.642 388.701C127.731 387.737 126.999 386.436 126.447 384.798C125.896 383.152 125.62 381.084 125.62 378.597C125.62 376.214 125.843 374.103 126.29 372.263C126.737 370.415 127.385 368.86 128.234 367.599C129.084 366.329 130.109 365.365 131.309 364.708C132.518 364.051 133.88 363.723 135.395 363.723C136.902 363.723 138.242 364.025 139.416 364.63C140.598 365.225 141.562 366.057 142.306 367.126C143.051 368.195 143.533 369.425 143.752 370.818H140.546C140.248 369.609 139.67 368.606 138.811 367.809C137.953 367.012 136.814 366.614 135.395 366.614C133.311 366.614 131.668 367.52 130.468 369.333C129.277 371.147 128.677 373.691 128.668 376.967H128.878C129.369 376.223 129.951 375.588 130.626 375.062C131.309 374.528 132.062 374.116 132.886 373.827C133.709 373.538 134.581 373.393 135.5 373.393C137.042 373.393 138.452 373.779 139.731 374.55C141.01 375.312 142.035 376.367 142.806 377.716C143.577 379.056 143.962 380.594 143.962 382.328C143.962 383.992 143.59 385.517 142.845 386.901C142.101 388.276 141.054 389.371 139.705 390.185C138.365 390.991 136.788 391.385 134.975 391.368ZM134.975 388.477C136.079 388.477 137.068 388.201 137.944 387.65C138.829 387.098 139.525 386.357 140.033 385.429C140.55 384.5 140.809 383.467 140.809 382.328C140.809 381.216 140.559 380.204 140.06 379.293C139.569 378.373 138.89 377.642 138.023 377.099C137.165 376.556 136.184 376.284 135.08 376.284C134.248 376.284 133.473 376.451 132.754 376.783C132.036 377.107 131.405 377.554 130.862 378.124C130.328 378.693 129.907 379.346 129.601 380.081C129.294 380.808 129.141 381.575 129.141 382.381C129.141 383.449 129.391 384.448 129.89 385.376C130.398 386.305 131.09 387.054 131.966 387.623C132.851 388.193 133.854 388.477 134.975 388.477Z" fill="black"/>
<path d="M476 229H107.34" stroke="black" stroke-width="2" stroke-miterlimit="8"/>
<path d="M39 225.921L38.9999 350" stroke="black" stroke-width="2" stroke-miterlimit="8"/>
<path d="M829 527V416.936" stroke="black" stroke-width="2" stroke-miterlimit="8"/>
<path d="M645 301V243.43" stroke="black" stroke-width="2" stroke-miterlimit="8"/>
<path d="M40 292H142V228H40V292Z" fill="white" stroke="black" stroke-width="2" stroke-miterlimit="8"/>
<path d="M71.0931 250.878H78.1231V253.135H71.0931V250.878ZM71.8701 270.192H86.7071V272.449H71.8701V270.192ZM71.7961 276.149H87.1511V278.517H71.7961V276.149ZM69.8351 246.364H72.3511V260.054H69.8351V246.364ZM67.4301 259.647C68.8361 259.376 70.5134 259.018 72.4621 258.574C74.4354 258.13 76.4334 257.674 78.4561 257.205L78.6781 259.351C76.8528 259.82 75.0151 260.288 73.1651 260.757C71.3398 261.226 69.6748 261.645 68.1701 262.015L67.4301 259.647ZM79.7141 246.364H82.2671V257.945C82.2671 258.414 82.3288 258.722 82.4521 258.87C82.6001 258.993 82.9331 259.055 83.4511 259.055C83.5991 259.055 83.8334 259.055 84.1541 259.055C84.4748 259.055 84.8324 259.055 85.2271 259.055C85.6218 259.055 85.9794 259.055 86.3001 259.055C86.6454 259.055 86.9044 259.055 87.0771 259.055C87.3978 259.055 87.6321 258.981 87.7801 258.833C87.9281 258.66 88.0268 258.315 88.0761 257.797C88.1501 257.279 88.1994 256.527 88.2241 255.54C88.5201 255.762 88.8901 255.972 89.3341 256.169C89.7781 256.342 90.1851 256.465 90.5551 256.539C90.4811 257.822 90.3331 258.821 90.1111 259.536C89.8891 260.251 89.5561 260.745 89.1121 261.016C88.6928 261.287 88.1008 261.423 87.3361 261.423C87.2128 261.423 86.9538 261.423 86.5591 261.423C86.1644 261.423 85.7204 261.423 85.2271 261.423C84.7584 261.423 84.3268 261.423 83.9321 261.423C83.5621 261.423 83.3031 261.423 83.1551 261.423C82.2424 261.423 81.5271 261.324 81.0091 261.127C80.5158 260.93 80.1704 260.584 79.9731 260.091C79.8004 259.573 79.7141 258.858 79.7141 257.945V246.364ZM87.8171 248.695L89.7781 250.545C88.6434 251.26 87.3238 251.951 85.8191 252.617C84.3391 253.258 82.9084 253.838 81.5271 254.356C81.4778 254.085 81.3668 253.776 81.1941 253.431C81.0214 253.086 80.8611 252.777 80.7131 252.506C81.5764 252.136 82.4521 251.741 83.3401 251.322C84.2281 250.903 85.0544 250.471 85.8191 250.027C86.6084 249.558 87.2744 249.114 87.8171 248.695ZM77.1981 260.609L80.0101 261.201C79.6894 262.04 79.3564 262.878 79.0111 263.717C78.6904 264.556 78.3821 265.283 78.0861 265.9L75.6811 265.308C75.9524 264.667 76.2361 263.902 76.5321 263.014C76.8528 262.101 77.0748 261.3 77.1981 260.609ZM70.5011 264.346H88.4831V279.738H85.7821V266.714H73.0911V279.886H70.5011V264.346ZM57.9211 247.511H66.2091V250.027H60.4001V279.96H57.9211V247.511ZM65.3581 247.511H65.8391L66.2461 247.363L68.0591 248.473C67.7384 249.484 67.3808 250.557 66.9861 251.692C66.6161 252.802 66.2214 253.924 65.8021 255.059C65.4074 256.194 65.0128 257.267 64.6181 258.278C65.8761 259.807 66.7024 261.238 67.0971 262.57C67.4918 263.902 67.6891 265.135 67.6891 266.27C67.7138 267.232 67.6151 268.095 67.3931 268.86C67.1711 269.6 66.8011 270.155 66.2831 270.525C66.0611 270.698 65.7898 270.833 65.4691 270.932C65.1731 271.031 64.8401 271.117 64.4701 271.191C64.1248 271.216 63.7424 271.24 63.3231 271.265C62.9284 271.265 62.5338 271.253 62.1391 271.228C62.1144 270.883 62.0404 270.488 61.9171 270.044C61.8184 269.575 61.6704 269.156 61.4731 268.786C61.8678 268.811 62.2254 268.835 62.5461 268.86C62.8668 268.86 63.1504 268.848 63.3971 268.823C63.8904 268.823 64.2728 268.724 64.5441 268.527C64.7908 268.33 64.9634 267.997 65.0621 267.528C65.1854 267.035 65.2471 266.517 65.2471 265.974C65.2224 264.963 65.0128 263.84 64.6181 262.607C64.2234 261.374 63.4094 260.029 62.1761 258.574C62.4721 257.735 62.7681 256.847 63.0641 255.91C63.3848 254.973 63.6808 254.035 63.9521 253.098C64.2481 252.161 64.5071 251.285 64.7291 250.471C64.9758 249.632 65.1854 248.892 65.3581 248.251V247.511ZM109.203 262.348H123.485V264.864H109.203V262.348ZM97.4371 255.54H107.316V258.13H97.4371V255.54ZM97.4371 262.644H107.649V265.234H97.4371V262.644ZM112.607 247.474H121.265V249.916H112.607V247.474ZM122.93 262.348H123.448L123.966 262.237L125.742 262.94C124.829 266.097 123.485 268.811 121.709 271.08C119.958 273.325 117.898 275.175 115.53 276.63C113.162 278.085 110.609 279.22 107.871 280.034C107.772 279.787 107.637 279.504 107.464 279.183C107.291 278.887 107.106 278.591 106.909 278.295C106.712 278.024 106.527 277.789 106.354 277.592C108.87 276.951 111.238 275.976 113.458 274.669C115.703 273.362 117.651 271.721 119.304 269.748C120.957 267.775 122.165 265.468 122.93 262.829V262.348ZM113.162 264.716C114.346 267.873 116.171 270.562 118.638 272.782C121.129 274.977 124.139 276.544 127.666 277.481C127.469 277.678 127.247 277.913 127 278.184C126.778 278.48 126.568 278.776 126.371 279.072C126.174 279.393 126.001 279.676 125.853 279.923C122.178 278.788 119.07 276.988 116.529 274.521C114.013 272.03 112.077 268.996 110.72 265.419L113.162 264.716ZM96.1421 248.732L98.8061 249.583V279.923H96.1421V248.732ZM93.1081 271.783C94.3908 271.586 95.8708 271.351 97.5481 271.08C99.2501 270.809 101.051 270.513 102.95 270.192C104.849 269.871 106.736 269.551 108.611 269.23L108.722 271.783C106.946 272.104 105.145 272.437 103.32 272.782C101.495 273.103 99.7558 273.411 98.1031 273.707C96.4504 274.003 94.9458 274.274 93.5891 274.521L93.1081 271.783ZM111.312 247.474H113.902V252.802C113.902 253.789 113.791 254.837 113.569 255.947C113.347 257.057 112.915 258.118 112.274 259.129C111.633 260.14 110.683 261.041 109.425 261.83C109.302 261.633 109.129 261.411 108.907 261.164C108.685 260.917 108.438 260.683 108.167 260.461C107.92 260.214 107.698 260.042 107.501 259.943C108.636 259.252 109.474 258.512 110.017 257.723C110.56 256.909 110.905 256.083 111.053 255.244C111.226 254.381 111.312 253.542 111.312 252.728V247.474ZM106.465 245.957L108.833 247.918C107.822 248.411 106.687 248.88 105.429 249.324C104.171 249.768 102.876 250.175 101.544 250.545C100.212 250.915 98.9171 251.248 97.6591 251.544C97.5851 251.248 97.4494 250.89 97.2521 250.471C97.0794 250.052 96.9068 249.706 96.7341 249.435C97.9181 249.139 99.1144 248.806 100.323 248.436C101.532 248.041 102.666 247.634 103.727 247.215C104.812 246.796 105.725 246.376 106.465 245.957ZM119.748 247.474H122.375V256.613C122.375 256.958 122.387 257.242 122.412 257.464C122.437 257.661 122.486 257.797 122.56 257.871C122.683 257.945 122.881 257.982 123.152 257.982C123.275 257.982 123.436 257.982 123.633 257.982C123.855 257.982 124.052 257.982 124.225 257.982C124.373 257.982 124.521 257.97 124.669 257.945C124.817 257.92 124.928 257.896 125.002 257.871C125.175 257.772 125.31 257.489 125.409 257.02C125.434 256.749 125.458 256.342 125.483 255.799C125.508 255.232 125.532 254.578 125.557 253.838C125.804 254.06 126.124 254.27 126.519 254.467C126.938 254.664 127.333 254.825 127.703 254.948C127.654 255.663 127.592 256.391 127.518 257.131C127.469 257.846 127.395 258.352 127.296 258.648C127.099 259.24 126.729 259.659 126.186 259.906C125.989 260.029 125.717 260.116 125.372 260.165C125.051 260.214 124.743 260.239 124.447 260.239C124.2 260.239 123.867 260.239 123.448 260.239C123.053 260.239 122.757 260.239 122.56 260.239C122.215 260.239 121.845 260.19 121.45 260.091C121.055 259.992 120.735 259.832 120.488 259.61C120.217 259.363 120.019 259.043 119.896 258.648C119.797 258.229 119.748 257.489 119.748 256.428V247.474Z" fill="black"/>
<path d="M708.027 285.744C708.027 285.399 708.027 284.708 708.027 283.672C708.027 282.611 708.027 281.366 708.027 279.935C708.027 278.48 708.027 276.963 708.027 275.384C708.027 273.781 708.027 272.227 708.027 270.722C708.027 269.217 708.027 267.885 708.027 266.726C708.027 265.567 708.027 264.728 708.027 264.21C708.027 263.692 708.002 263.063 707.953 262.323C707.904 261.583 707.83 260.929 707.731 260.362H711.357C711.308 260.905 711.246 261.546 711.172 262.286C711.123 263.026 711.098 263.667 711.098 264.21C711.098 265.172 711.098 266.331 711.098 267.688C711.098 269.02 711.098 270.451 711.098 271.98C711.098 273.485 711.098 274.989 711.098 276.494C711.123 277.974 711.135 279.368 711.135 280.675C711.135 281.958 711.135 283.055 711.135 283.968C711.135 284.856 711.135 285.448 711.135 285.744C711.135 286.139 711.135 286.595 711.135 287.113C711.16 287.631 711.197 288.161 711.246 288.704C711.295 289.222 711.332 289.691 711.357 290.11H707.768C707.867 289.518 707.928 288.815 707.953 288.001C708.002 287.187 708.027 286.435 708.027 285.744ZM710.469 270.056C711.678 270.426 713.01 270.87 714.465 271.388C715.945 271.881 717.45 272.412 718.979 272.979C720.508 273.546 721.951 274.126 723.308 274.718C724.689 275.285 725.886 275.828 726.897 276.346L725.639 279.491C724.578 278.899 723.382 278.319 722.05 277.752C720.718 277.16 719.349 276.58 717.943 276.013C716.562 275.446 715.217 274.94 713.91 274.496C712.627 274.027 711.48 273.645 710.469 273.349V270.056ZM735.74 275.643C738.947 274.78 741.931 273.731 744.694 272.498C747.457 271.265 749.862 270.007 751.909 268.724C753.192 267.91 754.437 267.034 755.646 266.097C756.879 265.135 758.039 264.136 759.124 263.1C760.209 262.064 761.171 261.04 762.01 260.029L764.489 262.323C763.453 263.433 762.331 264.518 761.122 265.579C759.913 266.64 758.631 267.663 757.274 268.65C755.942 269.612 754.548 270.549 753.093 271.462C751.736 272.276 750.207 273.115 748.505 273.978C746.803 274.841 744.99 275.655 743.066 276.42C741.142 277.185 739.193 277.888 737.22 278.529L735.74 275.643ZM751.317 270.278L754.499 269.316V286.188C754.499 286.657 754.499 287.15 754.499 287.668C754.524 288.186 754.548 288.667 754.573 289.111C754.622 289.555 754.672 289.9 754.721 290.147H751.095C751.12 289.9 751.144 289.555 751.169 289.111C751.218 288.667 751.255 288.186 751.28 287.668C751.305 287.15 751.317 286.657 751.317 286.188V270.278ZM777.772 287.816C777.92 287.52 778.019 287.236 778.068 286.965C778.117 286.694 778.142 286.373 778.142 286.003C778.142 285.633 778.142 284.942 778.142 283.931C778.142 282.92 778.142 281.711 778.142 280.305C778.142 278.899 778.142 277.431 778.142 275.902C778.142 274.348 778.142 272.843 778.142 271.388C778.142 269.908 778.142 268.601 778.142 267.466C778.142 266.307 778.142 265.431 778.142 264.839C778.142 264.518 778.117 264.136 778.068 263.692C778.043 263.248 778.006 262.829 777.957 262.434C777.932 262.039 777.883 261.719 777.809 261.472H781.472C781.398 261.916 781.336 262.459 781.287 263.1C781.238 263.717 781.213 264.296 781.213 264.839C781.213 265.332 781.213 266.048 781.213 266.985C781.213 267.922 781.213 268.995 781.213 270.204C781.213 271.388 781.213 272.646 781.213 273.978C781.213 275.31 781.213 276.617 781.213 277.9C781.213 279.183 781.213 280.379 781.213 281.489C781.213 282.574 781.213 283.499 781.213 284.264C781.213 285.029 781.213 285.547 781.213 285.818C782.989 285.374 784.814 284.745 786.689 283.931C788.588 283.117 790.438 282.167 792.239 281.082C794.064 279.972 795.766 278.763 797.345 277.456C798.948 276.124 800.317 274.706 801.452 273.201L803.117 275.791C800.724 278.776 797.666 281.39 793.941 283.635C790.241 285.88 786.085 287.668 781.472 289C781.275 289.049 781.04 289.123 780.769 289.222C780.498 289.345 780.214 289.493 779.918 289.666L777.772 287.816Z" fill="black"/>
<path d="M185 458H329V292H185V458Z" fill="white" stroke="black" stroke-width="2" stroke-miterlimit="8"/>
<path d="M225.513 391V364.091H241.648V366.982H228.772V376.074H240.44V378.964H228.772V391H225.513ZM255.691 391.368C254.587 391.35 253.483 391.14 252.38 390.737C251.276 390.334 250.269 389.655 249.358 388.701C248.447 387.737 247.715 386.436 247.164 384.798C246.612 383.152 246.336 381.084 246.336 378.597C246.336 376.214 246.559 374.103 247.006 372.263C247.453 370.415 248.101 368.86 248.95 367.599C249.8 366.329 250.825 365.365 252.025 364.708C253.234 364.051 254.596 363.723 256.111 363.723C257.618 363.723 258.958 364.025 260.132 364.63C261.314 365.225 262.278 366.057 263.023 367.126C263.767 368.195 264.249 369.425 264.468 370.818H261.262C260.964 369.609 260.386 368.606 259.528 367.809C258.669 367.012 257.53 366.614 256.111 366.614C254.027 366.614 252.384 367.52 251.184 369.333C249.993 371.147 249.393 373.691 249.384 376.967H249.594C250.085 376.223 250.667 375.588 251.342 375.062C252.025 374.528 252.778 374.116 253.602 373.827C254.425 373.538 255.297 373.393 256.216 373.393C257.758 373.393 259.168 373.779 260.447 374.55C261.726 375.312 262.751 376.367 263.522 377.716C264.293 379.056 264.678 380.594 264.678 382.328C264.678 383.992 264.306 385.517 263.561 386.901C262.817 388.276 261.77 389.371 260.421 390.185C259.081 390.991 257.504 391.385 255.691 391.368ZM255.691 388.477C256.795 388.477 257.784 388.201 258.66 387.65C259.545 387.098 260.241 386.357 260.749 385.429C261.266 384.5 261.525 383.467 261.525 382.328C261.525 381.216 261.275 380.204 260.776 379.293C260.285 378.373 259.606 377.642 258.739 377.099C257.881 376.556 256.9 376.284 255.796 376.284C254.964 376.284 254.189 376.451 253.47 376.783C252.752 377.107 252.121 377.554 251.578 378.124C251.044 378.693 250.624 379.346 250.317 380.081C250.01 380.808 249.857 381.575 249.857 382.381C249.857 383.449 250.107 384.448 250.606 385.376C251.114 386.305 251.806 387.054 252.682 387.623C253.567 388.193 254.57 388.477 255.691 388.477ZM278.254 391.368C276.713 391.368 275.324 391.061 274.089 390.448C272.854 389.835 271.864 388.994 271.12 387.925C270.375 386.857 269.968 385.639 269.898 384.273H273.051C273.174 385.49 273.726 386.498 274.707 387.295C275.696 388.083 276.879 388.477 278.254 388.477C279.358 388.477 280.339 388.219 281.197 387.702C282.065 387.185 282.743 386.476 283.234 385.574C283.733 384.663 283.983 383.633 283.983 382.486C283.983 381.312 283.724 380.265 283.208 379.346C282.7 378.417 281.999 377.686 281.105 377.151C280.212 376.617 279.191 376.345 278.044 376.337C277.221 376.328 276.375 376.455 275.508 376.718C274.641 376.972 273.927 377.3 273.366 377.703L270.318 377.335L271.947 364.091H285.927V366.982H274.68L273.734 374.918H273.892C274.444 374.48 275.136 374.116 275.968 373.827C276.8 373.538 277.667 373.393 278.57 373.393C280.216 373.393 281.684 373.788 282.971 374.576C284.268 375.356 285.284 376.424 286.019 377.782C286.764 379.14 287.136 380.69 287.136 382.433C287.136 384.15 286.751 385.683 285.98 387.032C285.218 388.372 284.167 389.432 282.827 390.212C281.486 390.982 279.962 391.368 278.254 391.368Z" fill="black"/>
<path d="M328 458H472V292H328V458Z" fill="#FFE661" stroke="black" stroke-width="2" stroke-miterlimit="8"/>
<path d="M367.761 391V364.091H383.896V366.982H371.02V376.074H382.688V378.964H371.02V391H367.761ZM397.939 391.368C396.835 391.35 395.732 391.14 394.628 390.737C393.524 390.334 392.517 389.655 391.606 388.701C390.695 387.737 389.963 386.436 389.412 384.798C388.86 383.152 388.584 381.084 388.584 378.597C388.584 376.214 388.807 374.103 389.254 372.263C389.701 370.415 390.349 368.86 391.199 367.599C392.048 366.329 393.073 365.365 394.273 364.708C395.482 364.051 396.844 363.723 398.359 363.723C399.866 363.723 401.206 364.025 402.38 364.63C403.563 365.225 404.526 366.057 405.271 367.126C406.015 368.195 406.497 369.425 406.716 370.818H403.51C403.212 369.609 402.634 368.606 401.776 367.809C400.917 367.012 399.778 366.614 398.359 366.614C396.275 366.614 394.632 367.52 393.432 369.333C392.241 371.147 391.641 373.691 391.632 376.967H391.842C392.333 376.223 392.915 375.588 393.59 375.062C394.273 374.528 395.026 374.116 395.85 373.827C396.673 373.538 397.545 373.393 398.464 373.393C400.006 373.393 401.416 373.779 402.695 374.55C403.974 375.312 404.999 376.367 405.77 377.716C406.541 379.056 406.926 380.594 406.926 382.328C406.926 383.992 406.554 385.517 405.809 386.901C405.065 388.276 404.018 389.371 402.669 390.185C401.329 390.991 399.752 391.385 397.939 391.368ZM397.939 388.477C399.043 388.477 400.032 388.201 400.908 387.65C401.793 387.098 402.489 386.357 402.998 385.429C403.514 384.5 403.773 383.467 403.773 382.328C403.773 381.216 403.523 380.204 403.024 379.293C402.533 378.373 401.854 377.642 400.987 377.099C400.129 376.556 399.148 376.284 398.044 376.284C397.212 376.284 396.437 376.451 395.718 376.783C395 377.107 394.369 377.554 393.826 378.124C393.292 378.693 392.872 379.346 392.565 380.081C392.258 380.808 392.105 381.575 392.105 382.381C392.105 383.449 392.355 384.448 392.854 385.376C393.362 386.305 394.054 387.054 394.93 387.623C395.815 388.193 396.818 388.477 397.939 388.477ZM411.462 385.482V382.801L423.288 364.091H425.232V368.243H423.918L414.984 382.381V382.591H430.908V385.482H411.462ZM424.129 391V384.667V383.419V364.091H427.229V391H424.129Z" fill="black"/>
<path d="M829 527H972V354H829V527Z" fill="#FFE661" stroke="black" stroke-width="2" stroke-miterlimit="8"/>
<path d="M867.7 457V430.091H883.835V432.982H870.959V442.074H882.627V444.964H870.959V457H867.7ZM897.878 457.368C896.774 457.35 895.67 457.14 894.567 456.737C893.463 456.334 892.456 455.655 891.545 454.701C890.634 453.737 889.902 452.436 889.351 450.798C888.799 449.152 888.523 447.084 888.523 444.597C888.523 442.214 888.746 440.103 889.193 438.263C889.64 436.415 890.288 434.86 891.137 433.599C891.987 432.329 893.012 431.365 894.212 430.708C895.421 430.051 896.783 429.723 898.298 429.723C899.805 429.723 901.145 430.025 902.319 430.63C903.501 431.225 904.465 432.057 905.21 433.126C905.954 434.195 906.436 435.425 906.655 436.818H903.449C903.151 435.609 902.573 434.606 901.715 433.809C900.856 433.012 899.717 432.614 898.298 432.614C896.214 432.614 894.571 433.52 893.371 435.333C892.18 437.147 891.58 439.691 891.571 442.967H891.781C892.272 442.223 892.854 441.588 893.529 441.062C894.212 440.528 894.965 440.116 895.789 439.827C896.612 439.538 897.484 439.393 898.403 439.393C899.945 439.393 901.355 439.779 902.634 440.55C903.913 441.312 904.938 442.367 905.709 443.716C906.48 445.056 906.865 446.594 906.865 448.328C906.865 449.992 906.493 451.517 905.748 452.901C905.004 454.276 903.957 455.371 902.608 456.185C901.268 456.991 899.691 457.385 897.878 457.368ZM897.878 454.477C898.982 454.477 899.971 454.201 900.847 453.65C901.732 453.098 902.428 452.357 902.936 451.429C903.453 450.5 903.712 449.467 903.712 448.328C903.712 447.216 903.462 446.204 902.963 445.293C902.472 444.373 901.793 443.642 900.926 443.099C900.068 442.556 899.087 442.284 897.983 442.284C897.151 442.284 896.376 442.451 895.657 442.783C894.939 443.107 894.308 443.554 893.765 444.124C893.231 444.693 892.811 445.346 892.504 446.081C892.197 446.808 892.044 447.575 892.044 448.381C892.044 449.449 892.294 450.448 892.793 451.376C893.301 452.305 893.993 453.054 894.869 453.623C895.754 454.193 896.757 454.477 897.878 454.477ZM921.124 457.368C919.39 457.368 917.844 457.07 916.486 456.474C915.137 455.879 914.064 455.051 913.267 453.991C912.479 452.922 912.05 451.683 911.98 450.273H915.291C915.361 451.14 915.659 451.889 916.184 452.52C916.71 453.141 917.397 453.623 918.247 453.965C919.097 454.306 920.038 454.477 921.072 454.477C922.228 454.477 923.253 454.276 924.146 453.873C925.04 453.47 925.741 452.909 926.249 452.191C926.757 451.473 927.011 450.641 927.011 449.695C927.011 448.705 926.766 447.833 926.275 447.08C925.784 446.318 925.066 445.722 924.12 445.293C923.174 444.864 922.018 444.649 920.651 444.649H918.497V441.759H920.651C921.72 441.759 922.657 441.566 923.463 441.18C924.278 440.795 924.913 440.252 925.368 439.551C925.833 438.85 926.065 438.027 926.065 437.081C926.065 436.17 925.863 435.377 925.46 434.703C925.057 434.028 924.488 433.503 923.752 433.126C923.025 432.749 922.167 432.561 921.177 432.561C920.248 432.561 919.373 432.732 918.549 433.074C917.735 433.406 917.069 433.893 916.552 434.532C916.035 435.163 915.755 435.925 915.711 436.818H912.558C912.61 435.408 913.035 434.173 913.832 433.113C914.629 432.044 915.672 431.212 916.959 430.616C918.256 430.021 919.679 429.723 921.23 429.723C922.894 429.723 924.322 430.06 925.513 430.735C926.704 431.4 927.62 432.281 928.259 433.376C928.898 434.471 929.218 435.653 929.218 436.923C929.218 438.439 928.82 439.731 928.023 440.799C927.234 441.868 926.161 442.608 924.803 443.02V443.23C926.503 443.51 927.83 444.233 928.785 445.398C929.739 446.554 930.217 447.987 930.217 449.695C930.217 451.157 929.818 452.471 929.021 453.636C928.233 454.793 927.155 455.704 925.789 456.369C924.422 457.035 922.868 457.368 921.124 457.368Z" fill="black"/>
<path d="M1251 312L1251 360" stroke="black" stroke-width="2" stroke-miterlimit="8"/>
</g>
<rect x="481" y="245" width="161" height="101" fill="#FFE661"/>
<path d="M494.224 292.832C494.437 292.853 494.688 292.875 494.976 292.896C495.264 292.917 495.52 292.928 495.744 292.928H504.448C504.693 292.928 504.949 292.917 505.216 292.896C505.483 292.875 505.728 292.853 505.952 292.832V295.024C505.717 295.003 505.467 294.987 505.2 294.976C504.933 294.965 504.683 294.96 504.448 294.96H495.744C495.531 294.96 495.275 294.965 494.976 294.976C494.677 294.987 494.427 295.003 494.224 295.024V292.832ZM498.832 302.672V294.064H501.072V302.672H498.832ZM493.184 301.36C493.44 301.403 493.707 301.435 493.984 301.456C494.261 301.477 494.523 301.488 494.768 301.488H505.312C505.6 301.488 505.872 301.477 506.128 301.456C506.384 301.424 506.613 301.392 506.816 301.36V303.68C506.581 303.648 506.32 303.627 506.032 303.616C505.744 303.605 505.504 303.6 505.312 303.6H494.768C494.533 303.6 494.277 303.605 494 303.616C493.723 303.627 493.451 303.648 493.184 303.68V301.36ZM511.12 303.36C511.216 303.157 511.275 302.981 511.296 302.832C511.317 302.683 511.328 302.512 511.328 302.32C511.328 302.117 511.328 301.808 511.328 301.392C511.328 300.976 511.328 300.496 511.328 299.952C511.328 299.397 511.328 298.816 511.328 298.208C511.328 297.6 511.328 297.003 511.328 296.416C511.328 295.829 511.328 295.296 511.328 294.816C511.328 294.336 511.328 293.947 511.328 293.648C511.328 293.445 511.317 293.232 511.296 293.008C511.285 292.784 511.264 292.571 511.232 292.368C511.211 292.155 511.184 291.973 511.152 291.824H513.664C513.621 292.133 513.584 292.437 513.552 292.736C513.52 293.035 513.504 293.339 513.504 293.648C513.504 293.904 513.504 294.224 513.504 294.608C513.504 294.981 513.504 295.397 513.504 295.856C513.504 296.315 513.504 296.789 513.504 297.28C513.504 297.771 513.504 298.256 513.504 298.736C513.504 299.216 513.504 299.669 513.504 300.096C513.504 300.523 513.504 300.896 513.504 301.216C513.504 301.536 513.504 301.787 513.504 301.968C514.155 301.776 514.848 301.515 515.584 301.184C516.331 300.843 517.077 300.443 517.824 299.984C518.581 299.515 519.291 299.003 519.952 298.448C520.624 297.893 521.216 297.301 521.728 296.672L522.864 298.48C521.776 299.792 520.427 300.928 518.816 301.888C517.216 302.837 515.472 303.621 513.584 304.24C513.477 304.283 513.339 304.336 513.168 304.4C512.997 304.464 512.821 304.555 512.64 304.672L511.12 303.36ZM535.344 292.912C535.493 293.125 535.659 293.387 535.84 293.696C536.032 294.005 536.219 294.315 536.4 294.624C536.581 294.933 536.731 295.216 536.848 295.472L535.408 296.096C535.259 295.755 535.104 295.44 534.944 295.152C534.795 294.853 534.64 294.571 534.48 294.304C534.331 294.027 534.155 293.755 533.952 293.488L535.344 292.912ZM537.488 292.032C537.648 292.235 537.824 292.491 538.016 292.8C538.208 293.099 538.395 293.403 538.576 293.712C538.768 294.011 538.923 294.283 539.04 294.528L537.648 295.2C537.477 294.859 537.312 294.549 537.152 294.272C536.992 293.984 536.827 293.712 536.656 293.456C536.496 293.189 536.315 292.923 536.112 292.656L537.488 292.032ZM524.56 299.44C524.805 299.237 525.024 299.045 525.216 298.864C525.408 298.683 525.632 298.469 525.888 298.224C526.069 298.032 526.277 297.803 526.512 297.536C526.747 297.269 526.997 296.971 527.264 296.64C527.541 296.309 527.824 295.973 528.112 295.632C528.4 295.28 528.683 294.939 528.96 294.608C529.429 294.043 529.915 293.733 530.416 293.68C530.917 293.616 531.477 293.883 532.096 294.48C532.459 294.811 532.827 295.168 533.2 295.552C533.584 295.936 533.957 296.32 534.32 296.704C534.693 297.088 535.04 297.456 535.36 297.808C535.723 298.181 536.128 298.613 536.576 299.104C537.035 299.595 537.499 300.096 537.968 300.608C538.448 301.12 538.891 301.595 539.296 302.032L537.536 303.92C537.184 303.472 536.805 303.003 536.4 302.512C535.995 302.021 535.6 301.547 535.216 301.088C534.832 300.619 534.48 300.203 534.16 299.84C533.936 299.563 533.68 299.269 533.392 298.96C533.115 298.64 532.837 298.325 532.56 298.016C532.283 297.707 532.027 297.429 531.792 297.184C531.557 296.939 531.371 296.741 531.232 296.592C530.965 296.336 530.736 296.219 530.544 296.24C530.363 296.251 530.155 296.4 529.92 296.688C529.771 296.891 529.589 297.131 529.376 297.408C529.163 297.685 528.944 297.979 528.72 298.288C528.496 298.597 528.277 298.896 528.064 299.184C527.861 299.472 527.68 299.723 527.52 299.936C527.339 300.192 527.157 300.453 526.976 300.72C526.795 300.976 526.629 301.211 526.48 301.424L524.56 299.44ZM541.472 296.592C541.664 296.603 541.909 296.619 542.208 296.64C542.507 296.651 542.816 296.661 543.136 296.672C543.467 296.683 543.771 296.688 544.048 296.688C544.315 296.688 544.645 296.688 545.04 296.688C545.435 296.688 545.861 296.688 546.32 296.688C546.789 296.688 547.269 296.688 547.76 296.688C548.261 296.688 548.757 296.688 549.248 296.688C549.739 296.688 550.203 296.688 550.64 296.688C551.077 296.688 551.467 296.688 551.808 296.688C552.16 296.688 552.437 296.688 552.64 296.688C553.013 296.688 553.365 296.677 553.696 296.656C554.027 296.624 554.299 296.603 554.512 296.592V299.104C554.331 299.093 554.059 299.077 553.696 299.056C553.333 299.035 552.981 299.024 552.64 299.024C552.437 299.024 552.16 299.024 551.808 299.024C551.456 299.024 551.061 299.024 550.624 299.024C550.187 299.024 549.723 299.024 549.232 299.024C548.752 299.024 548.261 299.024 547.76 299.024C547.259 299.024 546.773 299.024 546.304 299.024C545.845 299.024 545.419 299.024 545.024 299.024C544.64 299.024 544.315 299.024 544.048 299.024C543.589 299.024 543.12 299.035 542.64 299.056C542.16 299.067 541.771 299.083 541.472 299.104V296.592ZM562.864 296.512C563.355 296.789 563.888 297.12 564.464 297.504C565.051 297.877 565.643 298.267 566.24 298.672C566.837 299.077 567.397 299.472 567.92 299.856C568.453 300.24 568.901 300.581 569.264 300.88L567.744 302.688C567.392 302.368 566.955 302 566.432 301.584C565.92 301.157 565.365 300.725 564.768 300.288C564.171 299.84 563.579 299.413 562.992 299.008C562.416 298.603 561.899 298.256 561.44 297.968L562.864 296.512ZM570.384 293.792C570.288 293.941 570.192 294.117 570.096 294.32C570 294.523 569.92 294.725 569.856 294.928C569.696 295.419 569.477 295.968 569.2 296.576C568.933 297.173 568.613 297.787 568.24 298.416C567.867 299.035 567.44 299.643 566.96 300.24C566.203 301.179 565.291 302.069 564.224 302.912C563.168 303.755 561.872 304.469 560.336 305.056L558.48 303.44C559.6 303.099 560.571 302.693 561.392 302.224C562.213 301.755 562.923 301.253 563.52 300.72C564.128 300.187 564.656 299.653 565.104 299.12C565.467 298.704 565.808 298.24 566.128 297.728C566.459 297.205 566.741 296.688 566.976 296.176C567.221 295.653 567.392 295.189 567.488 294.784H562.08L562.816 292.96H567.36C567.616 292.96 567.867 292.944 568.112 292.912C568.368 292.88 568.581 292.837 568.752 292.784L570.384 293.792ZM565.104 291.328C564.912 291.605 564.72 291.904 564.528 292.224C564.347 292.544 564.208 292.789 564.112 292.96C563.749 293.6 563.291 294.283 562.736 295.008C562.181 295.723 561.557 296.421 560.864 297.104C560.181 297.787 559.456 298.395 558.688 298.928L556.96 297.6C557.899 297.013 558.693 296.4 559.344 295.76C560.005 295.109 560.555 294.485 560.992 293.888C561.429 293.28 561.781 292.741 562.048 292.272C562.176 292.08 562.309 291.824 562.448 291.504C562.597 291.173 562.709 290.875 562.784 290.608L565.104 291.328ZM573.472 296.592C573.664 296.603 573.909 296.619 574.208 296.64C574.507 296.651 574.816 296.661 575.136 296.672C575.467 296.683 575.771 296.688 576.048 296.688C576.315 296.688 576.645 296.688 577.04 296.688C577.435 296.688 577.861 296.688 578.32 296.688C578.789 296.688 579.269 296.688 579.76 296.688C580.261 296.688 580.757 296.688 581.248 296.688C581.739 296.688 582.203 296.688 582.64 296.688C583.077 296.688 583.467 296.688 583.808 296.688C584.16 296.688 584.437 296.688 584.64 296.688C585.013 296.688 585.365 296.677 585.696 296.656C586.027 296.624 586.299 296.603 586.512 296.592V299.104C586.331 299.093 586.059 299.077 585.696 299.056C585.333 299.035 584.981 299.024 584.64 299.024C584.437 299.024 584.16 299.024 583.808 299.024C583.456 299.024 583.061 299.024 582.624 299.024C582.187 299.024 581.723 299.024 581.232 299.024C580.752 299.024 580.261 299.024 579.76 299.024C579.259 299.024 578.773 299.024 578.304 299.024C577.845 299.024 577.419 299.024 577.024 299.024C576.64 299.024 576.315 299.024 576.048 299.024C575.589 299.024 575.12 299.035 574.64 299.056C574.16 299.067 573.771 299.083 573.472 299.104V296.592ZM597.424 291.184C597.413 291.259 597.392 291.381 597.36 291.552C597.339 291.723 597.317 291.904 597.296 292.096C597.285 292.288 597.28 292.448 597.28 292.576C597.28 292.896 597.28 293.248 597.28 293.632C597.28 294.016 597.28 294.4 597.28 294.784C597.28 295.157 597.28 295.499 597.28 295.808C597.28 296.021 597.28 296.32 597.28 296.704C597.28 297.088 597.28 297.52 597.28 298C597.28 298.48 597.28 298.981 597.28 299.504C597.28 300.016 597.28 300.517 597.28 301.008C597.28 301.488 597.28 301.925 597.28 302.32C597.28 302.704 597.28 303.008 597.28 303.232C597.28 303.691 597.141 304.053 596.864 304.32C596.597 304.597 596.176 304.736 595.6 304.736C595.312 304.736 595.019 304.731 594.72 304.72C594.421 304.709 594.128 304.693 593.84 304.672C593.552 304.651 593.275 304.624 593.008 304.592L592.8 302.608C593.152 302.672 593.488 302.72 593.808 302.752C594.128 302.784 594.389 302.8 594.592 302.8C594.795 302.8 594.939 302.757 595.024 302.672C595.109 302.576 595.157 302.427 595.168 302.224C595.168 302.128 595.168 301.92 595.168 301.6C595.179 301.28 595.184 300.901 595.184 300.464C595.184 300.027 595.184 299.563 595.184 299.072C595.184 298.581 595.184 298.112 595.184 297.664C595.184 297.216 595.184 296.827 595.184 296.496C595.184 296.165 595.184 295.936 595.184 295.808C595.184 295.616 595.184 295.328 595.184 294.944C595.184 294.549 595.184 294.133 595.184 293.696C595.184 293.259 595.184 292.885 595.184 292.576C595.184 292.363 595.168 292.112 595.136 291.824C595.104 291.536 595.077 291.323 595.056 291.184H597.424ZM589.584 293.744C589.819 293.765 590.069 293.792 590.336 293.824C590.613 293.845 590.875 293.856 591.12 293.856C591.259 293.856 591.52 293.856 591.904 293.856C592.299 293.856 592.763 293.856 593.296 293.856C593.84 293.856 594.427 293.856 595.056 293.856C595.685 293.856 596.315 293.856 596.944 293.856C597.573 293.856 598.165 293.856 598.72 293.856C599.275 293.856 599.749 293.856 600.144 293.856C600.549 293.856 600.832 293.856 600.992 293.856C601.216 293.856 601.483 293.845 601.792 293.824C602.101 293.803 602.363 293.776 602.576 293.744V295.84C602.331 295.819 602.064 295.808 601.776 295.808C601.488 295.797 601.232 295.792 601.008 295.792C600.848 295.792 600.571 295.792 600.176 295.792C599.781 295.792 599.307 295.792 598.752 295.792C598.197 295.792 597.605 295.792 596.976 295.792C596.347 295.792 595.717 295.792 595.088 295.792C594.469 295.792 593.883 295.792 593.328 295.792C592.784 295.792 592.32 295.792 591.936 295.792C591.552 295.792 591.28 295.792 591.12 295.792C590.885 295.792 590.624 295.797 590.336 295.808C590.059 295.819 589.808 295.835 589.584 295.856V293.744ZM593.664 298.08C593.472 298.432 593.248 298.816 592.992 299.232C592.736 299.648 592.459 300.064 592.16 300.48C591.872 300.896 591.589 301.285 591.312 301.648C591.035 302 590.789 302.293 590.576 302.528L588.832 301.344C589.099 301.099 589.371 300.811 589.648 300.48C589.936 300.139 590.213 299.781 590.48 299.408C590.757 299.035 591.008 298.661 591.232 298.288C591.467 297.915 591.669 297.557 591.84 297.216L593.664 298.08ZM600.528 297.168C600.731 297.424 600.955 297.728 601.2 298.08C601.456 298.432 601.712 298.811 601.968 299.216C602.224 299.611 602.464 300 602.688 300.384C602.912 300.757 603.104 301.088 603.264 301.376L601.392 302.4C601.221 302.059 601.024 301.691 600.8 301.296C600.587 300.901 600.363 300.507 600.128 300.112C599.893 299.717 599.659 299.349 599.424 299.008C599.189 298.656 598.976 298.357 598.784 298.112L600.528 297.168ZM605.472 296.592C605.664 296.603 605.909 296.619 606.208 296.64C606.507 296.651 606.816 296.661 607.136 296.672C607.467 296.683 607.771 296.688 608.048 296.688C608.315 296.688 608.645 296.688 609.04 296.688C609.435 296.688 609.861 296.688 610.32 296.688C610.789 296.688 611.269 296.688 611.76 296.688C612.261 296.688 612.757 296.688 613.248 296.688C613.739 296.688 614.203 296.688 614.64 296.688C615.077 296.688 615.467 296.688 615.808 296.688C616.16 296.688 616.437 296.688 616.64 296.688C617.013 296.688 617.365 296.677 617.696 296.656C618.027 296.624 618.299 296.603 618.512 296.592V299.104C618.331 299.093 618.059 299.077 617.696 299.056C617.333 299.035 616.981 299.024 616.64 299.024C616.437 299.024 616.16 299.024 615.808 299.024C615.456 299.024 615.061 299.024 614.624 299.024C614.187 299.024 613.723 299.024 613.232 299.024C612.752 299.024 612.261 299.024 611.76 299.024C611.259 299.024 610.773 299.024 610.304 299.024C609.845 299.024 609.419 299.024 609.024 299.024C608.64 299.024 608.315 299.024 608.048 299.024C607.589 299.024 607.12 299.035 606.64 299.056C606.16 299.067 605.771 299.083 605.472 299.104V296.592ZM628.048 303.648C628.08 303.488 628.107 303.307 628.128 303.104C628.16 302.891 628.176 302.677 628.176 302.464C628.176 302.347 628.176 302.112 628.176 301.76C628.176 301.408 628.176 300.981 628.176 300.48C628.176 299.979 628.176 299.44 628.176 298.864C628.176 298.277 628.176 297.685 628.176 297.088C628.176 296.491 628.176 295.931 628.176 295.408C628.176 294.875 628.176 294.411 628.176 294.016C628.176 293.611 628.176 293.317 628.176 293.136C628.176 292.773 628.155 292.459 628.112 292.192C628.08 291.925 628.059 291.781 628.048 291.76H630.432C630.421 291.781 630.4 291.931 630.368 292.208C630.336 292.475 630.32 292.789 630.32 293.152C630.32 293.333 630.32 293.605 630.32 293.968C630.32 294.32 630.32 294.731 630.32 295.2C630.32 295.659 630.32 296.149 630.32 296.672C630.32 297.195 630.32 297.712 630.32 298.224C630.32 298.725 630.32 299.205 630.32 299.664C630.32 300.112 630.32 300.496 630.32 300.816C630.32 301.136 630.32 301.371 630.32 301.52C630.757 301.328 631.211 301.067 631.68 300.736C632.149 300.405 632.608 300.021 633.056 299.584C633.515 299.136 633.92 298.656 634.272 298.144L635.504 299.904C635.067 300.48 634.533 301.045 633.904 301.6C633.285 302.155 632.645 302.661 631.984 303.12C631.323 303.579 630.688 303.963 630.08 304.272C629.909 304.368 629.771 304.453 629.664 304.528C629.557 304.613 629.467 304.688 629.392 304.752L628.048 303.648ZM620.64 303.408C621.344 302.917 621.92 302.325 622.368 301.632C622.816 300.939 623.147 300.256 623.36 299.584C623.477 299.232 623.563 298.8 623.616 298.288C623.68 297.765 623.728 297.211 623.76 296.624C623.792 296.027 623.808 295.44 623.808 294.864C623.819 294.277 623.824 293.739 623.824 293.248C623.824 292.928 623.808 292.656 623.776 292.432C623.755 292.197 623.723 291.979 623.68 291.776H626.032C626.021 291.797 626.005 291.888 625.984 292.048C625.973 292.197 625.957 292.379 625.936 292.592C625.925 292.795 625.92 293.008 625.92 293.232C625.92 293.701 625.915 294.251 625.904 294.88C625.893 295.499 625.872 296.133 625.84 296.784C625.808 297.435 625.76 298.053 625.696 298.64C625.632 299.216 625.547 299.707 625.44 300.112C625.195 301.019 624.827 301.861 624.336 302.64C623.856 303.408 623.275 304.096 622.592 304.704L620.64 303.408Z" fill="black"/>
</g>
<defs>
<clipPath id="clip0_14_179">
<rect width="1280" height="720" fill="white" transform="matrix(-1 0 0 -1 1280 720)"/>
</clipPath>
</defs>
</svg>
