<svg width="1280" height="720" viewBox="0 0 1280 720" fill="none" xmlns="http://www.w3.org/2000/svg">
<g clip-path="url(#clip0_14_299)">
<mask id="mask0_14_299" style="mask-type:luminance" maskUnits="userSpaceOnUse" x="0" y="0" width="1280" height="720">
<path d="M0 720H1280V0H0V720Z" fill="white"/>
</mask>
<g mask="url(#mask0_14_299)">
<path d="M0 720H1280V0H0V720Z" fill="white"/>
<path d="M997 527H1251V312H997V527Z" fill="white" stroke="black" stroke-width="2" stroke-miterlimit="8"/>
<path d="M1098.02 436V409.091H1114.15V411.982H1101.28V421.074H1112.94V423.964H1101.28V436H1098.02ZM1127.88 436.368C1126.07 436.368 1124.48 436.048 1123.1 435.409C1121.72 434.761 1120.65 433.871 1119.88 432.741C1119.11 431.603 1118.73 430.306 1118.73 428.852C1118.73 427.714 1118.95 426.662 1119.4 425.699C1119.86 424.727 1120.48 423.916 1121.27 423.268C1122.07 422.611 1122.96 422.195 1123.94 422.02V421.862C1122.65 421.529 1121.63 420.807 1120.86 419.694C1120.1 418.573 1119.72 417.299 1119.73 415.871C1119.72 414.504 1120.07 413.282 1120.77 412.205C1121.47 411.127 1122.44 410.278 1123.66 409.656C1124.9 409.034 1126.3 408.723 1127.88 408.723C1129.44 408.723 1130.83 409.034 1132.06 409.656C1133.28 410.278 1134.25 411.127 1134.95 412.205C1135.66 413.282 1136.02 414.504 1136.03 415.871C1136.02 417.299 1135.63 418.573 1134.86 419.694C1134.09 420.807 1133.08 421.529 1131.82 421.862V422.02C1132.79 422.195 1133.67 422.611 1134.45 423.268C1135.23 423.916 1135.85 424.727 1136.31 425.699C1136.78 426.662 1137.02 427.714 1137.02 428.852C1137.02 430.306 1136.62 431.603 1135.84 432.741C1135.07 433.871 1134 434.761 1132.62 435.409C1131.26 436.048 1129.68 436.368 1127.88 436.368ZM1127.88 433.477C1129.1 433.477 1130.15 433.28 1131.03 432.886C1131.92 432.492 1132.6 431.936 1133.08 431.217C1133.56 430.499 1133.81 429.658 1133.82 428.695C1133.81 427.679 1133.55 426.781 1133.03 426.001C1132.51 425.221 1131.81 424.608 1130.91 424.162C1130.03 423.715 1129.02 423.491 1127.88 423.491C1126.73 423.491 1125.71 423.715 1124.8 424.162C1123.91 424.608 1123.21 425.221 1122.69 426.001C1122.18 426.781 1121.93 427.679 1121.94 428.695C1121.93 429.658 1122.16 430.499 1122.64 431.217C1123.12 431.936 1123.81 432.492 1124.7 432.886C1125.59 433.28 1126.65 433.477 1127.88 433.477ZM1127.88 420.706C1128.84 420.706 1129.7 420.513 1130.44 420.128C1131.19 419.742 1131.79 419.204 1132.22 418.512C1132.64 417.82 1132.86 417.009 1132.87 416.081C1132.86 415.17 1132.65 414.377 1132.23 413.703C1131.81 413.02 1131.23 412.494 1130.48 412.126C1129.74 411.749 1128.87 411.561 1127.88 411.561C1126.87 411.561 1125.99 411.749 1125.24 412.126C1124.49 412.494 1123.9 413.02 1123.49 413.703C1123.08 414.377 1122.88 415.17 1122.89 416.081C1122.88 417.009 1123.08 417.82 1123.5 418.512C1123.93 419.204 1124.52 419.742 1125.28 420.128C1126.03 420.513 1126.9 420.706 1127.88 420.706ZM1151.52 409.091V436H1148.26V412.507H1148.1L1141.53 416.869V413.558L1148.26 409.091H1151.52Z" fill="black"/>
<path d="M689 424H829V354H689V424Z" fill="white" stroke="black" stroke-width="2" stroke-miterlimit="8"/>
<path d="M738.944 378.878H745.974V381.135H738.944V378.878ZM739.721 398.192H754.558V400.449H739.721V398.192ZM739.647 404.149H755.002V406.517H739.647V404.149ZM737.686 374.364H740.202V388.054H737.686V374.364ZM735.281 387.647C736.687 387.376 738.365 387.018 740.313 386.574C742.287 386.13 744.285 385.674 746.307 385.205L746.529 387.351C744.704 387.82 742.866 388.289 741.016 388.757C739.191 389.226 737.526 389.645 736.021 390.015L735.281 387.647ZM747.565 374.364H750.118V385.945C750.118 386.414 750.18 386.722 750.303 386.87C750.451 386.994 750.784 387.055 751.302 387.055C751.45 387.055 751.685 387.055 752.005 387.055C752.326 387.055 752.684 387.055 753.078 387.055C753.473 387.055 753.831 387.055 754.151 387.055C754.497 387.055 754.756 387.055 754.928 387.055C755.249 387.055 755.483 386.981 755.631 386.833C755.779 386.661 755.878 386.315 755.927 385.797C756.001 385.279 756.051 384.527 756.075 383.54C756.371 383.762 756.741 383.972 757.185 384.169C757.629 384.342 758.036 384.465 758.406 384.539C758.332 385.822 758.184 386.821 757.962 387.536C757.74 388.252 757.407 388.745 756.963 389.016C756.544 389.288 755.952 389.423 755.187 389.423C755.064 389.423 754.805 389.423 754.41 389.423C754.016 389.423 753.572 389.423 753.078 389.423C752.61 389.423 752.178 389.423 751.783 389.423C751.413 389.423 751.154 389.423 751.006 389.423C750.094 389.423 749.378 389.325 748.86 389.127C748.367 388.93 748.022 388.585 747.824 388.091C747.652 387.573 747.565 386.858 747.565 385.945V374.364ZM755.668 376.695L757.629 378.545C756.495 379.261 755.175 379.951 753.67 380.617C752.19 381.259 750.76 381.838 749.378 382.356C749.329 382.085 749.218 381.777 749.045 381.431C748.873 381.086 748.712 380.778 748.564 380.506C749.428 380.136 750.303 379.742 751.191 379.322C752.079 378.903 752.906 378.471 753.67 378.027C754.46 377.559 755.126 377.115 755.668 376.695ZM745.049 388.609L747.861 389.201C747.541 390.04 747.208 390.879 746.862 391.717C746.542 392.556 746.233 393.284 745.937 393.9L743.532 393.308C743.804 392.667 744.087 391.902 744.383 391.014C744.704 390.102 744.926 389.3 745.049 388.609ZM738.352 392.346H756.334V407.738H753.633V394.714H740.942V407.886H738.352V392.346ZM725.772 375.511H734.06V378.027H728.251V407.96H725.772V375.511ZM733.209 375.511H733.69L734.097 375.363L735.91 376.473C735.59 377.485 735.232 378.558 734.837 379.692C734.467 380.802 734.073 381.925 733.653 383.059C733.259 384.194 732.864 385.267 732.469 386.278C733.727 387.808 734.554 389.238 734.948 390.57C735.343 391.902 735.54 393.136 735.54 394.27C735.565 395.232 735.466 396.096 735.244 396.86C735.022 397.6 734.652 398.155 734.134 398.525C733.912 398.698 733.641 398.834 733.32 398.932C733.024 399.031 732.691 399.117 732.321 399.191C731.976 399.216 731.594 399.241 731.174 399.265C730.78 399.265 730.385 399.253 729.99 399.228C729.966 398.883 729.892 398.488 729.768 398.044C729.67 397.576 729.522 397.156 729.324 396.786C729.719 396.811 730.077 396.836 730.397 396.86C730.718 396.86 731.002 396.848 731.248 396.823C731.742 396.823 732.124 396.725 732.395 396.527C732.642 396.33 732.815 395.997 732.913 395.528C733.037 395.035 733.098 394.517 733.098 393.974C733.074 392.963 732.864 391.841 732.469 390.607C732.075 389.374 731.261 388.03 730.027 386.574C730.323 385.736 730.619 384.848 730.915 383.91C731.236 382.973 731.532 382.036 731.803 381.098C732.099 380.161 732.358 379.285 732.58 378.471C732.827 377.633 733.037 376.893 733.209 376.251V375.511ZM777.054 390.348H791.336V392.864H777.054V390.348ZM765.288 383.54H775.167V386.13H765.288V383.54ZM765.288 390.644H775.5V393.234H765.288V390.644ZM780.458 375.474H789.116V377.916H780.458V375.474ZM790.781 390.348H791.299L791.817 390.237L793.593 390.94C792.681 394.098 791.336 396.811 789.56 399.08C787.809 401.325 785.749 403.175 783.381 404.63C781.013 406.086 778.46 407.22 775.722 408.034C775.624 407.788 775.488 407.504 775.315 407.183C775.143 406.887 774.958 406.591 774.76 406.295C774.563 406.024 774.378 405.79 774.205 405.592C776.721 404.951 779.089 403.977 781.309 402.669C783.554 401.362 785.503 399.722 787.155 397.748C788.808 395.775 790.017 393.469 790.781 390.829V390.348ZM781.013 392.716C782.197 395.874 784.023 398.562 786.489 400.782C788.981 402.978 791.99 404.544 795.517 405.481C795.32 405.679 795.098 405.913 794.851 406.184C794.629 406.48 794.42 406.776 794.222 407.072C794.025 407.393 793.852 407.677 793.704 407.923C790.029 406.789 786.921 404.988 784.38 402.521C781.864 400.03 779.928 396.996 778.571 393.419L781.013 392.716ZM763.993 376.732L766.657 377.583V407.923H763.993V376.732ZM760.959 399.783C762.242 399.586 763.722 399.352 765.399 399.08C767.101 398.809 768.902 398.513 770.801 398.192C772.701 397.872 774.588 397.551 776.462 397.23L776.573 399.783C774.797 400.104 772.997 400.437 771.171 400.782C769.346 401.103 767.607 401.411 765.954 401.707C764.302 402.003 762.797 402.275 761.44 402.521L760.959 399.783ZM779.163 375.474H781.753V380.802C781.753 381.789 781.642 382.837 781.42 383.947C781.198 385.057 780.767 386.118 780.125 387.129C779.484 388.141 778.534 389.041 777.276 389.83C777.153 389.633 776.98 389.411 776.758 389.164C776.536 388.918 776.29 388.683 776.018 388.461C775.772 388.215 775.55 388.042 775.352 387.943C776.487 387.253 777.326 386.513 777.868 385.723C778.411 384.909 778.756 384.083 778.904 383.244C779.077 382.381 779.163 381.542 779.163 380.728V375.474ZM774.316 373.957L776.684 375.918C775.673 376.412 774.538 376.88 773.28 377.324C772.022 377.768 770.727 378.175 769.395 378.545C768.063 378.915 766.768 379.248 765.51 379.544C765.436 379.248 765.301 378.891 765.103 378.471C764.931 378.052 764.758 377.707 764.585 377.435C765.769 377.139 766.966 376.806 768.174 376.436C769.383 376.042 770.518 375.635 771.578 375.215C772.664 374.796 773.576 374.377 774.316 373.957ZM787.599 375.474H790.226V384.613C790.226 384.959 790.239 385.242 790.263 385.464C790.288 385.662 790.337 385.797 790.411 385.871C790.535 385.945 790.732 385.982 791.003 385.982C791.127 385.982 791.287 385.982 791.484 385.982C791.706 385.982 791.904 385.982 792.076 385.982C792.224 385.982 792.372 385.97 792.52 385.945C792.668 385.921 792.779 385.896 792.853 385.871C793.026 385.773 793.162 385.489 793.26 385.02C793.285 384.749 793.31 384.342 793.334 383.799C793.359 383.232 793.384 382.578 793.408 381.838C793.655 382.06 793.976 382.27 794.37 382.467C794.79 382.665 795.184 382.825 795.554 382.948C795.505 383.664 795.443 384.391 795.369 385.131C795.32 385.847 795.246 386.352 795.147 386.648C794.95 387.24 794.58 387.66 794.037 387.906C793.84 388.03 793.569 388.116 793.223 388.165C792.903 388.215 792.594 388.239 792.298 388.239C792.052 388.239 791.719 388.239 791.299 388.239C790.905 388.239 790.609 388.239 790.411 388.239C790.066 388.239 789.696 388.19 789.301 388.091C788.907 387.993 788.586 387.832 788.339 387.61C788.068 387.364 787.871 387.043 787.747 386.648C787.649 386.229 787.599 385.489 787.599 384.428V375.474Z" fill="black"/>
<path d="M473 424H689V354H473V424Z" fill="white" stroke="black" stroke-width="2" stroke-miterlimit="8"/>
<path d="M496.122 380.247C496.615 380.321 497.158 380.383 497.75 380.432C498.367 380.457 498.86 380.469 499.23 380.469H519.58C520.147 380.469 520.702 380.444 521.245 380.395C521.788 380.346 522.281 380.296 522.725 380.247V383.503C522.256 383.454 521.738 383.417 521.171 383.392C520.628 383.367 520.098 383.355 519.58 383.355H499.23C498.885 383.355 498.391 383.367 497.75 383.392C497.133 383.417 496.591 383.454 496.122 383.503V380.247ZM507.555 401.966V382.097H510.7V401.966H507.555ZM493.865 400.153C494.408 400.227 494.95 400.289 495.493 400.338C496.06 400.363 496.603 400.375 497.121 400.375H521.578C522.145 400.375 522.676 400.35 523.169 400.301C523.687 400.252 524.18 400.202 524.649 400.153V403.52C524.156 403.471 523.613 403.434 523.021 403.409C522.429 403.384 521.948 403.372 521.578 403.372H497.121C496.628 403.372 496.097 403.384 495.53 403.409C494.987 403.434 494.432 403.471 493.865 403.52V400.153ZM535.971 403.816C536.119 403.52 536.218 403.236 536.267 402.965C536.316 402.694 536.341 402.373 536.341 402.003C536.341 401.633 536.341 400.942 536.341 399.931C536.341 398.92 536.341 397.711 536.341 396.305C536.341 394.899 536.341 393.431 536.341 391.902C536.341 390.348 536.341 388.843 536.341 387.388C536.341 385.908 536.341 384.601 536.341 383.466C536.341 382.307 536.341 381.431 536.341 380.839C536.341 380.518 536.316 380.136 536.267 379.692C536.242 379.248 536.205 378.829 536.156 378.434C536.131 378.039 536.082 377.719 536.008 377.472H539.671C539.597 377.916 539.535 378.459 539.486 379.1C539.437 379.717 539.412 380.296 539.412 380.839C539.412 381.332 539.412 382.048 539.412 382.985C539.412 383.922 539.412 384.995 539.412 386.204C539.412 387.388 539.412 388.646 539.412 389.978C539.412 391.31 539.412 392.617 539.412 393.9C539.412 395.183 539.412 396.379 539.412 397.489C539.412 398.574 539.412 399.499 539.412 400.264C539.412 401.029 539.412 401.547 539.412 401.818C541.188 401.374 543.013 400.745 544.888 399.931C546.787 399.117 548.637 398.167 550.438 397.082C552.263 395.972 553.965 394.763 555.544 393.456C557.147 392.124 558.516 390.706 559.651 389.201L561.316 391.791C558.923 394.776 555.865 397.39 552.14 399.635C548.44 401.88 544.284 403.668 539.671 405C539.474 405.049 539.239 405.123 538.968 405.222C538.697 405.345 538.413 405.493 538.117 405.666L535.971 403.816ZM590.324 379.914C590.645 380.358 591.015 380.925 591.434 381.616C591.878 382.307 592.31 383.022 592.729 383.762C593.173 384.502 593.543 385.168 593.839 385.76L591.656 386.759C591.335 386.093 590.99 385.415 590.62 384.724C590.25 384.033 589.855 383.355 589.436 382.689C589.041 381.998 588.634 381.369 588.215 380.802L590.324 379.914ZM595.06 378.027C595.405 378.446 595.8 379.001 596.244 379.692C596.688 380.383 597.132 381.098 597.576 381.838C598.02 382.578 598.39 383.232 598.686 383.799L596.54 384.835C596.244 384.169 595.899 383.503 595.504 382.837C595.109 382.146 594.69 381.468 594.246 380.802C593.827 380.136 593.407 379.532 592.988 378.989L595.06 378.027ZM566.718 395.269C567.211 394.85 567.643 394.455 568.013 394.085C568.408 393.715 568.852 393.283 569.345 392.79C569.789 392.346 570.295 391.779 570.862 391.088C571.454 390.397 572.083 389.657 572.749 388.868C573.44 388.054 574.118 387.24 574.784 386.426C575.45 385.587 576.067 384.835 576.634 384.169C577.621 383.01 578.595 382.368 579.557 382.245C580.519 382.097 581.629 382.615 582.887 383.799C583.652 384.49 584.478 385.304 585.366 386.241C586.279 387.154 587.179 388.079 588.067 389.016C588.955 389.953 589.757 390.804 590.472 391.569C591.311 392.432 592.248 393.431 593.284 394.566C594.32 395.676 595.381 396.823 596.466 398.007C597.551 399.166 598.563 400.252 599.5 401.263L596.947 403.964C596.084 402.903 595.159 401.806 594.172 400.671C593.21 399.512 592.248 398.389 591.286 397.304C590.349 396.194 589.485 395.195 588.696 394.307C588.153 393.69 587.549 393.024 586.883 392.309C586.217 391.594 585.551 390.878 584.885 390.163C584.219 389.448 583.59 388.782 582.998 388.165C582.431 387.548 581.95 387.055 581.555 386.685C580.84 385.994 580.248 385.674 579.779 385.723C579.335 385.772 578.792 386.179 578.151 386.944C577.707 387.487 577.201 388.128 576.634 388.868C576.067 389.583 575.475 390.336 574.858 391.125C574.241 391.914 573.649 392.667 573.082 393.382C572.515 394.097 572.021 394.714 571.602 395.232C571.232 395.701 570.85 396.194 570.455 396.712C570.085 397.23 569.764 397.686 569.493 398.081L566.718 395.269ZM605.531 388.979C605.901 389.004 606.357 389.041 606.9 389.09C607.443 389.115 608.035 389.139 608.676 389.164C609.342 389.164 610.008 389.164 610.674 389.164C611.069 389.164 611.673 389.164 612.487 389.164C613.326 389.164 614.3 389.164 615.41 389.164C616.52 389.164 617.692 389.164 618.925 389.164C620.183 389.164 621.429 389.164 622.662 389.164C623.92 389.164 625.104 389.164 626.214 389.164C627.349 389.164 628.323 389.164 629.137 389.164C629.951 389.164 630.555 389.164 630.95 389.164C631.887 389.164 632.689 389.139 633.355 389.09C634.021 389.041 634.551 389.004 634.946 388.979V392.605C634.576 392.58 634.021 392.543 633.281 392.494C632.566 392.445 631.801 392.42 630.987 392.42C630.592 392.42 629.976 392.42 629.137 392.42C628.298 392.42 627.324 392.42 626.214 392.42C625.129 392.42 623.957 392.42 622.699 392.42C621.441 392.42 620.183 392.42 618.925 392.42C617.692 392.42 616.52 392.42 615.41 392.42C614.325 392.42 613.363 392.42 612.524 392.42C611.685 392.42 611.069 392.42 610.674 392.42C609.663 392.42 608.701 392.445 607.788 392.494C606.875 392.519 606.123 392.556 605.531 392.605V388.979ZM654.112 388.054C655.296 388.745 656.542 389.509 657.849 390.348C659.156 391.187 660.451 392.062 661.734 392.975C663.041 393.863 664.287 394.739 665.471 395.602C666.655 396.465 667.703 397.279 668.616 398.044L666.433 400.597C665.594 399.832 664.583 398.994 663.399 398.081C662.24 397.144 661.006 396.206 659.699 395.269C658.392 394.307 657.084 393.382 655.777 392.494C654.47 391.606 653.249 390.804 652.114 390.089L654.112 388.054ZM671.058 381.283C670.885 381.554 670.725 381.887 670.577 382.282C670.429 382.652 670.293 382.985 670.17 383.281C669.825 384.539 669.331 385.896 668.69 387.351C668.049 388.806 667.296 390.274 666.433 391.754C665.57 393.209 664.583 394.615 663.473 395.972C661.82 398.019 659.748 399.993 657.257 401.892C654.79 403.767 651.806 405.345 648.303 406.628L645.639 404.334C647.933 403.619 650.017 402.743 651.892 401.707C653.791 400.646 655.493 399.487 656.998 398.229C658.503 396.971 659.81 395.676 660.92 394.344C661.882 393.209 662.758 391.964 663.547 390.607C664.361 389.25 665.064 387.906 665.656 386.574C666.248 385.217 666.68 383.959 666.951 382.8H653.224L654.408 380.173H666.174C666.667 380.173 667.124 380.148 667.543 380.099C667.962 380.025 668.32 379.926 668.616 379.803L671.058 381.283ZM658.589 375.955C658.268 376.448 657.96 376.966 657.664 377.509C657.368 378.052 657.121 378.496 656.924 378.841C656.184 380.198 655.222 381.69 654.038 383.318C652.879 384.921 651.51 386.525 649.931 388.128C648.377 389.731 646.613 391.224 644.64 392.605L642.161 390.681C644.282 389.374 646.12 387.931 647.674 386.352C649.228 384.773 650.535 383.232 651.596 381.727C652.657 380.222 653.471 378.915 654.038 377.805C654.235 377.484 654.457 377.04 654.704 376.473C654.951 375.881 655.123 375.351 655.222 374.882L658.589 375.955Z" fill="black"/>
<path d="M1007 312H971.844" stroke="black" stroke-width="2" stroke-miterlimit="8"/>
<path d="M972 269L473.304 228.805" stroke="black" stroke-width="2" stroke-miterlimit="8"/>
<path d="M970 312V270.452" stroke="black" stroke-width="2" stroke-miterlimit="8"/>
<path d="M865 258.861L865 303" stroke="black" stroke-width="2" stroke-miterlimit="8"/>
<path d="M865 302H645.257" stroke="black" stroke-width="2" stroke-miterlimit="8"/>
<path d="M892 457H471.872" stroke="black" stroke-width="2" stroke-miterlimit="8"/>
<path d="M39 459H473V291H39V459Z" fill="#FFE661" stroke="black" stroke-width="2" stroke-miterlimit="8"/>
<path d="M223.825 391V364.091H239.96V366.982H227.084V376.074H238.752V378.964H227.084V391H223.825ZM253.688 391.368C251.883 391.368 250.289 391.048 248.905 390.409C247.53 389.761 246.457 388.871 245.686 387.741C244.915 386.603 244.534 385.306 244.543 383.852C244.534 382.714 244.757 381.662 245.213 380.699C245.668 379.727 246.29 378.916 247.079 378.268C247.876 377.611 248.765 377.195 249.746 377.02V376.862C248.458 376.529 247.433 375.807 246.671 374.694C245.909 373.573 245.532 372.299 245.541 370.871C245.532 369.504 245.878 368.282 246.579 367.205C247.28 366.127 248.244 365.278 249.47 364.656C250.705 364.034 252.111 363.723 253.688 363.723C255.247 363.723 256.639 364.034 257.866 364.656C259.092 365.278 260.056 366.127 260.756 367.205C261.466 368.282 261.825 369.504 261.834 370.871C261.825 372.299 261.435 373.573 260.664 374.694C259.902 375.807 258.891 376.529 257.629 376.862V377.02C258.602 377.195 259.478 377.611 260.257 378.268C261.037 378.916 261.659 379.727 262.123 380.699C262.587 381.662 262.824 382.714 262.832 383.852C262.824 385.306 262.429 386.603 261.65 387.741C260.879 388.871 259.806 389.761 258.431 390.409C257.064 391.048 255.483 391.368 253.688 391.368ZM253.688 388.477C254.905 388.477 255.956 388.28 256.841 387.886C257.726 387.492 258.409 386.936 258.891 386.217C259.372 385.499 259.618 384.658 259.626 383.695C259.618 382.679 259.355 381.781 258.838 381.001C258.321 380.221 257.616 379.608 256.723 379.162C255.838 378.715 254.826 378.491 253.688 378.491C252.54 378.491 251.515 378.715 250.613 379.162C249.72 379.608 249.014 380.221 248.498 381.001C247.99 381.781 247.74 382.679 247.749 383.695C247.74 384.658 247.972 385.499 248.445 386.217C248.927 386.936 249.614 387.492 250.508 387.886C251.401 388.28 252.461 388.477 253.688 388.477ZM253.688 375.706C254.651 375.706 255.505 375.513 256.25 375.128C257.003 374.742 257.594 374.204 258.023 373.512C258.453 372.82 258.672 372.009 258.68 371.081C258.672 370.17 258.457 369.377 258.037 368.703C257.616 368.02 257.034 367.494 256.289 367.126C255.545 366.749 254.677 366.561 253.688 366.561C252.68 366.561 251.8 366.749 251.047 367.126C250.293 367.494 249.711 368.02 249.299 368.703C248.887 369.377 248.686 370.17 248.695 371.081C248.686 372.009 248.892 372.82 249.312 373.512C249.741 374.204 250.333 374.742 251.086 375.128C251.839 375.513 252.706 375.706 253.688 375.706ZM276.803 391.368C275.699 391.35 274.595 391.14 273.492 390.737C272.388 390.334 271.381 389.655 270.47 388.701C269.559 387.737 268.827 386.436 268.275 384.798C267.723 383.152 267.448 381.084 267.448 378.597C267.448 376.214 267.671 374.103 268.118 372.263C268.564 370.415 269.213 368.86 270.062 367.599C270.912 366.329 271.937 365.365 273.137 364.708C274.346 364.051 275.708 363.723 277.223 363.723C278.73 363.723 280.07 364.025 281.244 364.63C282.426 365.225 283.39 366.057 284.134 367.126C284.879 368.195 285.361 369.425 285.58 370.818H282.374C282.076 369.609 281.498 368.606 280.639 367.809C279.781 367.012 278.642 366.614 277.223 366.614C275.138 366.614 273.496 367.52 272.296 369.333C271.105 371.147 270.505 373.691 270.496 376.967H270.706C271.197 376.223 271.779 375.588 272.454 375.062C273.137 374.528 273.89 374.116 274.714 373.827C275.537 373.538 276.409 373.393 277.328 373.393C278.87 373.393 280.28 373.779 281.559 374.55C282.838 375.312 283.863 376.367 284.634 377.716C285.404 379.056 285.79 380.594 285.79 382.328C285.79 383.992 285.418 385.517 284.673 386.901C283.929 388.276 282.882 389.371 281.533 390.185C280.193 390.991 278.616 391.385 276.803 391.368ZM276.803 388.477C277.906 388.477 278.896 388.201 279.772 387.65C280.657 387.098 281.353 386.357 281.861 385.429C282.378 384.5 282.636 383.467 282.636 382.328C282.636 381.216 282.387 380.204 281.888 379.293C281.397 378.373 280.718 377.642 279.851 377.099C278.993 376.556 278.011 376.284 276.908 376.284C276.076 376.284 275.3 376.451 274.582 376.783C273.864 377.107 273.233 377.554 272.69 378.124C272.156 378.693 271.735 379.346 271.429 380.081C271.122 380.808 270.969 381.575 270.969 382.381C270.969 383.449 271.219 384.448 271.718 385.376C272.226 386.305 272.918 387.054 273.794 387.623C274.679 388.193 275.681 388.477 276.803 388.477Z" fill="black"/>
<path d="M476 229H107.34" stroke="black" stroke-width="2" stroke-miterlimit="8"/>
<path d="M39 225.921L38.9999 350" stroke="black" stroke-width="2" stroke-miterlimit="8"/>
<path d="M829 527V416.936" stroke="black" stroke-width="2" stroke-miterlimit="8"/>
<path d="M645 301V243.43" stroke="black" stroke-width="2" stroke-miterlimit="8"/>
<path d="M40 292H142V228H40V292Z" fill="white" stroke="black" stroke-width="2" stroke-miterlimit="8"/>
<path d="M71.0931 250.878H78.1231V253.135H71.0931V250.878ZM71.8701 270.192H86.7071V272.449H71.8701V270.192ZM71.7961 276.149H87.1511V278.517H71.7961V276.149ZM69.8351 246.364H72.3511V260.054H69.8351V246.364ZM67.4301 259.647C68.8361 259.376 70.5134 259.018 72.4621 258.574C74.4354 258.13 76.4334 257.674 78.4561 257.205L78.6781 259.351C76.8528 259.82 75.0151 260.288 73.1651 260.757C71.3398 261.226 69.6748 261.645 68.1701 262.015L67.4301 259.647ZM79.7141 246.364H82.2671V257.945C82.2671 258.414 82.3288 258.722 82.4521 258.87C82.6001 258.993 82.9331 259.055 83.4511 259.055C83.5991 259.055 83.8334 259.055 84.1541 259.055C84.4748 259.055 84.8324 259.055 85.2271 259.055C85.6218 259.055 85.9794 259.055 86.3001 259.055C86.6454 259.055 86.9044 259.055 87.0771 259.055C87.3978 259.055 87.6321 258.981 87.7801 258.833C87.9281 258.66 88.0268 258.315 88.0761 257.797C88.1501 257.279 88.1994 256.527 88.2241 255.54C88.5201 255.762 88.8901 255.972 89.3341 256.169C89.7781 256.342 90.1851 256.465 90.5551 256.539C90.4811 257.822 90.3331 258.821 90.1111 259.536C89.8891 260.251 89.5561 260.745 89.1121 261.016C88.6928 261.287 88.1008 261.423 87.3361 261.423C87.2128 261.423 86.9538 261.423 86.5591 261.423C86.1644 261.423 85.7204 261.423 85.2271 261.423C84.7584 261.423 84.3268 261.423 83.9321 261.423C83.5621 261.423 83.3031 261.423 83.1551 261.423C82.2424 261.423 81.5271 261.324 81.0091 261.127C80.5158 260.93 80.1704 260.584 79.9731 260.091C79.8004 259.573 79.7141 258.858 79.7141 257.945V246.364ZM87.8171 248.695L89.7781 250.545C88.6434 251.26 87.3238 251.951 85.8191 252.617C84.3391 253.258 82.9084 253.838 81.5271 254.356C81.4778 254.085 81.3668 253.776 81.1941 253.431C81.0214 253.086 80.8611 252.777 80.7131 252.506C81.5764 252.136 82.4521 251.741 83.3401 251.322C84.2281 250.903 85.0544 250.471 85.8191 250.027C86.6084 249.558 87.2744 249.114 87.8171 248.695ZM77.1981 260.609L80.0101 261.201C79.6894 262.04 79.3564 262.878 79.0111 263.717C78.6904 264.556 78.3821 265.283 78.0861 265.9L75.6811 265.308C75.9524 264.667 76.2361 263.902 76.5321 263.014C76.8528 262.101 77.0748 261.3 77.1981 260.609ZM70.5011 264.346H88.4831V279.738H85.7821V266.714H73.0911V279.886H70.5011V264.346ZM57.9211 247.511H66.2091V250.027H60.4001V279.96H57.9211V247.511ZM65.3581 247.511H65.8391L66.2461 247.363L68.0591 248.473C67.7384 249.484 67.3808 250.557 66.9861 251.692C66.6161 252.802 66.2214 253.924 65.8021 255.059C65.4074 256.194 65.0128 257.267 64.6181 258.278C65.8761 259.807 66.7024 261.238 67.0971 262.57C67.4918 263.902 67.6891 265.135 67.6891 266.27C67.7138 267.232 67.6151 268.095 67.3931 268.86C67.1711 269.6 66.8011 270.155 66.2831 270.525C66.0611 270.698 65.7898 270.833 65.4691 270.932C65.1731 271.031 64.8401 271.117 64.4701 271.191C64.1248 271.216 63.7424 271.24 63.3231 271.265C62.9284 271.265 62.5338 271.253 62.1391 271.228C62.1144 270.883 62.0404 270.488 61.9171 270.044C61.8184 269.575 61.6704 269.156 61.4731 268.786C61.8678 268.811 62.2254 268.835 62.5461 268.86C62.8668 268.86 63.1504 268.848 63.3971 268.823C63.8904 268.823 64.2728 268.724 64.5441 268.527C64.7908 268.33 64.9634 267.997 65.0621 267.528C65.1854 267.035 65.2471 266.517 65.2471 265.974C65.2224 264.963 65.0128 263.84 64.6181 262.607C64.2234 261.374 63.4094 260.029 62.1761 258.574C62.4721 257.735 62.7681 256.847 63.0641 255.91C63.3848 254.973 63.6808 254.035 63.9521 253.098C64.2481 252.161 64.5071 251.285 64.7291 250.471C64.9758 249.632 65.1854 248.892 65.3581 248.251V247.511ZM109.203 262.348H123.485V264.864H109.203V262.348ZM97.4371 255.54H107.316V258.13H97.4371V255.54ZM97.4371 262.644H107.649V265.234H97.4371V262.644ZM112.607 247.474H121.265V249.916H112.607V247.474ZM122.93 262.348H123.448L123.966 262.237L125.742 262.94C124.829 266.097 123.485 268.811 121.709 271.08C119.958 273.325 117.898 275.175 115.53 276.63C113.162 278.085 110.609 279.22 107.871 280.034C107.772 279.787 107.637 279.504 107.464 279.183C107.291 278.887 107.106 278.591 106.909 278.295C106.712 278.024 106.527 277.789 106.354 277.592C108.87 276.951 111.238 275.976 113.458 274.669C115.703 273.362 117.651 271.721 119.304 269.748C120.957 267.775 122.165 265.468 122.93 262.829V262.348ZM113.162 264.716C114.346 267.873 116.171 270.562 118.638 272.782C121.129 274.977 124.139 276.544 127.666 277.481C127.469 277.678 127.247 277.913 127 278.184C126.778 278.48 126.568 278.776 126.371 279.072C126.174 279.393 126.001 279.676 125.853 279.923C122.178 278.788 119.07 276.988 116.529 274.521C114.013 272.03 112.077 268.996 110.72 265.419L113.162 264.716ZM96.1421 248.732L98.8061 249.583V279.923H96.1421V248.732ZM93.1081 271.783C94.3908 271.586 95.8708 271.351 97.5481 271.08C99.2501 270.809 101.051 270.513 102.95 270.192C104.849 269.871 106.736 269.551 108.611 269.23L108.722 271.783C106.946 272.104 105.145 272.437 103.32 272.782C101.495 273.103 99.7558 273.411 98.1031 273.707C96.4504 274.003 94.9458 274.274 93.5891 274.521L93.1081 271.783ZM111.312 247.474H113.902V252.802C113.902 253.789 113.791 254.837 113.569 255.947C113.347 257.057 112.915 258.118 112.274 259.129C111.633 260.14 110.683 261.041 109.425 261.83C109.302 261.633 109.129 261.411 108.907 261.164C108.685 260.917 108.438 260.683 108.167 260.461C107.92 260.214 107.698 260.042 107.501 259.943C108.636 259.252 109.474 258.512 110.017 257.723C110.56 256.909 110.905 256.083 111.053 255.244C111.226 254.381 111.312 253.542 111.312 252.728V247.474ZM106.465 245.957L108.833 247.918C107.822 248.411 106.687 248.88 105.429 249.324C104.171 249.768 102.876 250.175 101.544 250.545C100.212 250.915 98.9171 251.248 97.6591 251.544C97.5851 251.248 97.4494 250.89 97.2521 250.471C97.0794 250.052 96.9068 249.706 96.7341 249.435C97.9181 249.139 99.1144 248.806 100.323 248.436C101.532 248.041 102.666 247.634 103.727 247.215C104.812 246.796 105.725 246.376 106.465 245.957ZM119.748 247.474H122.375V256.613C122.375 256.958 122.387 257.242 122.412 257.464C122.437 257.661 122.486 257.797 122.56 257.871C122.683 257.945 122.881 257.982 123.152 257.982C123.275 257.982 123.436 257.982 123.633 257.982C123.855 257.982 124.052 257.982 124.225 257.982C124.373 257.982 124.521 257.97 124.669 257.945C124.817 257.92 124.928 257.896 125.002 257.871C125.175 257.772 125.31 257.489 125.409 257.02C125.434 256.749 125.458 256.342 125.483 255.799C125.508 255.232 125.532 254.578 125.557 253.838C125.804 254.06 126.124 254.27 126.519 254.467C126.938 254.664 127.333 254.825 127.703 254.948C127.654 255.663 127.592 256.391 127.518 257.131C127.469 257.846 127.395 258.352 127.296 258.648C127.099 259.24 126.729 259.659 126.186 259.906C125.989 260.029 125.717 260.116 125.372 260.165C125.051 260.214 124.743 260.239 124.447 260.239C124.2 260.239 123.867 260.239 123.448 260.239C123.053 260.239 122.757 260.239 122.56 260.239C122.215 260.239 121.845 260.19 121.45 260.091C121.055 259.992 120.735 259.832 120.488 259.61C120.217 259.363 120.019 259.043 119.896 258.648C119.797 258.229 119.748 257.489 119.748 256.428V247.474Z" fill="black"/>
<path d="M708.027 285.744C708.027 285.399 708.027 284.708 708.027 283.672C708.027 282.611 708.027 281.366 708.027 279.935C708.027 278.48 708.027 276.963 708.027 275.384C708.027 273.781 708.027 272.227 708.027 270.722C708.027 269.217 708.027 267.885 708.027 266.726C708.027 265.567 708.027 264.728 708.027 264.21C708.027 263.692 708.002 263.063 707.953 262.323C707.904 261.583 707.83 260.929 707.731 260.362H711.357C711.308 260.905 711.246 261.546 711.172 262.286C711.123 263.026 711.098 263.667 711.098 264.21C711.098 265.172 711.098 266.331 711.098 267.688C711.098 269.02 711.098 270.451 711.098 271.98C711.098 273.485 711.098 274.989 711.098 276.494C711.123 277.974 711.135 279.368 711.135 280.675C711.135 281.958 711.135 283.055 711.135 283.968C711.135 284.856 711.135 285.448 711.135 285.744C711.135 286.139 711.135 286.595 711.135 287.113C711.16 287.631 711.197 288.161 711.246 288.704C711.295 289.222 711.332 289.691 711.357 290.11H707.768C707.867 289.518 707.928 288.815 707.953 288.001C708.002 287.187 708.027 286.435 708.027 285.744ZM710.469 270.056C711.678 270.426 713.01 270.87 714.465 271.388C715.945 271.881 717.45 272.412 718.979 272.979C720.508 273.546 721.951 274.126 723.308 274.718C724.689 275.285 725.886 275.828 726.897 276.346L725.639 279.491C724.578 278.899 723.382 278.319 722.05 277.752C720.718 277.16 719.349 276.58 717.943 276.013C716.562 275.446 715.217 274.94 713.91 274.496C712.627 274.027 711.48 273.645 710.469 273.349V270.056ZM735.74 275.643C738.947 274.78 741.931 273.731 744.694 272.498C747.457 271.265 749.862 270.007 751.909 268.724C753.192 267.91 754.437 267.034 755.646 266.097C756.879 265.135 758.039 264.136 759.124 263.1C760.209 262.064 761.171 261.04 762.01 260.029L764.489 262.323C763.453 263.433 762.331 264.518 761.122 265.579C759.913 266.64 758.631 267.663 757.274 268.65C755.942 269.612 754.548 270.549 753.093 271.462C751.736 272.276 750.207 273.115 748.505 273.978C746.803 274.841 744.99 275.655 743.066 276.42C741.142 277.185 739.193 277.888 737.22 278.529L735.74 275.643ZM751.317 270.278L754.499 269.316V286.188C754.499 286.657 754.499 287.15 754.499 287.668C754.524 288.186 754.548 288.667 754.573 289.111C754.622 289.555 754.672 289.9 754.721 290.147H751.095C751.12 289.9 751.144 289.555 751.169 289.111C751.218 288.667 751.255 288.186 751.28 287.668C751.305 287.15 751.317 286.657 751.317 286.188V270.278ZM777.772 287.816C777.92 287.52 778.019 287.236 778.068 286.965C778.117 286.694 778.142 286.373 778.142 286.003C778.142 285.633 778.142 284.942 778.142 283.931C778.142 282.92 778.142 281.711 778.142 280.305C778.142 278.899 778.142 277.431 778.142 275.902C778.142 274.348 778.142 272.843 778.142 271.388C778.142 269.908 778.142 268.601 778.142 267.466C778.142 266.307 778.142 265.431 778.142 264.839C778.142 264.518 778.117 264.136 778.068 263.692C778.043 263.248 778.006 262.829 777.957 262.434C777.932 262.039 777.883 261.719 777.809 261.472H781.472C781.398 261.916 781.336 262.459 781.287 263.1C781.238 263.717 781.213 264.296 781.213 264.839C781.213 265.332 781.213 266.048 781.213 266.985C781.213 267.922 781.213 268.995 781.213 270.204C781.213 271.388 781.213 272.646 781.213 273.978C781.213 275.31 781.213 276.617 781.213 277.9C781.213 279.183 781.213 280.379 781.213 281.489C781.213 282.574 781.213 283.499 781.213 284.264C781.213 285.029 781.213 285.547 781.213 285.818C782.989 285.374 784.814 284.745 786.689 283.931C788.588 283.117 790.438 282.167 792.239 281.082C794.064 279.972 795.766 278.763 797.345 277.456C798.948 276.124 800.317 274.706 801.452 273.201L803.117 275.791C800.724 278.776 797.666 281.39 793.941 283.635C790.241 285.88 786.085 287.668 781.472 289C781.275 289.049 781.04 289.123 780.769 289.222C780.498 289.345 780.214 289.493 779.918 289.666L777.772 287.816Z" fill="black"/>
<path d="M829 527H997V354H829V527Z" fill="white" stroke="black" stroke-width="2" stroke-miterlimit="8"/>
<path d="M881.305 457V430.091H897.44V432.982H884.564V442.074H896.232V444.964H884.564V457H881.305ZM911.168 457.368C909.363 457.368 907.769 457.048 906.385 456.409C905.01 455.761 903.937 454.871 903.166 453.741C902.395 452.603 902.014 451.306 902.023 449.852C902.014 448.714 902.237 447.662 902.693 446.699C903.148 445.727 903.77 444.916 904.559 444.268C905.356 443.611 906.245 443.195 907.226 443.02V442.862C905.938 442.529 904.913 441.807 904.151 440.694C903.389 439.573 903.012 438.299 903.021 436.871C903.012 435.504 903.358 434.282 904.059 433.205C904.76 432.127 905.724 431.278 906.95 430.656C908.185 430.034 909.591 429.723 911.168 429.723C912.727 429.723 914.119 430.034 915.346 430.656C916.572 431.278 917.536 432.127 918.236 433.205C918.946 434.282 919.305 435.504 919.314 436.871C919.305 438.299 918.915 439.573 918.144 440.694C917.382 441.807 916.371 442.529 915.109 442.862V443.02C916.082 443.195 916.958 443.611 917.737 444.268C918.517 444.916 919.139 445.727 919.603 446.699C920.067 447.662 920.304 448.714 920.312 449.852C920.304 451.306 919.909 452.603 919.13 453.741C918.359 454.871 917.286 455.761 915.911 456.409C914.544 457.048 912.963 457.368 911.168 457.368ZM911.168 454.477C912.385 454.477 913.436 454.28 914.321 453.886C915.206 453.492 915.889 452.936 916.371 452.217C916.852 451.499 917.098 450.658 917.106 449.695C917.098 448.679 916.835 447.781 916.318 447.001C915.801 446.221 915.096 445.608 914.203 445.162C913.318 444.715 912.306 444.491 911.168 444.491C910.02 444.491 908.995 444.715 908.093 445.162C907.199 445.608 906.494 446.221 905.978 447.001C905.469 447.781 905.22 448.679 905.229 449.695C905.22 450.658 905.452 451.499 905.925 452.217C906.407 452.936 907.094 453.492 907.988 453.886C908.881 454.28 909.941 454.477 911.168 454.477ZM911.168 441.706C912.131 441.706 912.985 441.513 913.73 441.128C914.483 440.742 915.074 440.204 915.503 439.512C915.933 438.82 916.152 438.009 916.16 437.081C916.152 436.17 915.937 435.377 915.517 434.703C915.096 434.02 914.514 433.494 913.769 433.126C913.025 432.749 912.157 432.561 911.168 432.561C910.16 432.561 909.28 432.749 908.527 433.126C907.773 433.494 907.191 434.02 906.779 434.703C906.367 435.377 906.166 436.17 906.175 437.081C906.166 438.009 906.372 438.82 906.792 439.512C907.221 440.204 907.813 440.742 908.566 441.128C909.319 441.513 910.186 441.706 911.168 441.706ZM925.348 457V454.635L934.23 444.912C935.272 443.773 936.131 442.783 936.805 441.942C937.48 441.093 937.979 440.296 938.303 439.551C938.636 438.798 938.803 438.009 938.803 437.186C938.803 436.24 938.575 435.421 938.119 434.729C937.673 434.037 937.059 433.503 936.28 433.126C935.5 432.749 934.624 432.561 933.652 432.561C932.618 432.561 931.716 432.776 930.945 433.205C930.183 433.625 929.592 434.217 929.172 434.979C928.76 435.741 928.554 436.634 928.554 437.659H925.453C925.453 436.082 925.817 434.698 926.544 433.507C927.271 432.316 928.261 431.387 929.513 430.722C930.775 430.056 932.189 429.723 933.757 429.723C935.334 429.723 936.731 430.056 937.949 430.722C939.166 431.387 940.121 432.285 940.813 433.415C941.505 434.545 941.851 435.802 941.851 437.186C941.851 438.176 941.671 439.144 941.312 440.09C940.962 441.027 940.349 442.074 939.473 443.23C938.605 444.378 937.401 445.779 935.859 447.435L929.815 453.899V454.109H942.324V457H925.348Z" fill="black"/>
</g>
</g>
<defs>
<clipPath id="clip0_14_299">
<rect width="1280" height="720" fill="white" transform="matrix(-1 0 0 -1 1280 720)"/>
</clipPath>
</defs>
</svg>
